<svg width="36" height="36" viewBox="0 0 36 36" fill="none" xmlns="http://www.w3.org/2000/svg">
<rect width="36" height="36" rx="8" fill="#2E63EA"/>
<path d="M26.3337 18.0003C26.3337 13.4087 22.592 9.66699 18.0003 9.66699C13.4087 9.66699 9.66699 13.4087 9.66699 18.0003C9.66699 20.417 10.7087 22.592 12.3587 24.117C12.3587 24.1253 12.3587 24.1253 12.3503 24.1337C12.4337 24.217 12.5337 24.2837 12.617 24.3587C12.667 24.4003 12.7087 24.442 12.7587 24.4753C12.9087 24.6003 13.0753 24.717 13.2337 24.8337C13.292 24.8753 13.342 24.9087 13.4003 24.9503C13.5587 25.0587 13.7253 25.1587 13.9003 25.2503C13.9587 25.2837 14.0253 25.3253 14.0837 25.3587C14.2503 25.4503 14.4253 25.5337 14.6087 25.6087C14.6753 25.642 14.742 25.6753 14.8087 25.7003C14.992 25.7753 15.1753 25.842 15.3587 25.9003C15.4253 25.9253 15.492 25.9503 15.5587 25.967C15.7587 26.0253 15.9587 26.0753 16.1587 26.1253C16.217 26.142 16.2753 26.1587 16.342 26.167C16.5753 26.217 16.8087 26.2503 17.0503 26.2753C17.0837 26.2753 17.117 26.2837 17.1503 26.292C17.4337 26.317 17.717 26.3337 18.0003 26.3337C18.2837 26.3337 18.567 26.317 18.842 26.292C18.8753 26.292 18.9087 26.2837 18.942 26.2753C19.1837 26.2503 19.417 26.217 19.6503 26.167C19.7087 26.1587 19.767 26.1337 19.8337 26.1253C20.0337 26.0753 20.242 26.0337 20.4337 25.967C20.5003 25.942 20.567 25.917 20.6337 25.9003C20.817 25.8337 21.0087 25.7753 21.1837 25.7003C21.2503 25.6753 21.317 25.642 21.3837 25.6087C21.5587 25.5337 21.7337 25.4503 21.9087 25.3587C21.9753 25.3253 22.0337 25.2837 22.092 25.2503C22.2587 25.1503 22.4253 25.0587 22.592 24.9503C22.6503 24.917 22.7003 24.8753 22.7587 24.8337C22.9253 24.717 23.0837 24.6003 23.2337 24.4753C23.2837 24.4337 23.3253 24.392 23.3753 24.3587C23.467 24.2837 23.5587 24.2087 23.642 24.1337C23.642 24.1253 23.642 24.1253 23.6337 24.117C25.292 22.592 26.3337 20.417 26.3337 18.0003ZM22.117 22.142C19.8587 20.6253 16.1587 20.6253 13.8837 22.142C13.517 22.3837 13.217 22.667 12.967 22.9753C11.7003 21.692 10.917 19.9337 10.917 18.0003C10.917 14.092 14.092 10.917 18.0003 10.917C21.9087 10.917 25.0837 14.092 25.0837 18.0003C25.0837 19.9337 24.3003 21.692 23.0337 22.9753C22.792 22.667 22.4837 22.3837 22.117 22.142Z" fill="white"/>
<path d="M18 13.7754C16.275 13.7754 14.875 15.1754 14.875 16.9004C14.875 18.5921 16.2 19.9671 17.9583 20.0171C17.9833 20.0171 18.0167 20.0171 18.0333 20.0171C18.05 20.0171 18.075 20.0171 18.0917 20.0171C18.1 20.0171 18.1083 20.0171 18.1083 20.0171C19.7917 19.9587 21.1167 18.5921 21.125 16.9004C21.125 15.1754 19.725 13.7754 18 13.7754Z" fill="white"/>
</svg>
