<svg width="36" height="36" viewBox="0 0 36 36" fill="none" xmlns="http://www.w3.org/2000/svg">
<rect width="36" height="36" rx="8" fill="#02C39A"/>
<path d="M25.5003 18.1833C25.5003 13.6083 21.9503 10.5 18.0003 10.5C14.092 10.5 10.5003 13.5417 10.5003 18.2333C10.0003 18.5167 9.66699 19.05 9.66699 19.6667V21.3333C9.66699 22.25 10.417 23 11.3337 23H12.167V17.9167C12.167 14.6917 14.7753 12.0833 18.0003 12.0833C21.2253 12.0833 23.8337 14.6917 23.8337 17.9167V23.8333H17.167V25.5H23.8337C24.7503 25.5 25.5003 24.75 25.5003 23.8333V22.8167C25.992 22.5583 26.3337 22.05 26.3337 21.45V19.5333C26.3337 18.95 25.992 18.4417 25.5003 18.1833Z" fill="white"/>
<path d="M15.5003 19.6667C15.9606 19.6667 16.3337 19.2936 16.3337 18.8333C16.3337 18.3731 15.9606 18 15.5003 18C15.0401 18 14.667 18.3731 14.667 18.8333C14.667 19.2936 15.0401 19.6667 15.5003 19.6667Z" fill="white"/>
<path d="M20.5003 19.6667C20.9606 19.6667 21.3337 19.2936 21.3337 18.8333C21.3337 18.3731 20.9606 18 20.5003 18C20.0401 18 19.667 18.3731 19.667 18.8333C19.667 19.2936 20.0401 19.6667 20.5003 19.6667Z" fill="white"/>
<path d="M23.0004 17.1917C22.6004 14.8167 20.5337 13 18.042 13C15.517 13 12.8004 15.0917 13.017 18.375C15.0754 17.5333 16.6254 15.7 17.067 13.4667C18.1587 15.6583 20.4004 17.1667 23.0004 17.1917Z" fill="white"/>
</svg>
