<svg width="36" height="36" viewBox="0 0 36 36" fill="none" xmlns="http://www.w3.org/2000/svg">
<rect width="36" height="36" rx="8" fill="#02C39A"/>
<path d="M26.3337 14.2913C26.3337 14.8413 25.8837 15.2913 25.3337 15.2913H10.667C10.117 15.2913 9.66699 14.8413 9.66699 14.2913V14.283C9.66699 12.3747 11.2087 10.833 13.117 10.833H22.8753C24.7837 10.833 26.3337 12.383 26.3337 14.2913Z" fill="white"/>
<path d="M9.66699 17.542V21.717C9.66699 23.6253 11.2087 25.167 13.117 25.167H22.8753C24.7837 25.167 26.3337 23.617 26.3337 21.7087V17.542C26.3337 16.992 25.8837 16.542 25.3337 16.542H10.667C10.117 16.542 9.66699 16.992 9.66699 17.542ZM14.667 22.3753H13.0003C12.6587 22.3753 12.3753 22.092 12.3753 21.7503C12.3753 21.4087 12.6587 21.1253 13.0003 21.1253H14.667C15.0087 21.1253 15.292 21.4087 15.292 21.7503C15.292 22.092 15.0087 22.3753 14.667 22.3753ZM20.0837 22.3753H16.7503C16.4087 22.3753 16.1253 22.092 16.1253 21.7503C16.1253 21.4087 16.4087 21.1253 16.7503 21.1253H20.0837C20.4253 21.1253 20.7087 21.4087 20.7087 21.7503C20.7087 22.092 20.4253 22.3753 20.0837 22.3753Z" fill="white"/>
</svg>
