<svg width="319" height="350" viewBox="0 0 319 350" fill="none" xmlns="http://www.w3.org/2000/svg">
<g clip-path="url(#clip0_4056_80839)">
<path d="M174.398 237.787H101.211V294.363H174.398V237.787Z" fill="#EBEBEB"/>
<path d="M155.996 293.941C155.926 293.941 155.785 281.329 155.785 265.758C155.785 250.188 155.855 237.576 155.996 237.576C156.136 237.576 156.207 250.188 156.207 265.758C156.207 281.329 156.136 293.941 155.996 293.941Z" fill="#E0E0E0"/>
<path d="M168.146 281.47H162.527V287.811H168.146V281.47Z" fill="#FAFAFA"/>
<path d="M131.835 237.929H123.547V249.977H131.835V237.929Z" fill="#E0E0E0"/>
<path d="M131.835 282.104H123.547V294.152H131.835V282.104Z" fill="#E0E0E0"/>
<path d="M307.076 223.555H214.855V294.926H307.076V223.555Z" fill="#EBEBEB"/>
<path d="M283.969 294.433C283.898 294.433 283.758 278.51 283.758 258.924C283.758 239.267 283.828 223.414 283.969 223.414C284.039 223.414 284.179 239.337 284.179 258.924C284.179 278.51 284.109 294.433 283.969 294.433Z" fill="#E0E0E0"/>
<path d="M299.281 278.722H292.188V286.754H299.281V278.722Z" fill="#FAFAFA"/>
<path d="M253.485 223.767H243.02V238.985H253.485V223.767Z" fill="#E0E0E0"/>
<path d="M253.485 279.497H243.02V294.715H253.485V279.497Z" fill="#E0E0E0"/>
<path d="M41.0879 225.669C44.8105 223.767 49.2354 223.485 53.3794 224.19C55.627 224.542 57.9448 225.246 59.4197 226.937C60.9649 228.628 61.2459 231.587 59.49 232.996C58.4364 233.842 57.0317 233.983 55.6972 233.983C52.4663 233.912 48.8842 233.349 46.2854 235.322C44.8105 236.449 43.8272 238.281 42.0712 238.844C40.3153 239.408 38.4189 238.351 37.5058 236.801C36.5928 235.251 36.5928 233.278 37.0142 231.517C36.8737 231.446 37.3654 227.642 41.0879 225.669Z" fill="#EBEBEB"/>
<path d="M32.5919 209.112C34.8395 212.353 39.3347 211.296 41.3715 209.323C43.4084 207.35 44.3215 204.462 45.0941 201.643C46.9202 195.373 48.7464 188.75 47.4119 182.338C46.9905 180.436 46.2881 178.534 44.9536 177.054C43.6191 175.645 41.512 174.8 39.6858 175.293C37.4383 175.857 36.0335 178.111 35.0502 180.154C32.1003 186.284 30.555 193.118 30.4848 199.952C30.4146 203.123 30.7658 206.505 32.5919 209.112Z" fill="#EBEBEB"/>
<path d="M26.2689 213.832C28.7272 210.873 29.2189 206.575 28.0951 202.912C26.9713 199.248 24.513 196.078 21.6333 193.471C18.2619 190.441 14.3286 188.116 10.0442 186.637C8.35851 186.073 6.60258 185.58 4.84666 185.721C3.09074 185.862 1.33482 186.777 0.491977 188.398C-0.70205 190.723 0.42174 193.541 1.686 195.866C3.93358 199.953 6.46211 203.828 9.27158 207.491C11.5192 210.451 14.1882 213.339 17.6298 214.678C21.0714 216.017 24.7237 215.876 26.5499 213.41" fill="#EBEBEB"/>
<path d="M32.3789 258.43C32.4491 258.43 32.5194 257.937 32.5896 256.951C32.6599 255.894 32.8003 254.485 33.011 252.864C33.2217 251.173 33.4325 249.13 33.9241 246.946C34.4158 244.762 35.1181 242.366 36.1015 239.9C37.0848 237.505 38.2788 235.321 39.6835 233.559C41.0883 231.798 42.7037 230.53 44.1787 229.825C45.7239 229.05 47.0584 228.768 47.9715 228.627C48.8846 228.557 49.4465 228.487 49.4465 228.416C49.4465 228.346 48.8846 228.346 47.9715 228.416C46.9882 228.487 45.5834 228.698 44.0382 229.473C42.4228 230.178 40.7371 231.446 39.2621 233.278C37.7871 235.039 36.5229 237.294 35.5396 239.759C34.5562 242.225 33.8539 244.621 33.4325 246.875C33.011 249.13 32.8003 251.173 32.6599 252.935C32.5194 254.626 32.4491 256.035 32.4491 257.021C32.3789 257.937 32.3789 258.43 32.3789 258.43Z" fill="#E0E0E0"/>
<path d="M32.66 255.331C32.66 255.331 32.66 255.119 32.7302 254.626C32.7302 254.133 32.7302 253.428 32.7302 252.653C32.7302 250.962 32.7302 248.496 32.8005 245.396C32.9409 239.267 33.5028 232.714 34.4861 223.414C35.4695 214.678 36.7337 204.532 38.0682 197.909C38.3492 196.43 38.6301 195.091 38.9111 193.893C39.192 192.696 39.4027 191.709 39.6134 190.864C39.8241 190.089 39.9646 189.455 40.1051 188.961C40.1753 188.539 40.2456 188.257 40.2456 188.257C40.2456 188.257 40.1753 188.468 40.0349 188.891C39.8944 189.384 39.6837 190.018 39.473 190.793C39.192 191.639 38.9813 192.625 38.6301 193.823C38.3492 195.021 37.998 196.359 37.6468 197.839C36.3123 203.828 34.9076 212.212 33.854 221.512C32.8707 230.812 32.379 239.267 32.3088 245.396C32.2386 248.496 32.3088 250.962 32.4493 252.653C32.5195 253.428 32.5195 254.133 32.5898 254.626C32.66 255.119 32.66 255.331 32.66 255.331Z" fill="#E0E0E0"/>
<path d="M32.7319 238.985C32.8021 238.985 32.8021 238.28 32.7319 236.941C32.6617 235.603 32.4509 233.7 32.0998 231.375C31.6783 229.05 31.1867 226.232 30.2736 223.273C29.9224 221.864 29.0093 218.623 26.9022 213.62C24.0928 206.927 20.3 201.432 16.9286 198.05C16.156 197.134 15.3131 196.5 14.6108 195.866C14.2596 195.584 13.9084 195.232 13.6275 195.02C13.2763 194.809 12.9953 194.597 12.7144 194.386C11.5906 193.611 11.0287 193.259 10.9585 193.259C10.8882 193.4 13.4168 194.879 16.6476 198.332C19.8785 201.784 23.5309 207.209 26.3403 213.832C27.8855 217.425 29.0093 220.666 29.7819 223.343C30.695 226.302 31.2569 229.05 31.6783 231.375C32.0998 233.7 32.3807 235.603 32.5212 236.871C32.5914 238.28 32.6617 238.985 32.7319 238.985Z" fill="#E0E0E0"/>
<path d="M15.875 265.335L17.5607 287.74H46.2173L47.903 265.335H15.875Z" fill="#EBEBEB"/>
<path d="M51.3417 256.458H13.1328V265.265H51.3417V256.458Z" fill="#EBEBEB"/>
<path d="M13.1328 286.895V289.36H14.8887H50.6393V286.895H13.1328Z" fill="#E0E0E0"/>
<path d="M16.6465 293.377L14.8906 289.079H49.3067L47.2698 293.377H16.6465Z" fill="#E0E0E0"/>
<path d="M47.3415 272.663C47.3415 272.663 47.2713 272.733 47.201 272.874C47.0605 273.015 46.9201 273.226 46.7796 273.438C46.3582 273.931 45.7963 274.706 45.0939 275.551L45.0237 275.622L44.9534 275.551C43.8999 274.072 42.4951 272.169 40.8095 269.844H41.0202C39.8262 271.606 38.4214 273.508 36.9464 275.622L36.806 275.833L36.6655 275.692C35.1905 273.931 33.5751 271.958 31.8894 269.985H32.1703C32.1001 270.056 32.0299 270.197 31.8894 270.338C30.4144 272.24 28.9394 274.001 27.6049 275.763L27.4645 275.974L27.324 275.763C25.849 273.719 24.5145 271.747 23.2502 269.985H23.461C21.4943 272.24 19.8086 274.213 18.4741 275.692L18.4039 275.763L18.3337 275.622C17.7015 274.494 17.1396 273.649 16.7885 273.015C16.648 272.733 16.5075 272.522 16.367 272.31C16.2968 272.169 16.2266 272.099 16.2266 272.028C16.2266 272.028 16.2968 272.099 16.367 272.24C16.5075 272.451 16.648 272.663 16.7885 272.944C17.2099 273.578 17.7718 274.424 18.4039 275.551H18.2634C19.5277 274.072 21.2134 272.099 23.18 269.774L23.3205 269.633L23.461 269.774C24.7252 271.535 26.0597 273.438 27.5347 275.481H27.2537C28.5882 273.79 30.0632 271.958 31.5382 270.056C31.6084 269.915 31.7489 269.844 31.8191 269.703L31.9596 269.562L32.1001 269.703C33.7858 271.747 35.4012 273.649 36.8762 275.41H36.5953C38.0702 273.367 39.475 271.394 40.669 269.703L40.8095 269.562L40.9499 269.703C42.5654 272.028 43.9701 274.001 44.9534 275.481H44.813C45.5153 274.565 46.1475 273.931 46.5689 273.367C46.7796 273.156 46.9201 272.944 47.0605 272.803C47.2713 272.733 47.3415 272.663 47.3415 272.663Z" fill="#F5F5F5"/>
<path d="M48.2544 265.194C48.2544 265.264 41.0903 265.405 32.1702 265.405C23.3203 265.405 16.0859 265.335 16.0859 265.194C16.0859 265.123 23.2501 264.982 32.1702 264.982C41.0903 264.982 48.2544 265.053 48.2544 265.194Z" fill="#F5F5F5"/>
<path d="M249.685 10.9751L243.785 11.0068L243.942 40.3868L249.842 40.3551L249.685 10.9751Z" fill="#E0E0E0"/>
<path d="M208.073 11.0207L192.832 11.1025L192.919 27.3073L208.16 27.2255L208.073 11.0207Z" fill="#EBEBEB"/>
<path d="M223.241 10.9504L208 11.0322L208.086 27.237L223.328 27.1552L223.241 10.9504Z" fill="#F5F5F5"/>
<path d="M192.801 15.5704C202.915 15.6408 213.099 15.5704 223.213 15.4295C223.424 15.4295 223.424 15.0772 223.213 15.0772C213.099 15.0067 202.915 15.0772 192.801 15.2886C192.66 15.2886 192.66 15.5704 192.801 15.5704Z" fill="#E0E0E0"/>
<path d="M210.958 26.9801L183.285 27.1289L183.356 40.3746L211.029 40.2258L210.958 26.9801Z" fill="#EBEBEB"/>
<path d="M238.56 26.8396L210.887 26.9883L210.957 40.2339L238.631 40.0852L238.56 26.8396Z" fill="#F5F5F5"/>
<path d="M183.316 30.7891C201.718 31.0005 220.191 30.7891 238.593 30.5073C238.803 30.5073 238.803 30.155 238.593 30.155C220.191 30.0846 201.718 30.0846 183.316 30.5073C183.176 30.5073 183.176 30.7891 183.316 30.7891Z" fill="#E0E0E0"/>
<path d="M280.314 40.3711H172.992V45.0916H280.314V40.3711Z" fill="#E0E0E0"/>
<path d="M194.905 42.626H190.551V58.7603H194.905V42.626Z" fill="#E0E0E0"/>
<path d="M259.874 42.626H255.52V58.7603H259.874V42.626Z" fill="#E0E0E0"/>
<path d="M255.416 -0.0160838L249.516 0.015625L249.732 40.4572L255.632 40.4254L255.416 -0.0160838Z" fill="#EBEBEB"/>
<path d="M264.635 7.51438L255.504 7.56348L255.679 40.3253L264.81 40.2762L264.635 7.51438Z" fill="#F5F5F5"/>
<path d="M264.58 13.8099C264.58 13.8803 262.543 13.9508 260.015 13.9508C257.486 13.9508 255.449 13.8803 255.449 13.8099C255.449 13.7394 257.486 13.6689 260.015 13.6689C262.543 13.6689 264.58 13.7394 264.58 13.8099Z" fill="#E0E0E0"/>
<path d="M264.58 12.471C264.58 12.5414 262.543 12.6119 260.015 12.6119C257.486 12.6119 255.449 12.5414 255.449 12.471C255.449 12.4005 257.486 12.3301 260.015 12.3301C262.543 12.3301 264.58 12.4005 264.58 12.471Z" fill="#E0E0E0"/>
<path d="M264.58 35.3687C264.58 35.4392 262.543 35.5097 260.015 35.5097C257.486 35.5097 255.449 35.4392 255.449 35.3687C255.449 35.2983 257.486 35.2278 260.015 35.2278C262.543 35.1574 264.58 35.2278 264.58 35.3687Z" fill="#E0E0E0"/>
<path d="M264.58 33.9593C264.58 34.0297 262.543 34.1002 260.015 34.1002C257.486 34.1002 255.449 34.0297 255.449 33.9593C255.449 33.8888 257.486 33.8184 260.015 33.8184C262.543 33.8184 264.58 33.8888 264.58 33.9593Z" fill="#E0E0E0"/>
<path d="M260.156 30.9304C260.086 30.9304 260.016 27.619 260.016 23.5326C260.016 19.4462 260.086 16.1348 260.156 16.1348C260.226 16.1348 260.297 19.4462 260.297 23.5326C260.297 27.6895 260.226 30.9304 260.156 30.9304Z" fill="#E0E0E0"/>
<path d="M274.626 15.5703H264.652V40.3002H274.626V15.5703Z" fill="#EBEBEB"/>
<path d="M252.432 8.59574C253.363 8.59574 254.117 7.83868 254.117 6.9048C254.117 5.97092 253.363 5.21387 252.432 5.21387C251.501 5.21387 250.746 5.97092 250.746 6.9048C250.746 7.83868 251.501 8.59574 252.432 8.59574Z" fill="#E0E0E0"/>
<path d="M252.921 11.5547H251.867V35.5801H252.921V11.5547Z" fill="#E0E0E0"/>
<path d="M310.238 294.575C310.238 294.645 242.74 294.786 159.509 294.786C76.2086 294.786 8.71094 294.716 8.71094 294.575C8.71094 294.504 76.2086 294.363 159.509 294.363C242.74 294.363 310.238 294.434 310.238 294.575Z" fill="#263238"/>
<path d="M88.7109 36.002C92.0121 40.0179 93.8382 45.2316 93.768 50.4454C93.768 53.4045 93.2061 56.7159 94.8918 59.1114C96.2263 60.9432 98.6143 61.8592 99.6679 63.8319C100.932 66.2274 99.8786 69.257 100.651 71.8639C101.775 75.5276 106.059 77.0776 108.588 79.9663C110.765 82.4322 111.608 86.0959 110.695 89.3369C109.782 92.5778 107.253 95.2551 104.093 96.312C102.407 96.8756 100.511 97.0165 98.8953 96.2415C97.1394 95.396 96.0858 93.6346 95.243 91.8733C93.5573 88.4914 78.6671 70.1025 77.8242 66.4388" fill="#263238"/>
<path d="M77.8927 31.6337C71.782 30.6473 65.9524 34.7337 63.4239 40.2997C60.8953 45.9361 60.8251 52.2772 60.6144 58.4772C60.4037 64.6773 59.9823 71.0888 56.8216 76.4434C54.855 79.8253 51.7645 82.7844 51.2729 86.6595C50.8515 90.1118 52.6074 93.6346 52.0455 97.0869C51.5538 100.117 49.236 102.723 49.3063 105.753C49.4467 109.417 53.1693 112.164 56.8216 112.305C60.4739 112.376 63.9155 110.473 66.7952 108.219C71.4309 104.485 75.2237 99.6938 77.7522 94.2687" fill="#263238"/>
<path d="M67.8498 46.2178C67.0772 39.8063 71.7128 33.8881 78.1746 33.254C84.2852 32.6903 89.7637 37.2699 90.6767 43.3996C91.4493 48.7542 92.1517 54.1793 92.1517 56.152C92.0815 62.0703 88.6399 64.3953 87.2351 65.0999C86.8839 65.2408 86.0411 65.4522 85.6899 65.5226C85.6899 65.5226 85.6197 65.5226 85.6899 65.5931L87.0244 72.4273C87.5863 76.866 85.128 80.882 80.7031 81.5161C76.2782 82.1502 72.7663 78.7683 72.064 74.2591L67.8498 46.2178Z" fill="#FFBE9D"/>
<path d="M89.5526 46.0062C89.4824 46.1471 88.7098 45.7244 87.6563 45.8653C86.6729 46.0062 85.9706 46.6403 85.9003 46.4994C85.8301 46.429 85.9003 46.2176 86.1813 45.9358C86.4622 45.654 86.9539 45.3721 87.586 45.2312C88.2181 45.1608 88.78 45.3017 89.1312 45.513C89.4122 45.7244 89.5526 45.9358 89.5526 46.0062Z" fill="#263238"/>
<path d="M80.6347 48.1205C80.5644 48.2614 79.7216 47.8387 78.7383 47.9796C77.755 48.1205 77.0526 48.7546 76.9824 48.6137C76.9121 48.5432 76.9824 48.3319 77.2633 48.05C77.5443 47.7682 78.0359 47.4864 78.668 47.3455C79.3002 47.275 79.8621 47.4159 80.2133 47.6273C80.5644 47.9091 80.7049 48.05 80.6347 48.1205Z" fill="#263238"/>
<path d="M84.2867 53.545C84.2867 53.4745 84.8486 53.2631 85.9021 52.9813C86.1831 52.9109 86.3938 52.8404 86.3938 52.629C86.3938 52.4177 86.2533 52.2063 86.1128 51.9245C85.7616 51.3608 85.4104 50.7267 85.0593 50.0926C83.5843 47.4858 82.5307 45.3017 82.601 45.2312C82.7414 45.1607 83.9355 47.2744 85.4104 49.8813C85.7616 50.5154 86.1128 51.1495 86.3938 51.7131C86.5342 51.9949 86.7449 52.2768 86.6747 52.6995C86.6045 52.9109 86.464 53.0518 86.3235 53.1222C86.1831 53.1927 86.0426 53.1927 85.9021 53.2631C84.9188 53.4745 84.2867 53.6154 84.2867 53.545Z" fill="#263238"/>
<path d="M85.6895 65.4519C85.6895 65.4519 81.8967 66.3679 76.6289 64.1133C76.6289 64.1133 78.8765 69.0452 86.0406 67.2838L85.6895 65.4519Z" fill="#EB996E"/>
<path d="M80.142 45.5137C80.0717 45.7955 79.0884 45.7955 77.8944 46.1478C76.7004 46.4296 75.8575 46.9228 75.6468 46.7114C75.5766 46.5705 75.717 46.2887 75.998 46.0069C76.3492 45.6546 76.9111 45.3728 77.6134 45.1614C78.3158 44.9501 78.9479 45.0205 79.4396 45.091C79.9313 45.2319 80.142 45.3728 80.142 45.5137Z" fill="#263238"/>
<path d="M88.7092 43.7515C88.5687 44.0333 87.8664 43.8924 87.0235 43.9629C86.1807 44.0333 85.5485 44.3151 85.3378 44.1038C85.2676 44.0333 85.3378 43.7515 85.6188 43.4697C85.8997 43.1878 86.3914 42.9765 86.9533 42.906C87.5152 42.8356 88.0771 42.9765 88.358 43.1878C88.639 43.3992 88.7794 43.6106 88.7092 43.7515Z" fill="#263238"/>
<path d="M78.4543 49.4589C78.5245 49.8816 78.946 50.1634 79.3674 50.1634C79.7888 50.093 80.14 49.6703 80.0698 49.2475C79.9995 48.8248 79.5781 48.543 79.1567 48.543C78.7353 48.6134 78.3841 49.0362 78.4543 49.4589Z" fill="#263238"/>
<path d="M87.3059 47.4862C87.3761 47.909 87.7975 48.1908 88.2189 48.1908C88.6404 48.1203 88.9916 47.6976 88.9213 47.2749C88.8511 46.8521 88.4297 46.5703 88.0082 46.5703C87.5868 46.7112 87.2356 47.0635 87.3059 47.4862Z" fill="#263238"/>
<path d="M85.831 55.448C85.1989 55.2366 84.637 55.5889 84.3561 56.0821C84.0751 56.5753 84.1454 57.2094 84.5668 57.5617C84.918 57.9139 85.6203 57.9844 86.0418 57.6321C86.3227 57.4208 86.4632 57.0685 86.5334 56.6457C86.5334 56.2935 86.5334 55.9412 86.3227 55.6594C86.112 55.3775 85.7608 55.2366 85.4096 55.3775" fill="#EB996E"/>
<path d="M89.9747 38.609C89.4831 36.3545 88.0081 34.4522 86.1117 33.184C84.4962 32.0567 82.6701 31.3521 80.7034 31.2817C78.8071 31.2112 76.7702 31.8453 75.4357 33.184C74.3821 34.1703 73.8905 35.5794 73.8202 36.9886L73.9607 36.0022C73.6798 36.7772 73.6798 37.6931 73.9607 38.4681C74.1012 38.8909 74.3119 39.3136 74.5226 39.7363C75.0143 40.9341 75.9976 41.9909 77.1214 42.625C77.6833 42.9068 78.2452 43.1182 78.8773 43.0477C79.5094 43.0477 80.0713 42.7659 80.4927 42.2727C81.0546 41.5682 80.9844 40.5818 80.8439 39.7363C81.3356 40.5818 81.8975 41.4273 82.7403 41.9204C83.5832 42.4136 84.7772 42.4136 85.4093 41.6386C85.9712 40.8636 85.7605 39.8068 85.4093 38.9613C85.9712 39.8068 86.7438 40.4409 87.5867 40.8636C88.0783 41.075 88.6402 41.2159 89.1319 41.0045C89.5533 40.7932 89.8342 40.3704 89.9747 39.9477C90.1152 39.525 90.045 39.0318 89.9747 38.609Z" fill="#263238"/>
<path d="M84.8453 40.441C84.775 40.441 84.775 39.5956 84.4941 38.3273C84.2131 37.0591 83.581 35.2273 82.0358 33.8886C81.2632 33.2545 80.4203 32.7614 79.5775 32.55C78.7347 32.3386 77.962 32.3386 77.3299 32.4795C76.0656 32.7614 75.4335 33.325 75.3633 33.325C75.3633 33.325 75.5038 33.1136 75.7847 32.9023C76.0656 32.6909 76.5573 32.4091 77.2597 32.2682C77.8918 32.1273 78.7346 32.0568 79.6477 32.2682C80.5608 32.4795 81.4739 32.9727 82.2465 33.6068C83.8619 35.0159 84.4941 36.9182 84.7048 38.2569C84.8453 38.9614 84.8453 39.4546 84.8453 39.8774C84.9155 40.2296 84.9155 40.441 84.8453 40.441Z" fill="#455A64"/>
<path d="M149.536 122.593L122.494 111.883C122.494 111.883 108.658 93.7058 108.939 93.3535L99.2461 103.992L113.364 123.156L146.094 130.836L161.616 130.977C160.422 124.918 149.536 122.593 149.536 122.593Z" fill="#FFBE9D"/>
<path d="M90.68 70.6659L87.0277 69.2568L71.1541 71.3V74.1183L70.7327 74.1887C70.7327 74.1887 65.8161 75.1046 60.9698 77.9933C55.1401 81.5161 52.1199 88.2094 53.2437 94.9731C53.8759 98.9891 55.1401 103.921 57.5282 106.739C62.1638 112.164 66.378 105.471 66.378 105.471C66.378 105.471 69.2577 112.094 69.1173 115.264C68.9768 117.871 67.853 123.367 67.4316 125.058C67.3613 125.34 67.572 125.621 67.853 125.692L101.356 131.892L101.496 123.649L100.443 89.8299L98.9679 76.7251C98.9679 76.5842 98.9679 70.3137 90.68 70.6659Z" fill="#065373"/>
<path d="M98.4023 74.4004L111.185 92.9302L100.931 105.542L98.4023 74.4004Z" fill="#065373"/>
<path d="M101.143 113.362C101.143 113.362 101.073 112.939 101.073 112.164C101.073 111.319 101.073 110.262 101.003 108.923C100.933 106.175 100.792 102.371 100.23 98.2139C99.6685 94.0571 98.8958 90.3229 98.2637 87.6456C97.9828 86.3774 97.7018 85.2501 97.4911 84.4751C97.3506 83.7001 97.2102 83.2773 97.2804 83.2773C97.2804 83.2773 97.4209 83.7001 97.6316 84.4046C97.8423 85.1092 98.1232 86.2365 98.4744 87.5751C99.1768 90.2525 100.02 93.9866 100.511 98.1435C101.073 102.3 101.143 106.105 101.143 108.853C101.143 110.262 101.143 111.319 101.073 112.094C101.214 112.939 101.214 113.362 101.143 113.362Z" fill="#263238"/>
<path d="M69.7475 85.2503C69.7475 85.3207 68.7642 85.3207 67.219 85.3912C65.6738 85.4616 63.4965 85.673 61.1786 86.1662C58.8608 86.6594 56.824 87.2935 55.349 87.8571C53.874 88.4208 53.0312 88.7731 52.9609 88.7731C52.9609 88.7731 53.1716 88.6322 53.5228 88.4208C53.9443 88.2094 54.5061 87.9276 55.2085 87.6458C56.6835 87.0117 58.7204 86.3071 61.0382 85.8139C63.356 85.3207 65.5333 85.1798 67.1488 85.1094C67.9214 85.1094 68.5535 85.1094 68.9749 85.1798C69.4666 85.1798 69.7475 85.1798 69.7475 85.2503Z" fill="#FAFAFA"/>
<path d="M99.3162 93.7051C99.3162 93.7756 98.684 93.9165 97.7007 94.0574C96.7174 94.1983 95.3127 94.3392 93.7675 94.4097C92.2223 94.4801 90.8175 94.4097 89.8342 94.3392C88.8509 94.2688 88.2188 94.1279 88.2188 94.1279C88.2188 94.0574 88.8509 94.0574 89.8342 94.1279C90.8175 94.1279 92.2223 94.1279 93.7675 94.1279C95.3127 94.0574 96.6472 93.987 97.6305 93.9165C98.684 93.7051 99.3162 93.6347 99.3162 93.7051Z" fill="#FAFAFA"/>
<path d="M105.219 85.3209C105.289 85.3914 104.165 86.5187 102.479 87.5755C100.794 88.6324 99.3187 89.1256 99.2485 88.9846C99.1783 88.9142 100.653 88.2801 102.269 87.2233C103.884 86.2369 105.148 85.2505 105.219 85.3209Z" fill="#FAFAFA"/>
<path d="M100.019 76.7246C100.089 76.7951 98.5438 78.1338 96.2962 79.1201C94.0486 80.1065 92.0117 80.2474 92.0117 80.177C92.0117 80.0361 93.9783 79.7542 96.1557 78.8383C98.4033 77.8519 99.9485 76.6542 100.019 76.7246Z" fill="#FAFAFA"/>
<path d="M100.722 108.078C100.722 108.078 100.511 108.219 100.09 108.43C99.6686 108.642 99.0365 108.923 98.1936 109.205C96.5782 109.769 94.2604 110.473 91.6616 110.896C89.0628 111.319 86.6748 111.319 84.9188 111.248C84.076 111.178 83.3736 111.178 82.882 111.108C82.3903 111.037 82.1094 110.967 82.1094 110.967C82.1094 110.896 83.1629 110.967 84.9188 111.037C86.6045 111.037 88.9926 110.967 91.5913 110.544C94.1901 110.121 96.4377 109.558 98.0531 108.994C99.7388 108.43 100.722 108.008 100.722 108.078Z" fill="#FAFAFA"/>
<path d="M101.004 117.59C101.004 117.59 100.933 117.66 100.723 117.731C100.512 117.872 100.161 118.013 99.8095 118.153C99.0369 118.506 97.9131 118.999 96.4381 119.563C95.0334 120.126 93.2775 120.69 91.3108 121.183C89.3442 121.676 87.1668 122.169 84.849 122.522C82.5312 122.874 80.2836 123.085 78.317 123.156C76.2801 123.226 74.454 123.226 72.9088 123.156C71.3636 123.085 70.1695 122.944 69.3267 122.874C68.9053 122.804 68.6243 122.804 68.3434 122.733C68.1327 122.733 67.9922 122.663 67.9922 122.663C67.9922 122.663 68.1327 122.663 68.3434 122.663C68.6243 122.663 68.9053 122.733 69.3267 122.733C70.1695 122.804 71.4338 122.874 72.9088 122.944C74.454 123.015 76.2801 122.944 78.2468 122.874C80.2836 122.733 82.461 122.522 84.7788 122.169C87.0966 121.817 89.2037 121.324 91.1703 120.831C93.137 120.338 94.8227 119.774 96.2976 119.281C97.7024 118.788 98.8964 118.365 99.669 118.013C100.02 117.872 100.301 117.731 100.582 117.66C100.863 117.66 101.004 117.59 101.004 117.59Z" fill="#FAFAFA"/>
<path d="M39.3341 267.379L35.5413 284.57L28.6581 297.323C28.1665 298.238 28.5177 299.366 29.501 299.859C30.0629 300.07 30.6248 300.07 31.1164 299.788C34.3473 297.957 46.1471 290.982 46.3578 289.713C46.5685 288.234 51.5554 271.818 51.5554 271.818L39.3341 267.379Z" fill="#F46036"/>
<g opacity="0.6">
<path d="M29.5 299.859L46.6378 288.586L46.4271 289.29C46.2866 289.925 45.9354 290.488 45.3735 290.841C43.9688 291.827 40.0355 294.575 31.1154 299.788C30.6238 300.07 29.9917 300.141 29.5 299.859Z" fill="white"/>
</g>
<g opacity="0.6">
<path d="M44.4613 282.175C43.9696 282.386 43.6887 282.95 43.8291 283.513C43.9696 284.007 44.6017 284.359 45.0934 284.147C45.585 283.936 46.0065 283.231 45.7255 282.738C45.5148 282.245 44.7422 281.893 44.3208 282.245" fill="white"/>
</g>
<path d="M35.192 293.307C35.0515 293.307 34.911 292.321 33.998 291.616C33.1551 290.841 32.1016 290.841 32.1016 290.771C32.1016 290.7 32.3123 290.63 32.7337 290.7C33.1551 290.771 33.717 290.911 34.2087 291.334C34.7003 291.757 34.9813 292.25 35.1217 292.673C35.2622 293.096 35.2622 293.307 35.192 293.307Z" fill="#263238"/>
<path d="M33.4343 295.35C33.3641 295.421 32.9427 294.716 32.0998 294.223C31.257 293.73 30.4844 293.73 30.4844 293.589C30.4844 293.518 31.3975 293.307 32.3105 293.871C33.2236 294.434 33.5046 295.28 33.4343 295.35Z" fill="#263238"/>
<path d="M38.2102 290.981C38.1399 291.052 37.5078 289.995 36.2435 289.15C35.0495 288.304 33.8555 288.022 33.8555 287.952C33.8555 287.881 35.19 287.952 36.4542 288.868C37.7887 289.713 38.2804 290.911 38.2102 290.981Z" fill="#263238"/>
<path d="M39.757 285.838C39.6868 285.909 38.8439 285.275 37.6499 284.922C36.4559 284.57 35.4023 284.641 35.4023 284.5C35.4023 284.429 36.4559 284.147 37.7904 284.5C39.0547 284.922 39.8273 285.768 39.757 285.838Z" fill="#263238"/>
<path d="M41.0185 280.765C40.9483 280.836 40.1054 280.061 38.8412 279.779C37.5067 279.497 36.4531 279.92 36.4531 279.779C36.4531 279.708 36.6638 279.567 37.1555 279.427C37.5769 279.286 38.2793 279.215 38.9817 279.356C39.684 279.497 40.2459 279.849 40.5971 280.131C40.878 280.483 41.0888 280.765 41.0185 280.765Z" fill="#263238"/>
<path d="M39.1216 278.863C39.1216 278.863 39.1216 278.652 39.2621 278.229C39.4026 277.806 39.6835 277.243 40.1752 276.679C40.4561 276.397 40.7371 276.045 41.2287 275.904C41.5097 275.834 41.8609 275.974 42.0013 276.256C42.1418 276.538 42.1418 276.82 42.0716 277.102C41.7906 278.159 40.5966 279.004 39.3323 278.863C38.0681 278.722 37.155 277.736 36.874 276.679C36.8038 276.397 36.8038 276.115 37.0145 275.834C37.2252 275.552 37.5764 275.552 37.8574 275.622C38.349 275.834 38.5597 276.186 38.8407 276.468C39.3323 277.102 39.543 277.665 39.6835 278.088C39.824 278.511 39.824 278.722 39.824 278.722C39.7537 278.722 39.6133 277.806 38.63 276.609C38.4192 276.327 38.1383 275.974 37.7871 275.904C37.6466 275.834 37.4359 275.904 37.3657 275.974C37.2955 276.115 37.2252 276.327 37.2955 276.538C37.5062 277.384 38.349 278.299 39.4728 278.44C40.5264 278.581 41.5799 277.877 41.7906 276.961C41.8609 276.749 41.8609 276.538 41.7906 276.397C41.7204 276.256 41.5799 276.186 41.3692 276.186C41.018 276.256 40.6668 276.538 40.4561 276.82C39.3323 277.877 39.1919 278.863 39.1216 278.863Z" fill="#263238"/>
<g opacity="0.3">
<path d="M38.9132 269.281L38.0703 273.227L50.5022 275.27L51.5558 271.818L39.3346 267.379L38.9132 269.281Z" fill="black"/>
</g>
<path d="M94.8911 273.72L93.8375 287.459C93.8375 287.459 107.463 293.095 107.463 295.702L80.7734 294.645L81.4758 273.156L94.8911 273.72Z" fill="#F46036"/>
<g opacity="0.6">
<path d="M85.6906 286.05C85.199 286.191 84.7775 286.754 84.918 287.248C84.9882 287.741 85.6204 288.164 86.112 288.023C86.6037 287.882 87.0954 287.248 86.9549 286.754C86.8144 286.261 86.112 285.839 85.6204 286.05" fill="white"/>
</g>
<g opacity="0.6">
<path d="M80.8438 294.715L80.9842 292.531L106.48 294.363C106.48 294.363 107.674 294.927 107.464 295.772L80.8438 294.715Z" fill="white"/>
</g>
<path d="M94.3304 287.388C94.3304 287.529 93.6983 287.529 92.9959 287.952C92.3638 288.304 91.9424 288.868 91.8722 288.797C91.7317 288.797 91.9424 288.022 92.7852 287.529C93.5578 287.106 94.3304 287.247 94.3304 287.388Z" fill="#263238"/>
<path d="M97.0697 288.657C97.0697 288.798 96.5078 289.009 96.0864 289.502C95.5948 289.995 95.4543 290.629 95.3138 290.629C95.1733 290.629 95.1031 289.854 95.7352 289.22C96.2971 288.586 97.0697 288.516 97.0697 288.657Z" fill="#263238"/>
<path d="M98.5447 292.109C98.4042 292.109 98.2638 291.475 98.6149 290.77C98.9661 290.066 99.5983 289.784 99.6685 289.925C99.7387 290.066 99.3173 290.418 99.0364 290.982C98.6852 291.545 98.6149 292.039 98.5447 292.109Z" fill="#263238"/>
<path d="M94.1904 284.218C94.1201 284.359 93.5582 284.147 92.7856 284.147C92.013 284.147 91.4511 284.359 91.3809 284.288C91.3107 284.218 91.8726 283.725 92.7856 283.725C93.6285 283.654 94.2606 284.147 94.1904 284.218Z" fill="#263238"/>
<g opacity="0.3">
<path d="M94.681 276.468L94.4703 278.934L81.4062 278.3L81.4765 275.481L94.681 276.468Z" fill="black"/>
</g>
<path d="M94.328 281.47C94.328 281.54 93.8363 281.61 92.9935 281.399C92.572 281.329 92.0804 281.188 91.5887 280.906C91.3078 280.765 91.0971 280.624 90.8161 280.483C90.6757 280.413 90.5352 280.342 90.3947 280.131C90.2542 279.99 90.184 279.638 90.3947 279.426C90.5352 279.215 90.8161 279.145 90.9566 279.145C91.1673 279.145 91.3078 279.215 91.4483 279.215C91.7292 279.285 92.0102 279.426 92.2911 279.567C92.7828 279.849 93.2042 280.131 93.4851 280.413C94.047 280.976 94.2577 281.54 94.2577 281.54C94.1875 281.61 93.9066 281.188 93.2744 280.695C92.9935 280.413 92.5721 280.201 92.0804 279.99C91.8697 279.92 91.5887 279.779 91.3078 279.708C91.0268 279.638 90.8161 279.638 90.7459 279.708C90.7459 279.779 90.7459 279.779 90.7459 279.849C90.8161 279.92 90.8864 279.99 91.0268 280.06C91.2376 280.201 91.5185 280.342 91.7292 280.483C92.1506 280.765 92.6423 280.906 92.9935 281.047C93.8363 281.329 94.328 281.399 94.328 281.47Z" fill="#263238"/>
<path d="M94.1872 281.611C94.117 281.611 93.9062 281.118 93.9062 280.272C93.9062 279.85 93.9765 279.357 94.117 278.793C94.1872 278.511 94.3277 278.229 94.4681 278.018C94.6086 277.736 94.8193 277.384 95.311 277.384C95.5919 277.384 95.8026 277.595 95.8729 277.807C95.9431 278.018 95.9431 278.159 96.0134 278.3C96.0836 278.582 96.0134 278.934 96.0134 279.216C95.8729 279.779 95.6622 280.272 95.3812 280.554C94.8193 281.259 94.2574 281.329 94.2574 281.329C94.1872 281.259 94.6789 281.047 95.1003 280.343C95.311 279.991 95.5217 279.568 95.5919 279.075C95.6622 278.793 95.6622 278.582 95.5919 278.3C95.5919 278.018 95.4515 277.807 95.3812 277.807C95.2408 277.807 95.03 278.018 94.8896 278.229C94.7491 278.441 94.6086 278.722 94.5384 278.934C94.3277 279.427 94.2574 279.85 94.2574 280.272C94.117 281.118 94.2574 281.611 94.1872 281.611Z" fill="#263238"/>
<path d="M67.2867 125.41C67.2867 125.41 63.0724 125.621 60.263 140.065C57.4535 154.508 36.0312 271.676 36.0312 271.676L51.5536 271.817L80.8424 160.427L78.8757 275.269L94.679 276.467C94.679 276.467 106.549 149.435 106.619 142.038C106.76 132.808 101.492 123.508 101.492 123.508L67.2867 125.41Z" fill="#263238"/>
<path d="M88.6386 124.212C88.7089 124.212 87.0934 132.526 85.0566 142.672C82.9495 152.817 81.1935 161.061 81.1233 161.061C81.0531 161.061 82.6685 152.747 84.7054 142.601C86.7422 132.385 88.4982 124.142 88.6386 124.212Z" fill="#455A64"/>
<path d="M91.0261 126.255C91.0261 126.185 91.4475 126.115 91.9391 126.537C92.1498 126.749 92.3606 127.101 92.3606 127.524C92.3606 127.946 92.0094 128.44 91.5879 128.58C91.1665 128.792 90.6046 128.721 90.2535 128.44C89.9023 128.158 89.832 127.735 89.832 127.453C89.832 126.819 90.2535 126.608 90.2535 126.608C90.3237 126.678 90.0427 126.89 90.0427 127.453C90.0427 127.735 90.1832 128.017 90.3939 128.228C90.6046 128.44 91.0261 128.44 91.3772 128.299C91.7284 128.158 91.9391 127.876 92.0094 127.524C92.0094 127.242 91.8689 126.89 91.7284 126.749C91.4475 126.326 91.0261 126.326 91.0261 126.255Z" fill="#455A64"/>
<path d="M90.3964 131.962C90.3964 131.892 90.8178 131.962 91.0987 132.526C91.2392 132.808 91.2392 133.16 91.0285 133.583C90.8178 133.935 90.3261 134.217 89.9047 134.146C89.4131 134.146 88.9916 133.794 88.8512 133.371C88.7107 132.949 88.8512 132.596 88.9916 132.314C89.3428 131.821 89.7642 131.821 89.7642 131.821C89.7642 131.892 89.4131 131.962 89.2023 132.385C89.1321 132.596 89.0619 132.878 89.2023 133.16C89.2726 133.442 89.6238 133.653 89.9749 133.653C90.3261 133.653 90.6773 133.512 90.8178 133.301C90.9583 133.019 90.9583 132.737 90.888 132.526C90.6773 132.174 90.3261 132.033 90.3964 131.962Z" fill="#455A64"/>
<path d="M75.5028 126.396C75.5028 126.396 75.5028 126.678 75.292 127.101C75.1516 127.524 74.8706 128.228 74.4492 128.933C73.6766 130.483 72.1314 132.385 69.954 133.865C67.7767 135.344 65.3887 135.908 63.6327 136.049C62.7899 136.119 62.0875 136.119 61.5959 136.049C61.1042 135.978 60.8233 135.978 60.8935 135.908C60.8935 135.838 61.947 135.978 63.6327 135.767C65.3184 135.556 67.6362 134.922 69.7433 133.513C71.9207 132.103 73.3957 130.201 74.2385 128.792C75.1516 127.383 75.4325 126.396 75.5028 126.396Z" fill="#455A64"/>
<path d="M105.706 136.683C105.706 136.683 105.495 136.613 105.214 136.401C104.933 136.19 104.512 135.908 104.091 135.415C103.178 134.569 102.124 133.09 101.422 131.328C100.719 129.496 100.579 127.735 100.649 126.467C100.649 125.833 100.719 125.34 100.86 124.987C100.93 124.635 101 124.494 101 124.494C101.07 124.494 100.93 125.269 100.93 126.467C100.93 127.665 101.141 129.426 101.773 131.187C102.475 132.949 103.458 134.358 104.231 135.274C105.144 136.19 105.776 136.613 105.706 136.683Z" fill="#455A64"/>
<path d="M61.1056 97.5815L67.9888 97.9338C68.4102 100.188 69.9554 103.641 69.9554 103.641C75.5041 93.9883 79.7886 81.0244 80.9124 75.8107C80.7719 75.3175 80.5612 74.6834 80.3505 74.0493C80.0695 73.2743 80.2802 71.9357 80.4207 71.0902C80.6314 69.9629 80.9124 68.3424 81.0528 67.6379C81.3338 65.4537 81.685 65.1015 82.4576 65.3128C83.5111 65.6651 82.0361 71.5129 82.879 71.5834C83.3706 71.6538 83.9325 69.6811 84.073 67.9901C84.2135 66.3697 84.9861 61.2969 85.548 60.9446C86.3206 60.4514 87.023 61.2264 86.8123 62.8469C86.6015 64.4674 86.3206 69.4697 87.2337 69.4697C88.0765 69.5402 88.7789 61.156 88.7789 61.156C88.7789 61.156 88.6384 59.3241 89.6217 59.3946C91.4479 59.465 90.0431 68.272 89.8324 69.1174C89.692 69.6811 90.6753 69.822 90.7455 69.1879C90.8158 68.5538 91.2372 60.8037 93.1336 60.8741C94.5383 60.9446 92.0098 68.1311 92.8526 69.822C93.6252 71.5129 94.1871 64.1151 95.5216 64.256C96.0133 64.3264 96.3645 64.3969 95.4514 68.5538C94.9597 70.8084 93.4848 74.8948 92.2205 78.3471C90.1134 89.9018 80.7016 126.891 66.0221 120.127C57.8044 116.323 53.9414 97.5815 53.9414 97.5815H61.1056Z" fill="#FFBE9D"/>
<path d="M92.2192 78.4876C92.2192 78.4876 92.2192 78.4172 92.2894 78.2058C92.3597 77.9945 92.4299 77.7831 92.5704 77.5013C92.7811 76.8672 93.1323 75.8808 93.5537 74.683C93.9751 73.4853 94.4668 72.0057 94.9584 70.2443C95.2394 69.3989 95.4501 68.4125 95.5906 67.4261C95.6608 66.9329 95.8013 66.3693 95.8715 65.8761C95.8715 65.5943 95.9418 65.3124 95.9418 65.1011C95.9418 64.8193 95.8715 64.6079 95.6608 64.6079C95.4501 64.5374 95.3096 64.7488 95.0989 64.9602C94.9584 65.1715 94.818 65.4534 94.7477 65.7352C94.537 66.2988 94.3965 66.8625 94.2561 67.4966C94.1156 68.1307 93.9751 68.6943 93.7644 69.3284C93.6239 69.6807 93.6239 69.9625 93.343 70.3148C93.2728 70.3853 93.2728 70.3852 93.1323 70.4557C92.9918 70.4557 92.9216 70.4557 92.8513 70.3853C92.7811 70.3148 92.7109 70.1739 92.6406 70.1034C92.5704 69.8921 92.5001 69.7511 92.5001 69.5398C92.3597 68.1307 92.7109 66.792 92.9216 65.3124C93.062 64.6079 93.2025 63.9033 93.2728 63.1988C93.343 62.8465 93.343 62.4942 93.343 62.1419C93.343 61.7897 93.2728 61.3669 93.1323 61.2965C92.9216 61.226 92.6406 61.4374 92.4299 61.7192C92.2192 62.001 92.0787 62.3533 91.9383 62.7056C91.7275 63.4101 91.5168 64.1852 91.3764 64.9602C91.2359 65.7352 91.1657 66.5102 91.0252 67.3557C90.9549 67.7784 90.9549 68.1307 90.8847 68.5534L90.8145 69.1875C90.8145 69.3284 90.8145 69.6807 90.5335 69.8921C90.3228 70.1034 89.9716 70.1034 89.6907 69.8921C89.5502 69.8216 89.48 69.6807 89.4097 69.4693C89.4097 69.3989 89.4097 69.3284 89.4097 69.258V69.117C89.48 68.6943 89.5502 68.2716 89.6204 67.9193C89.7609 67.0738 89.8311 66.2284 89.9014 65.3829C89.9716 64.5374 90.0419 63.692 90.0419 62.8465C90.0419 62.001 90.0419 61.0851 89.7609 60.3101C89.6907 60.0987 89.5502 59.8874 89.4097 59.8169C89.2693 59.7465 89.0585 59.8169 88.9181 59.9578C88.7074 60.3101 88.6371 60.8737 88.6371 61.2965C88.4966 62.9874 88.2859 64.6079 88.0752 66.1579C87.9348 66.9329 87.7943 67.7784 87.6538 68.5534C87.5836 68.7648 87.5133 68.9761 87.4431 69.117C87.3729 69.3284 87.3026 69.5398 87.0217 69.7511C86.811 69.8921 86.6003 69.7512 86.53 69.6102C86.4598 69.4693 86.3895 69.3989 86.3193 69.258C86.2491 69.0466 86.1788 68.8352 86.1788 68.6239C85.9681 67.0034 86.0384 65.5238 86.1086 63.9738C86.1086 63.1988 86.3193 62.4942 86.2491 61.7897C86.1788 61.4374 86.1086 61.1556 85.8276 61.0147C85.6872 60.9442 85.6169 60.9442 85.4765 60.9442C85.4062 60.9442 85.336 61.0147 85.2658 61.0147C85.1955 61.0851 85.1955 61.0147 85.1955 61.1556C84.9146 61.7192 84.7741 62.4238 84.6336 63.1283C84.4931 63.8329 84.3527 64.467 84.2824 65.1011C84.142 65.7352 84.0717 66.4397 84.0015 67.0738C83.9313 67.7079 83.861 68.342 83.7205 68.9761C83.5801 69.6102 83.4396 70.2443 83.2289 70.808C83.1586 70.9489 83.0884 71.0898 83.0182 71.2307C82.9479 71.3716 82.8777 71.5125 82.5968 71.583C82.4563 71.6534 82.3158 71.5125 82.2456 71.4421C82.1753 71.3716 82.1753 71.2307 82.1051 71.1603C82.0349 71.0194 82.0349 70.808 82.0349 70.6671C82.0349 69.4693 82.1753 68.342 82.2456 67.2852C82.2456 66.792 82.3158 66.2284 82.2456 65.7352C82.2456 65.5238 82.1753 65.242 82.0349 65.1715C81.8241 65.1011 81.6134 65.0306 81.473 65.1715C81.192 65.3829 81.0515 65.9465 80.9813 66.2988C80.9111 66.7216 80.8408 67.1443 80.7706 67.567C80.4896 69.258 80.1385 70.6671 79.998 71.8648C79.9278 72.4285 79.9278 72.9921 79.998 73.4148C80.0682 73.8376 80.2087 74.1899 80.3492 74.5421C80.4194 74.824 80.4896 75.0353 80.5599 75.2467C80.6301 75.3876 80.6301 75.4581 80.6301 75.4581C80.6301 75.4581 80.5599 75.3876 80.5599 75.2467C80.4896 75.1058 80.4194 74.824 80.3492 74.6126C80.2789 74.3308 80.1385 73.9785 79.998 73.4853C79.9278 72.9921 79.9278 72.4989 79.998 71.8648C80.1385 70.6671 80.4194 69.258 80.7004 67.567C80.7706 67.1443 80.8408 66.7216 80.9111 66.2284C80.9813 66.017 80.9813 65.8056 81.1218 65.5238C81.192 65.3124 81.3325 65.0306 81.5432 64.8897C81.8241 64.7488 82.1051 64.7488 82.386 64.8897C82.7372 65.1011 82.7372 65.3829 82.8075 65.6647C82.8777 66.1579 82.8777 66.7216 82.8075 67.2852C82.7372 68.342 82.5968 69.4693 82.5968 70.5966C82.5968 70.7375 82.5968 70.8784 82.667 71.0194C82.667 71.1603 82.7372 71.2307 82.7372 71.1603C82.7372 71.1603 82.8777 71.0193 82.9479 70.9489C83.0182 70.808 83.0884 70.6671 83.1586 70.5262C83.3694 69.9625 83.5098 69.3989 83.6503 68.7648C83.7908 68.1307 83.7908 67.4966 83.861 66.8625C83.9313 66.2284 84.0015 65.5238 84.142 64.8897C84.2122 64.2556 84.3527 63.5511 84.4931 62.8465C84.6336 62.1419 84.7741 61.5078 85.055 60.7328C85.055 60.6624 85.1955 60.5215 85.336 60.451C85.4062 60.3806 85.5467 60.3806 85.6169 60.3101C85.8276 60.2396 86.1086 60.3101 86.3193 60.451C86.7407 60.7328 86.811 61.1556 86.8812 61.5078C86.9514 61.8601 86.9514 62.2829 86.8812 62.6351C86.811 62.9874 86.811 63.3397 86.811 63.7624C86.7407 65.242 86.6705 66.792 86.8812 68.2716C86.8812 68.4829 86.9514 68.6239 87.0217 68.7648C87.0217 68.8352 87.0919 68.9057 87.0919 68.9761C87.0919 69.117 87.0919 68.9761 87.0919 69.0466C87.0919 69.0466 87.0919 69.0466 87.0919 68.9761C87.1621 68.9761 87.2324 68.7648 87.3026 68.6239C87.3729 68.4829 87.4431 68.2716 87.4431 68.0602C87.6538 67.2852 87.7943 66.5102 87.8645 65.7352C88.0752 64.1147 88.2859 62.4942 88.4264 60.8737C88.4264 60.3101 88.4264 59.7465 88.7776 59.1828C88.9883 58.901 89.4097 58.7601 89.7609 58.901C90.1121 59.0419 90.2526 59.3942 90.393 59.676C90.674 60.5919 90.674 61.4374 90.674 62.3533C90.674 63.1988 90.6037 64.1147 90.5335 64.9602C90.4633 65.8056 90.3228 66.6511 90.2526 67.4966C90.1823 67.9193 90.1121 68.342 90.0419 68.7648C89.9716 69.0466 89.9716 69.0466 90.1121 69.117C90.1823 69.1875 90.393 69.1875 90.4633 69.117C90.5335 69.0466 90.5335 68.9057 90.6038 68.6943L90.674 68.0602C90.7442 67.6375 90.7442 67.2147 90.8145 66.8625C90.8847 66.0875 91.0252 65.242 91.1657 64.467C91.3061 63.692 91.4466 62.917 91.7275 62.1419C91.868 61.7897 92.0085 61.3669 92.2192 61.0147C92.3597 60.8737 92.5001 60.6624 92.6406 60.5215C92.8513 60.3806 93.062 60.3101 93.343 60.3805C93.6239 60.5215 93.6942 60.8033 93.6942 61.0147C93.6942 61.226 93.7644 61.4374 93.7644 61.5783C93.7644 62.001 93.6942 62.3533 93.6942 62.7056C93.6239 63.4101 93.4835 64.1852 93.343 64.8897C93.1323 66.2988 92.7811 67.7079 92.9216 68.9761C92.9216 69.117 92.9918 69.258 93.062 69.3989C93.062 69.4693 93.1323 69.5398 93.1323 69.5398C93.1323 69.6102 93.1323 69.5398 93.1323 69.5398C93.1323 69.4693 93.1323 69.5398 93.1323 69.4693C93.2728 69.258 93.4132 68.9057 93.4835 68.6239C93.6942 67.9898 93.8347 67.3557 93.9751 66.792C94.1156 66.1579 94.3263 65.5943 94.4668 65.0306C94.537 64.7488 94.6775 64.467 94.818 64.1852C94.8882 64.0442 94.9584 63.9033 95.1692 63.8329C95.2394 63.7624 95.3096 63.7624 95.4501 63.692C95.5906 63.692 95.6608 63.692 95.731 63.692C95.8715 63.692 96.1525 63.8329 96.1525 64.0442C96.2227 64.1852 96.2227 64.3965 96.2227 64.5374C96.2227 64.8193 96.2227 65.1011 96.1525 65.3829C96.0822 65.9465 96.012 66.4397 95.8715 66.9329C95.6608 67.9193 95.4501 68.9057 95.1692 69.7511C94.6775 71.5125 94.1156 72.9921 93.6942 74.1899C93.2728 75.3876 92.9216 76.3035 92.6406 76.9376C92.5001 77.2194 92.4299 77.5013 92.3597 77.6422C92.2894 78.4172 92.2192 78.4876 92.2192 78.4876Z" fill="#EB996E"/>
<path d="M53.8711 98.3557C55.2056 103.076 57.8044 110.404 60.6138 118.083C61.0353 119.211 62.5805 119.281 63.0721 118.224L69.9553 103.64C69.9553 103.64 68.2697 91.6624 68.4101 92.0852C68.5506 92.5079 54.2223 93.6352 54.2223 93.6352L53.8711 98.3557Z" fill="#065373"/>
<path d="M69.3915 96.0313C69.3915 96.1017 68.5487 96.3131 67.1439 96.8767C65.8094 97.3699 63.913 98.2154 62.0166 99.3427C60.1202 100.47 58.575 101.738 57.4512 102.725C56.3274 103.711 55.7655 104.345 55.6953 104.275C55.6953 104.275 55.8358 104.063 56.0465 103.781C56.3274 103.5 56.7489 103.006 57.2405 102.513C58.2941 101.456 59.8393 100.188 61.8059 98.9904C63.7023 97.7926 65.5987 97.0176 67.0034 96.5949C67.7058 96.3835 68.2677 96.1722 68.6891 96.1017C69.1106 96.0312 69.3915 96.0313 69.3915 96.0313Z" fill="#FAFAFA"/>
<path d="M72.0612 99.6245C71.991 99.6245 71.5695 99.1313 70.9374 98.1449C70.3053 97.1585 69.5327 95.7494 68.8303 94.129C68.1279 92.5085 67.7065 90.888 67.4958 89.7607C67.2851 88.6334 67.2148 87.8584 67.2148 87.8584C67.2851 87.8584 67.4256 88.563 67.7065 89.6902C67.9875 90.8175 68.4791 92.3676 69.1112 93.988C69.8136 95.6085 70.516 97.0176 71.1481 98.004C71.71 98.9904 72.1314 99.6245 72.0612 99.6245Z" fill="#263238"/>
<path d="M76.7009 35.0858C74.3128 38.9609 73.8211 44.0337 75.3664 48.3315C76.0687 50.2338 77.1925 52.2066 76.9818 54.2498C76.7711 56.3634 75.1556 58.3362 75.7175 60.3794C76.0687 61.5772 77.052 62.4931 77.4735 63.6908C77.9651 65.0999 77.4735 66.5795 77.2628 68.0591C76.7009 71.7228 77.8949 75.4569 78.1758 79.1911C78.4568 82.9252 77.4735 87.2935 74.1723 88.9139C73.189 89.4071 71.8545 89.548 71.0117 88.773C69.9581 87.7867 70.2391 86.0957 70.52 84.6866C73.3997 70.5955 64.4796 56.8566 66.5165 42.5541C66.8677 40.2996 68.132 36.4245 69.7474 34.804C71.3629 33.1835 75.9283 33.3949 77.4735 35.0858" fill="#263238"/>
<path d="M62.8633 75.9502C62.8633 75.9502 63.2847 75.457 63.9168 74.4706C64.549 73.4842 65.3216 71.9342 65.743 69.891C65.9537 68.8342 66.0239 67.7069 65.9537 66.4387C65.8835 65.1705 65.743 63.8318 65.8132 62.4227C65.8132 61.7181 66.0239 61.0136 66.2347 60.2386C66.5156 59.534 66.7965 58.8295 67.218 58.1954C67.9906 56.8567 68.9739 55.5885 69.887 54.3203C70.8 52.9816 71.5727 51.5725 71.7834 50.093C72.0643 48.6134 71.7834 47.1338 71.5727 45.7952C71.3619 44.3861 71.1512 43.0474 71.2917 41.7792C71.3619 40.511 71.6429 39.3837 71.9941 38.3269C72.6964 36.2837 73.6798 34.8746 74.4524 33.9586C74.8738 33.5359 75.1547 33.1836 75.4357 32.9723C75.6464 32.7609 75.7869 32.6904 75.7869 32.6904C75.7869 32.6904 75.2952 33.1836 74.5928 34.0995C73.8905 35.0155 72.9072 36.495 72.275 38.4678C71.9238 39.4542 71.7131 40.5815 71.6429 41.8497C71.5727 43.1179 71.7131 44.3861 71.9941 45.7952C72.2048 47.2043 72.4857 48.6839 72.275 50.2339C71.9941 51.7839 71.2215 53.2635 70.3084 54.6021C69.3953 55.9408 68.412 57.209 67.6394 58.4772C67.2882 59.1113 66.937 59.8158 66.7263 60.4499C66.5156 61.1545 66.3751 61.8591 66.3049 62.4932C66.2347 63.9023 66.3751 65.2409 66.4454 66.4387C66.5156 67.7069 66.3751 68.9046 66.1644 69.9615C65.743 72.0751 64.9002 73.6251 64.1978 74.6115C63.8466 75.1047 63.5656 75.457 63.3549 75.6684C62.9335 75.8797 62.8633 76.0206 62.8633 75.9502Z" fill="#455A64"/>
<path d="M56.1914 77.0073C56.1914 77.0073 56.2616 76.8664 56.4021 76.5141C56.5426 76.1618 56.8235 75.7391 57.1045 75.1754C57.6664 74.0482 58.5795 72.3572 59.4223 70.2436C60.2651 68.1299 61.108 65.4526 61.108 62.423C61.108 61.648 61.0378 60.873 60.9675 60.098C60.827 59.3229 60.6866 58.5479 60.5461 57.7025C60.4056 56.857 60.4056 56.0115 60.6163 55.0956C60.827 54.2501 61.3889 53.4047 62.0211 52.841C63.3556 51.6433 64.971 50.8683 65.7436 49.4591C66.5865 48.05 66.7972 46.4296 67.0079 44.95C67.2186 43.4 67.4995 41.9909 67.9912 40.7227C68.4829 39.4545 69.115 38.3272 69.7471 37.3408C71.0816 35.4385 72.5566 34.2407 73.6804 33.5362C74.2423 33.1839 74.6637 32.9021 74.9446 32.7612C75.2256 32.6203 75.4363 32.5498 75.4363 32.5498C75.4363 32.6203 74.8042 32.9021 73.7506 33.6066C72.6971 34.3817 71.2923 35.5794 69.9578 37.4817C69.3257 38.3976 68.6936 39.5249 68.2721 40.7931C67.7805 42.0613 67.4995 43.4704 67.3591 45.0204C67.1484 46.5 67.0079 48.1909 66.0948 49.6705C65.1817 51.2205 63.5663 51.9956 62.302 53.1933C61.6699 53.7569 61.1782 54.4615 60.9675 55.307C60.7568 56.082 60.827 56.9274 60.8973 57.7729C61.0377 58.6184 61.1782 59.3934 61.3187 60.1684C61.4592 60.9434 61.4592 61.7889 61.4592 62.5639C61.3889 65.6639 60.5461 68.3413 59.633 70.4549C58.7199 72.5686 57.8069 74.2595 57.1747 75.3868C56.8938 75.9505 56.6128 76.3732 56.4021 76.655C56.2616 76.8664 56.1914 77.0778 56.1914 77.0073Z" fill="#455A64"/>
<path d="M288.533 276.116C288.533 276.116 288.604 276.045 288.674 275.834C288.744 275.622 288.885 275.341 289.095 274.988C289.446 274.213 289.868 273.086 290.289 271.606C291.062 268.577 291.343 263.927 290.219 258.431C289.657 255.683 288.814 252.724 287.761 249.624C286.707 246.454 285.513 243.142 284.53 239.549C283.547 235.956 282.774 232.081 282.914 227.994C283.055 223.908 284.249 219.822 285.583 215.735C286.918 211.649 288.252 207.703 288.674 203.687C289.165 199.671 288.252 195.796 286.496 192.555C284.741 189.314 282.493 186.496 280.878 183.678C279.192 180.789 278.138 177.83 277.506 175.082C276.242 169.516 276.663 164.866 277.295 161.837C277.928 158.737 278.7 157.187 278.7 157.187C278.7 157.187 278.7 157.327 278.63 157.468C278.56 157.68 278.489 157.962 278.349 158.384C278.138 159.159 277.787 160.357 277.506 161.907C276.944 165.007 276.593 169.587 277.857 175.082C278.489 177.83 279.543 180.719 281.229 183.537C282.914 186.355 285.092 189.173 286.918 192.414C288.744 195.655 289.657 199.742 289.165 203.758C288.744 207.844 287.339 211.86 286.075 215.876C284.741 219.962 283.547 223.978 283.406 227.994C283.266 232.01 283.968 235.885 284.951 239.479C285.935 243.072 287.129 246.383 288.112 249.554C289.165 252.724 290.008 255.683 290.5 258.431C291.624 263.997 291.273 268.647 290.5 271.677C290.079 273.227 289.587 274.354 289.236 275.059C289.025 275.411 288.885 275.693 288.814 275.904C288.604 276.045 288.604 276.116 288.533 276.116Z" fill="#263238"/>
<path d="M283.126 186.425C283.126 186.425 279.754 175.645 285.795 169.304C286.005 169.093 286.356 169.164 286.427 169.516C286.778 171.277 287.199 176.702 283.126 186.425Z" fill="#E8505B"/>
<path d="M285.161 172.897C285.231 172.897 285.091 173.672 284.95 174.87C284.74 176.209 284.459 177.829 284.178 179.661C283.897 181.423 283.616 183.043 283.405 184.382C283.194 185.579 283.124 186.354 283.054 186.354C282.984 186.354 282.984 185.579 283.124 184.382C283.265 183.184 283.475 181.423 283.756 179.591C284.037 177.759 284.388 176.068 284.669 174.87C284.88 173.672 285.091 172.897 285.161 172.897Z" fill="#263238"/>
<path d="M287.129 211.86C287.129 211.86 289.166 200.728 297.454 197.98C297.735 197.91 298.016 198.121 297.945 198.473C297.384 200.164 295.206 205.167 287.129 211.86Z" fill="#E8505B"/>
<path d="M295.206 200.869C295.276 200.94 294.784 201.503 294.082 202.49C293.239 203.617 292.256 204.885 291.202 206.365C290.149 207.774 289.166 209.112 288.323 210.24C287.62 211.226 287.129 211.86 287.058 211.79C286.988 211.79 287.41 211.085 288.042 210.028C288.744 208.972 289.727 207.562 290.851 206.083C291.975 204.603 293.029 203.265 293.871 202.278C294.574 201.433 295.136 200.869 295.206 200.869Z" fill="#263238"/>
<path d="M284.879 239.761C284.879 239.761 283.615 228.558 290.779 223.485C291.06 223.274 291.341 223.485 291.341 223.767C291.271 225.599 290.638 230.954 284.879 239.761Z" fill="#E8505B"/>
<path d="M289.376 226.867C289.446 226.867 289.165 227.642 288.744 228.769C288.252 230.038 287.69 231.588 287.058 233.279C286.426 234.97 285.864 236.52 285.443 237.788C285.021 238.915 284.81 239.69 284.74 239.62C284.67 239.62 284.81 238.845 285.162 237.647C285.513 236.449 286.075 234.829 286.707 233.067C287.339 231.306 287.971 229.685 288.463 228.558C289.025 227.501 289.376 226.867 289.376 226.867Z" fill="#263238"/>
<path d="M291.061 267.731C291.061 267.731 290.218 256.458 297.523 251.667C297.804 251.526 298.085 251.667 298.085 252.02C298.014 253.851 297.171 259.206 291.061 267.731Z" fill="#E8505B"/>
<path d="M296.117 255.049C296.188 255.049 295.907 255.824 295.415 256.951C294.923 258.219 294.291 259.769 293.589 261.39C292.886 263.081 292.325 264.56 291.763 265.829C291.341 266.956 291.06 267.66 290.99 267.66C290.92 267.66 291.131 266.885 291.482 265.688C291.833 264.49 292.465 262.94 293.167 261.178C293.87 259.417 294.572 257.867 295.134 256.74C295.696 255.683 296.047 255.049 296.117 255.049Z" fill="#263238"/>
<path d="M278.348 176.984C278.348 176.984 268.375 171.77 268.164 163.034C268.164 162.752 268.515 162.541 268.726 162.682C270.201 163.668 274.345 167.261 278.348 176.984Z" fill="#E8505B"/>
<path d="M270.199 165.993C270.269 165.993 270.691 166.557 271.463 167.543C272.306 168.67 273.219 170.009 274.273 171.418C275.326 172.898 276.31 174.166 277.082 175.293C277.785 176.28 278.276 176.914 278.206 176.914C278.136 176.984 277.644 176.421 276.801 175.434C276.029 174.518 274.975 173.109 273.851 171.63C272.728 170.08 271.815 168.67 271.112 167.614C270.55 166.698 270.129 165.993 270.199 165.993Z" fill="#263238"/>
<path d="M289.023 200.094C289.023 200.094 278.769 195.514 277.996 186.778C277.996 186.496 278.277 186.285 278.558 186.426C280.103 187.342 284.458 190.653 289.023 200.094Z" fill="#E8505B"/>
<path d="M280.312 189.666C280.383 189.596 280.874 190.23 281.647 191.146C282.49 192.203 283.543 193.471 284.667 194.88C285.791 196.289 286.844 197.557 287.687 198.614C288.46 199.53 288.951 200.164 288.951 200.164C288.881 200.235 288.319 199.671 287.476 198.826C286.634 197.91 285.51 196.642 284.316 195.162C283.122 193.682 282.068 192.344 281.366 191.357C280.663 190.371 280.242 189.666 280.312 189.666Z" fill="#263238"/>
<path d="M283.124 225.951C283.124 225.951 276.03 217.144 279.401 209.042C279.541 208.76 279.893 208.69 280.033 208.971C281.016 210.521 283.334 215.453 283.124 225.951Z" fill="#E8505B"/>
<path d="M280.104 212.635C280.175 212.635 280.315 213.339 280.596 214.537C280.877 215.876 281.228 217.496 281.65 219.258C282.001 221.019 282.352 222.639 282.703 223.978C282.984 225.176 283.125 225.951 283.054 225.951C282.984 225.951 282.703 225.246 282.352 224.049C282.001 222.851 281.579 221.23 281.228 219.328C280.807 217.496 280.526 215.805 280.315 214.608C280.104 213.41 280.034 212.635 280.104 212.635Z" fill="#263238"/>
<path d="M290.149 256.317C290.149 256.317 279.964 251.526 279.402 242.79C279.402 242.508 279.683 242.297 279.964 242.437C281.439 243.424 285.724 246.806 290.149 256.317Z" fill="#E8505B"/>
<path d="M281.508 245.749C281.578 245.749 282.07 246.313 282.842 247.229C283.685 248.285 284.739 249.624 285.792 251.033C286.916 252.442 287.899 253.711 288.812 254.767C289.585 255.754 290.077 256.317 290.006 256.388C289.936 256.458 289.374 255.895 288.602 254.979C287.759 254.063 286.635 252.795 285.511 251.315C284.317 249.835 283.334 248.497 282.632 247.44C281.929 246.454 281.508 245.749 281.508 245.749Z" fill="#263238"/>
<path d="M310.444 211.931C310.444 211.931 310.444 212.001 310.444 212.213C310.444 212.424 310.444 212.635 310.444 212.917C310.444 213.622 310.374 214.538 310.303 215.665C310.163 218.06 310.022 221.442 309.741 225.458C309.039 229.545 306.932 234.054 304.122 238.492C302.086 241.733 299.908 244.693 298.082 247.44C296.256 250.188 294.641 252.724 293.587 254.979C292.463 257.234 291.831 259.136 291.48 260.475C291.269 261.179 291.199 261.672 291.058 262.025C290.988 262.377 290.918 262.588 290.918 262.588C290.918 262.588 290.918 262.377 290.988 262.025C291.058 261.672 291.129 261.109 291.339 260.404C291.691 259.065 292.252 257.093 293.376 254.838C294.43 252.584 295.975 249.977 297.871 247.229C299.698 244.481 301.875 241.522 303.842 238.281C306.581 233.913 308.688 229.474 309.46 225.388C309.741 221.372 309.952 217.99 310.163 215.594C310.233 214.467 310.303 213.551 310.374 212.847C310.374 212.565 310.444 212.353 310.444 212.142C310.444 212.001 310.444 211.931 310.444 211.931Z" fill="#263238"/>
<path d="M304.334 237.647C304.334 237.647 308.689 227.22 303.21 220.386C303 220.174 302.648 220.245 302.578 220.527C302.087 222.217 301.244 227.572 304.334 237.647Z" fill="#E8505B"/>
<path d="M303.562 223.979C303.633 223.979 303.773 224.754 303.914 225.951C304.054 227.149 304.265 228.84 304.405 230.742C304.546 232.645 304.616 234.335 304.616 235.533C304.616 236.801 304.546 237.506 304.476 237.506C304.405 237.506 304.405 236.731 304.265 235.533C304.195 234.124 304.054 232.504 303.914 230.742C303.773 228.981 303.703 227.29 303.562 225.951C303.562 224.754 303.492 223.979 303.562 223.979Z" fill="#263238"/>
<g opacity="0.3">
<path d="M304.334 237.647C304.334 237.647 308.689 227.22 303.21 220.386C303 220.174 302.648 220.245 302.578 220.527C302.087 222.217 301.244 227.572 304.334 237.647Z" fill="black"/>
</g>
<path d="M290.99 262.73C290.99 262.73 294.431 251.95 288.461 245.609C288.25 245.398 287.899 245.468 287.829 245.82C287.478 247.582 287.056 253.007 290.99 262.73Z" fill="#E8505B"/>
<path d="M289.093 249.272C289.163 249.272 289.374 249.977 289.584 251.245C289.865 252.443 290.146 254.134 290.427 255.966C290.708 257.798 290.919 259.559 290.989 260.757C291.059 262.025 291.059 262.729 291.059 262.729C290.989 262.729 290.919 261.954 290.708 260.757C290.497 259.418 290.287 257.798 290.006 255.966C289.725 254.204 289.514 252.584 289.303 251.175C289.093 249.977 289.023 249.272 289.093 249.272Z" fill="#263238"/>
<g opacity="0.3">
<path d="M290.99 262.73C290.99 262.73 294.431 251.95 288.461 245.609C288.25 245.398 287.899 245.468 287.829 245.82C287.478 247.582 287.056 253.007 290.99 262.73Z" fill="black"/>
</g>
<path d="M309.883 224.895C309.883 224.895 319.084 218.413 318.171 209.747C318.171 209.465 317.749 209.324 317.539 209.535C316.204 210.663 312.552 214.749 309.883 224.895Z" fill="#E8505B"/>
<g opacity="0.3">
<path d="M309.883 224.895C309.883 224.895 319.084 218.413 318.171 209.747C318.171 209.465 317.749 209.324 317.539 209.535C316.204 210.663 312.552 214.749 309.883 224.895Z" fill="black"/>
</g>
<path d="M316.485 212.917C316.555 212.917 316.274 213.622 315.712 214.749C315.221 215.876 314.448 217.356 313.535 219.047C312.622 220.738 311.779 222.147 311.147 223.203C310.515 224.26 310.023 224.824 309.953 224.824C309.883 224.824 310.304 224.119 310.866 223.063C311.498 221.865 312.341 220.385 313.184 218.835C314.027 217.285 314.799 215.806 315.502 214.608C316.064 213.551 316.415 212.917 316.485 212.917Z" fill="#263238"/>
<path d="M294.711 252.091C294.711 252.091 305.808 250.329 308.829 242.156C308.899 241.875 308.688 241.593 308.407 241.663C306.651 242.156 301.594 244.2 294.711 252.091Z" fill="#E8505B"/>
<g opacity="0.3">
<path d="M294.711 252.091C294.711 252.091 305.808 250.329 308.829 242.156C308.899 241.875 308.688 241.593 308.407 241.663C306.651 242.156 301.594 244.2 294.711 252.091Z" fill="black"/>
</g>
<path d="M305.879 244.341C305.949 244.411 305.317 244.904 304.404 245.679C303.42 246.454 302.086 247.511 300.541 248.568C298.995 249.695 297.591 250.611 296.537 251.245C295.484 251.879 294.781 252.232 294.781 252.161C294.781 252.091 295.343 251.668 296.397 250.963C297.52 250.188 298.855 249.202 300.33 248.216C301.805 247.159 303.139 246.243 304.263 245.397C305.176 244.693 305.879 244.27 305.879 244.341Z" fill="#263238"/>
<path d="M284.11 272.663L280.809 294.575H301.037L298.438 272.663H284.11Z" fill="#455A64"/>
<path d="M299.279 279.427C299.279 279.568 295.627 279.639 291.132 279.639C286.637 279.639 282.984 279.568 282.984 279.427C282.984 279.286 286.637 279.216 291.132 279.216C295.627 279.216 299.279 279.286 299.279 279.427Z" fill="#263238"/>
<path d="M299.63 281.188C299.63 281.329 295.837 281.399 291.202 281.399C286.566 281.399 282.773 281.329 282.773 281.188C282.773 281.047 286.566 280.977 291.202 280.977C295.908 280.977 299.63 281.047 299.63 281.188Z" fill="#263238"/>
<path d="M220.963 60.0987C220.963 60.0987 220.753 60.0987 220.401 60.0987C220.05 60.0987 219.488 60.0282 218.786 60.0987C217.381 60.1692 215.274 60.451 212.816 61.5078C210.358 62.5646 207.478 64.3965 205.23 67.4261C204.106 68.9761 203.123 70.8079 202.561 72.8512C201.999 74.9648 201.789 77.2194 202.07 79.6149C202.351 82.0104 203.123 84.4763 204.387 86.7309C205.02 87.8582 205.792 88.915 206.775 89.9014C207.689 90.8878 208.812 91.8037 210.006 92.4378C211.2 93.0719 212.605 93.4947 214.08 93.4947C215.485 93.4242 216.96 92.931 218.013 91.8742C219.067 90.8173 219.559 89.3378 219.559 87.7878C219.559 86.2377 219.067 84.7582 218.154 83.49C216.328 80.9536 213.378 79.1922 210.217 78.2762C207.056 77.3603 203.545 77.3603 200.243 78.1353C198.558 78.5581 196.942 79.1922 195.467 80.0376C193.922 80.8831 192.588 82.0104 191.323 83.2786C191.042 83.6309 190.691 83.9127 190.48 84.265L189.708 85.3218C189.216 86.0968 188.795 86.8718 188.444 87.6468C187.671 89.2673 187.179 91.0287 186.898 92.8606C186.407 96.4538 186.828 100.188 188.303 103.429C189.708 106.67 192.096 109.488 195.116 111.179C196.591 112.024 198.277 112.518 199.892 112.659C201.578 112.729 203.193 112.306 204.598 111.531C206.003 110.686 207.197 109.488 207.829 108.009C208.461 106.529 208.461 104.838 207.899 103.429C207.408 101.949 206.424 100.681 205.23 99.6948C204.106 98.7084 202.772 97.9334 201.367 97.4402C198.558 96.5243 195.538 96.5947 192.798 97.2993C190.059 98.0038 187.671 99.4129 185.775 101.245C183.878 103.077 182.544 105.261 181.771 107.515C180.156 112.024 180.577 116.675 181.982 120.197C183.387 123.72 185.704 126.257 187.741 127.947C189.848 129.638 191.745 130.554 193.079 131.047C193.711 131.329 194.273 131.47 194.624 131.611C194.976 131.752 195.116 131.752 195.116 131.752C195.116 131.752 194.905 131.682 194.554 131.611C194.203 131.541 193.711 131.329 193.009 131.118C191.675 130.625 189.778 129.709 187.601 128.088C185.494 126.397 183.176 123.861 181.701 120.338C180.296 116.815 179.804 112.095 181.49 107.515C182.263 105.261 183.668 103.006 185.564 101.174C187.46 99.3425 189.919 97.9334 192.658 97.1583C195.397 96.3833 198.487 96.3129 201.367 97.2993C202.772 97.7925 204.177 98.5675 205.371 99.6243C206.565 100.681 207.548 101.949 208.11 103.499C208.672 105.049 208.672 106.811 208.04 108.361C207.408 109.911 206.143 111.179 204.668 112.024C203.193 112.87 201.437 113.293 199.752 113.222C197.996 113.152 196.31 112.588 194.765 111.743C191.675 110.052 189.286 107.163 187.811 103.852C186.337 100.54 185.915 96.7356 186.337 93.0719C186.617 91.2401 187.109 89.4787 187.882 87.7878C188.233 86.9423 188.725 86.1673 189.216 85.3923L190.059 84.265C190.34 83.9127 190.691 83.5604 190.972 83.2081C192.236 81.8695 193.641 80.7422 195.186 79.8967C196.732 79.0513 198.417 78.4172 200.103 77.924C203.474 77.0785 207.056 77.149 210.287 78.0649C213.518 79.0513 216.468 80.7422 218.365 83.4195C219.278 84.7582 219.839 86.3082 219.839 87.9287C219.839 89.4787 219.278 91.0992 218.154 92.2265C217.03 93.3537 215.485 93.8469 214.01 93.9174C212.535 93.9878 211.06 93.5651 209.796 92.8606C208.531 92.156 207.408 91.2401 206.494 90.2537C205.511 89.2673 204.739 88.14 204.106 87.0127C202.772 84.6877 202.07 82.2218 201.718 79.8263C201.437 77.4308 201.648 75.0353 202.21 72.9216C202.772 70.8079 203.755 68.9761 204.949 67.4261C207.267 64.326 210.147 62.4942 212.675 61.5078C215.204 60.451 217.311 60.2396 218.716 60.1692C219.418 60.0987 219.98 60.1692 220.331 60.1692C220.823 60.0282 220.963 60.0987 220.963 60.0987Z" fill="#263238"/>
<path d="M244.421 130.555H145.949V206.717H244.421V130.555Z" fill="#11657F"/>
<path d="M145.949 130.554L164.141 147.604H260.997L244.421 130.554H145.949Z" fill="#065373"/>
<path d="M145.949 130.554C147.705 130.554 188.372 130.484 244.421 130.343H244.492L244.562 130.413C249.83 135.838 255.308 141.475 260.927 147.252C260.997 147.323 261.067 147.393 261.067 147.393L261.348 147.675H260.927C221.243 147.675 185.984 147.604 164.141 147.604H164.07C152.692 136.966 146.581 131.118 145.949 130.554C146.581 131.118 152.762 136.825 164.211 147.463H164.141C186.054 147.463 221.243 147.393 260.927 147.393L260.786 147.675C260.716 147.604 260.646 147.534 260.646 147.534C255.027 141.757 249.549 136.12 244.281 130.695L244.421 130.766C188.443 130.625 147.775 130.554 145.949 130.554Z" fill="#263238"/>
<path d="M175.521 165.712C174.468 165.712 173.555 166.628 173.484 167.685C173.484 168.742 174.397 169.728 175.451 169.728C176.505 169.798 177.488 168.882 177.558 167.826C177.628 166.769 176.715 165.782 175.662 165.712" fill="#263238"/>
<path d="M198.771 165.712C197.718 165.712 196.805 166.628 196.734 167.685C196.734 168.742 197.647 169.728 198.701 169.728C199.755 169.798 200.738 168.882 200.808 167.826C200.878 166.769 199.965 165.782 198.912 165.712" fill="#263238"/>
<path d="M198.982 183.96C198.912 184.031 198.701 182.058 197.016 179.592C196.173 178.394 194.979 177.056 193.293 175.999C191.678 174.942 189.57 174.167 187.323 174.096C185.075 174.026 182.968 174.73 181.282 175.646C179.597 176.633 178.262 177.831 177.349 179.028C175.523 181.424 175.242 183.326 175.172 183.326C175.172 183.326 175.172 183.185 175.242 182.974C175.312 182.762 175.312 182.41 175.523 182.058C175.804 181.283 176.296 180.156 177.209 178.887C178.122 177.69 179.386 176.351 181.142 175.365C182.898 174.378 185.075 173.674 187.393 173.744C189.711 173.815 191.888 174.59 193.504 175.717C195.189 176.844 196.454 178.183 197.226 179.451C198.069 180.719 198.491 181.846 198.701 182.692C198.842 183.115 198.842 183.397 198.912 183.608C198.982 183.819 198.982 183.96 198.982 183.96Z" fill="#263238"/>
<path opacity="0.5" d="M146.16 131.399L163.579 153.593H244.422V147.604H164.141L146.16 131.399Z" fill="black"/>
<path d="M225.039 206.576C224.969 206.576 224.828 193.331 224.828 176.985C224.828 160.639 224.898 147.394 225.039 147.394C225.109 147.394 225.25 160.639 225.25 176.985C225.179 193.331 225.109 206.576 225.039 206.576Z" fill="#263238"/>
<path d="M240.491 189.314H231.781V199.178H240.491V189.314Z" fill="#F5F5F5"/>
<path d="M145.951 130.555L125.723 147.605H145.951V130.555Z" fill="#E8505B"/>
<g opacity="0.4">
<path d="M145.951 130.555L125.723 147.605H145.951V130.555Z" fill="#F46036"/>
</g>
<path d="M247.374 206.787H134.152V294.363H247.374V206.787Z" fill="#065373"/>
<path opacity="0.3" d="M247.374 206.787H134.152V294.363H247.374V206.787Z" fill="#065373"/>
<path d="M219 293.729C218.93 293.729 218.789 274.213 218.789 250.117C218.789 226.021 218.859 206.505 219 206.505C219.14 206.505 219.21 226.021 219.21 250.117C219.14 274.213 219.07 293.729 219 293.729Z" fill="#065373"/>
<path d="M237.752 274.424H229.043V284.288H237.752V274.424Z" fill="#065373"/>
<path d="M181.49 206.998H168.637V225.669H181.49V206.998Z" fill="#065373"/>
<path d="M181.49 275.41H168.637V294.081H181.49V275.41Z" fill="#065373"/>
<path d="M246.391 206.786C246.391 206.786 246.321 206.786 246.11 206.786C245.899 206.786 245.618 206.786 245.267 206.786C244.494 206.786 243.371 206.786 241.966 206.786C239.086 206.786 235.012 206.786 229.955 206.857C219.771 206.857 205.794 206.857 190.272 206.927C174.749 206.927 160.772 206.857 150.588 206.857C145.531 206.857 141.387 206.786 138.577 206.786C137.173 206.786 136.049 206.786 135.276 206.786C134.925 206.786 134.644 206.786 134.433 206.786C134.223 206.786 134.152 206.786 134.152 206.786C134.152 206.786 134.223 206.786 134.433 206.786C134.644 206.786 134.925 206.786 135.276 206.786C136.049 206.786 137.173 206.786 138.577 206.786C141.457 206.786 145.531 206.786 150.588 206.716C160.772 206.716 174.749 206.716 190.272 206.646C205.724 206.646 219.771 206.716 229.955 206.716C235.012 206.716 239.156 206.786 241.966 206.786C243.371 206.786 244.494 206.786 245.267 206.786C245.618 206.786 245.899 206.786 246.11 206.786C246.25 206.786 246.391 206.786 246.391 206.786Z" fill="#065373"/>
<path d="M52.3282 55.0961C51.4854 54.8847 47.6223 53.8983 39.9665 52.0665H40.0368C37.2975 53.8279 33.6452 55.1665 29.3608 55.237C27.2537 55.237 25.0061 54.9552 22.7585 54.2506C20.5109 53.546 18.3336 52.4187 16.2967 50.7983C12.2932 47.6982 9.20278 42.7663 8.50041 36.989C8.14922 34.1707 8.35993 31.1412 9.27301 28.3229C10.1861 25.5047 11.7313 22.7569 13.7682 20.5024C14.8217 19.3046 16.086 18.3182 17.3503 17.4023C17.9824 16.9796 18.6848 16.5568 19.3871 16.2046L20.4407 15.7114L21.0728 15.5L21.6347 15.2886C24.5144 14.1613 27.5346 13.7386 30.4845 13.95C33.4345 14.1613 36.244 14.9364 38.7023 16.275C41.1606 17.5432 43.2677 19.3046 44.9533 21.3478C46.639 23.3206 47.8331 25.5752 48.6057 27.8297C49.3783 30.0843 49.7295 32.3389 49.7295 34.523C49.7295 38.8208 48.395 42.555 46.7795 45.2323V45.0914C50.2211 51.2915 51.9068 54.3915 52.3282 55.0961C51.9068 54.3915 50.1509 51.2915 46.5688 45.1618V45.0914V45.0209C48.1842 42.3436 49.4485 38.6799 49.4485 34.4526C49.4485 32.3389 49.0271 30.0843 48.3247 27.9002C47.5521 25.7161 46.3581 23.4615 44.7426 21.5592C43.1272 19.5864 41.0201 17.8955 38.632 16.6273C36.244 15.3591 33.4345 14.5841 30.5548 14.3727C27.6751 14.1613 24.6549 14.5841 21.8454 15.7114L21.2835 15.9227L20.7919 16.2046L19.7383 16.6978C19.0359 17.05 18.4038 17.4728 17.7717 17.8955C16.5074 18.8114 15.3134 19.7978 14.2598 20.9251C12.223 23.1797 10.6778 25.7865 9.83491 28.6047C8.99207 31.423 8.71112 34.3117 9.0623 37.1299C9.69443 42.7663 12.7849 47.6278 16.6479 50.6574C18.6145 52.2074 20.7919 53.3347 22.9692 54.0392C25.1465 54.7438 27.3941 55.0256 29.431 55.0256C33.6452 54.9551 37.2273 53.6165 39.9665 51.9256H40.0368H40.107C47.6223 53.8279 51.4854 54.8847 52.3282 55.0961Z" fill="#263238"/>
<path d="M27.3945 25.3642L28.0969 35.7212C28.1671 36.5666 28.7993 37.2712 29.6421 37.2712C30.5552 37.3416 31.3278 36.6371 31.398 35.7916L32.5218 25.4346C32.5921 24.6596 31.9599 23.9551 31.1873 23.9551H28.6588C27.9564 24.0255 27.3945 24.6596 27.3945 25.3642Z" fill="#F46036"/>
<path d="M32.3825 43.119C31.961 44.4577 30.5563 45.1622 29.2218 44.7395C27.8873 44.3168 27.1849 42.9077 27.6064 41.569C28.0278 40.2304 29.4325 39.5258 30.767 39.9485C32.1015 40.3713 32.8039 41.7804 32.3825 43.119Z" fill="#F46036"/>
</g>
<path d="M100.805 342V330.8H102.149L108.117 339.776V330.8H109.461V342H108.117L102.149 333.024V342H100.805ZM115.372 342.192C114.626 342.192 113.954 342.021 113.356 341.68C112.759 341.339 112.284 340.859 111.932 340.24C111.591 339.611 111.42 338.875 111.42 338.032C111.42 337.189 111.596 336.459 111.948 335.84C112.3 335.211 112.775 334.725 113.372 334.384C113.98 334.043 114.658 333.872 115.404 333.872C116.151 333.872 116.823 334.043 117.42 334.384C118.018 334.725 118.487 335.211 118.828 335.84C119.18 336.459 119.356 337.189 119.356 338.032C119.356 338.875 119.18 339.611 118.828 340.24C118.476 340.859 117.996 341.339 117.388 341.68C116.791 342.021 116.119 342.192 115.372 342.192ZM115.372 341.04C115.831 341.04 116.258 340.928 116.652 340.704C117.047 340.48 117.367 340.144 117.612 339.696C117.858 339.248 117.98 338.693 117.98 338.032C117.98 337.371 117.858 336.816 117.612 336.368C117.378 335.92 117.063 335.584 116.668 335.36C116.274 335.136 115.852 335.024 115.404 335.024C114.946 335.024 114.519 335.136 114.124 335.36C113.73 335.584 113.41 335.92 113.164 336.368C112.919 336.816 112.796 337.371 112.796 338.032C112.796 338.693 112.919 339.248 113.164 339.696C113.41 340.144 113.724 340.48 114.108 340.704C114.503 340.928 114.924 341.04 115.372 341.04ZM128.163 342V331.904H124.819V330.8H132.851V331.904H129.507V342H128.163ZM133.506 342V334.064H134.722L134.834 335.584C135.08 335.061 135.453 334.645 135.954 334.336C136.456 334.027 137.074 333.872 137.81 333.872V335.28H137.442C136.973 335.28 136.541 335.365 136.146 335.536C135.752 335.696 135.437 335.973 135.202 336.368C134.968 336.763 134.85 337.307 134.85 338V342H133.506ZM141.959 342.192C141.298 342.192 140.748 342.08 140.311 341.856C139.874 341.632 139.548 341.333 139.335 340.96C139.122 340.587 139.015 340.181 139.015 339.744C139.015 338.933 139.324 338.309 139.943 337.872C140.562 337.435 141.404 337.216 142.471 337.216H144.615V337.12C144.615 336.427 144.434 335.904 144.071 335.552C143.708 335.189 143.223 335.008 142.615 335.008C142.092 335.008 141.639 335.141 141.255 335.408C140.882 335.664 140.647 336.043 140.551 336.544H139.175C139.228 335.968 139.42 335.483 139.751 335.088C140.092 334.693 140.514 334.395 141.015 334.192C141.516 333.979 142.05 333.872 142.615 333.872C143.724 333.872 144.556 334.171 145.111 334.768C145.676 335.355 145.959 336.139 145.959 337.12V342H144.759L144.679 340.576C144.455 341.024 144.124 341.408 143.687 341.728C143.26 342.037 142.684 342.192 141.959 342.192ZM142.167 341.056C142.679 341.056 143.116 340.923 143.479 340.656C143.852 340.389 144.135 340.043 144.327 339.616C144.519 339.189 144.615 338.741 144.615 338.272V338.256H142.583C141.794 338.256 141.234 338.395 140.903 338.672C140.583 338.939 140.423 339.275 140.423 339.68C140.423 340.096 140.572 340.432 140.871 340.688C141.18 340.933 141.612 341.056 142.167 341.056ZM147.975 342V334.064H149.191L149.271 335.488C149.527 334.987 149.895 334.592 150.375 334.304C150.855 334.016 151.399 333.872 152.007 333.872C152.946 333.872 153.692 334.16 154.247 334.736C154.812 335.301 155.095 336.176 155.095 337.36V342H153.751V337.504C153.751 335.851 153.068 335.024 151.703 335.024C151.02 335.024 150.45 335.275 149.991 335.776C149.543 336.267 149.319 336.971 149.319 337.888V342H147.975ZM160.171 342.192C159.222 342.192 158.433 341.952 157.803 341.472C157.174 340.992 156.806 340.341 156.699 339.52H158.075C158.161 339.936 158.379 340.299 158.731 340.608C159.094 340.907 159.579 341.056 160.187 341.056C160.753 341.056 161.169 340.939 161.435 340.704C161.702 340.459 161.835 340.171 161.835 339.84C161.835 339.36 161.659 339.04 161.307 338.88C160.966 338.72 160.481 338.576 159.851 338.448C159.425 338.363 158.998 338.24 158.571 338.08C158.145 337.92 157.787 337.696 157.499 337.408C157.211 337.109 157.067 336.72 157.067 336.24C157.067 335.547 157.323 334.981 157.835 334.544C158.358 334.096 159.062 333.872 159.947 333.872C160.79 333.872 161.478 334.085 162.011 334.512C162.555 334.928 162.87 335.525 162.955 336.304H161.627C161.574 335.899 161.398 335.584 161.099 335.36C160.811 335.125 160.422 335.008 159.931 335.008C159.451 335.008 159.078 335.109 158.811 335.312C158.555 335.515 158.427 335.781 158.427 336.112C158.427 336.432 158.593 336.683 158.923 336.864C159.265 337.045 159.723 337.2 160.299 337.328C160.79 337.435 161.254 337.568 161.691 337.728C162.139 337.877 162.502 338.107 162.779 338.416C163.067 338.715 163.211 339.152 163.211 339.728C163.222 340.443 162.95 341.035 162.395 341.504C161.851 341.963 161.11 342.192 160.171 342.192ZM167.771 342.192C167.11 342.192 166.561 342.08 166.123 341.856C165.686 341.632 165.361 341.333 165.147 340.96C164.934 340.587 164.827 340.181 164.827 339.744C164.827 338.933 165.137 338.309 165.755 337.872C166.374 337.435 167.217 337.216 168.283 337.216H170.427V337.12C170.427 336.427 170.246 335.904 169.883 335.552C169.521 335.189 169.035 335.008 168.427 335.008C167.905 335.008 167.451 335.141 167.067 335.408C166.694 335.664 166.459 336.043 166.363 336.544H164.987C165.041 335.968 165.233 335.483 165.563 335.088C165.905 334.693 166.326 334.395 166.827 334.192C167.329 333.979 167.862 333.872 168.427 333.872C169.537 333.872 170.369 334.171 170.923 334.768C171.489 335.355 171.771 336.139 171.771 337.12V342H170.571L170.491 340.576C170.267 341.024 169.937 341.408 169.499 341.728C169.073 342.037 168.497 342.192 167.771 342.192ZM167.979 341.056C168.491 341.056 168.929 340.923 169.291 340.656C169.665 340.389 169.947 340.043 170.139 339.616C170.331 339.189 170.427 338.741 170.427 338.272V338.256H168.395C167.606 338.256 167.046 338.395 166.715 338.672C166.395 338.939 166.235 339.275 166.235 339.68C166.235 340.096 166.385 340.432 166.683 340.688C166.993 340.933 167.425 341.056 167.979 341.056ZM177.436 342.192C176.678 342.192 175.996 342.021 175.388 341.68C174.79 341.328 174.316 340.843 173.964 340.224C173.622 339.595 173.452 338.864 173.452 338.032C173.452 337.2 173.622 336.475 173.964 335.856C174.316 335.227 174.79 334.741 175.388 334.4C175.996 334.048 176.678 333.872 177.436 333.872C178.374 333.872 179.164 334.117 179.804 334.608C180.454 335.099 180.865 335.755 181.036 336.576H179.66C179.553 336.085 179.292 335.707 178.876 335.44C178.46 335.163 177.974 335.024 177.42 335.024C176.972 335.024 176.55 335.136 176.156 335.36C175.761 335.584 175.441 335.92 175.196 336.368C174.95 336.816 174.828 337.371 174.828 338.032C174.828 338.693 174.95 339.248 175.196 339.696C175.441 340.144 175.761 340.485 176.156 340.72C176.55 340.944 176.972 341.056 177.42 341.056C177.974 341.056 178.46 340.923 178.876 340.656C179.292 340.379 179.553 339.989 179.66 339.488H181.036C180.876 340.288 180.47 340.939 179.82 341.44C179.169 341.941 178.374 342.192 177.436 342.192ZM185.83 342C185.105 342 184.534 341.824 184.118 341.472C183.702 341.12 183.494 340.485 183.494 339.568V335.2H182.118V334.064H183.494L183.67 332.16H184.838V334.064H187.174V335.2H184.838V339.568C184.838 340.069 184.939 340.411 185.142 340.592C185.345 340.763 185.702 340.848 186.214 340.848H187.046V342H185.83ZM189.697 332.304C189.431 332.304 189.207 332.219 189.025 332.048C188.855 331.867 188.769 331.643 188.769 331.376C188.769 331.12 188.855 330.907 189.025 330.736C189.207 330.565 189.431 330.48 189.697 330.48C189.953 330.48 190.172 330.565 190.353 330.736C190.535 330.907 190.625 331.12 190.625 331.376C190.625 331.643 190.535 331.867 190.353 332.048C190.172 332.219 189.953 332.304 189.697 332.304ZM189.025 342V334.064H190.369V342H189.025ZM196.325 342.192C195.579 342.192 194.907 342.021 194.309 341.68C193.712 341.339 193.237 340.859 192.885 340.24C192.544 339.611 192.373 338.875 192.373 338.032C192.373 337.189 192.549 336.459 192.901 335.84C193.253 335.211 193.728 334.725 194.325 334.384C194.933 334.043 195.611 333.872 196.357 333.872C197.104 333.872 197.776 334.043 198.373 334.384C198.971 334.725 199.44 335.211 199.781 335.84C200.133 336.459 200.309 337.189 200.309 338.032C200.309 338.875 200.133 339.611 199.781 340.24C199.429 340.859 198.949 341.339 198.341 341.68C197.744 342.021 197.072 342.192 196.325 342.192ZM196.325 341.04C196.784 341.04 197.211 340.928 197.605 340.704C198 340.48 198.32 340.144 198.565 339.696C198.811 339.248 198.933 338.693 198.933 338.032C198.933 337.371 198.811 336.816 198.565 336.368C198.331 335.92 198.016 335.584 197.621 335.36C197.227 335.136 196.805 335.024 196.357 335.024C195.899 335.024 195.472 335.136 195.077 335.36C194.683 335.584 194.363 335.92 194.117 336.368C193.872 336.816 193.749 337.371 193.749 338.032C193.749 338.693 193.872 339.248 194.117 339.696C194.363 340.144 194.677 340.48 195.061 340.704C195.456 340.928 195.877 341.04 196.325 341.04ZM202.178 342V334.064H203.394L203.474 335.488C203.73 334.987 204.098 334.592 204.578 334.304C205.058 334.016 205.602 333.872 206.21 333.872C207.149 333.872 207.896 334.16 208.45 334.736C209.016 335.301 209.298 336.176 209.298 337.36V342H207.954V337.504C207.954 335.851 207.272 335.024 205.906 335.024C205.224 335.024 204.653 335.275 204.194 335.776C203.746 336.267 203.522 336.971 203.522 337.888V342H202.178ZM214.374 342.192C213.425 342.192 212.636 341.952 212.006 341.472C211.377 340.992 211.009 340.341 210.902 339.52H212.278C212.364 339.936 212.582 340.299 212.934 340.608C213.297 340.907 213.782 341.056 214.39 341.056C214.956 341.056 215.372 340.939 215.638 340.704C215.905 340.459 216.038 340.171 216.038 339.84C216.038 339.36 215.862 339.04 215.51 338.88C215.169 338.72 214.684 338.576 214.054 338.448C213.628 338.363 213.201 338.24 212.774 338.08C212.348 337.92 211.99 337.696 211.702 337.408C211.414 337.109 211.27 336.72 211.27 336.24C211.27 335.547 211.526 334.981 212.038 334.544C212.561 334.096 213.265 333.872 214.15 333.872C214.993 333.872 215.681 334.085 216.214 334.512C216.758 334.928 217.073 335.525 217.158 336.304H215.83C215.777 335.899 215.601 335.584 215.302 335.36C215.014 335.125 214.625 335.008 214.134 335.008C213.654 335.008 213.281 335.109 213.014 335.312C212.758 335.515 212.63 335.781 212.63 336.112C212.63 336.432 212.796 336.683 213.126 336.864C213.468 337.045 213.926 337.2 214.502 337.328C214.993 337.435 215.457 337.568 215.894 337.728C216.342 337.877 216.705 338.107 216.982 338.416C217.27 338.715 217.414 339.152 217.414 339.728C217.425 340.443 217.153 341.035 216.598 341.504C216.054 341.963 215.313 342.192 214.374 342.192Z" fill="#668A99"/>
<defs>
<clipPath id="clip0_4056_80839">
<rect width="318.243" height="300" fill="white"/>
</clipPath>
</defs>
</svg>
