<svg width="36" height="36" viewBox="0 0 36 36" fill="none" xmlns="http://www.w3.org/2000/svg">
<rect width="36" height="36" rx="8" fill="#F6AE2D"/>
<path d="M18.0003 9.66699C15.817 9.66699 14.042 11.442 14.042 13.6253C14.042 15.767 15.717 17.5003 17.9003 17.5753C17.967 17.567 18.0337 17.567 18.0837 17.5753C18.1003 17.5753 18.1087 17.5753 18.1253 17.5753C18.1337 17.5753 18.1337 17.5753 18.142 17.5753C20.2753 17.5003 21.9503 15.767 21.9587 13.6253C21.9587 11.442 20.1837 9.66699 18.0003 9.66699Z" fill="white"/>
<path d="M22.2338 19.7914C19.9088 18.2414 16.1171 18.2414 13.7755 19.7914C12.7171 20.4997 12.1338 21.4581 12.1338 22.4831C12.1338 23.5081 12.7171 24.4581 13.7671 25.1581C14.9338 25.9414 16.4671 26.3331 18.0005 26.3331C19.5338 26.3331 21.0671 25.9414 22.2338 25.1581C23.2838 24.4497 23.8671 23.4997 23.8671 22.4664C23.8588 21.4414 23.2838 20.4914 22.2338 19.7914Z" fill="white"/>
</svg>
