<svg width="24" height="25" viewBox="0 0 24 25" fill="none" xmlns="http://www.w3.org/2000/svg">
<path d="M22 7.75H16C15.59 7.75 15.25 7.41 15.25 7C15.25 6.59 15.59 6.25 16 6.25H22C22.41 6.25 22.75 6.59 22.75 7C22.75 7.41 22.41 7.75 22 7.75Z" fill="#668A99"/>
<path d="M6 7.75H2C1.59 7.75 1.25 7.41 1.25 7C1.25 6.59 1.59 6.25 2 6.25H6C6.41 6.25 6.75 6.59 6.75 7C6.75 7.41 6.41 7.75 6 7.75Z" fill="#668A99"/>
<path d="M10 11.25C7.66 11.25 5.75 9.34 5.75 7C5.75 4.66 7.66 2.75 10 2.75C12.34 2.75 14.25 4.66 14.25 7C14.25 9.34 12.34 11.25 10 11.25ZM10 4.25C8.48 4.25 7.25 5.48 7.25 7C7.25 8.52 8.48 9.75 10 9.75C11.52 9.75 12.75 8.52 12.75 7C12.75 5.48 11.52 4.25 10 4.25Z" fill="#668A99"/>
<path d="M22 18.75H18C17.59 18.75 17.25 18.41 17.25 18C17.25 17.59 17.59 17.25 18 17.25H22C22.41 17.25 22.75 17.59 22.75 18C22.75 18.41 22.41 18.75 22 18.75Z" fill="#668A99"/>
<path d="M8 18.75H2C1.59 18.75 1.25 18.41 1.25 18C1.25 17.59 1.59 17.25 2 17.25H8C8.41 17.25 8.75 17.59 8.75 18C8.75 18.41 8.41 18.75 8 18.75Z" fill="#668A99"/>
<path d="M14 22.25C11.66 22.25 9.75 20.34 9.75 18C9.75 15.66 11.66 13.75 14 13.75C16.34 13.75 18.25 15.66 18.25 18C18.25 20.34 16.34 22.25 14 22.25ZM14 15.25C12.48 15.25 11.25 16.48 11.25 18C11.25 19.52 12.48 20.75 14 20.75C15.52 20.75 16.75 19.52 16.75 18C16.75 16.48 15.52 15.25 14 15.25Z" fill="#668A99"/>
</svg>
