<svg width="24" height="56" viewBox="0 0 24 56" fill="none" xmlns="http://www.w3.org/2000/svg">
<path d="M2.54011 55.9202L21.0516 44.7561C21.0924 44.7411 21.1278 44.7133 21.1527 44.6764C21.1777 44.6396 21.1912 44.5956 21.1912 44.5504C21.1912 44.5053 21.1777 44.4612 21.1527 44.4244C21.1278 44.3875 21.0924 44.3597 21.0516 44.3447L19.3403 43.3163C19.2343 43.2606 19.1173 43.2316 18.9986 43.2316C18.88 43.2316 18.763 43.2606 18.657 43.3163L0.139513 54.4702C0.0987294 54.4851 0.0634025 54.513 0.0384121 54.5498C0.0134217 54.5866 0 54.6307 0 54.6758C0 54.721 0.0134217 54.765 0.0384121 54.8019C0.0634025 54.8387 0.0987294 54.8665 0.139513 54.8815L1.85675 55.9099C1.96198 55.9672 2.0786 55.998 2.19726 55.9998C2.31592 56.0016 2.43334 55.9743 2.54011 55.9202Z" fill="#E0E0E0"/>
<path d="M20.5446 1.65295L3.85271 11.7187C3.60458 11.8879 3.39808 12.1156 3.24993 12.3836C3.10179 12.6516 3.01617 12.9523 3 13.2613V54.6166C3 55.1842 3.38204 55.4146 3.85271 55.1308L20.5446 45.065C20.7931 44.8962 20.9998 44.6685 21.148 44.4004C21.2962 44.1324 21.3816 43.8315 21.3973 43.5224V2.16714C21.3973 1.59948 21.0173 1.36912 20.5446 1.65295Z" fill="#455A64"/>
<path d="M3.85086 11.7187L20.5428 1.65291C20.9642 1.39787 21.3128 1.55624 21.3837 1.99845C21.3443 1.72042 21.249 1.45426 21.1041 1.21746C20.9592 0.980654 20.7679 0.778581 20.5428 0.624533L19.8496 0.213181C19.5853 0.0731568 19.2932 0.000183105 18.9969 0.000183105C18.7006 0.000183105 18.4084 0.0731568 18.1442 0.213181L1.45027 10.2707C1.19884 10.4354 0.991503 10.664 0.847656 10.9351L3.24825 12.3748C3.39205 12.1058 3.59954 11.8799 3.85086 11.7187Z" fill="#37474F"/>
<path d="M0.59375 53.1688C0.609916 53.4778 0.69554 53.7785 0.843685 54.0465C0.991831 54.3145 1.19833 54.5423 1.44646 54.7114L2.14163 55.1228C2.38223 55.2485 2.64554 55.3197 2.91433 55.3317C3.18311 55.3438 3.45129 55.2964 3.70133 55.1927C3.30746 55.3531 2.99434 55.1166 2.99434 54.6086V13.2615C3.00421 12.9512 3.09034 12.6488 3.24445 12.3833L0.843854 10.9435C0.691898 11.207 0.605887 11.5062 0.59375 11.8136V53.1688Z" fill="#263238"/>
<path d="M4.3108 17.2292L20.0909 7.71668C20.3745 7.54803 20.6029 7.68583 20.6029 8.0252V38.6339C20.5934 38.8194 20.5421 38.9999 20.4531 39.1608C20.3642 39.3216 20.24 39.4582 20.0909 39.5594L4.31671 49.0719C4.03313 49.2426 3.80469 49.1048 3.80469 48.7634V18.1547C3.81365 17.9698 3.86412 17.7897 3.95204 17.6289C4.03996 17.4681 4.16286 17.3312 4.3108 17.2292Z" fill="white"/>
<path d="M12.1978 8.25332C12.1107 8.31304 12.0382 8.39328 11.9862 8.48759C11.9342 8.5819 11.9042 8.68764 11.8984 8.7963C11.8984 9.00197 12.0324 9.07807 12.1978 8.97729C12.2852 8.91794 12.3579 8.83778 12.41 8.7434C12.462 8.64901 12.4919 8.54309 12.4971 8.43431C12.4971 8.23481 12.3632 8.1546 12.1978 8.25332Z" fill="#37474F"/>
<path d="M12.1972 45.7786C11.8529 46.0138 11.5666 46.3304 11.3613 46.7028C11.156 47.0751 11.0376 47.4927 11.0156 47.9217C11.0156 48.7095 11.5454 49.0303 12.1972 48.6354C12.5414 48.4001 12.8276 48.0835 13.0329 47.7112C13.2382 47.3388 13.3567 46.9213 13.3788 46.4923C13.3827 45.7046 12.851 45.3837 12.1972 45.7786Z" fill="#37474F"/>
<path d="M9.36423 11.437C9.19116 11.557 9.04751 11.7178 8.94489 11.9065C8.84226 12.0951 8.78353 12.3063 8.77344 12.523C8.77344 12.922 9.04126 13.0845 9.36423 12.885C9.53913 12.7661 9.6847 12.6058 9.78907 12.4171C9.89344 12.2284 9.95368 12.0166 9.96487 11.799C9.96487 11.4 9.69705 11.2375 9.36423 11.437Z" fill="#37474F"/>
<path d="M10.8359 11.3007C10.8359 11.5681 11.0329 11.6689 11.2633 11.527L15.2019 9.14731C15.3239 9.06773 15.4262 8.9592 15.5005 8.83054C15.5747 8.70187 15.6188 8.55672 15.6292 8.40688C15.6292 8.14156 15.4323 8.04078 15.2019 8.18269L11.2633 10.5624C11.1415 10.6417 11.0394 10.75 10.9651 10.8782C10.8909 11.0065 10.8466 11.1513 10.8359 11.3007Z" fill="#37474F"/>
<path d="M1.92385 18.5531C2.06361 18.6482 2.17994 18.7763 2.26343 18.9271C2.34691 19.0779 2.3952 19.2471 2.40437 19.421C2.40437 19.7419 2.18971 19.8715 1.92385 19.711C1.78458 19.6156 1.66871 19.4874 1.58559 19.3366C1.50247 19.1858 1.45442 19.0168 1.44531 18.8431C1.44531 18.5243 1.65997 18.3947 1.92385 18.5531Z" fill="#37474F"/>
<path d="M1.92385 22.4157C2.06361 22.5107 2.17994 22.6389 2.26343 22.7897C2.34691 22.9405 2.3952 23.1097 2.40437 23.2836C2.40437 23.6024 2.18971 23.732 1.92385 23.5736C1.78458 23.4782 1.66871 23.3499 1.58559 23.1992C1.50247 23.0484 1.45442 22.8794 1.44531 22.7057C1.44531 22.3848 1.65997 22.2552 1.92385 22.4157Z" fill="#37474F"/>
<path d="M1.77739 18.6317C1.91714 18.7268 2.03348 18.8549 2.11696 19.0057C2.20045 19.1565 2.24873 19.3257 2.2579 19.4997C2.2579 19.8185 2.04325 19.948 1.77739 19.7897C1.63764 19.6946 1.5213 19.5665 1.43782 19.4157C1.35433 19.2649 1.30605 19.0956 1.29688 18.9217C1.29884 18.6009 1.5135 18.4775 1.77739 18.6317Z" fill="#455A64"/>
<path d="M1.77739 22.4916C1.9174 22.5868 2.0339 22.7153 2.11739 22.8665C2.20089 23.0176 2.24903 23.1873 2.2579 23.3616C2.2579 23.6804 2.04325 23.8099 1.77739 23.6495C1.63731 23.5548 1.52072 23.4268 1.43719 23.2759C1.35367 23.125 1.30558 22.9556 1.29688 22.7816C1.29884 22.4628 1.5135 22.3332 1.77739 22.4916Z" fill="#455A64"/>
<path d="M23.7983 8.99326C23.7983 8.65184 23.5698 8.51404 23.2862 8.68475L21.3977 9.82214L7.51202 18.1973C7.36287 18.2985 7.23874 18.4351 7.14976 18.5959C7.06078 18.7568 7.00946 18.9373 7 19.1228V49.7232C7 50.0647 7.22844 50.2025 7.51202 50.0318L21.4036 41.6546L23.2862 40.5193C23.4354 40.418 23.5595 40.2814 23.6485 40.1206C23.7375 39.9597 23.7888 39.7792 23.7983 39.5937V8.99326Z" fill="white"/>
<path d="M23.9946 8.99303C24.007 8.88989 23.99 8.78522 23.9457 8.69211C23.9015 8.59901 23.8319 8.5216 23.7457 8.46958C23.6596 8.41755 23.5606 8.39322 23.4613 8.39962C23.3619 8.40603 23.2666 8.44288 23.1872 8.50558L21.3853 9.5936L7.41302 18.0263C7.23313 18.1449 7.08356 18.3074 6.9772 18.4998C6.87085 18.6922 6.8109 18.9088 6.80254 19.1308V49.723C6.79463 49.8257 6.81353 49.9287 6.85723 50.0211C6.90092 50.1134 6.96777 50.1917 7.05067 50.2475C7.12118 50.2903 7.20149 50.3124 7.28305 50.3113C7.39849 50.3075 7.51106 50.2728 7.60995 50.2105L21.5921 41.7778L23.39 40.6939C23.5689 40.5741 23.7177 40.4113 23.8239 40.2192C23.9301 40.027 23.9907 39.811 24.0005 39.5894L23.9946 8.99303ZM21.3892 41.4261L21.2277 41.5248L7.4209 49.8506C7.39769 49.8692 7.3708 49.8822 7.34219 49.8886C7.31357 49.895 7.28395 49.8946 7.25548 49.8876C7.22988 49.8711 7.20427 49.8135 7.20427 49.7189V19.1226C7.21447 18.9732 7.25699 18.8283 7.32863 18.6986C7.40026 18.5689 7.49915 18.4579 7.61783 18.3739L21.4109 10.044L23.3802 8.85317C23.4034 8.83455 23.4303 8.82157 23.4589 8.81516C23.4875 8.80876 23.5171 8.80909 23.5456 8.81615C23.5712 8.8326 23.5968 8.89019 23.5968 8.9848V39.5935C23.5866 39.7428 23.5441 39.8878 23.4725 40.0175C23.4008 40.1472 23.3019 40.2582 23.1833 40.3422L21.3853 41.4261H21.3892Z" fill="#065373"/>
<path d="M15.3954 16.1037C17.1678 15.0383 18.5956 15.898 18.5956 18.035C18.5956 20.1719 17.1619 22.7655 15.3954 23.8227C13.629 24.8798 12.1953 24.0283 12.1953 21.8934C12.1953 19.7585 13.629 17.1711 15.3954 16.1037Z" fill="#065373"/>
<path d="M15.3972 17.7823C15.9703 17.4367 16.435 17.7164 16.435 18.3993C16.4156 18.7755 16.3114 19.1415 16.1311 19.4678C15.9508 19.7941 15.6994 20.0714 15.3972 20.2771C14.8241 20.6226 14.3594 20.3429 14.3594 19.6601C14.3788 19.2839 14.483 18.9178 14.6633 18.5916C14.8436 18.2653 15.0951 17.988 15.3972 17.7823Z" fill="#065373"/>
<path d="M17.4196 21.4679C17.4196 20.3326 16.6575 19.8718 15.7142 20.4395L15.1234 20.7953C14.1821 21.363 13.418 22.7451 13.418 23.8805V24.1869C13.9635 24.3741 14.6488 24.2733 15.3873 23.8229C16.2054 23.2959 16.8972 22.5804 17.4098 21.7312L17.4196 21.4679Z" fill="#065373"/>
<path opacity="0.7" d="M15.3972 17.7823C15.9703 17.4367 16.435 17.7164 16.435 18.3993C16.4156 18.7755 16.3114 19.1415 16.1311 19.4678C15.9508 19.7941 15.6994 20.0714 15.3972 20.2771C14.8241 20.6226 14.3594 20.3429 14.3594 19.6601C14.3788 19.2839 14.483 18.9178 14.6633 18.5916C14.8436 18.2653 15.0951 17.988 15.3972 17.7823Z" fill="white"/>
<path opacity="0.7" d="M17.4196 21.4679C17.4196 20.3326 16.6575 19.8718 15.7142 20.4395L15.1234 20.7953C14.1821 21.363 13.418 22.7451 13.418 23.8805V24.1869C13.9635 24.3741 14.6488 24.2733 15.3873 23.8229C16.2054 23.2959 16.8972 22.5804 17.4098 21.7312L17.4196 21.4679Z" fill="white"/>
<path d="M9.20788 28.5226L13.3257 26.04C13.5226 25.9269 13.6664 26.0174 13.6664 26.2457V26.3876C13.6602 26.5112 13.6261 26.6316 13.5669 26.7388C13.5076 26.846 13.425 26.9371 13.3257 27.0047L9.20788 29.4872C9.02079 29.6003 8.86719 29.5077 8.86719 29.2815V29.1396C8.87358 29.016 8.90775 28.8958 8.96695 28.7886C9.02614 28.6814 9.10868 28.5902 9.20788 28.5226Z" fill="#065373"/>
<path opacity="0.1" d="M9.20788 28.5226L13.3257 26.04C13.5226 25.9269 13.6664 26.0174 13.6664 26.2457V26.3876C13.6602 26.5112 13.6261 26.6316 13.5669 26.7388C13.5076 26.846 13.425 26.9371 13.3257 27.0047L9.20788 29.4872C9.02079 29.6003 8.86719 29.5077 8.86719 29.2815V29.1396C8.87358 29.016 8.90775 28.8958 8.96695 28.7886C9.02614 28.6814 9.10868 28.5902 9.20788 28.5226Z" fill="#141C1F"/>
<path d="M9.03852 31.5189L21.4964 24.0076C21.589 23.95 21.6658 23.9952 21.6658 24.1104V25.6283C21.6623 25.6899 21.6452 25.7498 21.6158 25.8033C21.5864 25.8569 21.5455 25.9026 21.4964 25.9368L9.03852 33.4481C8.94399 33.5057 8.86719 33.4584 8.86719 33.3453V31.8274C8.87057 31.7655 8.88784 31.7053 8.9176 31.6518C8.94737 31.5982 8.98879 31.5526 9.03852 31.5189Z" fill="#065373"/>
<path opacity="0.2" d="M9.03852 31.5189L21.4964 24.0076C21.589 23.95 21.6658 23.9952 21.6658 24.1104V25.6283C21.6623 25.6899 21.6452 25.7498 21.6158 25.8033C21.5864 25.8569 21.5455 25.9026 21.4964 25.9368L9.03852 33.4481C8.94399 33.5057 8.86719 33.4584 8.86719 33.3453V31.8274C8.87057 31.7655 8.88784 31.7053 8.9176 31.6518C8.94737 31.5982 8.98879 31.5526 9.03852 31.5189Z" fill="white"/>
<path d="M9.20788 35.2751L13.3257 32.7926C13.5226 32.6795 13.6664 32.772 13.6664 32.9983V33.1402C13.6603 33.2638 13.6263 33.3842 13.5671 33.4915C13.5078 33.5987 13.4251 33.6898 13.3257 33.7572L9.20788 36.2397C9.02079 36.3549 8.86719 36.2624 8.86719 36.0341V35.8922C8.87389 35.7687 8.90819 35.6485 8.96736 35.5414C9.02652 35.4342 9.10889 35.343 9.20788 35.2751Z" fill="#065373"/>
<path opacity="0.1" d="M9.20788 35.2751L13.3257 32.7926C13.5226 32.6795 13.6664 32.772 13.6664 32.9983V33.1402C13.6603 33.2638 13.6263 33.3842 13.5671 33.4915C13.5078 33.5987 13.4251 33.6898 13.3257 33.7572L9.20788 36.2397C9.02079 36.3549 8.86719 36.2624 8.86719 36.0341V35.8922C8.87389 35.7687 8.90819 35.6485 8.96736 35.5414C9.02652 35.4342 9.10889 35.343 9.20788 35.2751Z" fill="#141C1F"/>
<path d="M9.03852 38.2714L21.4964 30.7601C21.589 30.7025 21.6658 30.7498 21.6658 30.863V32.3809C21.6623 32.4425 21.6452 32.5024 21.6158 32.5559C21.5864 32.6094 21.5455 32.6551 21.4964 32.6894L9.03852 40.2006C8.94399 40.2582 8.86719 40.213 8.86719 40.0978V38.5799C8.87057 38.5181 8.88784 38.4579 8.9176 38.4043C8.94737 38.3507 8.98879 38.3052 9.03852 38.2714Z" fill="#065373"/>
<path opacity="0.2" d="M9.03852 38.2714L21.4964 30.7601C21.589 30.7025 21.6658 30.7498 21.6658 30.863V32.3809C21.6623 32.4425 21.6452 32.5024 21.6158 32.5559C21.5864 32.6094 21.5455 32.6551 21.4964 32.6894L9.03852 40.2006C8.94399 40.2582 8.86719 40.213 8.86719 40.0978V38.5799C8.87057 38.5181 8.88784 38.4579 8.9176 38.4043C8.94737 38.3507 8.98879 38.3052 9.03852 38.2714Z" fill="white"/>
<path d="M14.0048 39.1337L18.928 36.1699C19.125 36.0547 19.2707 36.1472 19.2707 36.3755V37.9634C19.2642 38.0871 19.2298 38.2076 19.1703 38.3148C19.1107 38.4221 19.0277 38.5131 18.928 38.5804L14.0048 41.5462C13.8078 41.6594 13.6641 41.5668 13.6641 41.3406V39.7507C13.6709 39.6272 13.7053 39.5072 13.7644 39.4C13.8236 39.2929 13.9059 39.2017 14.0048 39.1337Z" fill="#065373"/>
<path opacity="0.1" d="M14.0048 39.1337L18.928 36.1699C19.125 36.0547 19.2707 36.1472 19.2707 36.3755V37.9634C19.2642 38.0871 19.2298 38.2076 19.1703 38.3148C19.1107 38.4221 19.0277 38.5131 18.928 38.5804L14.0048 41.5462C13.8078 41.6594 13.6641 41.5668 13.6641 41.3406V39.7507C13.6709 39.6272 13.7053 39.5072 13.7644 39.4C13.8236 39.2929 13.9059 39.2017 14.0048 39.1337Z" fill="#141C1F"/>
</svg>
