<svg width="48" height="56" viewBox="0 0 48 56" fill="none" xmlns="http://www.w3.org/2000/svg">
<path d="M47.5076 44.1878C47.7454 44.3696 47.7195 44.6286 47.4329 44.7937L31.7347 53.802C31.5577 53.891 31.3621 53.9373 31.1638 53.9373C30.9654 53.9373 30.7699 53.891 30.5929 53.802L0.571701 36.5837C0.280515 36.4171 0.257647 36.155 0.504622 35.9778C0.356939 36.0886 0.2353 36.23 0.148157 36.3921C0.0610142 36.5543 0.0104573 36.7334 0 36.917V37.6668C0.0108888 37.8639 0.068311 38.0558 0.167625 38.2268C0.26694 38.3979 0.40536 38.5433 0.571701 38.6514L30.5822 55.8636C30.7592 55.9533 30.9552 56 31.1539 56C31.3526 56 31.5485 55.9533 31.7256 55.8636L47.4283 46.8569C47.5947 46.7492 47.7332 46.6041 47.8325 46.4333C47.9319 46.2624 47.9892 46.0708 48 45.8738V45.1164C47.9892 44.9357 47.9397 44.7594 47.8548 44.5992C47.7698 44.4391 47.6515 44.2988 47.5076 44.1878Z" fill="#455A64"/>
<path d="M47.4369 44.1382L17.4172 26.9198C17.2402 26.8309 17.0446 26.7846 16.8463 26.7846C16.6479 26.7846 16.4524 26.8309 16.2753 26.9198L0.572622 35.9297C0.257043 36.1099 0.257043 36.4038 0.572622 36.584L30.5846 53.8024C30.7616 53.8913 30.9572 53.9376 31.1556 53.9376C31.3539 53.9376 31.5495 53.8913 31.7265 53.8024L47.4292 44.7925C47.7418 44.6123 47.7418 44.3184 47.4369 44.1382ZM43.3648 42.7461C43.6347 42.8976 43.6347 43.1521 43.3648 43.3066L29.086 51.4999C28.934 51.5761 28.7661 51.6158 28.5959 51.6158C28.4256 51.6158 28.2578 51.5761 28.1057 51.4999L4.73156 38.0882C4.46171 37.9367 4.46171 37.6807 4.73156 37.5262L19.0119 29.3344C19.2817 29.1829 19.5638 29.089 19.8336 29.2435L43.3648 42.7461Z" fill="#37474F"/>
<path d="M0.504622 35.9671C0.356939 36.0778 0.2353 36.2192 0.148157 36.3814C0.0610142 36.5436 0.0104573 36.7227 0 36.9062V37.656C0.0110082 37.8532 0.0684811 38.045 0.167785 38.216C0.267088 38.387 0.405444 38.5325 0.571701 38.6406L30.5822 55.8635C30.7587 55.956 30.9558 56.0029 31.1554 55.9998V53.9367C30.9564 53.9405 30.7598 53.8941 30.5837 53.8019L0.571701 36.5836C0.280515 36.4215 0.257647 36.1549 0.504622 35.9671Z" fill="#263238"/>
<path d="M9.93682 32.309C10.1487 32.1879 10.1487 31.9909 9.93682 31.8698C9.81862 31.8105 9.68808 31.7796 9.55569 31.7796C9.4233 31.7796 9.29276 31.8105 9.17456 31.8698C8.96265 31.9909 8.96265 32.1879 9.17456 32.309C9.29276 32.3683 9.4233 32.3992 9.55569 32.3992C9.68808 32.3992 9.81862 32.3683 9.93682 32.309Z" fill="#141C1F"/>
<path d="M38.9977 48.7866C39.4963 48.5019 39.4963 48.0383 38.9977 47.7536C38.7185 47.6118 38.4095 47.5379 38.096 47.5379C37.7824 47.5379 37.4734 47.6118 37.1942 47.7536C36.6957 48.0383 36.6957 48.5019 37.1942 48.7866C37.4734 48.9284 37.7824 49.0023 38.096 49.0023C38.4095 49.0023 38.7185 48.9284 38.9977 48.7866V48.7866Z" stroke="#E6E6E6" stroke-miterlimit="10"/>
<path d="M9.55099 33.7662L12.5086 32.0712C12.6839 31.9697 12.6931 31.8106 12.5284 31.7152C12.4324 31.6697 12.3271 31.647 12.2207 31.6489C12.1144 31.6507 12.0099 31.677 11.9155 31.7258L8.95794 33.4208C8.78262 33.5223 8.77347 33.6813 8.93812 33.7768C9.03414 33.8222 9.13947 33.8449 9.24581 33.8431C9.35215 33.8412 9.45662 33.8149 9.55099 33.7662Z" fill="#141C1F"/>
<path d="M19.8357 29.2493C19.5658 29.0978 19.2838 29.1841 19.014 29.3402L4.73363 37.532C4.46379 37.6835 4.46379 37.938 4.73363 38.094L28.1017 51.4981C28.2537 51.5743 28.4216 51.614 28.5918 51.614C28.7621 51.614 28.93 51.5743 29.082 51.4981L43.3608 43.3048C43.6322 43.1533 43.6322 42.8988 43.3608 42.7443L19.8357 29.2493Z" fill="#668A99"/>
<path opacity="0.85" d="M19.8357 29.2493C19.5658 29.0978 19.2838 29.1841 19.014 29.3402L4.73363 37.532C4.46379 37.6835 4.46379 37.938 4.73363 38.094L28.1017 51.4981C28.2537 51.5743 28.4216 51.614 28.5918 51.614C28.7621 51.614 28.93 51.5743 29.082 51.4981L43.3608 43.3048C43.6322 43.1533 43.6322 42.8988 43.3608 42.7443L19.8357 29.2493Z" fill="white"/>
<path d="M6.37944 38.2694L6.22698 38.1815C6.21998 38.1789 6.21394 38.1743 6.20967 38.1682C6.20541 38.1621 6.20312 38.1548 6.20312 38.1474C6.20312 38.14 6.20541 38.1328 6.20967 38.1267C6.21394 38.1206 6.21998 38.1159 6.22698 38.1133L6.24375 38.1043C6.26205 38.0946 6.28247 38.0895 6.30321 38.0895C6.32394 38.0895 6.34436 38.0946 6.36267 38.1043L6.51512 38.1906C6.54714 38.2103 6.54714 38.2406 6.51512 38.2588L6.49835 38.2694C6.47983 38.2783 6.4595 38.283 6.43889 38.283C6.41829 38.283 6.39796 38.2783 6.37944 38.2694Z" fill="#455A64"/>
<path d="M6.64714 38.1131L6.38339 37.9616C6.35137 37.9435 6.35137 37.9132 6.38339 37.8935L6.40016 37.8844C6.41868 37.8754 6.43901 37.8708 6.45961 37.8708C6.48022 37.8708 6.50055 37.8754 6.51907 37.8844L6.78282 38.0359C6.81484 38.054 6.81484 38.0843 6.78282 38.104L6.76605 38.1131C6.74753 38.1221 6.7272 38.1268 6.70659 38.1268C6.68599 38.1268 6.66566 38.1221 6.64714 38.1131Z" fill="#455A64"/>
<path d="M6.9221 37.958L6.54859 37.7444C6.51505 37.7247 6.51505 37.6944 6.54859 37.6762L6.56536 37.6656C6.58388 37.6567 6.60422 37.652 6.62482 37.652C6.64542 37.652 6.66576 37.6567 6.68428 37.6656L7.05779 37.8807C7.06479 37.8833 7.07083 37.888 7.07509 37.8941C7.07936 37.9002 7.08164 37.9074 7.08164 37.9148C7.08164 37.9222 7.07936 37.9295 7.07509 37.9356C7.07083 37.9417 7.06479 37.9463 7.05779 37.9489L7.04102 37.958C7.02271 37.9677 7.0023 37.9727 6.98156 37.9727C6.96083 37.9727 6.94041 37.9677 6.9221 37.958Z" fill="#455A64"/>
<path d="M7.18956 37.803L6.54469 37.4319C6.51115 37.4137 6.51115 37.3834 6.54469 37.3637L6.56146 37.3546C6.57987 37.3453 6.60025 37.3405 6.62091 37.3405C6.64158 37.3405 6.66195 37.3453 6.68037 37.3546L7.32372 37.7243C7.35726 37.7439 7.35726 37.7742 7.32372 37.7924L7.30847 37.803C7.28995 37.812 7.26962 37.8167 7.24902 37.8167C7.22841 37.8167 7.20808 37.812 7.18956 37.803Z" fill="#455A64"/>
<path d="M7.9686 37.4062C7.95833 37.4074 7.94799 37.4047 7.93963 37.3987L7.84511 37.3441L7.5402 37.5183C7.53367 37.5227 7.52597 37.525 7.5181 37.525C7.51022 37.525 7.50253 37.5227 7.49599 37.5183L7.46093 37.4986L7.44568 37.488V37.4729L7.43044 37.0927C7.42944 37.0872 7.42944 37.0815 7.43044 37.076C7.43547 37.0702 7.44171 37.0656 7.44873 37.0624L7.48989 37.0381C7.50068 37.0319 7.51259 37.0278 7.52496 37.026C7.53625 37.0262 7.5473 37.0293 7.55697 37.0351L7.8878 37.2245L7.95488 37.1866C7.96491 37.1799 7.97642 37.1758 7.98842 37.1745C7.99927 37.1744 8.00987 37.1776 8.01891 37.1836L8.04178 37.1972C8.05245 37.1972 8.05702 37.2078 8.0555 37.2139C8.05397 37.2199 8.0555 37.2245 8.03568 37.232L7.9686 37.2714L8.06312 37.326C8.07379 37.326 8.07837 37.3366 8.07685 37.3426C8.07532 37.3487 8.06922 37.3547 8.0555 37.3623L8.00367 37.3911C7.9938 37.3996 7.98157 37.4049 7.9686 37.4062ZM7.78413 37.2866L7.54783 37.1518L7.56307 37.4138L7.78413 37.2866Z" fill="#455A64"/>
<path d="M8.2713 37.1672C8.16457 37.1723 8.05865 37.1465 7.96639 37.093C7.87187 37.0384 7.82918 36.9794 7.8368 36.9157C7.84443 36.8521 7.90388 36.79 8.01212 36.7279C8.05483 36.7027 8.09973 36.6814 8.14628 36.6643C8.1872 36.6485 8.22959 36.6369 8.27282 36.6294C8.2792 36.627 8.28626 36.627 8.29264 36.6294C8.29329 36.6319 8.29329 36.6345 8.29264 36.637L8.30636 36.6764C8.30786 36.6781 8.30869 36.6802 8.30869 36.6825C8.30869 36.6847 8.30786 36.6868 8.30636 36.6885H8.28959C8.22393 36.7014 8.161 36.7255 8.1036 36.7597C8.03042 36.8006 7.99078 36.8445 7.98468 36.8885C7.97858 36.9324 8.01213 36.9763 8.0853 37.0172C8.15219 37.0579 8.2295 37.0784 8.30788 37.0763C8.38544 37.0734 8.46099 37.051 8.52742 37.0112C8.5512 36.9974 8.57411 36.9823 8.59602 36.9657C8.6134 36.9534 8.62882 36.9386 8.64176 36.9218L8.4893 36.8339L8.36277 36.9066C8.35198 36.9129 8.34007 36.917 8.3277 36.9188C8.31692 36.9184 8.30642 36.9153 8.29721 36.9097L8.27587 36.8976C8.26571 36.8915 8.26113 36.8854 8.26215 36.8794C8.26215 36.8794 8.26977 36.8688 8.28197 36.8612L8.48473 36.7446C8.49674 36.7373 8.51035 36.7332 8.52437 36.7324C8.53683 36.7326 8.549 36.7363 8.55943 36.743L8.77896 36.8688C8.78514 36.8712 8.79045 36.8754 8.79421 36.8809C8.79421 36.8809 8.79421 36.8885 8.79421 36.8945C8.74631 36.9657 8.67995 37.0228 8.60212 37.0596C8.50245 37.122 8.3888 37.159 8.2713 37.1672Z" fill="#455A64"/>
<path d="M12.4893 34.2225L12.8476 34.4285C12.8628 34.436 12.8795 34.4399 12.8964 34.4399C12.9133 34.4399 12.93 34.436 12.9452 34.4285L13.3065 34.2225C13.3324 34.2058 13.3324 34.1816 13.3065 34.1664L12.9467 33.9604C12.9318 33.9522 12.915 33.9479 12.8979 33.9479C12.8808 33.9479 12.864 33.9522 12.8491 33.9604L12.4893 34.1664C12.4619 34.1816 12.4619 34.2058 12.4893 34.2225Z" fill="#455A64"/>
<path d="M12.7403 33.9423C12.6929 33.9194 12.6406 33.9079 12.5879 33.909C12.5351 33.9076 12.4827 33.919 12.4354 33.9423C12.3653 33.9832 12.3653 34.0453 12.4354 34.0847L12.5589 34.1559L12.6488 34.1377L12.5254 34.068C12.5144 34.0638 12.505 34.0565 12.4983 34.0469C12.4917 34.0373 12.4881 34.0259 12.4881 34.0142C12.4881 34.0026 12.4917 33.9912 12.4983 33.9816C12.505 33.972 12.5144 33.9646 12.5254 33.9605C12.545 33.9498 12.567 33.9441 12.5894 33.9438C12.6114 33.9432 12.6331 33.949 12.6519 33.9605L12.7754 34.0316L12.8669 34.0135L12.7403 33.9423Z" fill="#455A64"/>
<path d="M19.2808 30.1845C19.2204 30.1825 19.1605 30.196 19.107 30.2239L18.1923 30.7465C18.113 30.7904 18.113 30.8616 18.1923 30.907L18.5246 31.0964C18.5781 31.1242 18.638 31.1378 18.6984 31.1358C18.7265 31.1356 18.7546 31.133 18.7823 31.1282C18.8135 31.1232 18.8435 31.1124 18.8707 31.0964L19.7854 30.5753C19.8632 30.5299 19.8632 30.4587 19.7854 30.4147L19.4531 30.2239C19.4001 30.196 19.3407 30.1824 19.2808 30.1845ZM18.7015 31.0934C18.6753 31.093 18.6497 31.0862 18.6268 31.0737L18.2959 30.8828C18.2832 30.8783 18.2722 30.87 18.2644 30.859C18.2566 30.848 18.2524 30.8349 18.2524 30.8215C18.2524 30.808 18.2566 30.7949 18.2644 30.7839C18.2722 30.7729 18.2832 30.7646 18.2959 30.7601L19.2107 30.239C19.2252 30.2301 19.2412 30.224 19.2579 30.2209H19.2854C19.3112 30.2216 19.3363 30.2289 19.3585 30.2421L19.6894 30.4314C19.7021 30.4359 19.7131 30.4442 19.7209 30.4552C19.7287 30.4662 19.7329 30.4793 19.7329 30.4928C19.7329 30.5062 19.7287 30.5193 19.7209 30.5303C19.7131 30.5413 19.7021 30.5496 19.6894 30.5541L18.7746 31.0767C18.7524 31.0898 18.7273 31.0971 18.7015 31.0979V31.0934Z" fill="#455A64"/>
<path d="M18.7278 31.0346L18.7156 31.027L18.4107 30.8558C18.4014 30.8524 18.3933 30.8462 18.3876 30.8381C18.382 30.83 18.3789 30.8203 18.3789 30.8104C18.3789 30.8005 18.382 30.7909 18.3876 30.7827C18.3933 30.7746 18.4014 30.7684 18.4107 30.765L19.2309 30.2954C19.236 30.2919 19.2417 30.2893 19.2477 30.2878L19.2599 30.2954L19.5648 30.4666C19.5737 30.4703 19.5812 30.4765 19.5865 30.4844C19.5918 30.4924 19.5947 30.5017 19.5947 30.5112C19.5947 30.5208 19.5918 30.5301 19.5865 30.5381C19.5812 30.546 19.5737 30.5522 19.5648 30.5559L18.7446 31.027L18.7278 31.0346Z" fill="#455A64"/>
<path d="M19.5026 30.1992C19.5341 30.1918 19.5668 30.1911 19.5985 30.1971C19.6303 30.2031 19.6605 30.2157 19.687 30.2341L19.748 30.2704C19.8166 30.3083 19.8456 30.3567 19.8136 30.378L19.7541 30.4143L19.4492 30.2341L19.5026 30.1992Z" fill="#455A64"/>
<path d="M14.2936 39.1014C14.5177 39.0921 14.7368 39.032 14.9339 38.9257C15.3059 38.7121 15.4019 38.4213 14.8119 38.0562C14.7921 38.1664 14.7468 38.2706 14.6796 38.3605C14.6124 38.4503 14.5252 38.5235 14.4247 38.5742C13.9186 38.8651 13.3423 38.9393 12.8773 38.6742C12.4123 38.4091 12.5724 38.0153 13.0816 37.7245C13.4092 37.5387 13.7802 37.4417 14.1574 37.443C14.5346 37.4444 14.9049 37.544 15.2312 37.732C16.0925 38.2259 15.8989 38.7484 15.2891 39.0953C14.97 39.2729 14.6145 39.3765 14.2494 39.3983L14.2936 39.1014ZM14.5086 37.8987C14.0619 37.7063 13.6823 37.7335 13.3941 37.8987C13.1517 38.0365 13.1029 38.238 13.3712 38.391C13.5056 38.4632 13.6573 38.4975 13.8099 38.4903C13.9626 38.4831 14.1103 38.4346 14.2372 38.3501C14.3227 38.3105 14.3943 38.2463 14.4427 38.1658C14.4911 38.0853 14.514 37.9922 14.5086 37.8987Z" fill="#455A64"/>
<path d="M15.5773 36.9455C15.6682 36.8907 15.7709 36.8583 15.877 36.8509C15.9831 36.8435 16.0894 36.8614 16.1871 36.9031C16.3395 36.994 16.3106 37.1455 16.1154 37.256C16.0231 37.3121 15.9185 37.3454 15.8106 37.353C15.7026 37.3607 15.5944 37.3425 15.4949 37.3C15.3379 37.2106 15.3775 37.0576 15.5773 36.9455ZM16.7679 37.6287C16.8589 37.574 16.9617 37.5418 17.0678 37.5346C17.1739 37.5275 17.2802 37.5457 17.3777 37.5878C17.5302 37.6772 17.5012 37.8286 17.3061 37.9407C17.2136 37.9964 17.1091 38.0295 17.0012 38.0371C16.8933 38.0448 16.7851 38.0268 16.6856 37.9847C16.5301 37.8953 16.5682 37.7408 16.7634 37.6347L16.7679 37.6287Z" fill="#455A64"/>
<path d="M16.9664 36.8035C16.2178 36.3733 16.2178 35.9265 16.8307 35.5735C17.4435 35.2206 18.2271 35.2236 18.9742 35.6523C19.7212 36.081 19.7364 36.5415 19.1266 36.8944C18.5168 37.2474 17.7164 37.2337 16.9664 36.8035ZM18.4619 35.9446C17.8353 35.5856 17.4329 35.5887 17.1447 35.7538C16.8566 35.9189 16.8505 36.1507 17.4771 36.5112C18.1037 36.8717 18.5336 36.8778 18.8171 36.7157C19.1007 36.5536 19.09 36.3052 18.4619 35.9446Z" fill="#455A64"/>
<path d="M19.3505 35.4344C18.6005 35.0042 18.6005 34.5573 19.2133 34.2059C19.8262 33.8545 20.6113 33.856 21.3568 34.2832C22.1023 34.7103 22.1282 35.1738 21.5093 35.5253C20.8903 35.8767 20.0991 35.8646 19.3505 35.4344ZM20.8461 34.577C20.218 34.2165 19.8155 34.2195 19.5274 34.3846C19.2392 34.5498 19.2331 34.7815 19.8613 35.142C20.4894 35.5025 20.9178 35.5071 21.1998 35.345C21.4818 35.1829 21.4727 34.936 20.8461 34.577Z" fill="#455A64"/>
<path d="M15.5062 42.4265L27.5013 35.5465C27.6431 35.4752 27.7997 35.4381 27.9586 35.4381C28.1175 35.4381 28.2742 35.4752 28.416 35.5465L31.4818 37.3051C31.7349 37.4566 31.7349 37.6853 31.4818 37.8307L19.4913 44.7108C19.3495 44.782 19.1929 44.8191 19.034 44.8191C18.8751 44.8191 18.7184 44.782 18.5766 44.7108L15.5062 42.9522C15.2531 42.8067 15.2531 42.5719 15.5062 42.4265Z" fill="#668A99"/>
<path d="M16.7959 42.658L18.9425 43.888C19.0035 43.9194 19.0712 43.9357 19.1399 43.9357C19.2086 43.9357 19.2763 43.9194 19.3373 43.888L22.5007 42.0703C22.6105 42.0067 22.6105 41.9052 22.5007 41.8431L20.3542 40.6116C20.2929 40.581 20.2253 40.565 20.1568 40.565C20.0882 40.565 20.0206 40.581 19.9593 40.6116L16.7959 42.4293C16.7713 42.4368 16.7498 42.452 16.7345 42.4726C16.7192 42.4932 16.7109 42.5181 16.7109 42.5437C16.7109 42.5693 16.7192 42.5942 16.7345 42.6148C16.7498 42.6353 16.7713 42.6505 16.7959 42.658Z" fill="#FAFAFA"/>
<path d="M20.0329 42.0665L22.5773 41.9665L20.042 41.9286L20.1442 40.5699L19.728 42.2467L16.7109 42.5436L19.1746 42.4285L19.1136 43.9357L19.3026 42.4224L20.0085 42.3891L20.0329 42.0665Z" fill="#668A99"/>
<path d="M21.3695 39.9711L24.4689 38.2004C24.5461 38.1615 24.6315 38.1413 24.7181 38.1413C24.8047 38.1413 24.8901 38.1615 24.9674 38.2004C25.1031 38.2776 25.0985 38.4049 24.9567 38.4867L21.8573 40.2574C21.7801 40.2963 21.6947 40.3165 21.6081 40.3165C21.5215 40.3165 21.4361 40.2963 21.3588 40.2574C21.2247 40.1802 21.2308 40.059 21.3695 39.9711Z" fill="#FAFAFA"/>
<path d="M22.3206 40.5131L28.6017 36.9064C28.679 36.8676 28.7644 36.8473 28.851 36.8473C28.9376 36.8473 29.023 36.8676 29.1002 36.9064C29.2359 36.9837 29.2313 37.1124 29.0896 37.1927L22.8085 40.7994C22.7309 40.8381 22.6453 40.8583 22.5584 40.8583C22.4716 40.8583 22.386 40.8381 22.3084 40.7994C22.1743 40.7267 22.1788 40.5994 22.3206 40.5131Z" fill="#FAFAFA"/>
<path d="M23.2769 41.0639L29.5595 37.4572C29.6368 37.4184 29.7221 37.3981 29.8087 37.3981C29.8953 37.3981 29.9807 37.4184 30.058 37.4572C30.1922 37.5345 30.1876 37.6632 30.0473 37.7435L23.7647 41.3502C23.6875 41.389 23.6021 41.4093 23.5155 41.4093C23.4289 41.4093 23.3435 41.389 23.2662 41.3502C23.1305 41.2699 23.1366 41.1457 23.2769 41.0639Z" fill="#FAFAFA"/>
<path d="M11.2617 17.1221L31.596 5.4584L32.4101 5.92495C32.521 5.99751 32.6133 6.09492 32.6795 6.20936C32.7457 6.3238 32.784 6.45208 32.7912 6.58387V21.4876C32.7841 21.6195 32.7459 21.7478 32.6797 21.8623C32.6135 21.9767 32.5211 22.0741 32.4101 22.1466L12.8396 33.371C12.7212 33.4295 12.5907 33.46 12.4585 33.46C12.3262 33.46 12.1957 33.4295 12.0773 33.371L11.6474 33.1241C11.5363 33.0515 11.4439 32.9541 11.3774 32.8397C11.311 32.7253 11.2724 32.597 11.2648 32.4651L11.2617 17.1221Z" fill="#668A99"/>
<path opacity="0.05" d="M11.2617 17.1221L31.596 5.4584L32.4101 5.92495C32.521 5.99751 32.6133 6.09492 32.6795 6.20936C32.7457 6.3238 32.784 6.45208 32.7912 6.58387V21.4876C32.7841 21.6195 32.7459 21.7478 32.6797 21.8623C32.6135 21.9767 32.5211 22.0741 32.4101 22.1466L12.8396 33.371C12.7212 33.4295 12.5907 33.46 12.4585 33.46C12.3262 33.46 12.1957 33.4295 12.0773 33.371L11.6474 33.1241C11.5363 33.0515 11.4439 32.9541 11.3774 32.8397C11.311 32.7253 11.2724 32.597 11.2648 32.4651L11.2617 17.1221Z" fill="#141C1F"/>
<path d="M31.4832 4.14678L31.567 4.10133L31.2514 3.91956C31.224 3.90427 31.1955 3.8911 31.1661 3.88018L22.217 0.585565C22.0943 0.544674 21.9617 0.543622 21.8384 0.582562C21.7151 0.621503 21.6074 0.698417 21.531 0.802176L11.5194 15.3273C11.3639 15.5777 11.2753 15.8634 11.2617 16.1573V17.1223L11.5666 17.301L31.5914 5.45705V4.49214C31.5885 4.36923 31.551 4.24958 31.4832 4.14678Z" fill="#668A99"/>
<path opacity="0.1" d="M21.9421 0.873475C21.9023 0.904475 21.8673 0.941238 21.8385 0.982538L11.8268 15.5076C11.7446 15.6361 11.6819 15.776 11.6408 15.9227L11.3359 15.7439C11.3585 15.6692 11.3855 15.5959 11.4167 15.5243C11.4305 15.494 11.4442 15.4652 11.4594 15.4364V15.4228C11.4753 15.3924 11.4931 15.363 11.5128 15.3349L21.5275 0.803796C21.5425 0.782276 21.5594 0.762013 21.5778 0.743206L21.6311 0.694733L21.9421 0.873475Z" fill="#141C1F"/>
<path opacity="0.35" d="M31.5599 4.10088C31.5329 4.08453 31.5043 4.07083 31.4745 4.05998L22.524 0.763859C22.4256 0.731341 22.3205 0.72429 22.2186 0.743374C22.1167 0.762458 22.0214 0.807044 21.9416 0.872921L21.6367 0.694179C21.7171 0.628926 21.8127 0.584751 21.9147 0.565698C22.0167 0.546644 22.1219 0.553321 22.2206 0.585117L31.1696 3.87973C31.1989 3.89058 31.227 3.90428 31.2535 3.92062L31.5599 4.10088Z" fill="white"/>
<path d="M11.4648 15.4155C11.481 15.3849 11.4987 15.3551 11.5179 15.3264C11.4987 15.3551 11.481 15.3849 11.4648 15.4155Z" fill="#668A99"/>
<path d="M21.582 0.743917C21.5982 0.725954 21.616 0.709493 21.6351 0.694733C21.6157 0.709093 21.5979 0.725589 21.582 0.743917Z" fill="#668A99"/>
<path d="M11.3281 15.7428C11.3506 15.6676 11.3774 15.5938 11.4085 15.5217C11.3774 15.5938 11.3506 15.6676 11.3281 15.7428Z" fill="#668A99"/>
<path d="M11.4141 15.5175C11.428 15.4868 11.4434 15.4576 11.4574 15.4299C11.4434 15.4576 11.428 15.4868 11.4141 15.5175Z" fill="#668A99"/>
<path opacity="0.2" d="M11.457 15.4289C11.457 15.4289 11.457 15.4186 11.457 15.4141C11.457 15.4097 11.46 15.4245 11.457 15.4289Z" fill="#141C1F"/>
<path opacity="0.2" d="M21.5312 0.802617C21.5461 0.780917 21.5632 0.760826 21.5823 0.742676C21.5628 0.760406 21.5456 0.78055 21.5312 0.802617Z" fill="#141C1F"/>
<path d="M21.8396 0.983376L11.8295 15.51C11.6727 15.7594 11.5834 16.0448 11.5703 16.3385V17.3034L31.9046 5.63976V4.67031C31.897 4.53971 31.8529 4.41381 31.7772 4.30676C31.7015 4.19972 31.5972 4.11578 31.4762 4.06441L22.5271 0.769793C22.4045 0.729417 22.2721 0.728309 22.1488 0.766627C22.0254 0.804944 21.9173 0.880755 21.8396 0.983376Z" fill="#668A99"/>
<path d="M13.7838 31.3413L13.1313 30.9672C13.0775 30.9264 13.0352 30.8724 13.0084 30.8106C12.9817 30.7488 12.9715 30.6811 12.9789 30.6142V10.4133C12.9874 10.2083 13.0505 10.0091 13.1618 9.83621L13.825 10.2149C13.7128 10.3885 13.6496 10.5889 13.642 10.7951V30.9884C13.6339 31.0543 13.6427 31.1212 13.6674 31.1829C13.6922 31.2446 13.7323 31.2991 13.7838 31.3413Z" fill="#E0E0E0"/>
<path d="M14.1923 9.83024L30.5262 0.46294C30.8311 0.284198 31.0857 0.428101 31.0857 0.784071V20.9789C31.0755 21.1722 31.0195 21.3603 30.9223 21.528C30.8251 21.6956 30.6893 21.8381 30.5262 21.9438L14.1923 31.3096C13.8874 31.4868 13.6328 31.3429 13.6328 30.987V10.7951C13.6434 10.602 13.6995 10.414 13.7967 10.2464C13.8939 10.0787 14.0294 9.93619 14.1923 9.83024Z" fill="#F0F0F0"/>
<path d="M30.2568 0.0429015L30.8971 0.412504C30.8351 0.389538 30.7683 0.382356 30.7028 0.391617C30.6373 0.400877 30.5751 0.426284 30.522 0.465521L14.1897 9.83131C14.033 9.92515 13.9029 10.057 13.8116 10.2145L13.1484 9.83585C13.2405 9.67857 13.3697 9.54598 13.525 9.44959L29.8589 0.0747114C29.9156 0.0332137 29.9827 0.00801506 30.0529 0.00187051C30.1231 -0.00427404 30.1936 0.00887161 30.2568 0.0398714V0.0429015Z" fill="#FAFAFA"/>
<path d="M15.4636 10.8875L29.0457 3.09559C29.2287 2.99107 29.3766 3.0653 29.3766 3.26222C29.3683 3.37231 29.334 3.47891 29.2765 3.57338C29.2191 3.66786 29.14 3.74756 29.0457 3.80602L15.4636 11.598C15.2807 11.7025 15.1328 11.6283 15.1328 11.4329C15.1409 11.3225 15.175 11.2156 15.2325 11.1208C15.29 11.0261 15.3692 10.9461 15.4636 10.8875Z" fill="#E0E0E0"/>
<path d="M15.4636 12.3036L29.0457 4.51161C29.2287 4.40709 29.3766 4.48131 29.3766 4.67823C29.3683 4.78832 29.334 4.89492 29.2765 4.9894C29.2191 5.08388 29.14 5.16358 29.0457 5.22203L15.4636 13.014C15.2807 13.1185 15.1328 13.0443 15.1328 12.8489C15.1409 12.7385 15.175 12.6316 15.2325 12.5369C15.29 12.4421 15.3692 12.3622 15.4636 12.3036Z" fill="#E0E0E0"/>
<path d="M15.4636 13.7196L29.0457 5.92767C29.2287 5.82315 29.3766 5.89737 29.3766 6.09278C29.3685 6.20313 29.3343 6.31003 29.2769 6.40479C29.2194 6.49955 29.1402 6.57948 29.0457 6.63809L15.4636 14.43C15.2807 14.5346 15.1328 14.4603 15.1328 14.2649C15.1409 14.1546 15.175 14.0477 15.2325 13.9529C15.29 13.8582 15.3692 13.7782 15.4636 13.7196Z" fill="#E0E0E0"/>
<path d="M15.4636 15.1361L29.0457 7.34564C29.2287 7.24112 29.3766 7.31534 29.3766 7.51075C29.3685 7.6211 29.3343 7.728 29.2769 7.82276C29.2194 7.91752 29.1402 7.99745 29.0457 8.05606L15.4636 15.848C15.2807 15.9525 15.1328 15.8783 15.1328 15.6814C15.1409 15.571 15.175 15.4641 15.2325 15.3694C15.29 15.2746 15.3692 15.1947 15.4636 15.1361Z" fill="#E0E0E0"/>
<path d="M15.4636 16.5525L29.0457 8.76055C29.2287 8.65603 29.3766 8.73026 29.3766 8.92566C29.3685 9.03602 29.3343 9.14292 29.2769 9.23768C29.2194 9.33244 29.1402 9.41237 29.0457 9.47098L15.4636 17.2629C15.2807 17.3675 15.1328 17.2932 15.1328 17.0963C15.1411 16.9862 15.1754 16.8796 15.2328 16.7851C15.2903 16.6907 15.3694 16.611 15.4636 16.5525Z" fill="#E0E0E0"/>
<path d="M15.4636 17.9685L29.0457 10.1766C29.2287 10.0721 29.3766 10.1463 29.3766 10.3417C29.3685 10.452 29.3343 10.5589 29.2769 10.6537C29.2194 10.7484 29.1402 10.8284 29.0457 10.887L15.4636 18.6789C15.2807 18.7835 15.1328 18.7092 15.1328 18.5123C15.1411 18.4022 15.1754 18.2956 15.2328 18.2011C15.2903 18.1067 15.3694 18.027 15.4636 17.9685Z" fill="#E0E0E0"/>
<path d="M15.4636 19.3847L29.0457 11.5867C29.2287 11.4822 29.3766 11.5564 29.3766 11.7518C29.3685 11.8622 29.3343 11.9691 29.2769 12.0638C29.2194 12.1586 29.1402 12.2385 29.0457 12.2971L15.4636 20.0891C15.2807 20.1936 15.1328 20.1194 15.1328 19.9224C15.142 19.8134 15.1767 19.708 15.2342 19.6147C15.2916 19.5213 15.3702 19.4426 15.4636 19.3847Z" fill="#E0E0E0"/>
<path d="M15.4636 20.8012L29.0457 13.0092C29.2287 12.9032 29.3766 12.9789 29.3766 13.1743C29.3685 13.2847 29.3343 13.3916 29.2769 13.4864C29.2194 13.5811 29.1402 13.6611 29.0457 13.7197L15.4636 21.5116C15.2807 21.6161 15.1328 21.5419 15.1328 21.345C15.1411 21.2349 15.1754 21.1283 15.2328 21.0338C15.2903 20.9393 15.3694 20.8596 15.4636 20.8012Z" fill="#E0E0E0"/>
<path d="M32.2744 21.6836C32.2683 21.6944 32.2612 21.7046 32.253 21.7139L23.7797 17.98C23.458 17.8386 23.0957 17.8174 22.7595 17.9204C22.4233 18.0234 22.1359 18.2436 21.9502 18.5405L12.8914 32.9822L12.556 33.1746C12.5187 33.2005 12.4754 33.2167 12.4301 33.2217C12.3849 33.2268 12.3391 33.2205 12.2969 33.2034L21.6133 18.3496C21.7994 18.0532 22.0868 17.8333 22.4227 17.7301C22.7586 17.6269 23.1207 17.6473 23.4428 17.7876L32.2744 21.6836Z" fill="#668A99"/>
<path opacity="0.4" d="M21.1163 19.8545L21.1377 19.8363L12.8914 32.9844L12.556 33.1768C12.5185 33.2023 12.4753 33.2183 12.4301 33.2233C12.3849 33.2284 12.3391 33.2223 12.2969 33.2056L20.784 19.6606L21.1163 19.8545Z" fill="white"/>
<path opacity="0.4" d="M32.2743 21.6856C32.2683 21.6964 32.2611 21.7065 32.253 21.7159L23.7781 17.9805C23.4564 17.839 23.0941 17.8179 22.7579 17.9209C22.4218 18.0239 22.1344 18.2441 21.9487 18.5409L21.6133 18.347C21.8001 18.0514 22.0877 17.8324 22.4236 17.7301C22.7595 17.6278 23.1212 17.6489 23.4427 17.7896L32.2743 21.6856Z" fill="white"/>
<path d="M32.7856 6.48646C32.7673 6.3774 32.7093 6.3471 32.6331 6.3986C32.5954 6.42654 32.5625 6.46029 32.5355 6.49858L32.4928 6.55765L24.1369 18.1244L22.8883 19.8527C22.8079 19.9535 22.7014 20.0305 22.5803 20.0756C22.4591 20.1207 22.3279 20.1322 22.2007 20.1087L21.1229 19.8543L12.8904 17.9093C12.835 17.8981 12.778 17.8981 12.7227 17.9093C12.7012 17.9136 12.6802 17.9202 12.6602 17.929L12.8873 17.7987L20.8149 19.6725L21.8958 19.9179C22.023 19.9416 22.1543 19.9303 22.2755 19.8852C22.3967 19.8401 22.5032 19.7628 22.5834 19.6619L23.832 17.935L32.2352 6.30923C32.2608 6.27467 32.2929 6.24535 32.3297 6.22289L31.6071 5.80936L31.912 5.63516L32.4151 5.92297C32.5115 5.98759 32.594 6.07074 32.6576 6.16751C32.7213 6.26429 32.7648 6.37273 32.7856 6.48646Z" fill="#668A99"/>
<path opacity="0.4" d="M24.1351 18.1243L22.8865 19.8527C22.8061 19.9534 22.6996 20.0305 22.5785 20.0756C22.4574 20.1207 22.3261 20.1321 22.1989 20.1087L21.1211 19.8542L21.1424 19.836L21.1943 19.7542L21.9001 19.9209C22.0273 19.9446 22.1587 19.9333 22.2799 19.8882C22.4011 19.8431 22.5075 19.7658 22.5877 19.6649L23.8241 17.9562L24.1351 18.1243Z" fill="white"/>
<path opacity="0.1" d="M32.4096 5.92297L31.9065 5.63516L31.6016 5.80936L32.3288 6.22592C32.2921 6.2485 32.26 6.2778 32.2342 6.31226L23.8325 17.9381L23.8203 17.9547L24.1252 18.1229L32.4919 6.55765L32.5346 6.49858C32.5615 6.46029 32.5945 6.42654 32.6322 6.3986C32.7069 6.3471 32.7648 6.3774 32.7846 6.48646C32.7633 6.37237 32.7191 6.2637 32.6546 6.1669C32.5902 6.0701 32.5069 5.98715 32.4096 5.92297Z" fill="#141C1F"/>
<path d="M13.0546 18.1513L11.2617 17.1213V32.4643C11.2694 32.5962 11.3079 32.7245 11.3744 32.8389C11.4408 32.9533 11.5333 33.0507 11.6444 33.1233L12.0743 33.3702C12.1927 33.4287 12.3232 33.4592 12.4554 33.4592C12.5877 33.4592 12.7182 33.4287 12.8366 33.3702L13.0515 33.246L13.0546 18.1513Z" fill="#668A99"/>
<path opacity="0.15" d="M13.0546 18.1513L11.2617 17.1213V32.4643C11.2694 32.5962 11.3079 32.7245 11.3744 32.8389C11.4408 32.9533 11.5333 33.0507 11.6444 33.1233L12.0743 33.3702C12.1927 33.4287 12.3232 33.4592 12.4554 33.4592C12.5877 33.4592 12.7182 33.4287 12.8366 33.3702L13.0515 33.246L13.0546 18.1513Z" fill="#141C1F"/>
<path d="M32.4924 6.55801V21.2997C32.4884 21.4362 32.4473 21.5692 32.3734 21.6844C32.3174 21.7822 32.241 21.8669 32.1493 21.9329L32.1356 21.942L32.1097 21.9586L12.5408 33.183C12.5173 33.1974 12.4922 33.2091 12.4661 33.2178C12.4644 33.1952 12.4644 33.1724 12.4661 33.1497V18.252C12.4627 18.1986 12.4724 18.1452 12.4943 18.0964C12.5163 18.0476 12.5499 18.0048 12.5922 17.9717C12.6345 17.9386 12.6842 17.9163 12.7371 17.9065C12.79 17.8967 12.8446 17.8999 12.896 17.9157L21.1285 19.8607L22.2063 20.1151C22.3335 20.1386 22.4647 20.1271 22.5859 20.082C22.707 20.0369 22.8135 19.9599 22.8939 19.8592L24.1364 18.1247L32.4924 6.55801Z" fill="#455A64"/>
<path d="M32.7927 6.5879V21.4917C32.7879 21.6281 32.7469 21.7608 32.6738 21.8764C32.6169 21.974 32.5407 22.059 32.4497 22.1263L32.4344 22.1339C32.4267 22.14 32.4185 22.1455 32.41 22.1506L12.8411 33.3689C12.8037 33.3953 12.7602 33.412 12.7147 33.4173C12.6691 33.4225 12.6229 33.4163 12.5804 33.3992C12.5479 33.3804 12.5206 33.354 12.5006 33.3224C12.4807 33.2907 12.4688 33.2547 12.4661 33.2174C12.4644 33.1947 12.4644 33.172 12.4661 33.1493V18.2516C12.4627 18.1982 12.4724 18.1448 12.4943 18.096C12.5163 18.0472 12.5499 18.0044 12.5922 17.9713C12.6345 17.9382 12.6842 17.9158 12.7371 17.9061C12.79 17.8963 12.8446 17.8995 12.896 17.9153L21.1285 19.8603L22.2063 20.1147C22.3335 20.1382 22.4647 20.1267 22.5859 20.0816C22.707 20.0365 22.8135 19.9595 22.8939 19.8587L24.1364 18.1243L32.4985 6.5576L32.5411 6.49852C32.6738 6.30312 32.7927 6.33947 32.7927 6.5879Z" fill="#668A99"/>
<path d="M32.4104 22.1444L32.4348 22.1277L32.45 22.1201C32.541 22.0528 32.6173 21.9678 32.6741 21.8702C32.7453 21.7566 32.7857 21.6267 32.7915 21.493L24.1367 18.1242L29.93 23.5667L32.4104 22.1444Z" fill="#668A99"/>
<path opacity="0.2" d="M32.4104 22.1444L32.4348 22.1277L32.45 22.1201C32.541 22.0528 32.6173 21.9678 32.6741 21.8702C32.7453 21.7566 32.7857 21.6267 32.7915 21.493L24.1367 18.1242L29.93 23.5667L32.4104 22.1444Z" fill="#141C1F"/>
<path d="M12.4548 33.151C12.4492 33.1995 12.4574 33.2486 12.4784 33.2928C12.4994 33.337 12.5325 33.3744 12.5738 33.4009C12.6163 33.4181 12.6624 33.4243 12.708 33.419C12.7536 33.4137 12.7971 33.397 12.8344 33.3706L19.5714 29.5065L21.1096 19.8559L12.4548 32.9026V33.151Z" fill="#668A99"/>
<path opacity="0.15" d="M21.9435 18.5401L12.5738 33.4C12.5325 33.3735 12.4994 33.336 12.4784 33.2918C12.4574 33.2477 12.4492 33.1986 12.4548 33.15V32.9031L20.7224 19.7671L20.7864 19.6656L21.6081 18.3568L21.9435 18.5401Z" fill="#141C1F"/>
<path d="M32.6715 21.8701C32.6147 21.9676 32.5384 22.0527 32.4474 22.12L32.4322 22.1276L12.8388 33.3686C12.8014 33.395 12.7579 33.4117 12.7124 33.417C12.6668 33.4222 12.6206 33.416 12.5781 33.3989L21.9479 18.5345C22.1358 18.2364 22.4256 18.0154 22.7641 17.9122C23.1026 17.809 23.4672 17.8304 23.7911 17.9726L32.6715 21.8701Z" fill="#668A99"/>
<path d="M32.673 21.8719C32.617 21.9697 32.5406 22.0544 32.4489 22.1203L32.4352 22.1294L12.8388 33.3705C12.8012 33.3964 12.7576 33.4126 12.7121 33.4176C12.6666 33.4226 12.6206 33.4163 12.5781 33.3993L12.8388 32.9872L32.0952 21.9385L32.1105 21.9295C32.1916 21.8704 32.2605 21.7964 32.3132 21.7113L32.673 21.8719Z" fill="#668A99"/>
<path opacity="0.15" d="M11.3295 15.7433L11.6344 15.9221C11.5912 16.0564 11.567 16.1961 11.5627 16.3371V17.3005L11.2578 17.1218V16.1569C11.2623 16.0164 11.2864 15.8772 11.3295 15.7433Z" fill="#141C1F"/>
<path d="M13.1711 17.8609L12.8845 17.7928L12.6573 17.923L12.3432 17.7428L11.5703 17.3005L11.8706 17.1232L13.1711 17.8609Z" fill="#668A99"/>
<path opacity="0.1" d="M13.1741 17.8614L11.8752 17.1252L11.5703 17.3024L12.3433 17.7447L12.6573 17.925C12.6756 17.916 12.6951 17.9098 12.7152 17.9068C12.7706 17.8956 12.8276 17.8956 12.8829 17.9068L13.5156 18.0583L20.7267 19.7669L20.7907 19.6654L13.1741 17.8614Z" fill="#141C1F"/>
<path d="M36.4045 18.4543L34.9577 17.6212L34.9455 17.6136C34.3143 17.2591 33.4469 17.3106 32.4879 17.8635C30.5579 18.9708 28.9922 21.6641 28.9922 23.8786C28.9922 24.9844 29.384 25.7615 30.0136 26.125L31.3324 26.8824L31.6373 26.3689C31.9896 26.2914 32.3279 26.1606 32.6404 25.9811C34.5705 24.8738 36.1362 22.1806 36.1362 19.966C36.1359 19.6668 36.099 19.3687 36.0264 19.0784L36.4045 18.4543Z" fill="#141C1F"/>
<path opacity="0.15" d="M29.1248 22.7143C29.0395 23.0973 28.9951 23.4883 28.9922 23.8806C28.9922 24.9864 29.384 25.7635 30.0136 26.127L31.3324 26.8844L31.6373 26.3709C31.9896 26.2933 32.3279 26.1626 32.6404 25.9831C32.982 25.7845 33.3014 25.5504 33.5932 25.2848L29.1248 22.7143Z" fill="#141C1F"/>
<path d="M33.8629 18.653C31.9329 19.7603 30.3672 22.4536 30.3672 24.6681C30.3672 26.8827 31.9329 27.781 33.8629 26.6737C35.793 25.5664 37.3587 22.8732 37.3587 20.6586C37.3587 18.444 35.7945 17.5457 33.8629 18.653Z" fill="#668A99"/>
<path d="M35.2443 21.7355V20.8842C35.2443 19.9132 34.6497 19.4664 33.9179 19.8875C33.1847 20.3086 32.5901 21.4356 32.5901 22.4065V23.1639C32.574 23.6894 32.42 24.2017 32.1434 24.6499C32.0753 24.7687 32.0381 24.9025 32.0352 25.0392C32.0352 25.2831 32.1876 25.3967 32.369 25.2906L35.4684 23.5123C35.57 23.4397 35.6532 23.3445 35.7111 23.2343C35.7691 23.1241 35.8003 23.002 35.8023 22.8776C35.807 22.8301 35.8007 22.7822 35.7838 22.7375C35.7668 22.6929 35.7398 22.6527 35.7047 22.6201C35.4242 22.502 35.2443 22.1899 35.2443 21.7355Z" fill="white"/>
<path d="M34.5542 24.311C34.5542 24.7775 34.2692 25.3183 33.9185 25.5228C33.5679 25.7273 33.2812 25.5107 33.2812 25.0456L34.5542 24.311Z" fill="white"/>
</svg>
