<svg width="174" height="147" viewBox="0 0 174 147" fill="none" xmlns="http://www.w3.org/2000/svg">
<path opacity="0.758621" d="M48.2596 14.7028C47.1783 2.51925 62.7399 -3.45433 70.0887 6.32334L86.4197 28.0521C90.6917 33.736 98.7032 35.005 104.523 30.9193L126.769 15.3006C136.779 8.27238 149.733 18.7624 144.94 30.0154L134.288 55.0229C131.502 61.5645 134.408 69.1371 140.856 72.134L165.506 83.5905C176.598 88.7458 173.99 105.209 161.848 106.685L134.865 109.963C127.806 110.821 122.702 117.125 123.33 124.207L125.733 151.283C126.815 163.466 111.253 169.44 103.904 159.662L87.5732 137.933C83.3012 132.249 75.2898 130.98 69.4704 135.066L47.2241 150.685C37.2135 157.713 24.2595 147.223 29.0528 135.97L39.7049 110.962C42.4914 104.421 39.5846 96.8482 33.1366 93.8513L8.48727 82.3948C-2.60463 77.2395 0.00291781 60.776 12.145 59.3006L39.1282 56.0218C46.1867 55.1642 51.2913 48.8605 50.6627 41.7779L48.2596 14.7028Z" stroke="#F0FAFE" stroke-opacity="0.24" stroke-width="1.01747"/>
</svg>
