<svg width="158" height="50" viewBox="0 0 158 50" fill="none" xmlns="http://www.w3.org/2000/svg">
<path d="M32.8693 25.7631C32.8808 24.8432 33.1186 23.9412 33.5605 23.1411C34.0023 22.341 34.6339 21.6688 35.3966 21.1869C34.9121 20.4759 34.273 19.8907 33.53 19.4779C32.7869 19.0651 31.9605 18.836 31.1163 18.8089C29.3154 18.6146 27.5695 19.9163 26.6518 19.9163C25.7163 19.9163 24.3034 18.8282 22.7819 18.8603C21.7977 18.893 20.8386 19.1871 19.9979 19.714C19.1573 20.2409 18.4637 20.9826 17.9849 21.8668C15.9108 25.5572 17.4579 30.9809 19.4447 33.9639C20.4388 35.4246 21.6005 37.0563 23.1207 36.9984C24.6082 36.935 25.1638 36.0236 26.9594 36.0236C28.7383 36.0236 29.2595 36.9984 30.8105 36.9616C32.4067 36.935 33.4124 35.4944 34.3716 34.0199C35.0858 32.9791 35.6354 31.8287 36 30.6115C35.0726 30.2084 34.2813 29.5337 33.7245 28.6715C33.1678 27.8094 32.8704 26.7978 32.8693 25.7631Z" fill="#141C1F"/>
<path d="M29.9427 16.8472C30.813 15.7735 31.2418 14.3934 31.1379 13.0001C29.8083 13.1436 28.5801 13.7967 27.698 14.8292C27.2667 15.3336 26.9364 15.9204 26.726 16.5561C26.5155 17.1917 26.429 17.8638 26.4714 18.5339C27.1365 18.5409 27.7944 18.3928 28.3957 18.1006C28.997 17.8084 29.5259 17.3799 29.9427 16.8472Z" fill="#141C1F"/>
<path d="M45.48 30L49.608 18.8H51.032L55.144 30H53.72L52.696 27.12H47.928L46.888 30H45.48ZM48.328 26.032H52.296L50.312 20.496L48.328 26.032ZM56.729 33.52V22.064H57.945L58.073 23.376C58.329 22.992 58.6917 22.6453 59.161 22.336C59.641 22.0267 60.249 21.872 60.985 21.872C61.7743 21.872 62.4623 22.0533 63.049 22.416C63.6357 22.7787 64.089 23.2747 64.409 23.904C64.7397 24.5333 64.905 25.248 64.905 26.048C64.905 26.848 64.7397 27.5627 64.409 28.192C64.089 28.8107 63.6303 29.3013 63.033 29.664C62.4463 30.016 61.7583 30.192 60.969 30.192C60.3183 30.192 59.737 30.0587 59.225 29.792C58.7237 29.5253 58.3397 29.152 58.073 28.672V33.52H56.729ZM60.825 29.024C61.3583 29.024 61.8277 28.9013 62.233 28.656C62.6383 28.4 62.9583 28.048 63.193 27.6C63.4277 27.152 63.545 26.6293 63.545 26.032C63.545 25.4347 63.4277 24.912 63.193 24.464C62.9583 24.016 62.6383 23.6693 62.233 23.424C61.8277 23.168 61.3583 23.04 60.825 23.04C60.2917 23.04 59.8223 23.168 59.417 23.424C59.0117 23.6693 58.6917 24.016 58.457 24.464C58.2223 24.912 58.105 25.4347 58.105 26.032C58.105 26.6293 58.2223 27.152 58.457 27.6C58.6917 28.048 59.0117 28.4 59.417 28.656C59.8223 28.9013 60.2917 29.024 60.825 29.024ZM66.7759 33.52V22.064H67.9919L68.1199 23.376C68.3759 22.992 68.7385 22.6453 69.2079 22.336C69.6879 22.0267 70.2959 21.872 71.0319 21.872C71.8212 21.872 72.5092 22.0533 73.0959 22.416C73.6825 22.7787 74.1359 23.2747 74.4559 23.904C74.7865 24.5333 74.9519 25.248 74.9519 26.048C74.9519 26.848 74.7865 27.5627 74.4559 28.192C74.1359 28.8107 73.6772 29.3013 73.0799 29.664C72.4932 30.016 71.8052 30.192 71.0159 30.192C70.3652 30.192 69.7839 30.0587 69.2719 29.792C68.7705 29.5253 68.3865 29.152 68.1199 28.672V33.52H66.7759ZM70.8719 29.024C71.4052 29.024 71.8745 28.9013 72.2799 28.656C72.6852 28.4 73.0052 28.048 73.2399 27.6C73.4745 27.152 73.5919 26.6293 73.5919 26.032C73.5919 25.4347 73.4745 24.912 73.2399 24.464C73.0052 24.016 72.6852 23.6693 72.2799 23.424C71.8745 23.168 71.4052 23.04 70.8719 23.04C70.3385 23.04 69.8692 23.168 69.4639 23.424C69.0585 23.6693 68.7385 24.016 68.5039 24.464C68.2692 24.912 68.1519 25.4347 68.1519 26.032C68.1519 26.6293 68.2692 27.152 68.5039 27.6C68.7385 28.048 69.0585 28.4 69.4639 28.656C69.8692 28.9013 70.3385 29.024 70.8719 29.024ZM84.7051 30.192C83.8838 30.192 83.1691 30.0427 82.5611 29.744C81.9531 29.4453 81.4838 29.0293 81.1531 28.496C80.8225 27.9627 80.6571 27.344 80.6571 26.64H82.0651C82.0651 27.0773 82.1665 27.4827 82.3691 27.856C82.5718 28.2187 82.8651 28.512 83.2491 28.736C83.6438 28.9493 84.1291 29.056 84.7051 29.056C85.4625 29.056 86.0491 28.8747 86.4651 28.512C86.8811 28.1493 87.0891 27.696 87.0891 27.152C87.0891 26.704 86.9931 26.3467 86.8011 26.08C86.6091 25.8027 86.3478 25.5787 86.0171 25.408C85.6971 25.2373 85.3238 25.088 84.8971 24.96C84.4811 24.832 84.0438 24.688 83.5851 24.528C82.7211 24.2293 82.0811 23.8613 81.6651 23.424C81.2491 22.976 81.0411 22.3947 81.0411 21.68C81.0305 21.0827 81.1691 20.5547 81.4571 20.096C81.7451 19.6267 82.1505 19.264 82.6731 19.008C83.2065 18.7413 83.8358 18.608 84.5611 18.608C85.2758 18.608 85.8945 18.7413 86.4171 19.008C86.9505 19.2747 87.3611 19.6427 87.6491 20.112C87.9478 20.5813 88.1025 21.1147 88.1131 21.712H86.7051C86.7051 21.4027 86.6251 21.0987 86.4651 20.8C86.3051 20.4907 86.0598 20.24 85.7291 20.048C85.4091 19.856 85.0038 19.76 84.5131 19.76C83.9051 19.7493 83.4038 19.904 83.0091 20.224C82.6251 20.544 82.4331 20.9867 82.4331 21.552C82.4331 22.032 82.5665 22.4 82.8331 22.656C83.1105 22.912 83.4945 23.1253 83.9851 23.296C84.4758 23.456 85.0411 23.6427 85.6811 23.856C86.2145 24.048 86.6945 24.272 87.1211 24.528C87.5478 24.784 87.8785 25.1147 88.1131 25.52C88.3585 25.9253 88.4811 26.4427 88.4811 27.072C88.4811 27.6053 88.3425 28.112 88.0651 28.592C87.7878 29.0613 87.3665 29.4453 86.8011 29.744C86.2465 30.0427 85.5478 30.192 84.7051 30.192ZM93.4431 30C92.7178 30 92.1471 29.824 91.7311 29.472C91.3151 29.12 91.1071 28.4853 91.1071 27.568V23.2H89.7311V22.064H91.1071L91.2831 20.16H92.4511V22.064H94.7871V23.2H92.4511V27.568C92.4511 28.0693 92.5525 28.4107 92.7551 28.592C92.9578 28.7627 93.3151 28.848 93.8271 28.848H94.6591V30H93.4431ZM99.8919 30.192C99.1452 30.192 98.4732 30.0213 97.8759 29.68C97.2785 29.3387 96.8039 28.8587 96.4519 28.24C96.1105 27.6107 95.9399 26.8747 95.9399 26.032C95.9399 25.1893 96.1159 24.4587 96.4679 23.84C96.8199 23.2107 97.2945 22.7253 97.8919 22.384C98.4999 22.0427 99.1772 21.872 99.9239 21.872C100.671 21.872 101.343 22.0427 101.94 22.384C102.537 22.7253 103.007 23.2107 103.348 23.84C103.7 24.4587 103.876 25.1893 103.876 26.032C103.876 26.8747 103.7 27.6107 103.348 28.24C102.996 28.8587 102.516 29.3387 101.908 29.68C101.311 30.0213 100.639 30.192 99.8919 30.192ZM99.8919 29.04C100.351 29.04 100.777 28.928 101.172 28.704C101.567 28.48 101.887 28.144 102.132 27.696C102.377 27.248 102.5 26.6933 102.5 26.032C102.5 25.3707 102.377 24.816 102.132 24.368C101.897 23.92 101.583 23.584 101.188 23.36C100.793 23.136 100.372 23.024 99.9239 23.024C99.4652 23.024 99.0385 23.136 98.6439 23.36C98.2492 23.584 97.9292 23.92 97.6839 24.368C97.4385 24.816 97.3159 25.3707 97.3159 26.032C97.3159 26.6933 97.4385 27.248 97.6839 27.696C97.9292 28.144 98.2439 28.48 98.6279 28.704C99.0225 28.928 99.4439 29.04 99.8919 29.04ZM105.745 30V22.064H106.961L107.073 23.584C107.318 23.0613 107.691 22.6453 108.193 22.336C108.694 22.0267 109.313 21.872 110.049 21.872V23.28H109.681C109.211 23.28 108.779 23.3653 108.385 23.536C107.99 23.696 107.675 23.9733 107.441 24.368C107.206 24.7627 107.089 25.3067 107.089 26V30H105.745ZM114.828 30.192C114.071 30.192 113.399 30.0213 112.812 29.68C112.226 29.328 111.762 28.8427 111.42 28.224C111.09 27.6053 110.924 26.8747 110.924 26.032C110.924 25.2 111.09 24.4747 111.42 23.856C111.751 23.2267 112.21 22.7413 112.796 22.4C113.394 22.048 114.082 21.872 114.86 21.872C115.628 21.872 116.29 22.048 116.844 22.4C117.41 22.7413 117.842 23.1947 118.14 23.76C118.439 24.3253 118.588 24.9333 118.588 25.584C118.588 25.7013 118.583 25.8187 118.572 25.936C118.572 26.0533 118.572 26.1867 118.572 26.336H112.252C112.284 26.944 112.423 27.4507 112.668 27.856C112.924 28.2507 113.239 28.5493 113.612 28.752C113.996 28.9547 114.402 29.056 114.828 29.056C115.383 29.056 115.847 28.928 116.22 28.672C116.594 28.416 116.866 28.0693 117.036 27.632H118.364C118.151 28.368 117.74 28.9813 117.132 29.472C116.535 29.952 115.767 30.192 114.828 30.192ZM114.828 23.008C114.188 23.008 113.618 23.2053 113.116 23.6C112.626 23.984 112.343 24.5493 112.268 25.296H117.26C117.228 24.5813 116.983 24.0213 116.524 23.616C116.066 23.2107 115.5 23.008 114.828 23.008Z" fill="#141C1F"/>
<rect x="1" y="1" width="156" height="48" rx="8" stroke="#141C1F"/>
</svg>
