<svg width="158" height="50" viewBox="0 0 158 50" fill="none" xmlns="http://www.w3.org/2000/svg">
<path d="M17.4847 13.3793C17.144 13.7449 16.9719 14.2135 17.0038 14.6892V35.3109C16.9718 35.7866 17.1439 36.2553 17.4847 36.6208L17.5616 36.688L30.4366 25.1363V24.8638L17.5616 13.3116L17.4847 13.3793Z" fill="url(#paint0_linear_4987_4982)"/>
<path d="M34.7289 28.9888L30.4375 25.1365V24.864L34.7299 21.0127L34.8267 21.0622L39.9114 23.6544C41.3638 24.3948 41.3638 25.6062 39.9114 26.347L34.8267 28.9392L34.7289 28.9888Z" fill="url(#paint1_linear_4987_4982)"/>
<path d="M34.8255 28.9385L30.4363 25L17.4844 36.6207C17.7803 36.8549 18.1582 36.9888 18.5527 36.9993C18.9471 37.0097 19.3332 36.8961 19.644 36.678L34.8255 28.9385Z" fill="url(#paint2_linear_4987_4982)"/>
<path d="M34.8255 21.0615L19.644 13.322C19.3332 13.1039 18.9471 12.9902 18.5527 13.0007C18.1582 13.0111 17.7803 13.145 17.4844 13.3792L30.4363 25L34.8255 21.0615Z" fill="url(#paint3_linear_4987_4982)"/>
<path opacity="0.2" d="M34.7287 28.8516L19.644 36.5416C19.3451 36.7457 18.9804 36.8571 18.6048 36.8589C18.2291 36.8607 17.8631 36.7528 17.5618 36.5515L17.4844 36.621L17.5613 36.6882L17.5618 36.6878C17.863 36.8891 18.2291 36.9971 18.6048 36.9953C18.9804 36.9935 19.3452 36.882 19.644 36.6778L34.8255 28.9383L34.7287 28.8516Z" fill="black"/>
<path opacity="0.12" d="M17.4847 36.4848C17.144 36.1192 16.9719 35.6505 17.0038 35.1748V35.311C16.9719 35.7868 17.1439 36.2554 17.4847 36.621L17.5621 36.5515L17.4847 36.4848Z" fill="black"/>
<path opacity="0.12" d="M39.908 26.2096L34.7266 28.8514L34.8233 28.9381L39.908 26.3459C40.2072 26.2294 40.466 26.0431 40.6576 25.8064C40.8492 25.5697 40.9666 25.2912 40.9975 25C40.9332 25.2637 40.8012 25.5104 40.6121 25.7204C40.423 25.9303 40.1819 26.0979 39.908 26.2096Z" fill="black"/>
<path opacity="0.25" d="M19.6445 13.4589L39.9107 23.7902C40.1847 23.9019 40.4258 24.0695 40.615 24.2796C40.8041 24.4896 40.936 24.7364 41.0001 25.0003C40.9694 24.7089 40.8521 24.4303 40.6605 24.1935C40.4689 23.9567 40.2099 23.7703 39.9107 23.6539L19.6445 13.3227C18.1921 12.5822 17.0039 13.1972 17.0039 14.6899V14.8261C17.0039 13.3336 18.1921 12.7185 19.6445 13.4589Z" fill="white"/>
<path d="M56.001 30.192C54.9556 30.192 54.0383 29.952 53.249 29.472C52.4596 28.9813 51.8463 28.304 51.409 27.44C50.9716 26.5653 50.753 25.5573 50.753 24.416C50.753 23.2747 50.9716 22.2667 51.409 21.392C51.857 20.5173 52.4863 19.8347 53.297 19.344C54.1183 18.8533 55.0836 18.608 56.193 18.608C57.4516 18.608 58.497 18.912 59.329 19.52C60.1716 20.128 60.7156 20.9653 60.961 22.032H59.409C59.2596 21.36 58.9023 20.8267 58.337 20.432C57.7823 20.0373 57.0676 19.84 56.193 19.84C55.3716 19.84 54.657 20.0267 54.049 20.4C53.441 20.7627 52.9663 21.2853 52.625 21.968C52.2943 22.6507 52.129 23.4667 52.129 24.416C52.129 25.3653 52.2943 26.1813 52.625 26.864C52.9556 27.5467 53.4143 28.0747 54.001 28.448C54.5876 28.8107 55.2703 28.992 56.049 28.992C57.2436 28.992 58.145 28.6453 58.753 27.952C59.361 27.248 59.7076 26.288 59.793 25.072H56.561V24.016H61.169V30H59.937L59.825 28.16C59.4196 28.8107 58.9236 29.312 58.337 29.664C57.7503 30.016 56.9716 30.192 56.001 30.192ZM66.8304 30.192C66.0837 30.192 65.4117 30.0213 64.8144 29.68C64.217 29.3387 63.7424 28.8587 63.3904 28.24C63.049 27.6107 62.8784 26.8747 62.8784 26.032C62.8784 25.1893 63.0544 24.4587 63.4064 23.84C63.7584 23.2107 64.233 22.7253 64.8304 22.384C65.4384 22.0427 66.1157 21.872 66.8624 21.872C67.609 21.872 68.281 22.0427 68.8784 22.384C69.4757 22.7253 69.945 23.2107 70.2864 23.84C70.6384 24.4587 70.8144 25.1893 70.8144 26.032C70.8144 26.8747 70.6384 27.6107 70.2864 28.24C69.9344 28.8587 69.4544 29.3387 68.8464 29.68C68.249 30.0213 67.577 30.192 66.8304 30.192ZM66.8304 29.04C67.289 29.04 67.7157 28.928 68.1104 28.704C68.505 28.48 68.825 28.144 69.0704 27.696C69.3157 27.248 69.4384 26.6933 69.4384 26.032C69.4384 25.3707 69.3157 24.816 69.0704 24.368C68.8357 23.92 68.521 23.584 68.1264 23.36C67.7317 23.136 67.3104 23.024 66.8624 23.024C66.4037 23.024 65.977 23.136 65.5824 23.36C65.1877 23.584 64.8677 23.92 64.6224 24.368C64.377 24.816 64.2544 25.3707 64.2544 26.032C64.2544 26.6933 64.377 27.248 64.6224 27.696C64.8677 28.144 65.1824 28.48 65.5664 28.704C65.961 28.928 66.3824 29.04 66.8304 29.04ZM76.2991 30.192C75.5524 30.192 74.8804 30.0213 74.2831 29.68C73.6858 29.3387 73.2111 28.8587 72.8591 28.24C72.5178 27.6107 72.3471 26.8747 72.3471 26.032C72.3471 25.1893 72.5231 24.4587 72.8751 23.84C73.2271 23.2107 73.7018 22.7253 74.2991 22.384C74.9071 22.0427 75.5844 21.872 76.3311 21.872C77.0778 21.872 77.7498 22.0427 78.3471 22.384C78.9444 22.7253 79.4138 23.2107 79.7551 23.84C80.1071 24.4587 80.2831 25.1893 80.2831 26.032C80.2831 26.8747 80.1071 27.6107 79.7551 28.24C79.4031 28.8587 78.9231 29.3387 78.3151 29.68C77.7178 30.0213 77.0458 30.192 76.2991 30.192ZM76.2991 29.04C76.7578 29.04 77.1844 28.928 77.5791 28.704C77.9738 28.48 78.2938 28.144 78.5391 27.696C78.7844 27.248 78.9071 26.6933 78.9071 26.032C78.9071 25.3707 78.7844 24.816 78.5391 24.368C78.3044 23.92 77.9898 23.584 77.5951 23.36C77.2004 23.136 76.7791 23.024 76.3311 23.024C75.8724 23.024 75.4458 23.136 75.0511 23.36C74.6564 23.584 74.3364 23.92 74.0911 24.368C73.8458 24.816 73.7231 25.3707 73.7231 26.032C73.7231 26.6933 73.8458 27.248 74.0911 27.696C74.3364 28.144 74.6511 28.48 75.0351 28.704C75.4298 28.928 75.8511 29.04 76.2991 29.04ZM84.9441 27.504C84.4961 27.504 84.0854 27.4453 83.7121 27.328L82.9121 28.08C83.0294 28.1653 83.1734 28.24 83.3441 28.304C83.5254 28.3573 83.7814 28.4107 84.1121 28.464C84.4428 28.5067 84.9068 28.5547 85.5041 28.608C86.5708 28.6827 87.3334 28.928 87.7921 29.344C88.2508 29.76 88.4801 30.304 88.4801 30.976C88.4801 31.4347 88.3521 31.872 88.0961 32.288C87.8508 32.704 87.4668 33.0453 86.9441 33.312C86.4321 33.5787 85.7708 33.712 84.9601 33.712C84.2454 33.712 83.6108 33.616 83.0561 33.424C82.5014 33.2427 82.0694 32.96 81.7601 32.576C81.4508 32.2027 81.2961 31.728 81.2961 31.152C81.2961 30.8533 81.3761 30.528 81.5361 30.176C81.6961 29.8347 81.9948 29.5093 82.4321 29.2C82.1974 29.104 81.9948 29.0027 81.8241 28.896C81.6641 28.7787 81.5148 28.6507 81.3761 28.512V28.144L82.7361 26.8C82.1068 26.2667 81.7921 25.5627 81.7921 24.688C81.7921 24.1653 81.9148 23.6907 82.1601 23.264C82.4054 22.8373 82.7628 22.5013 83.2321 22.256C83.7014 22 84.2721 21.872 84.9441 21.872C85.4028 21.872 85.8188 21.936 86.1921 22.064H89.1201V23.072L87.6321 23.136C87.9414 23.584 88.0961 24.1013 88.0961 24.688C88.0961 25.2107 87.9681 25.6853 87.7121 26.112C87.4668 26.5387 87.1094 26.88 86.6401 27.136C86.1814 27.3813 85.6161 27.504 84.9441 27.504ZM84.9441 26.4C85.5094 26.4 85.9574 26.256 86.2881 25.968C86.6294 25.6693 86.8001 25.2427 86.8001 24.688C86.8001 24.144 86.6294 23.728 86.2881 23.44C85.9574 23.1413 85.5094 22.992 84.9441 22.992C84.3681 22.992 83.9094 23.1413 83.5681 23.44C83.2374 23.728 83.0721 24.144 83.0721 24.688C83.0721 25.2427 83.2374 25.6693 83.5681 25.968C83.9094 26.256 84.3681 26.4 84.9441 26.4ZM82.6081 31.024C82.6081 31.5573 82.8321 31.952 83.2801 32.208C83.7281 32.4747 84.2881 32.608 84.9601 32.608C85.6214 32.608 86.1494 32.464 86.5441 32.176C86.9494 31.888 87.1521 31.504 87.1521 31.024C87.1521 30.6827 87.0134 30.384 86.7361 30.128C86.4588 29.8827 85.9468 29.7387 85.2001 29.696C84.6134 29.6533 84.1068 29.6 83.6801 29.536C83.2428 29.7707 82.9548 30.0213 82.8161 30.288C82.6774 30.5653 82.6081 30.8107 82.6081 31.024ZM90.6362 30V18.48H91.9802V30H90.6362ZM97.7511 30.192C96.9938 30.192 96.3218 30.0213 95.7351 29.68C95.1484 29.328 94.6844 28.8427 94.3431 28.224C94.0124 27.6053 93.8471 26.8747 93.8471 26.032C93.8471 25.2 94.0124 24.4747 94.3431 23.856C94.6738 23.2267 95.1324 22.7413 95.7191 22.4C96.3164 22.048 97.0044 21.872 97.7831 21.872C98.5511 21.872 99.2124 22.048 99.7671 22.4C100.332 22.7413 100.764 23.1947 101.063 23.76C101.362 24.3253 101.511 24.9333 101.511 25.584C101.511 25.7013 101.506 25.8187 101.495 25.936C101.495 26.0533 101.495 26.1867 101.495 26.336H95.1751C95.2071 26.944 95.3458 27.4507 95.5911 27.856C95.8471 28.2507 96.1618 28.5493 96.5351 28.752C96.9191 28.9547 97.3244 29.056 97.7511 29.056C98.3058 29.056 98.7698 28.928 99.1431 28.672C99.5164 28.416 99.7884 28.0693 99.9591 27.632H101.287C101.074 28.368 100.663 28.9813 100.055 29.472C99.4578 29.952 98.6898 30.192 97.7511 30.192ZM97.7511 23.008C97.1111 23.008 96.5404 23.2053 96.0391 23.6C95.5484 23.984 95.2658 24.5493 95.1911 25.296H100.183C100.151 24.5813 99.9058 24.0213 99.4471 23.616C98.9884 23.2107 98.4231 23.008 97.7511 23.008ZM107.607 30V18.8H111.287C112.162 18.8 112.882 18.944 113.447 19.232C114.012 19.52 114.428 19.9093 114.695 20.4C114.972 20.8907 115.111 21.4453 115.111 22.064C115.111 22.672 114.978 23.2213 114.711 23.712C114.444 24.2027 114.028 24.5973 113.463 24.896C112.898 25.184 112.172 25.328 111.287 25.328H108.951V30H107.607ZM108.951 24.192H111.255C112.151 24.192 112.786 24.0053 113.159 23.632C113.543 23.248 113.735 22.7253 113.735 22.064C113.735 21.392 113.543 20.8693 113.159 20.496C112.786 20.112 112.151 19.92 111.255 19.92H108.951V24.192ZM116.792 30V18.48H118.136V30H116.792ZM122.979 30.192C122.318 30.192 121.769 30.08 121.331 29.856C120.894 29.632 120.569 29.3333 120.355 28.96C120.142 28.5867 120.035 28.1813 120.035 27.744C120.035 26.9333 120.345 26.3093 120.963 25.872C121.582 25.4347 122.425 25.216 123.491 25.216H125.635V25.12C125.635 24.4267 125.454 23.904 125.091 23.552C124.729 23.1893 124.243 23.008 123.635 23.008C123.113 23.008 122.659 23.1413 122.275 23.408C121.902 23.664 121.667 24.0427 121.571 24.544H120.195C120.249 23.968 120.441 23.4827 120.771 23.088C121.113 22.6933 121.534 22.3947 122.035 22.192C122.537 21.9787 123.07 21.872 123.635 21.872C124.745 21.872 125.577 22.1707 126.131 22.768C126.697 23.3547 126.979 24.1387 126.979 25.12V30H125.779L125.699 28.576C125.475 29.024 125.145 29.408 124.707 29.728C124.281 30.0373 123.705 30.192 122.979 30.192ZM123.187 29.056C123.699 29.056 124.137 28.9227 124.499 28.656C124.873 28.3893 125.155 28.0427 125.347 27.616C125.539 27.1893 125.635 26.7413 125.635 26.272V26.256H123.603C122.814 26.256 122.254 26.3947 121.923 26.672C121.603 26.9387 121.443 27.2747 121.443 27.68C121.443 28.096 121.593 28.432 121.891 28.688C122.201 28.9333 122.633 29.056 123.187 29.056ZM129.625 33.52L131.593 29.232H131.129L127.977 22.064H129.433L132.057 28.24L134.841 22.064H136.233L131.033 33.52H129.625Z" fill="#141C1F"/>
<rect x="1" y="1" width="156" height="48" rx="8" stroke="#141C1F"/>
<defs>
<linearGradient id="paint0_linear_4987_4982" x1="29.2949" y1="14.4718" x2="13.7381" y2="31.8105" gradientUnits="userSpaceOnUse">
<stop stop-color="#00A0FF"/>
<stop offset="0.00657" stop-color="#00A1FF"/>
<stop offset="0.2601" stop-color="#00BEFF"/>
<stop offset="0.5122" stop-color="#00D2FF"/>
<stop offset="0.7604" stop-color="#00DFFF"/>
<stop offset="1" stop-color="#00E3FF"/>
</linearGradient>
<linearGradient id="paint1_linear_4987_4982" x1="41.8025" y1="25.0007" x2="16.6564" y2="25.0007" gradientUnits="userSpaceOnUse">
<stop stop-color="#FFE000"/>
<stop offset="0.4087" stop-color="#FFBD00"/>
<stop offset="0.7754" stop-color="#FFA500"/>
<stop offset="1" stop-color="#FF9C00"/>
</linearGradient>
<linearGradient id="paint2_linear_4987_4982" x1="32.4405" y1="27.14" x2="11.3443" y2="50.6527" gradientUnits="userSpaceOnUse">
<stop stop-color="#FF3A44"/>
<stop offset="1" stop-color="#C31162"/>
</linearGradient>
<linearGradient id="paint3_linear_4987_4982" x1="14.2232" y1="6.51488" x2="23.6435" y2="17.0143" gradientUnits="userSpaceOnUse">
<stop stop-color="#32A071"/>
<stop offset="0.0685" stop-color="#2DA771"/>
<stop offset="0.4762" stop-color="#15CF74"/>
<stop offset="0.8009" stop-color="#06E775"/>
<stop offset="1" stop-color="#00F076"/>
</linearGradient>
</defs>
</svg>
