<svg width="24" height="25" viewBox="0 0 24 25" fill="none" xmlns="http://www.w3.org/2000/svg">
<path fill-rule="evenodd" clip-rule="evenodd" d="M7.60045 2.44043H16.399C19.3871 2.44043 21.8181 4.87143 21.818 7.85936V16.6579C21.818 19.6458 19.3871 22.0768 16.399 22.0768H7.60045C4.61252 22.0768 2.18164 19.6459 2.18164 16.6579V7.85936C2.18164 4.87143 4.61252 2.44043 7.60045 2.44043ZM16.3991 20.3346C18.4265 20.3346 20.0759 18.6852 20.0759 16.6579H20.0758V7.85936C20.0758 5.83209 18.4263 4.18266 16.399 4.18266H7.60045C5.57319 4.18266 3.92387 5.83209 3.92387 7.85936V16.6579C3.92387 18.6852 5.57319 20.3347 7.60045 20.3346H16.3991ZM6.85696 12.2587C6.85696 9.42285 9.16401 7.11575 11.9998 7.11575C14.8356 7.11575 17.1427 9.42285 17.1427 12.2587C17.1427 15.0945 14.8356 17.4015 11.9998 17.4015C9.16401 17.4015 6.85696 15.0945 6.85696 12.2587ZM8.6278 12.2586C8.6278 14.1179 10.1406 15.6305 11.9998 15.6305C13.8591 15.6305 15.3718 14.1179 15.3718 12.2586C15.3718 10.3992 13.8592 8.88651 11.9998 8.88651C10.1404 8.88651 8.6278 10.3992 8.6278 12.2586Z" fill="#C8C6CD"/>
<mask id="mask0_3734_36717" style="mask-type:alpha" maskUnits="userSpaceOnUse" x="2" y="2" width="20" height="21">
<path fill-rule="evenodd" clip-rule="evenodd" d="M7.60045 2.44043H16.399C19.3871 2.44043 21.8181 4.87143 21.818 7.85936V16.6579C21.818 19.6458 19.3871 22.0768 16.399 22.0768H7.60045C4.61252 22.0768 2.18164 19.6459 2.18164 16.6579V7.85936C2.18164 4.87143 4.61252 2.44043 7.60045 2.44043ZM16.3991 20.3346C18.4265 20.3346 20.0759 18.6852 20.0759 16.6579H20.0758V7.85936C20.0758 5.83209 18.4263 4.18266 16.399 4.18266H7.60045C5.57319 4.18266 3.92387 5.83209 3.92387 7.85936V16.6579C3.92387 18.6852 5.57319 20.3347 7.60045 20.3346H16.3991ZM6.85696 12.2587C6.85696 9.42285 9.16401 7.11575 11.9998 7.11575C14.8356 7.11575 17.1427 9.42285 17.1427 12.2587C17.1427 15.0945 14.8356 17.4015 11.9998 17.4015C9.16401 17.4015 6.85696 15.0945 6.85696 12.2587ZM8.6278 12.2586C8.6278 14.1179 10.1406 15.6305 11.9998 15.6305C13.8591 15.6305 15.3718 14.1179 15.3718 12.2586C15.3718 10.3992 13.8592 8.88651 11.9998 8.88651C10.1404 8.88651 8.6278 10.3992 8.6278 12.2586Z" fill="white"/>
</mask>
<g mask="url(#mask0_3734_36717)">
</g>
</svg>
