<svg width="18" height="19" viewBox="0 0 18 19" fill="none" xmlns="http://www.w3.org/2000/svg">
<path d="M16.2 0.258789H1.8C0.81 0.258789 0 1.06879 0 2.05879V16.4588C0 17.4488 0.81 18.2588 1.8 18.2588H16.2C17.19 18.2588 18 17.4488 18 16.4588V2.05879C18 1.06879 17.19 0.258789 16.2 0.258789ZM5.4 15.5588H2.7V7.45879H5.4V15.5588ZM4.05 5.92879C3.15 5.92879 2.43 5.20879 2.43 4.30879C2.43 3.40879 3.15 2.68879 4.05 2.68879C4.95 2.68879 5.67 3.40879 5.67 4.30879C5.67 5.20879 4.95 5.92879 4.05 5.92879ZM15.3 15.5588H12.6V10.7888C12.6 10.0688 11.97 9.43879 11.25 9.43879C10.53 9.43879 9.9 10.0688 9.9 10.7888V15.5588H7.2V7.45879H9.9V8.53879C10.35 7.81879 11.34 7.27879 12.15 7.27879C13.86 7.27879 15.3 8.71879 15.3 10.4288V15.5588Z" fill="#C8C6CD"/>
</svg>
