<svg width="19" height="16" viewBox="0 0 19 16" fill="none" xmlns="http://www.w3.org/2000/svg">
<path fill-rule="evenodd" clip-rule="evenodd" d="M18.8179 2.40489C18.1353 2.70735 17.4029 2.91247 16.6334 3.00404C17.4191 2.53353 18.0206 1.78723 18.3056 0.90068C17.5686 1.33641 16.7551 1.6528 15.8882 1.82432C15.1941 1.0838 14.2067 0.622559 13.1116 0.622559C11.0105 0.622559 9.30698 2.3261 9.30698 4.42598C9.30698 4.7238 9.34058 5.01468 9.40549 5.29283C6.2441 5.13404 3.44079 3.61941 1.56458 1.31786C1.23661 1.87877 1.05004 2.53235 1.05004 3.23001C1.05004 4.54998 1.72219 5.71465 2.74201 6.39604C2.11852 6.3752 1.53213 6.20368 1.01876 5.91859V5.9661C1.01876 7.80871 2.33061 9.34653 4.07007 9.69653C3.75137 9.78229 3.41531 9.8298 3.06764 9.8298C2.82198 9.8298 2.5844 9.80547 2.35146 9.7591C2.83586 11.2714 4.24043 12.3712 5.90458 12.4013C4.60316 13.4212 2.96219 14.0273 1.17985 14.0273C0.872764 14.0273 0.570279 14.0087 0.272461 13.9751C1.95631 15.0563 3.95537 15.6868 6.10392 15.6868C13.1023 15.6868 16.9278 9.89007 16.9278 4.86289L16.915 4.37038C17.6625 3.83726 18.3091 3.16744 18.8179 2.40489Z" fill="#C8C6CD"/>
</svg>
