<svg width="116" height="116" viewBox="0 0 116 116" fill="none" xmlns="http://www.w3.org/2000/svg">
<mask id="mask0_4716_4952" style="mask-type:alpha" maskUnits="userSpaceOnUse" x="0" y="0" width="116" height="116">
<circle cx="58" cy="58" r="57.2" fill="#C4C4C4" stroke="#F8BB54" stroke-width="1.6"/>
</mask>
<g mask="url(#mask0_4716_4952)">
<path d="M-33.7109 24.3248C-33.7109 24.3248 -6.70275 19.3217 0.265704 1.81129C6.93009 -14.9744 34.3827 -19.4863 34.3827 -19.4863" stroke="#F6AE2D" stroke-width="1.79845" stroke-miterlimit="10"/>
<path d="M-33.7109 32.7408C-33.7109 32.7408 -0.576112 26.9664 7.95897 5.83238C16.0965 -14.3432 49.7458 -19.4863 49.7458 -19.4863" stroke="#F6AE2D" stroke-width="1.79845" stroke-miterlimit="10"/>
<path d="M-33.7109 41.1805C-33.7109 41.1805 5.52705 34.6112 15.6288 9.90024C25.263 -13.7353 65.109 -19.4863 65.109 -19.4863" stroke="#F6AE2D" stroke-width="1.79845" stroke-miterlimit="10"/>
<path d="M-33.7109 49.5967C-33.7109 49.5967 11.6536 42.256 23.3221 13.9214C34.4294 -13.104 80.4721 -19.4863 80.4721 -19.4863" stroke="#F6AE2D" stroke-width="1.79845" stroke-miterlimit="10"/>
<path d="M-33.7109 58.013C-33.7109 58.013 17.7802 49.9007 31.0154 17.9658C43.5958 -12.4728 95.8119 -19.4863 95.8119 -19.4863" stroke="#F6AE2D" stroke-width="1.79845" stroke-miterlimit="10"/>
<path d="M-33.7109 66.4525C-33.7109 66.4525 23.8833 57.5687 38.6853 22.0101C52.7856 -11.865 111.175 -19.4863 111.175 -19.4863" stroke="#F6AE2D" stroke-width="1.79845" stroke-miterlimit="10"/>
<path d="M-33.7109 74.8687C-33.7109 74.8687 30.0099 65.19 46.3786 26.0547C61.9522 -11.2338 126.538 -19.4863 126.538 -19.4863" stroke="#F6AE2D" stroke-width="1.79845" stroke-miterlimit="10"/>
<path d="M-33.7109 83.2849C-33.7109 83.2849 36.1365 72.8347 54.0484 30.0758C71.1185 -10.6026 141.901 -19.4863 141.901 -19.4863" stroke="#F6AE2D" stroke-width="1.79845" stroke-miterlimit="10"/>
<path d="M-33.7109 91.7246C-33.7109 91.7246 42.2395 80.503 61.7416 34.1435C80.2851 -9.99482 157.241 -19.4863 157.241 -19.4863" stroke="#F6AE2D" stroke-width="1.79845" stroke-miterlimit="10"/>
<path d="M-33.7109 100.14C-33.7109 100.14 48.3662 88.1477 69.4116 38.1881C89.4514 -9.3636 172.604 -19.4863 172.604 -19.4863" stroke="#F6AE2D" stroke-width="1.79845" stroke-miterlimit="10"/>
<path d="M-33.7109 108.58C-33.7109 108.58 54.4927 95.7923 77.1049 42.2325C98.618 -8.73238 187.967 -19.4863 187.967 -19.4863" stroke="#F6AE2D" stroke-width="1.79845" stroke-miterlimit="10"/>
<path d="M-33.7109 116.997C-33.7109 116.997 60.5959 103.437 84.7747 46.277C107.784 -8.12444 203.33 -19.4863 203.33 -19.4863" stroke="#F6AE2D" stroke-width="1.79845" stroke-miterlimit="10"/>
<path d="M-33.7109 125.412C-33.7109 125.412 66.7224 111.082 92.468 50.298C116.951 -7.49322 218.693 -19.4863 218.693 -19.4863" stroke="#F6AE2D" stroke-width="1.79845" stroke-miterlimit="10"/>
<path d="M-33.7109 133.852C-33.7109 133.852 72.8491 118.727 100.161 54.3658C126.117 -6.86199 234.033 -19.4863 234.033 -19.4863" stroke="#F6AE2D" stroke-width="1.79845" stroke-miterlimit="10"/>
<path d="M-33.7109 142.269C-33.7109 142.269 78.9521 126.371 107.831 58.3869C135.284 -6.25423 249.397 -19.4863 249.397 -19.4863" stroke="#F6AE2D" stroke-width="1.79845" stroke-miterlimit="10"/>
<path d="M-33.7109 150.685C-33.7109 150.685 85.0788 134.016 115.524 62.4313C144.45 -5.623 264.76 -19.4863 264.76 -19.4863" stroke="#F6AE2D" stroke-width="1.79845" stroke-miterlimit="10"/>
<path d="M-33.7109 159.125C-33.7109 159.125 91.2053 141.684 123.194 66.4759C153.617 -4.99177 280.123 -19.4863 280.123 -19.4863" stroke="#F6AE2D" stroke-width="1.79845" stroke-miterlimit="10"/>
<path d="M-33.7109 167.54C-33.7109 167.54 97.3085 149.306 130.887 70.5203C162.783 -4.38402 295.463 -19.4863 295.463 -19.4863" stroke="#F6AE2D" stroke-width="1.79845" stroke-miterlimit="10"/>
</g>
</svg>
