<svg width="40" height="40" viewBox="0 0 40 40" fill="none" xmlns="http://www.w3.org/2000/svg">
<rect width="40" height="40" rx="20" fill="#2E63EA" fill-opacity="0.24"/>
<path d="M20 10C17.38 10 15.25 12.13 15.25 14.75C15.25 17.32 17.26 19.4 19.88 19.49C19.96 19.48 20.04 19.48 20.1 19.49C20.12 19.49 20.13 19.49 20.15 19.49C20.16 19.49 20.16 19.49 20.17 19.49C22.73 19.4 24.74 17.32 24.75 14.75C24.75 12.13 22.62 10 20 10Z" fill="#2E63EA"/>
<path d="M25.0809 22.1509C22.2909 20.2909 17.7409 20.2909 14.9309 22.1509C13.6609 23.0009 12.9609 24.1509 12.9609 25.3809C12.9609 26.6109 13.6609 27.7509 14.9209 28.5909C16.3209 29.5309 18.1609 30.0009 20.0009 30.0009C21.8409 30.0009 23.6809 29.5309 25.0809 28.5909C26.3409 27.7409 27.0409 26.6009 27.0409 25.3609C27.0309 24.1309 26.3409 22.9909 25.0809 22.1509Z" fill="#2E63EA"/>
</svg>
