<svg width="40" height="40" viewBox="0 0 40 40" fill="none" xmlns="http://www.w3.org/2000/svg">
<rect width="40" height="40" rx="20" fill="#F6AE2D" fill-opacity="0.24"/>
<path d="M15.8346 11.666H15.0013C12.5013 11.666 11.668 13.1577 11.668 14.9993V15.8327V27.4993C11.668 28.191 12.4513 28.5827 13.0013 28.166L14.4263 27.0993C14.7596 26.8493 15.2263 26.8827 15.5263 27.1827L16.9096 28.5744C17.2346 28.8994 17.768 28.8994 18.093 28.5744L19.493 27.1743C19.7846 26.8827 20.2513 26.8493 20.5763 27.0993L22.0013 28.166C22.5513 28.5743 23.3346 28.1827 23.3346 27.4993V13.3327C23.3346 12.416 24.0846 11.666 25.0013 11.666H15.8346ZM19.3763 21.4577H15.6263C15.2846 21.4577 15.0013 21.1743 15.0013 20.8327C15.0013 20.491 15.2846 20.2077 15.6263 20.2077H19.3763C19.718 20.2077 20.0013 20.491 20.0013 20.8327C20.0013 21.1743 19.718 21.4577 19.3763 21.4577ZM20.0013 18.1243H15.0013C14.6596 18.1243 14.3763 17.841 14.3763 17.4993C14.3763 17.1577 14.6596 16.8743 15.0013 16.8743H20.0013C20.343 16.8743 20.6263 17.1577 20.6263 17.4993C20.6263 17.841 20.343 18.1243 20.0013 18.1243Z" fill="#F6AE2D"/>
<path d="M25.007 11.666V12.916C25.557 12.916 26.082 13.141 26.4654 13.516C26.8654 13.9243 27.082 14.4493 27.082 14.9993V17.016C27.082 17.6327 26.807 17.916 26.182 17.916H24.582V13.341C24.582 13.1077 24.7737 12.916 25.007 12.916V11.666ZM25.007 11.666C24.082 11.666 23.332 12.416 23.332 13.341V19.166H26.182C27.4987 19.166 28.332 18.3327 28.332 17.016V14.9993C28.332 14.0827 27.957 13.2493 27.357 12.641C26.7487 12.041 25.9237 11.6743 25.007 11.666C25.0154 11.666 25.007 11.666 25.007 11.666Z" fill="#F6AE2D"/>
</svg>
