<svg width="40" height="40" viewBox="0 0 40 40" fill="none" xmlns="http://www.w3.org/2000/svg">
<rect width="40" height="40" rx="20" fill="#02C39A" fill-opacity="0.24"/>
<path d="M23.4516 12.4672L15.9266 14.9672C10.8682 16.6589 10.8682 19.4172 15.9266 21.1005L18.1599 21.8422L18.9016 24.0755C20.5849 29.1339 23.3516 29.1339 25.0349 24.0755L27.5432 16.5589C28.6599 13.1839 26.8266 11.3422 23.4516 12.4672ZM23.7182 16.9505L20.5516 20.1339C20.4266 20.2589 20.2682 20.3172 20.1099 20.3172C19.9516 20.3172 19.7932 20.2589 19.6682 20.1339C19.4266 19.8922 19.4266 19.4922 19.6682 19.2505L22.8349 16.0672C23.0766 15.8255 23.4766 15.8255 23.7182 16.0672C23.9599 16.3089 23.9599 16.7089 23.7182 16.9505Z" fill="#02C39A"/>
</svg>
