<svg width="40" height="40" viewBox="0 0 40 40" fill="none" xmlns="http://www.w3.org/2000/svg">
<rect width="40" height="40" rx="20" fill="#E71D36" fill-opacity="0.24"/>
<g opacity="0.8">
<path d="M28.3346 12.709H11.668C11.3263 12.709 11.043 12.4257 11.043 12.084C11.043 11.7423 11.3263 11.459 11.668 11.459H28.3346C28.6763 11.459 28.9596 11.7423 28.9596 12.084C28.9596 12.4257 28.6763 12.709 28.3346 12.709Z" fill="#E71D36"/>
<path d="M13.0586 12.084V22.059C13.0586 22.8757 13.4419 23.6507 14.1003 24.1423L18.4419 27.3923C19.3669 28.084 20.6419 28.084 21.5669 27.3923L25.9086 24.1423C26.5669 23.6507 26.9503 22.8757 26.9503 22.059V12.084H13.0586ZM23.3336 21.459H16.6669C16.3253 21.459 16.0419 21.1757 16.0419 20.834C16.0419 20.4923 16.3253 20.209 16.6669 20.209H23.3336C23.6753 20.209 23.9586 20.4923 23.9586 20.834C23.9586 21.1757 23.6753 21.459 23.3336 21.459ZM23.3336 17.2923H16.6669C16.3253 17.2923 16.0419 17.009 16.0419 16.6673C16.0419 16.3257 16.3253 16.0423 16.6669 16.0423H23.3336C23.6753 16.0423 23.9586 16.3257 23.9586 16.6673C23.9586 17.009 23.6753 17.2923 23.3336 17.2923Z" fill="#E71D36"/>
</g>
</svg>
