<svg width="42" height="46" viewBox="0 0 42 46" fill="none" xmlns="http://www.w3.org/2000/svg">
<path d="M0.00164434 38.4774C0.00164434 38.4774 1.53709 26.343 20.1241 34.5684C21.4171 35.3013 22.7909 35.9528 24.1647 36.5229C27.8821 38.0703 32.4077 38.4774 36.2059 35.5456C38.9535 33.4282 40.3273 31.0665 40.489 28.0532C40.5698 26.5058 40.4081 24.7956 40.0849 23.3297C40.489 24.7142 40.8122 26.1801 40.9738 27.646C41.7011 31.8809 40.4081 36.2786 37.4181 39.3733C33.135 43.9339 26.4275 42.5494 13.8207 42.7937C9.94164 42.8752 9.61839 44.9112 6.22425 45.074C2.8301 45.2369 -0.0791687 42.8752 0.00164434 38.4774Z" fill="#7BCBCD"/>
<path d="M13.8999 9.81083C14.304 9.07788 14.6272 8.26348 15.0313 7.53053C15.7586 6.06462 16.5667 4.59871 17.4557 3.29568C19.476 0.608176 23.2742 0.11954 25.941 2.23697C26.1027 2.39984 26.2643 2.48128 26.3451 2.64416L26.4259 4.19151C26.5067 4.43583 26.3451 4.59871 26.1027 4.68015C26.0219 4.68015 26.0219 4.68015 25.941 4.68015C24.8905 4.84303 23.8399 4.92447 22.7085 5.08735C22.4661 5.16879 22.3045 5.25023 22.062 5.33166C21.5771 5.73886 21.0923 6.06462 20.5266 6.55326C20.0417 6.96045 19.3952 7.53053 18.8295 8.10061H18.6679H18.5871L16.4051 8.915L13.8999 9.81083Z" fill="#80CBCC"/>
<path d="M17.54 29.2749L16.0853 32.1253C14.3883 31.4738 12.6912 31.0666 10.9133 30.7408C8.48891 30.5779 7.1959 30.5779 5.3372 31.148C4.85232 31.3109 4.36744 31.5552 3.96338 31.7181C4.04419 31.4738 4.125 31.3109 4.36744 31.0666C5.01395 30.415 5.66045 29.7635 6.30696 29.112L4.77151 27.3203C4.93313 26.9131 5.17557 26.506 5.41801 26.0988C6.14533 26.3431 6.95346 26.6688 7.68078 26.8317C10.9133 27.809 14.1458 28.5419 17.54 29.2749Z" fill="#388CA9"/>
<path d="M17.5375 29.2748C14.2241 28.5418 10.9108 27.7274 7.67829 26.913C6.95097 26.7502 6.14284 26.4244 5.41553 26.1801C6.62772 23.8183 7.83992 21.538 9.05211 19.1763C9.37536 18.6062 9.77943 18.0361 10.0219 17.4661H10.1835V17.5475C9.45618 18.932 8.72886 20.3164 8.00154 21.7824C7.59748 22.5153 7.27423 23.3297 6.87016 24.2255C6.62772 24.7956 6.30447 25.3657 6.06203 25.8543C6.06203 26.0172 6.06203 26.0986 6.06203 26.1801C6.22366 26.2615 6.22366 26.343 6.38528 26.343C6.78935 26.2615 7.27423 26.1801 7.67829 26.0986C10.5876 25.61 13.4968 25.1214 16.4061 24.5513C17.4567 24.3884 18.5072 24.2255 19.5578 24.0627L19.3962 25.61C18.7497 26.8316 18.1032 28.1346 17.5375 29.2748Z" fill="#377A92"/>
<path d="M31.7612 10.2995L34.428 14.2086C34.428 15.023 34.3472 15.8374 34.2664 16.7332L27.963 12.9055C27.4781 12.4983 26.7508 12.4983 26.2659 12.9055L26.0234 11.6839L29.3368 10.1366L31.7612 10.2995Z" fill="#7F949E"/>
<path d="M18.9912 8.01919C19.5569 7.53055 20.1226 7.04191 20.6883 6.47184C21.254 5.9832 21.658 5.65744 22.2237 5.33169C22.3854 5.16881 22.6278 5.08737 22.8702 5.08737C23.9208 4.92449 24.9714 4.76161 26.1028 4.68017C26.3452 4.68017 26.5068 4.51729 26.5068 4.27297C26.5068 4.19153 26.5068 4.11009 26.5068 4.11009L26.3452 2.56274C26.6684 2.80706 26.9109 3.13282 27.1533 3.45858C27.9615 4.68017 28.7696 5.90176 29.5777 7.04191C29.6585 7.12335 29.6585 7.20479 29.6585 7.28623L29.3353 10.0552L27.3958 6.47184C27.0725 5.9832 26.8301 5.41313 26.5068 4.92449H26.3452C25.7795 5.90176 25.2946 6.96048 24.7289 7.93775C24.5673 8.34495 24.3249 8.75214 24.1632 9.24078H24.0016L22.4662 8.99646C22.3045 8.91502 22.0621 8.83358 21.9005 8.83358C20.9307 8.42638 19.961 8.26351 18.9912 8.01919Z" fill="#8FCDCB"/>
<path d="M22.6281 22.1082C21.9007 22.3525 21.1734 22.8412 20.7694 23.4112C20.6077 23.5741 20.5269 23.737 20.3653 23.8184H19.638C19.4764 23.6556 19.3955 23.4927 19.2339 23.3298C18.9915 22.9226 18.5874 22.5154 18.6682 22.1896C18.8299 21.5381 19.0723 20.8866 19.4764 20.4794C19.7996 20.1537 20.042 19.7465 20.1229 19.3393C20.1229 19.1764 20.2037 19.0135 20.2845 18.8506C20.4461 18.1177 20.6077 18.1177 21.1734 18.5249C21.3351 18.6877 21.4159 18.7692 21.5775 18.9321L25.4565 21.701L28.689 23.9813V24.0628V24.2256H26.5879C26.1838 23.8184 25.8606 23.4112 25.3757 23.004C24.6484 22.2711 23.5978 21.9453 22.6281 22.1082Z" fill="#356B8A"/>
<path d="M38.6302 31.3108H37.0947L36.9331 31.148C36.8523 29.8449 36.8523 28.5419 36.7715 27.2389C36.6907 25.9358 36.6099 24.7143 36.4482 23.4112C36.6907 23.3298 37.0139 23.0855 37.1756 23.1669C37.8221 23.5741 38.4686 24.1442 39.0343 24.6328L39.8424 25.2843C40.004 27.4018 39.5999 29.5192 38.6302 31.3108Z" fill="#66788B"/>
<path d="M34.1022 33.7541L29.8999 28.1348C30.304 27.9719 30.6272 27.809 31.0313 27.6461C31.3545 27.4833 31.6778 27.2389 32.001 26.9946L32.8092 27.6461L36.9306 31.3109V31.4738C36.2841 31.9624 35.6376 32.4511 35.0719 32.9397C34.6679 33.184 34.3446 33.4283 34.1022 33.7541Z" fill="#3887A2"/>
<path d="M10.1846 17.5475H10.0229C10.0229 17.3846 10.1038 17.3032 10.1846 17.1403C11.4776 14.7786 12.6898 12.4168 13.902 10.0551C13.902 9.97366 13.9828 9.97366 14.0636 9.89222L16.5688 8.99638L18.7508 8.26343L13.1747 14.4528C12.1241 15.3487 11.1543 16.4074 10.1846 17.5475Z" fill="#6CB8C2"/>
<path d="M34.2656 16.6517C34.3464 15.8373 34.3464 15.0229 34.4273 14.1271C35.9627 16.4888 39.276 21.7824 39.276 21.7824L38.6295 21.9453L36.4476 22.271C36.3668 22.1081 36.286 22.1081 36.286 21.9453C35.8819 20.968 35.5586 19.9907 35.1546 18.932C34.9121 18.199 34.5889 17.629 34.2656 16.896V16.6517Z" fill="#978D8D"/>
<path d="M27.3182 6.39038L29.2577 9.97372L29.581 7.20478L31.6821 10.218L29.2577 10.0552H28.3688L24.813 9.24076C24.9746 8.83356 25.2171 8.34493 25.4595 7.93773C25.8636 7.53053 26.3484 7.12334 26.7525 6.71614C26.9141 6.55326 27.1566 6.47182 27.3182 6.39038Z" fill="#84C1C3"/>
<path d="M4.68906 27.4017L6.22451 29.1934C5.49719 29.9264 4.9315 30.4964 4.285 31.1479C4.12337 31.3108 4.04256 31.5551 3.88093 31.7995C2.99199 32.2067 2.18386 32.8582 1.45654 33.5911L4.68906 27.4017Z" fill="#3C93AB"/>
<path d="M31.8419 26.9945C31.5187 27.2389 31.1954 27.4017 30.8722 27.6461C30.4681 27.8089 30.1449 27.9718 29.7408 28.1347C29.0135 27.2389 28.2862 26.343 27.6396 25.4472L28.771 24.1442H28.9327C29.4983 24.5514 30.064 25.1214 30.5489 25.5286C31.0338 26.0173 31.4379 26.5059 31.8419 26.9945Z" fill="#388CA9"/>
<path d="M36.4465 22.2711L38.5477 21.8639L39.1134 21.7825C39.4366 23.0041 39.6791 24.2257 39.7599 25.3658L38.9517 24.7143C38.3052 24.2257 37.6587 23.737 37.093 23.2484C36.9314 23.1669 36.689 23.4113 36.3657 23.4927L36.4465 22.2711C36.4465 22.3525 36.4465 22.2711 36.4465 22.2711Z" fill="#5A7A8C"/>
<path d="M34.1055 33.754C34.4287 33.4282 34.6712 33.1024 35.0752 32.8581C35.7217 32.3695 36.2874 31.8808 36.9339 31.3922C36.7723 31.7994 36.7723 32.2066 36.6107 32.6138C36.4491 33.3468 36.2066 33.9168 35.9642 34.6498L35.2369 35.3013L34.1055 33.754Z" fill="#38728B"/>
<path d="M35.7998 34.6498C35.9614 33.9169 36.2039 33.3468 36.4463 32.6138C36.6079 32.2066 36.6079 31.7994 36.7696 31.3922V31.2294H36.9312L37.0928 31.3922L38.2242 32.1252C37.4969 33.021 36.6887 33.9169 35.7998 34.6498Z" fill="#457F93"/>
<path d="M28.7733 24.2256L27.6419 25.5286L26.4297 24.1442H28.7733C28.7733 24.1442 28.7733 24.1442 28.7733 24.2256Z" fill="#457F93"/>
<path d="M19.5591 23.8998H20.2864L19.3975 25.5286C19.4783 25.0399 19.4783 24.5513 19.5591 23.8998Z" fill="#5899AB"/>
<path d="M38.2249 31.9624L37.1743 31.3109H38.7098L38.2249 31.9624Z" fill="#6B94A1"/>
<path d="M10.1826 17.5476C11.1524 16.4888 12.0413 15.4301 13.0919 14.3714L18.668 8.18203L18.9104 8.10059C18.9104 8.18203 18.9104 8.26346 18.9104 8.26346C18.8296 8.42634 18.7488 8.50778 18.7488 8.67066C18.4255 10.0551 18.0215 11.4396 17.779 12.8241C17.6174 12.987 17.375 13.1498 17.2133 13.2313C17.0517 13.3941 16.9709 13.557 16.8901 13.7199C16.486 14.2085 16.082 14.6972 15.6779 15.1858L13.1727 18.1991L10.3442 17.4661C10.1826 17.5476 10.1826 17.5476 10.1826 17.5476Z" fill="#5899AB"/>
<path d="M18.9136 8.34489C18.9136 8.26345 18.9136 8.18201 18.9136 8.18201H19.0752C20.045 8.34489 20.9339 8.5892 21.9845 8.75208C22.1461 8.83352 22.3885 8.91496 22.5502 8.91496C22.4693 9.07784 22.3885 9.32216 22.2269 9.48504C21.742 10.1366 21.2572 10.7881 20.7723 11.3581L20.1258 10.4623L18.9136 8.34489Z" fill="#80B2BA"/>
<path d="M19.5597 23.9V24.0628C18.5092 24.2257 17.4586 24.3886 16.408 24.5515C13.4988 25.0401 10.5895 25.6102 7.68023 26.0988C7.27616 26.1803 6.79128 26.2617 6.38722 26.3431C6.3064 26.3431 6.22559 26.1803 6.06396 26.1803C6.79128 25.6916 7.59941 25.203 8.32673 24.6329C10.7511 22.9227 13.2563 21.131 15.6807 19.4208C15.8423 19.2579 15.8423 19.1765 15.9232 19.0136L16.3272 18.9321C16.8121 18.7693 17.3778 18.7693 17.8627 18.6064C18.59 18.4435 19.3173 18.2806 19.9638 18.0363C20.1254 17.9549 20.3679 17.8734 20.3679 17.6291C20.5295 17.2219 20.6911 16.8962 20.7719 16.489C21.0952 15.756 21.3376 14.9416 21.6609 14.2087L21.8225 14.0458C22.3074 14.7787 22.7923 15.4302 23.3579 16.1632L28.3684 23.6556V23.8185L25.1358 21.5382L21.2568 18.7693C21.0952 18.6064 21.0144 18.5249 20.8527 18.3621C20.2871 17.9549 20.1254 17.9549 19.9638 18.6878C19.883 18.8507 19.883 19.0136 19.8022 19.1765C19.7214 19.5837 19.4789 20.0723 19.1557 20.3166C18.7516 20.7238 18.4284 21.3753 18.3475 22.0268C18.2667 22.3526 18.7516 22.7598 18.9132 23.167C19.3173 23.5742 19.4789 23.7371 19.5597 23.9Z" fill="#38728B"/>
<path d="M15.9232 19.0949C15.8423 19.2578 15.7615 19.3393 15.6807 19.5021C13.2563 21.2124 10.7511 23.004 8.32673 24.7143C7.59941 25.2029 6.79128 25.6915 6.06396 26.2616C6.06396 26.0987 6.06396 26.0173 6.06396 25.9359C6.3064 25.3658 6.62966 24.7957 6.87209 24.3071C7.27616 23.4927 7.59941 22.7597 8.00348 21.8639C8.73079 20.4794 9.45811 19.0949 10.1854 17.629L13.0139 18.362C13.0947 18.362 13.1755 18.4434 13.2563 18.5249L15.9232 19.0949Z" fill="#3E798F"/>
<path d="M28.6087 23.8998V23.737C28.6895 23.5741 28.6895 23.4926 28.6895 23.3298C27.9622 19.8279 27.1541 16.326 26.2651 12.8241C26.75 12.4169 27.4773 12.4169 27.9622 12.8241L34.2656 16.6517V16.8146C34.104 16.9775 34.0232 17.0589 33.8616 17.2218C32.8918 18.5248 32.0029 19.7464 31.0331 21.0495C30.3058 22.0267 29.5785 23.0854 28.8512 24.0627V24.2256H28.6895C28.6895 24.1442 28.6895 24.1442 28.6895 24.0627L28.6087 23.8998C28.6087 23.9813 28.6087 23.8998 28.6087 23.8998Z" fill="#728392"/>
<path d="M26.265 12.9056C27.0732 16.4074 27.8005 19.9093 28.6894 23.4112C28.6894 23.5741 28.6894 23.6556 28.6086 23.8184L23.5174 16.2446C23.0325 15.5116 22.5476 14.8601 21.9819 14.1271C21.9819 14.0457 21.9819 14.0457 21.9819 13.9643L22.1436 13.8014L25.861 11.684H26.0226L26.265 12.9056Z" fill="#457F93"/>
<path d="M26.025 11.7653H25.8633C25.7017 11.6025 25.7017 11.3581 25.5401 11.1953C25.136 10.4623 24.7319 9.89224 24.2471 9.24072H24.7319L28.2877 9.97368L29.2575 10.1366L26.025 11.7653Z" fill="#72AAB3"/>
<path d="M22.0638 13.9643L21.9021 14.1272L20.8516 12.1726L20.6899 11.3582C21.1748 10.7067 21.6597 10.0552 22.1446 9.48512C22.3062 9.32224 22.3062 9.07792 22.4678 8.91504L24.0033 9.15936C23.8417 9.56655 23.8417 9.89231 23.68 10.2181C23.1143 11.4397 22.6295 12.6613 22.0638 13.9643Z" fill="#72AAB3"/>
<path d="M22.0645 13.9642C22.5493 12.6612 23.0342 11.4396 23.5999 10.1366C23.7615 9.7294 23.8423 9.40364 23.9232 9.07788H24.0848L24.2464 9.24076C24.6505 9.89228 25.0545 10.5438 25.5394 11.1953C25.701 11.3582 25.701 11.6025 25.8627 11.7654L22.0645 13.9642Z" fill="#6B94A1"/>
<path d="M24.3262 9.15935L24.1646 8.99647C24.3262 8.58927 24.5686 8.10063 24.7302 7.69344C25.2151 6.71616 25.7808 5.65745 26.3465 4.68018H26.5081C26.7506 5.25025 27.0738 5.82033 27.3163 6.30896C27.1546 6.3904 26.9122 6.47184 26.7506 6.63472C26.3465 7.04192 25.8616 7.36768 25.4576 7.85631C25.2151 8.26351 25.0535 8.67071 24.8111 9.15935H24.3262Z" fill="#80CBCC"/>
<path d="M28.6079 23.9813L28.7695 24.1442H28.6079V23.9813Z" fill="#38728B"/>
<path d="M36.9332 31.2294H36.7716L32.731 27.5647C32.8118 27.4832 32.8926 27.4018 33.0542 27.4018C33.2158 27.4018 33.3775 27.4018 33.3775 27.3203C33.6199 26.9946 33.7815 26.6688 34.1048 26.3431C34.5088 25.9359 35.0745 25.6916 35.0745 25.1215C35.0745 25.04 35.2362 25.04 35.2362 25.04C35.6402 24.9586 35.9635 24.5514 35.8827 24.0628C35.8019 23.5741 36.0443 23.5741 36.3675 23.4113C36.5292 24.7143 36.61 25.9359 36.6908 27.2389C36.7716 28.6234 36.8524 29.9264 36.9332 31.2294Z" fill="#3A6E8A"/>
<path d="M36.449 23.5741C36.1257 23.6555 35.8025 23.6555 35.9641 24.2256C36.0449 24.6328 35.8025 25.04 35.3176 25.2029C35.2368 25.2029 35.156 25.2843 35.156 25.2843C34.9943 25.9358 34.4286 26.0987 34.1862 26.5059C33.9438 26.8317 33.7821 27.1574 33.4589 27.4832C33.3781 27.5646 33.2164 27.4832 33.1356 27.5646C32.974 27.6461 32.974 27.6461 32.8124 27.7275L31.9234 27.1574C31.5194 26.7502 31.0345 26.1802 30.6304 25.8544C30.2264 25.4472 29.499 24.8771 29.0142 24.4699V24.307C30.3072 23.9813 31.6002 23.6555 32.8932 23.3298C34.1862 23.004 35.3176 22.7597 36.6106 22.5154L36.449 23.5741Z" fill="#4C718C"/>
<path d="M36.446 22.3524C35.153 22.5968 34.0216 22.9225 32.7286 23.1668C31.4356 23.4112 30.1426 23.8184 28.8496 24.1441C29.5769 23.1668 30.3042 22.1081 31.0316 21.1308C32.0013 19.8278 32.8903 18.6062 33.86 17.3032C34.0216 17.1403 34.1025 17.0589 34.2641 16.896C34.5873 17.629 34.9106 18.199 35.153 18.932C35.5571 19.9093 35.8803 20.8865 36.2844 21.9452C36.3652 22.1081 36.446 22.1081 36.446 22.3524C36.446 22.271 36.446 22.3524 36.446 22.3524Z" fill="#867D89"/>
<path d="M20.6877 11.2767L20.9302 12.0097C20.3645 13.0684 19.718 14.1271 19.1523 15.2673C18.9098 15.6745 18.7482 16.0817 18.5058 16.5703C18.3442 16.8146 18.425 16.9775 18.6674 16.9775C18.5058 17.1404 18.3442 17.3032 18.2633 17.3847L16.4046 19.0135L16.0006 19.0949L13.3337 18.362C13.2529 18.362 13.1721 18.2805 13.0913 18.1991L15.5965 15.1858C16.0006 14.6972 16.4046 14.2085 16.8087 13.7199C16.9703 13.557 16.9703 13.3942 17.132 13.2313C17.2936 13.0684 17.536 12.9055 17.6976 12.8241L17.2936 14.9415C17.4552 14.9415 17.6168 14.9415 17.6168 14.8601C18.1825 13.8014 18.829 12.6612 19.3947 11.521L20.122 10.218L20.6877 11.2767Z" fill="#609FAE"/>
<path d="M20.0433 10.3809L19.316 11.684C18.7503 12.7427 18.1846 13.8828 17.5381 15.023C17.5381 15.1044 17.3765 15.1044 17.2148 15.1044L17.6189 12.987C17.9422 11.6025 18.2654 10.2181 18.5887 8.83359C18.6695 8.67071 18.7503 8.58927 18.7503 8.42639C19.2352 8.99647 19.6392 9.72942 20.0433 10.3809Z" fill="#72AAB3"/>
<path d="M16.4067 19.0135L18.2654 17.3847C18.4271 17.2219 18.5887 17.059 18.6695 16.9775L21.8212 14.29C21.498 15.023 21.2555 15.8374 20.9323 16.5703C20.7706 16.9775 20.6898 17.3033 20.5282 17.7105C20.4474 17.8734 20.2858 18.0363 20.1241 18.1177C19.3968 18.362 18.6695 18.5249 18.023 18.6878C17.4573 18.8506 16.8916 18.9321 16.4067 19.0135Z" fill="#3E798F"/>
<path d="M21.82 14.2899L18.6683 16.9774C18.3451 16.9774 18.2642 16.896 18.5067 16.5703C18.7491 16.1631 18.9108 15.7559 19.1532 15.2672C19.7189 14.2085 20.3654 13.1498 20.9311 12.0096L21.9816 13.9642C21.9816 14.0456 21.9816 14.0456 21.9816 14.1271L21.82 14.2899Z" fill="#5A97A8"/>
</svg>
