<svg width="48" height="48" viewBox="0 0 48 48" fill="none" xmlns="http://www.w3.org/2000/svg">
<path d="M24 48C37.2548 48 48 37.2548 48 24C48 10.7452 37.2548 0 24 0C10.7452 0 0 10.7452 0 24C0 37.2548 10.7452 48 24 48Z" fill="url(#paint0_radial_602_11375)"/>
<g style="mix-blend-mode:soft-light">
<path d="M24 48C37.2548 48 48 37.2548 48 24C48 10.7452 37.2548 0 24 0C10.7452 0 0 10.7452 0 24C0 37.2548 10.7452 48 24 48Z" fill="url(#paint1_radial_602_11375)"/>
</g>
<g style="mix-blend-mode:soft-light">
<path d="M24 48C37.2548 48 48 37.2548 48 24C48 10.7452 37.2548 0 24 0C10.7452 0 0 10.7452 0 24C0 37.2548 10.7452 48 24 48Z" fill="url(#paint2_radial_602_11375)"/>
</g>
<g style="mix-blend-mode:overlay">
<path d="M24 48C37.2548 48 48 37.2548 48 24C48 10.7452 37.2548 0 24 0C10.7452 0 0 10.7452 0 24C0 37.2548 10.7452 48 24 48Z" fill="url(#paint3_radial_602_11375)" fill-opacity="0.7"/>
</g>
<mask id="mask0_602_11375" style="mask-type:alpha" maskUnits="userSpaceOnUse" x="0" y="0" width="48" height="48">
<path d="M24 48C37.2548 48 48 37.2548 48 24C48 10.7452 37.2548 0 24 0C10.7452 0 0 10.7452 0 24C0 37.2548 10.7452 48 24 48Z" fill="white"/>
</mask>
<g mask="url(#mask0_602_11375)">
<g filter="url(#filter0_f_602_11375)">
<path d="M-0.136975 23.3152C-0.110915 22.9742 0.00130548 22.9401 0.0340364 23.2863C0.0704012 23.671 -0.000288397 24.4444 0.0167305 24.911C0.0617934 26.1462 0.251148 27.2203 0.446352 28.0939C1.0754 30.9092 1.94654 32.7234 2.75906 34.2604C5.42987 39.3128 8.35553 41.8712 11.2096 43.7993C15.3932 46.6257 19.6108 47.5247 23.8318 47.7154C23.9383 47.7202 23.956 48.4137 23.8512 48.504C23.6624 48.6668 23.4284 48.5052 23.2351 48.4985C22.6799 48.479 22.1247 48.4409 21.5695 48.3832C19.9232 48.2121 18.2771 47.8637 16.6343 47.3032C12.1676 45.7793 7.35145 43.1698 3.1454 35.8201C2.8808 35.3577 2.6183 34.8709 2.35952 34.3478C2.15256 33.9295 1.94762 33.491 1.74629 33.022C1.08407 31.4794 -0.459124 27.5304 -0.136975 23.3152ZM23.8347 48.5115C23.7332 48.5146 23.7074 47.8681 23.8043 47.7338C23.9506 47.531 24.1699 47.698 24.3242 47.6884C24.9649 47.6484 25.6055 47.5889 26.2459 47.5085C28.0018 47.288 29.7564 46.9116 31.5071 46.3318C35.8494 44.8938 40.5177 42.7016 44.6111 35.9663C44.8716 35.5376 45.1299 35.0828 45.3847 34.594C46.159 33.1084 48.0996 29.165 47.8752 24.2628C47.8563 23.8495 47.9822 23.602 48.0385 23.9565C48.1101 24.4079 48.0811 25.3489 48.0613 25.8497C47.9981 27.4533 47.7518 28.8095 47.4921 29.9047C46.6692 33.3758 45.5138 35.3883 44.4557 37.0687C41.0167 42.5306 37.2815 44.7324 33.65 46.3147C30.3929 47.7339 27.1111 48.4103 23.8347 48.5115Z" fill="#401C02"/>
</g>
<g filter="url(#filter1_f_602_11375)">
<path d="M-0.136975 23.3152C-0.110915 22.9742 0.00130548 22.9401 0.0340364 23.2863C0.0704012 23.671 -0.000288397 24.4444 0.0167305 24.911C0.0617934 26.1462 0.251148 27.2203 0.446352 28.0939C1.0754 30.9092 1.94654 32.7234 2.75906 34.2604C5.42987 39.3128 8.35553 41.8712 11.2096 43.7993C15.3932 46.6257 19.6108 47.5247 23.8318 47.7154C23.9383 47.7202 23.956 48.4137 23.8512 48.504C23.6624 48.6668 23.4284 48.5052 23.2351 48.4985C22.6799 48.479 22.1247 48.4409 21.5695 48.3832C19.9232 48.2121 18.2771 47.8637 16.6343 47.3032C12.1676 45.7793 7.35145 43.1698 3.1454 35.8201C2.8808 35.3577 2.6183 34.8709 2.35952 34.3478C2.15256 33.9295 1.94762 33.491 1.74629 33.022C1.08407 31.4794 -0.459124 27.5304 -0.136975 23.3152ZM23.8347 48.5115C23.7332 48.5146 23.7074 47.8681 23.8043 47.7338C23.9506 47.531 24.1699 47.698 24.3242 47.6884C24.9649 47.6484 25.6055 47.5889 26.2459 47.5085C28.0018 47.288 29.7564 46.9116 31.5071 46.3318C35.8494 44.8938 40.5177 42.7016 44.6111 35.9663C44.8716 35.5376 45.1299 35.0828 45.3847 34.594C46.159 33.1084 48.0996 29.165 47.8752 24.2628C47.8563 23.8495 47.9822 23.602 48.0385 23.9565C48.1101 24.4079 48.0811 25.3489 48.0613 25.8497C47.9981 27.4533 47.7518 28.8095 47.4921 29.9047C46.6692 33.3758 45.5138 35.3883 44.4557 37.0687C41.0167 42.5306 37.2815 44.7324 33.65 46.3147C30.3929 47.7339 27.1111 48.4103 23.8347 48.5115Z" fill="#401C02"/>
</g>
</g>
<path d="M16.3426 21.8764C17.8391 21.8764 19.0523 20.3799 19.0523 18.5339C19.0523 16.6878 17.8391 15.1913 16.3426 15.1913C14.8461 15.1913 13.6329 16.6878 13.6329 18.5339C13.6329 20.3799 14.8461 21.8764 16.3426 21.8764Z" fill="url(#paint4_radial_602_11375)"/>
<path d="M16.3426 21.8764C17.8391 21.8764 19.0523 20.3799 19.0523 18.5339C19.0523 16.6878 17.8391 15.1913 16.3426 15.1913C14.8461 15.1913 13.6329 16.6878 13.6329 18.5339C13.6329 20.3799 14.8461 21.8764 16.3426 21.8764Z" stroke="url(#paint5_linear_602_11375)" stroke-width="0.268658" stroke-miterlimit="10"/>
<path d="M31.6056 21.8764C33.1021 21.8764 34.3152 20.3799 34.3152 18.5338C34.3152 16.6878 33.1021 15.1913 31.6056 15.1913C30.109 15.1913 28.8959 16.6878 28.8959 18.5338C28.8959 20.3799 30.109 21.8764 31.6056 21.8764Z" fill="url(#paint6_radial_602_11375)"/>
<path d="M31.6056 21.8764C33.1021 21.8764 34.3152 20.3799 34.3152 18.5338C34.3152 16.6878 33.1021 15.1913 31.6056 15.1913C30.109 15.1913 28.8959 16.6878 28.8959 18.5338C28.8959 20.3799 30.109 21.8764 31.6056 21.8764Z" stroke="url(#paint7_linear_602_11375)" stroke-width="0.268658" stroke-miterlimit="10"/>
<path d="M35.7641 38.3156C35.7914 38.3717 35.8338 38.4191 35.8865 38.4525C35.9392 38.4859 36.0002 38.504 36.0626 38.5047M35.7641 38.3156L36.2974 38.6168C36.3705 38.5793 36.4334 38.5244 36.4806 38.4569C36.5277 38.3895 36.5577 38.3116 36.5679 38.23C36.5781 38.1485 36.5682 38.0657 36.5392 37.9889C34.5129 32.599 29.6636 28.128 23.973 28.128C18.2826 28.128 13.4343 32.5949 11.4079 37.9887M35.7641 38.3156C33.4903 33.6386 29.063 29.9975 23.973 29.9975C18.8831 29.9975 14.4529 33.6356 12.179 38.3156M35.7641 38.3156H12.179M36.0626 38.5047L36.0606 38.6726C35.9671 38.6715 35.8757 38.6444 35.7967 38.5944C35.7176 38.5443 35.6541 38.4733 35.6131 38.3891L35.6131 38.3891C33.358 33.7507 28.9799 30.1654 23.973 30.1654C18.9662 30.1654 14.5851 33.7478 12.3301 38.389L12.3299 38.3894C12.2888 38.4733 12.2253 38.5442 12.1463 38.5942C12.0674 38.6442 11.9762 38.6714 11.8827 38.6726L11.8805 38.6726C11.7987 38.6726 11.7182 38.6527 11.6458 38.6148C11.5734 38.5768 11.5113 38.5218 11.4648 38.4545C11.4183 38.3872 11.3889 38.3097 11.379 38.2285C11.3691 38.1474 11.3791 38.0651 11.4079 37.9887M36.0626 38.5047C36.1175 38.5053 36.1718 38.4926 36.2206 38.4675C36.2695 38.4424 36.3115 38.4057 36.343 38.3607C36.3745 38.3157 36.3945 38.2637 36.4013 38.2092C36.4081 38.1547 36.4015 38.0993 36.382 38.0479L36.0607 38.6726L36.0626 38.5047ZM11.4079 37.9887C11.4079 37.9888 11.4079 37.9888 11.4079 37.9889L11.5651 38.0479L11.408 37.9885C11.408 37.9886 11.408 37.9886 11.4079 37.9887ZM12.179 38.3156C12.1516 38.3717 12.1092 38.419 12.0565 38.4524M12.179 38.3156L12.0565 38.4524M12.0565 38.4524C12.0038 38.4858 11.9429 38.5039 11.8805 38.5047L12.0565 38.4524Z" stroke="url(#paint8_linear_602_11375)" stroke-width="0.335823" stroke-miterlimit="10"/>
<path d="M36.0626 38.5047C36.0002 38.504 35.9392 38.4859 35.8865 38.4525C35.8338 38.4191 35.7914 38.3717 35.7641 38.3156C33.4903 33.6386 29.063 29.9975 23.973 29.9975C18.8831 29.9975 14.4529 33.6356 12.179 38.3156C12.1516 38.3717 12.1092 38.419 12.0565 38.4524C12.0038 38.4858 11.9429 38.5039 11.8805 38.5047C11.8259 38.5047 11.7721 38.4914 11.7238 38.4661C11.6755 38.4407 11.634 38.404 11.603 38.3591C11.572 38.3141 11.5523 38.2624 11.5457 38.2082C11.5391 38.154 11.5457 38.099 11.5651 38.0479C13.5752 32.6973 18.3736 28.2959 23.973 28.2959C29.5725 28.2959 34.3719 32.7012 36.382 38.0479C36.4015 38.0993 36.4081 38.1547 36.4013 38.2092C36.3945 38.2637 36.3745 38.3157 36.343 38.3607C36.3115 38.4057 36.2695 38.4424 36.2206 38.4675C36.1718 38.4926 36.1175 38.5053 36.0626 38.5047Z" fill="url(#paint9_radial_602_11375)"/>
<defs>
<filter id="filter0_f_602_11375" x="-3.53889" y="19.6843" width="54.9813" height="32.2504" filterUnits="userSpaceOnUse" color-interpolation-filters="sRGB">
<feFlood flood-opacity="0" result="BackgroundImageFix"/>
<feBlend mode="normal" in="SourceGraphic" in2="BackgroundImageFix" result="shape"/>
<feGaussianBlur stdDeviation="1.67911" result="effect1_foregroundBlur_602_11375"/>
</filter>
<filter id="filter1_f_602_11375" x="-5.55383" y="17.6693" width="59.0112" height="36.2803" filterUnits="userSpaceOnUse" color-interpolation-filters="sRGB">
<feFlood flood-opacity="0" result="BackgroundImageFix"/>
<feBlend mode="normal" in="SourceGraphic" in2="BackgroundImageFix" result="shape"/>
<feGaussianBlur stdDeviation="2.68658" result="effect1_foregroundBlur_602_11375"/>
</filter>
<radialGradient id="paint0_radial_602_11375" cx="0" cy="0" r="1" gradientUnits="userSpaceOnUse" gradientTransform="translate(23.9821) rotate(90) scale(47.9642)">
<stop stop-color="#FFDE43"/>
<stop offset="1" stop-color="#FFBC00"/>
</radialGradient>
<radialGradient id="paint1_radial_602_11375" cx="0" cy="0" r="1" gradientUnits="userSpaceOnUse" gradientTransform="translate(23.9821 6.41844) rotate(90) scale(41.5457)">
<stop stop-color="white" stop-opacity="0.5"/>
<stop offset="0.782278"/>
</radialGradient>
<radialGradient id="paint2_radial_602_11375" cx="0" cy="0" r="1" gradientUnits="userSpaceOnUse" gradientTransform="translate(23.9821 6.41844) rotate(90) scale(41.5457)">
<stop stop-color="white" stop-opacity="0.5"/>
<stop offset="0.782278"/>
</radialGradient>
<radialGradient id="paint3_radial_602_11375" cx="0" cy="0" r="1" gradientUnits="userSpaceOnUse" gradientTransform="translate(23.9821 -5.22431) rotate(90) scale(53.1885 71.9298)">
<stop offset="0.0922635" stop-color="white"/>
<stop offset="0.670207" stop-color="white" stop-opacity="0"/>
</radialGradient>
<radialGradient id="paint4_radial_602_11375" cx="0" cy="0" r="1" gradientUnits="userSpaceOnUse" gradientTransform="translate(16.3389 18.5316) scale(3.45418 3.34837)">
<stop stop-color="#743C1C"/>
<stop offset="1" stop-color="#401C02"/>
</radialGradient>
<linearGradient id="paint5_linear_602_11375" x1="16.3426" y1="22.0645" x2="16.3426" y2="14.9762" gradientUnits="userSpaceOnUse">
<stop stop-color="#FFDE43"/>
<stop offset="0.22" stop-color="#FED93F"/>
<stop offset="0.51" stop-color="#FCC934"/>
<stop offset="0.82" stop-color="#F9AF21"/>
<stop offset="1" stop-color="#F79D14"/>
</linearGradient>
<radialGradient id="paint6_radial_602_11375" cx="0" cy="0" r="1" gradientUnits="userSpaceOnUse" gradientTransform="translate(31.6018 18.5316) scale(3.45418 3.34836)">
<stop stop-color="#743C1C"/>
<stop offset="1" stop-color="#401C02"/>
</radialGradient>
<linearGradient id="paint7_linear_602_11375" x1="31.6056" y1="22.0645" x2="31.6056" y2="14.9762" gradientUnits="userSpaceOnUse">
<stop stop-color="#FFDE43"/>
<stop offset="0.22" stop-color="#FED93F"/>
<stop offset="0.51" stop-color="#FCC934"/>
<stop offset="0.82" stop-color="#F9AF21"/>
<stop offset="1" stop-color="#F79D14"/>
</linearGradient>
<linearGradient id="paint8_linear_602_11375" x1="23.9736" y1="38.792" x2="23.9736" y2="27.9674" gradientUnits="userSpaceOnUse">
<stop offset="0.265625" stop-color="#FFDE43"/>
<stop offset="1" stop-color="#F79D14"/>
</linearGradient>
<radialGradient id="paint9_radial_602_11375" cx="0" cy="0" r="1" gradientUnits="userSpaceOnUse" gradientTransform="translate(23.9736 33.3797) scale(9.38271 10.3115)">
<stop stop-color="#743C1C"/>
<stop offset="1" stop-color="#401C02"/>
</radialGradient>
</defs>
</svg>
