<svg width="215" height="48" viewBox="0 0 215 48" fill="none" xmlns="http://www.w3.org/2000/svg">
<path fill-rule="evenodd" clip-rule="evenodd" d="M107.9 19.8333C108.821 19.8333 109.567 19.0871 109.567 18.1667C109.567 17.2462 108.821 16.5 107.9 16.5C106.98 16.5 106.233 17.2462 106.233 18.1667C106.233 19.0871 106.98 19.8333 107.9 19.8333Z" fill="#141C1F"/>
<path fill-rule="evenodd" clip-rule="evenodd" d="M107.9 25.6663C108.821 25.6663 109.567 24.9201 109.567 23.9997C109.567 23.0792 108.821 22.333 107.9 22.333C106.98 22.333 106.233 23.0792 106.233 23.9997C106.233 24.9201 106.98 25.6663 107.9 25.6663Z" fill="#141C1F"/>
<path fill-rule="evenodd" clip-rule="evenodd" d="M107.9 31.5003C108.821 31.5003 109.567 30.7541 109.567 29.8337C109.567 28.9132 108.821 28.167 107.9 28.167C106.98 28.167 106.233 28.9132 106.233 29.8337C106.233 30.7541 106.98 31.5003 107.9 31.5003Z" fill="#141C1F"/>
</svg>
