<svg width="24" height="24" viewBox="0 0 24 24" fill="none" xmlns="http://www.w3.org/2000/svg">
<path d="M0.484732 0.379217C0.143954 0.744796 -0.0281148 1.21346 0.00377702 1.68918V22.3108C-0.0282075 22.7865 0.143873 23.2552 0.484732 23.6208L0.561635 23.688L13.4366 12.1363V11.8637L0.561635 0.311523L0.484732 0.379217Z" fill="url(#paint0_linear_3398_1002)"/>
<path d="M17.7289 15.9888L13.4375 12.1365V11.864L17.7299 8.0127L17.8267 8.06221L22.9114 10.6544C24.3638 11.3948 24.3638 12.6062 22.9114 13.347L17.8267 15.9392L17.7289 15.9888Z" fill="url(#paint1_linear_3398_1002)"/>
<path d="M17.8255 15.9385L13.4363 12L0.484375 23.6207C0.780315 23.8549 1.15824 23.9888 1.55266 23.9993C1.94709 24.0097 2.33316 23.8961 2.644 23.678L17.8255 15.9385Z" fill="url(#paint2_linear_3398_1002)"/>
<path d="M17.8255 8.06148L2.644 0.321975C2.33316 0.103875 1.94709 -0.009794 1.55266 0.000662081C1.15824 0.0111182 0.780315 0.14504 0.484375 0.379226L13.4363 12L17.8255 8.06148Z" fill="url(#paint3_linear_3398_1002)"/>
<path opacity="0.2" d="M17.7287 15.8516L2.644 23.5416C2.34513 23.7457 1.98036 23.8571 1.60476 23.8589C1.22915 23.8607 0.863077 23.7528 0.561798 23.5515L0.484375 23.621L0.561278 23.6882L0.561798 23.6878C0.863026 23.8891 1.22912 23.9971 1.60476 23.9953C1.9804 23.9935 2.34518 23.882 2.644 23.6778L17.8255 15.9383L17.7287 15.8516Z" fill="black"/>
<path opacity="0.12" d="M0.484708 23.4848C0.143963 23.1192 -0.0281014 22.6505 0.00375313 22.1748V22.311C-0.0281206 22.7868 0.143946 23.2554 0.484708 23.621L0.562131 23.5515L0.484708 23.4848Z" fill="black"/>
<path opacity="0.12" d="M22.908 13.2096L17.7266 15.8514L17.8233 15.9381L22.908 13.3459C23.2072 13.2294 23.466 13.0431 23.6576 12.8064C23.8492 12.5697 23.9666 12.2912 23.9975 12C23.9332 12.2637 23.8012 12.5104 23.6121 12.7204C23.423 12.9303 23.1819 13.0979 22.908 13.2096Z" fill="black"/>
<path opacity="0.25" d="M2.64448 0.458888L22.9107 10.7902C23.1847 10.9019 23.4258 11.0695 23.615 11.2796C23.8041 11.4896 23.936 11.7364 24.0001 12.0003C23.9694 11.7089 23.8521 11.4303 23.6605 11.1935C23.4689 10.9567 23.2099 10.7703 22.9107 10.6539L2.64448 0.32266C1.19206 -0.417778 0.00390625 0.197249 0.00390625 1.68988V1.8261C0.00390625 0.333569 1.19206 -0.281458 2.64448 0.458888Z" fill="white"/>
<defs>
<linearGradient id="paint0_linear_3398_1002" x1="12.2949" y1="1.47175" x2="-3.2619" y2="18.8104" gradientUnits="userSpaceOnUse">
<stop stop-color="#00A0FF"/>
<stop offset="0.00657" stop-color="#00A1FF"/>
<stop offset="0.2601" stop-color="#00BEFF"/>
<stop offset="0.5122" stop-color="#00D2FF"/>
<stop offset="0.7604" stop-color="#00DFFF"/>
<stop offset="1" stop-color="#00E3FF"/>
</linearGradient>
<linearGradient id="paint1_linear_3398_1002" x1="24.8025" y1="12.0007" x2="-0.343619" y2="12.0007" gradientUnits="userSpaceOnUse">
<stop stop-color="#FFE000"/>
<stop offset="0.4087" stop-color="#FFBD00"/>
<stop offset="0.7754" stop-color="#FFA500"/>
<stop offset="1" stop-color="#FF9C00"/>
</linearGradient>
<linearGradient id="paint2_linear_3398_1002" x1="15.4405" y1="14.14" x2="-5.65574" y2="37.6527" gradientUnits="userSpaceOnUse">
<stop stop-color="#FF3A44"/>
<stop offset="1" stop-color="#C31162"/>
</linearGradient>
<linearGradient id="paint3_linear_3398_1002" x1="-2.7768" y1="-6.48512" x2="6.64355" y2="4.01426" gradientUnits="userSpaceOnUse">
<stop stop-color="#32A071"/>
<stop offset="0.0685" stop-color="#2DA771"/>
<stop offset="0.4762" stop-color="#15CF74"/>
<stop offset="0.8009" stop-color="#06E775"/>
<stop offset="1" stop-color="#00F076"/>
</linearGradient>
</defs>
</svg>
