<svg width="52" height="48" viewBox="0 0 52 48" fill="none" xmlns="http://www.w3.org/2000/svg">
<path d="M27.8182 44.4025C39.0862 42.4157 46.61 31.6705 44.6232 20.4025C42.6363 9.13452 31.8912 1.61068 20.6232 3.59753C9.35521 5.58438 1.83136 16.3295 3.81821 27.5975C5.80506 38.8655 16.5502 46.3894 27.8182 44.4025Z" fill="url(#paint0_radial_602_11182)"/>
<g style="mix-blend-mode:soft-light">
<path d="M27.8182 44.4025C39.0862 42.4157 46.61 31.6705 44.6232 20.4025C42.6363 9.13452 31.8912 1.61068 20.6232 3.59753C9.35521 5.58438 1.83136 16.3295 3.81821 27.5975C5.80506 38.8655 16.5502 46.3894 27.8182 44.4025Z" fill="url(#paint1_radial_602_11182)"/>
</g>
<g style="mix-blend-mode:soft-light">
<path d="M27.8182 44.4025C39.0862 42.4157 46.61 31.6705 44.6232 20.4025C42.6363 9.13452 31.8912 1.61068 20.6232 3.59753C9.35521 5.58438 1.83136 16.3295 3.81821 27.5975C5.80506 38.8655 16.5502 46.3894 27.8182 44.4025Z" fill="url(#paint2_radial_602_11182)"/>
</g>
<g style="mix-blend-mode:overlay">
<path d="M27.8182 44.4025C39.0862 42.4157 46.61 31.6705 44.6232 20.4025C42.6363 9.13452 31.8912 1.61068 20.6232 3.59753C9.35521 5.58438 1.83136 16.3295 3.81821 27.5975C5.80506 38.8655 16.5502 46.3894 27.8182 44.4025Z" fill="url(#paint3_radial_602_11182)" fill-opacity="0.7"/>
</g>
<mask id="mask0_602_11182" style="mask-type:alpha" maskUnits="userSpaceOnUse" x="3" y="3" width="42" height="42">
<path d="M27.8182 44.4025C39.0862 42.4157 46.61 31.6705 44.6232 20.4025C42.6363 9.13452 31.8912 1.61068 20.6232 3.59753C9.35521 5.58438 1.83136 16.3295 3.81821 27.5975C5.80506 38.8655 16.5502 46.3894 27.8182 44.4025Z" fill="white"/>
</mask>
<g mask="url(#mask0_602_11182)">
<g filter="url(#filter0_f_602_11182)">
<path d="M3.59926 27.0359C3.5703 26.7421 3.66058 26.6962 3.74031 26.9857C3.82888 27.3073 3.88472 27.9753 3.96912 28.3694C4.19259 29.4127 4.51455 30.2974 4.81145 31.0108C5.76822 33.3098 6.78071 34.7215 7.70183 35.9063C10.7296 39.801 13.6002 41.5374 16.3155 42.7487C20.2957 44.5243 24.0158 44.6563 27.6327 44.1857C27.7239 44.1739 27.8429 44.7608 27.7674 44.8532C27.6313 45.0199 27.4082 44.9176 27.2428 44.9409C26.7679 45.0075 26.2902 45.0584 25.8096 45.0925C24.3845 45.1939 22.9329 45.1445 21.4523 44.9142C17.4267 44.2882 12.9413 42.7919 8.26404 37.1743C7.96981 36.8209 7.67369 36.4464 7.37528 36.0405C7.13664 35.7159 6.89669 35.3738 6.65523 35.0053C5.86105 33.7932 3.95724 30.6675 3.59926 27.0359ZM27.7545 44.862C27.6687 44.8799 27.5499 44.3342 27.6121 44.2055C27.706 44.0111 27.9175 44.1203 28.0473 44.089C28.5859 43.9589 29.1216 43.8124 29.6539 43.648C31.1135 43.1974 32.5487 42.6143 33.9501 41.859C37.4259 39.9857 41.0659 37.4223 43.5361 31.083C43.6933 30.6795 43.8447 30.2542 43.988 29.8005C44.4236 28.4215 45.4822 24.7783 44.5567 20.6446C44.4786 20.2961 44.5485 20.0668 44.6495 20.3597C44.7781 20.7327 44.8944 21.537 44.9527 21.9657C45.1393 23.3384 45.1332 24.5282 45.0767 25.4982C44.8974 28.5723 44.2169 30.4564 43.5693 32.0435C41.4644 37.2021 38.6192 39.6338 35.7693 41.5233C33.2131 43.2179 30.5246 44.2849 27.7545 44.862Z" fill="#401C02"/>
</g>
<g filter="url(#filter1_f_602_11182)">
<path d="M3.59926 27.0359C3.5703 26.7421 3.66058 26.6962 3.74031 26.9857C3.82888 27.3073 3.88472 27.9753 3.96912 28.3694C4.19259 29.4127 4.51455 30.2974 4.81145 31.0108C5.76822 33.3098 6.78071 34.7215 7.70183 35.9063C10.7296 39.801 13.6002 41.5374 16.3155 42.7487C20.2957 44.5243 24.0158 44.6563 27.6327 44.1857C27.7239 44.1739 27.8429 44.7608 27.7674 44.8532C27.6313 45.0199 27.4082 44.9176 27.2428 44.9409C26.7679 45.0075 26.2902 45.0584 25.8096 45.0925C24.3845 45.1939 22.9329 45.1445 21.4523 44.9142C17.4267 44.2882 12.9413 42.7919 8.26404 37.1743C7.96981 36.8209 7.67369 36.4464 7.37528 36.0405C7.13664 35.7159 6.89669 35.3738 6.65523 35.0053C5.86105 33.7932 3.95724 30.6675 3.59926 27.0359ZM27.7545 44.862C27.6687 44.8799 27.5499 44.3342 27.6121 44.2055C27.706 44.0111 27.9175 44.1203 28.0473 44.089C28.5859 43.9589 29.1216 43.8124 29.6539 43.648C31.1135 43.1974 32.5487 42.6143 33.9501 41.859C37.4259 39.9857 41.0659 37.4223 43.5361 31.083C43.6933 30.6795 43.8447 30.2542 43.988 29.8005C44.4236 28.4215 45.4822 24.7783 44.5567 20.6446C44.4786 20.2961 44.5485 20.0668 44.6495 20.3597C44.7781 20.7327 44.8944 21.537 44.9527 21.9657C45.1393 23.3384 45.1332 24.5282 45.0767 25.4982C44.8974 28.5723 44.2169 30.4564 43.5693 32.0435C41.4644 37.2021 38.6192 39.6338 35.7693 41.5233C33.2131 43.2179 30.5246 44.2849 27.7545 44.862Z" fill="#401C02"/>
</g>
</g>
<path d="M38.6599 27.1017C37.8763 29.8455 36.3368 32.3136 34.2173 34.2241C32.0978 36.1346 29.4837 37.4105 26.6736 37.906C23.8634 38.4015 20.9706 38.0966 18.3255 37.0263C15.6803 35.9559 13.3896 34.1632 11.7148 31.8529C15.8862 32.5321 20.6401 32.5086 25.5686 31.6395C30.4971 30.7705 34.9724 29.1667 38.6599 27.1017Z" fill="url(#paint4_linear_602_11182)"/>
<path d="M39.242 22.9537C39.2417 23.0409 39.2406 23.1284 39.2393 23.2202C39.238 23.312 39.2363 23.3812 39.2329 23.4612C39.2356 23.4764 39.2322 23.4918 39.2314 23.5068C39.2292 23.5883 39.2251 23.6693 39.2211 23.7502C39.2171 23.8312 39.2122 23.8975 39.2068 23.9708C39.2041 24.0149 39.2014 24.059 39.197 24.1034C39.1961 24.1227 39.1944 24.1431 39.1926 24.1626C39.1894 24.2085 39.1847 24.2512 39.1811 24.2998C39.1841 24.3167 39.1786 24.3351 39.1765 24.353C39.1707 24.4156 39.1643 24.4787 39.1575 24.5421C39.1496 24.6307 39.1388 24.7129 39.1286 24.7984L39.1295 24.8035C39.1192 24.8838 39.1091 24.9649 39.0971 25.0456C39.072 25.2244 39.0443 25.4038 39.0174 25.583C39.0027 25.6728 38.9859 25.7551 38.9694 25.84C38.953 25.9249 38.9408 25.9846 38.9257 26.0571C38.903 26.1657 38.8768 26.2742 38.8538 26.3811C38.8375 26.452 38.8204 26.5231 38.8039 26.5932L38.8012 26.6024C38.7845 26.6707 38.7667 26.7384 38.7499 26.8059L38.7215 26.9121C38.704 26.9762 38.6865 27.0404 38.6681 27.1038C34.9806 29.1688 30.5053 30.7726 25.5768 31.6416C20.6483 32.5107 15.8944 32.5342 11.723 31.855C11.684 31.8017 11.6456 31.7474 11.6073 31.6931L11.5443 31.603C11.5045 31.5455 11.4647 31.4879 11.4264 31.4293L11.4207 31.4216C11.3805 31.3615 11.3401 31.3006 11.3013 31.2394C11.2406 31.1472 11.1814 31.0538 11.1229 30.9594C11.0839 30.8965 11.0457 30.8335 11.0076 30.7704C10.9694 30.7074 10.9185 30.6213 10.8746 30.5453C10.7838 30.3869 10.6972 30.232 10.6116 30.0683C10.5728 29.9967 10.5356 29.9238 10.4985 29.8519L10.4976 29.8468C10.4581 29.7665 10.4199 29.693 10.3827 29.6159C10.3541 29.5593 10.3266 29.5022 10.3002 29.4446C10.2921 29.4286 10.2849 29.4124 10.2777 29.3963C10.2582 29.3552 10.2391 29.3158 10.2199 29.2713C10.2115 29.2535 10.203 29.235 10.1955 29.2171C10.1762 29.1769 10.1586 29.1364 10.141 29.0959C10.1108 29.0288 10.0814 28.9607 10.0521 28.8935C10.0228 28.8263 9.98912 28.7441 9.95918 28.6683C9.95664 28.6539 9.94734 28.6407 9.94212 28.6259C9.91162 28.5519 9.88267 28.4768 9.85372 28.4016C9.82477 28.3265 9.7909 28.2383 9.76001 28.1521C14.2439 29.0755 19.4964 29.1533 24.9713 28.1879C30.4463 27.2225 35.3443 25.3549 39.242 22.9537Z" fill="url(#paint5_linear_602_11182)"/>
<path d="M38.6599 27.1017C34.9724 29.1667 30.4971 30.7705 25.5686 31.6395C20.6401 32.5086 15.8862 32.5321 11.7148 31.8529" stroke="url(#paint6_radial_602_11182)" stroke-width="0.689746" stroke-miterlimit="10"/>
<mask id="path-11-outside-1_602_11182" maskUnits="userSpaceOnUse" x="7.55223" y="20.949" width="35.277" height="21.4873" fill="black">
<rect fill="white" x="7.55223" y="20.949" width="35.277" height="21.4873"/>
<path d="M38.8053 23.2182C38.8489 23.1922 38.8987 23.1784 38.9494 23.1783C39.0001 23.1781 39.0499 23.1916 39.0936 23.2174C39.1373 23.2431 39.1733 23.2802 39.1978 23.3246C39.2222 23.369 39.2343 23.4192 39.2327 23.4699C39.1082 26.9503 37.7932 30.2826 35.5073 32.9101C33.2214 35.5375 30.1031 37.3009 26.6734 37.9056C23.2437 38.5104 19.7103 37.9199 16.6636 36.2327C13.6169 34.5456 11.2415 31.864 9.93421 28.636C9.91533 28.589 9.90949 28.5377 9.91727 28.4875C9.92505 28.4374 9.94619 28.3903 9.97845 28.3512C10.0107 28.312 10.0529 28.2823 10.1006 28.2651C10.1483 28.2479 10.1998 28.2438 10.2496 28.2533C14.6218 29.0821 19.6873 29.1187 24.9601 28.189C30.2328 27.2593 34.9803 25.4923 38.8053 23.2182Z"/>
</mask>
<path d="M38.8053 23.2182L39.3341 24.1075L39.3356 24.1066L38.8053 23.2182ZM39.2327 23.4699L40.2666 23.5069L40.2667 23.5032L39.2327 23.4699ZM9.93421 28.636L8.97384 29.0209L8.97525 29.0244L9.93421 28.636ZM10.2496 28.2533L10.0552 29.2695L10.057 29.2698L10.2496 28.2533ZM39.3356 24.1066C39.2197 24.1758 39.0873 24.2125 38.9523 24.2129L38.9464 22.1436C38.71 22.1443 38.4781 22.2086 38.2751 22.3298L39.3356 24.1066ZM38.9523 24.2129C38.8174 24.2133 38.6848 24.1773 38.5685 24.1088L39.6188 22.326C39.4151 22.2059 39.1828 22.143 38.9464 22.1436L38.9523 24.2129ZM38.5685 24.1088C38.4522 24.0403 38.3565 23.9417 38.2914 23.8235L40.1042 22.8257C39.9902 22.6186 39.8225 22.446 39.6188 22.326L38.5685 24.1088ZM38.2914 23.8235C38.2263 23.7052 38.1942 23.5716 38.1986 23.4367L40.2667 23.5032C40.2743 23.2669 40.2182 23.0329 40.1042 22.8257L38.2914 23.8235ZM38.1987 23.433C38.0827 26.6766 36.8572 29.7823 34.7268 32.231L36.2879 33.5892C38.7292 30.783 40.1337 27.224 40.2666 23.5069L38.1987 23.433ZM34.7268 32.231C32.5963 34.6797 29.6901 36.3231 26.4937 36.8867L26.853 38.9245C30.516 38.2786 33.8465 36.3953 36.2879 33.5892L34.7268 32.231ZM26.4937 36.8867C23.2973 37.4504 20.0043 36.9 17.1648 35.3276L16.1624 37.1378C19.4163 38.9397 23.19 39.5704 26.853 38.9245L26.4937 36.8867ZM17.1648 35.3276C14.3254 33.7552 12.1115 31.2561 10.8932 28.2477L8.97525 29.0244C10.3715 32.4719 12.9085 35.3359 16.1624 37.1378L17.1648 35.3276ZM10.8946 28.2511C10.9448 28.3765 10.9603 28.513 10.9396 28.6463L8.89491 28.3288C8.85863 28.5624 8.88588 28.8015 8.97385 29.0209L10.8946 28.2511ZM10.9396 28.6463C10.9189 28.7797 10.8627 28.905 10.7768 29.0092L9.18006 27.6931C9.02968 27.8756 8.93119 28.0951 8.89491 28.3288L10.9396 28.6463ZM10.7768 29.0092C10.691 29.1134 10.5787 29.1925 10.4517 29.2383L9.74955 27.2918C9.52716 27.3721 9.33045 27.5107 9.18006 27.6931L10.7768 29.0092ZM10.4517 29.2383C10.3248 29.2841 10.1878 29.2949 10.0552 29.2695L10.4441 27.2371C10.2118 27.1927 9.97193 27.2116 9.74955 27.2918L10.4517 29.2383ZM10.057 29.2698C14.5626 30.1239 19.7547 30.1574 25.1397 29.2079L24.7804 27.1701C19.6199 28.08 14.681 28.0403 10.4423 27.2368L10.057 29.2698ZM25.1397 29.2079C30.5247 28.2584 35.3923 26.4511 39.3341 24.1075L38.2766 22.3289C34.5683 24.5336 29.9409 26.2602 24.7804 27.1701L25.1397 29.2079Z" fill="url(#paint7_linear_602_11182)" mask="url(#path-11-outside-1_602_11182)"/>
<mask id="mask1_602_11182" style="mask-type:alpha" maskUnits="userSpaceOnUse" x="9" y="23" width="31" height="16">
<path d="M38.7905 23.1335C38.834 23.1076 38.8838 23.0938 38.9345 23.0936C38.9852 23.0935 39.035 23.107 39.0788 23.1327C39.1225 23.1585 39.1584 23.1955 39.1829 23.24C39.2073 23.2844 39.2194 23.3346 39.2178 23.3853C39.0933 26.8657 37.7783 30.198 35.4924 32.8254C33.2065 35.4528 30.0882 37.2162 26.6585 37.821C23.2288 38.4258 19.6954 37.8352 16.6487 36.1481C13.602 34.4609 11.2266 31.7794 9.91931 28.5514C9.90044 28.5043 9.89459 28.453 9.90238 28.4029C9.91016 28.3528 9.93129 28.3057 9.96356 28.2665C9.99582 28.2274 10.038 28.1976 10.0857 28.1804C10.1335 28.1632 10.1849 28.1592 10.2347 28.1687C14.6069 28.9975 19.6724 29.0341 24.9452 28.1044C30.2179 27.1746 34.9654 25.4077 38.7905 23.1335Z" fill="url(#paint8_linear_602_11182)"/>
</mask>
<g mask="url(#mask1_602_11182)">
<g filter="url(#filter2_f_602_11182)">
<path d="M38.7905 23.1335C38.834 23.1076 38.8838 23.0938 38.9345 23.0936C38.9852 23.0935 39.035 23.107 39.0788 23.1327C39.1225 23.1585 39.1584 23.1955 39.1829 23.24C39.2073 23.2844 39.2194 23.3346 39.2178 23.3853C39.0933 26.8657 37.7783 30.198 35.4924 32.8254C33.2065 35.4528 30.0882 37.2162 26.6585 37.821C23.2288 38.4258 19.6954 37.8352 16.6487 36.1481C13.602 34.4609 11.2266 31.7794 9.91931 28.5514C9.90044 28.5043 9.89459 28.453 9.90238 28.4029C9.91016 28.3528 9.93129 28.3057 9.96356 28.2665C9.99582 28.2274 10.038 28.1976 10.0857 28.1804C10.1335 28.1632 10.1849 28.1592 10.2347 28.1687C14.6069 28.9975 19.6724 29.0341 24.9452 28.1044C30.2179 27.1746 34.9654 25.4077 38.7905 23.1335Z" stroke="url(#paint9_linear_602_11182)" stroke-width="1.37949" stroke-miterlimit="10"/>
</g>
</g>
<path d="M38.8053 23.2182C38.8489 23.1922 38.8987 23.1784 38.9494 23.1783C39.0001 23.1781 39.0499 23.1916 39.0936 23.2174C39.1373 23.2431 39.1733 23.2802 39.1978 23.3246C39.2222 23.369 39.2343 23.4192 39.2327 23.4699C39.1082 26.9503 37.7932 30.2826 35.5073 32.9101C33.2214 35.5375 30.1031 37.3009 26.6734 37.9056C23.2437 38.5104 19.7103 37.9199 16.6636 36.2327C13.6169 34.5456 11.2415 31.864 9.93421 28.636C9.91533 28.589 9.90949 28.5377 9.91727 28.4875C9.92505 28.4374 9.94619 28.3903 9.97845 28.3512C10.0107 28.312 10.0529 28.2823 10.1006 28.2651C10.1483 28.2479 10.1998 28.2438 10.2496 28.2533C14.6218 29.0821 19.6873 29.1187 24.9601 28.189C30.2328 27.2593 34.9803 25.4923 38.8053 23.2182Z" stroke="url(#paint10_linear_602_11182)" stroke-width="1.37949" stroke-miterlimit="10"/>
<path d="M20.3955 21.885C20.529 22.624 20.543 23.3795 20.4369 24.1229C20.427 24.2065 20.391 24.2849 20.3339 24.3468C20.2768 24.4087 20.2016 24.451 20.1191 24.4676C20.0239 24.4813 19.927 24.4608 19.8456 24.4096C19.7642 24.3585 19.7037 24.28 19.6747 24.1884C19.139 22.6735 17.9203 21.6882 16.7089 21.9018C15.4975 22.1154 14.6893 23.4581 14.704 25.0649C14.7081 25.1609 14.678 25.2553 14.619 25.3312C14.56 25.4071 14.476 25.4596 14.3819 25.4793C14.2987 25.4917 14.2136 25.4776 14.1388 25.439C14.0641 25.4003 14.0034 25.3391 13.9654 25.264C13.6114 24.6018 13.3661 23.887 13.2388 23.1469C12.7429 20.3342 13.9431 17.7718 15.9192 17.4234C17.8954 17.075 19.8996 19.0723 20.3955 21.885Z" fill="url(#paint11_radial_602_11182)"/>
<path d="M20.3955 21.885C20.529 22.624 20.543 23.3795 20.4369 24.1229C20.427 24.2065 20.391 24.2849 20.3339 24.3468C20.2768 24.4087 20.2016 24.451 20.1191 24.4676C20.0239 24.4813 19.927 24.4608 19.8456 24.4096C19.7642 24.3585 19.7037 24.28 19.6747 24.1884C19.139 22.6735 17.9203 21.6882 16.7089 21.9018C15.4975 22.1154 14.6893 23.4581 14.704 25.0649C14.7081 25.1609 14.678 25.2553 14.619 25.3312C14.56 25.4071 14.476 25.4596 14.3819 25.4793V25.4793C14.2987 25.4917 14.2136 25.4776 14.1388 25.439C14.0641 25.4003 14.0034 25.3391 13.9654 25.264C13.6114 24.6018 13.3661 23.887 13.2388 23.1469C12.7429 20.3342 13.9431 17.7718 15.9192 17.4234C17.8954 17.075 19.8996 19.0723 20.3955 21.885Z" stroke="url(#paint12_linear_602_11182)" stroke-width="0.229915" stroke-miterlimit="10"/>
<path d="M34.3012 19.4331C34.436 20.1715 34.4514 20.9269 34.3468 21.6702C34.3369 21.7538 34.3009 21.8322 34.2438 21.8941C34.1867 21.956 34.1116 21.9983 34.029 22.0149C33.9339 22.0286 33.8369 22.0081 33.7555 21.9569C33.6741 21.9058 33.6136 21.8273 33.5846 21.7357C33.0489 20.2208 31.8302 19.2355 30.6188 19.4491C29.4074 19.6627 28.5992 21.0054 28.6139 22.6122C28.618 22.7082 28.5879 22.8026 28.5289 22.8785C28.47 22.9544 28.3859 23.0069 28.2918 23.0266C28.2086 23.0392 28.1235 23.0251 28.0487 22.9865C27.9738 22.9478 27.9132 22.8865 27.8753 22.8113C27.5214 22.1491 27.276 21.4343 27.1488 20.6942C26.6528 17.8815 27.853 15.3191 29.8291 14.9707C31.8053 14.6223 33.8052 16.6203 34.3012 19.4331Z" fill="url(#paint13_radial_602_11182)"/>
<path d="M34.3012 19.4331C34.436 20.1715 34.4514 20.9269 34.3468 21.6702C34.3369 21.7538 34.3009 21.8322 34.2438 21.8941C34.1867 21.956 34.1116 21.9983 34.029 22.0149C33.9339 22.0286 33.8369 22.0081 33.7555 21.9569C33.6741 21.9058 33.6136 21.8273 33.5846 21.7357C33.0489 20.2208 31.8302 19.2355 30.6188 19.4491C29.4074 19.6627 28.5992 21.0054 28.6139 22.6122C28.618 22.7082 28.5879 22.8026 28.5289 22.8785C28.47 22.9544 28.3859 23.0069 28.2918 23.0266V23.0266C28.2086 23.0392 28.1235 23.0251 28.0487 22.9865C27.9738 22.9478 27.9132 22.8865 27.8753 22.8113C27.5214 22.1491 27.276 21.4343 27.1488 20.6942C26.6528 17.8815 27.853 15.3191 29.8291 14.9707C31.8053 14.6223 33.8052 16.6203 34.3012 19.4331Z" stroke="url(#paint14_linear_602_11182)" stroke-width="0.229915" stroke-miterlimit="10"/>
<mask id="mask2_602_11182" style="mask-type:alpha" maskUnits="userSpaceOnUse" x="3" y="3" width="42" height="42">
<path d="M27.8182 44.4025C39.0862 42.4156 46.61 31.6705 44.6232 20.4025C42.6363 9.13449 31.8912 1.61065 20.6232 3.5975C9.35521 5.58435 1.83136 16.3295 3.81821 27.5975C5.80506 38.8655 16.5502 46.3893 27.8182 44.4025Z" fill="url(#paint15_radial_602_11182)"/>
</mask>
<g mask="url(#mask2_602_11182)">
<g filter="url(#filter3_f_602_11182)">
<path d="M51.6721 22.4838C51.4058 21.1094 50.6413 19.8209 49.6105 18.8503C48.8289 18.1115 47.9011 17.536 46.9219 17.1151C46.4237 16.9004 45.9169 16.72 45.3929 16.5739C44.8775 16.4279 44.2934 16.385 43.8123 16.1358C42.8073 15.6119 42.4465 13.9282 42.3778 12.906C42.3091 11.9268 42.3864 10.7242 41.536 10.2346C40.9519 9.89096 40.1702 10.1143 39.7063 10.6039C39.2425 11.0936 39.0449 11.7722 38.9676 12.4422C38.8216 13.7135 39.0449 15.0363 39.6118 16.1874C39.9984 16.9777 41.3728 18.584 40.9605 19.5289C40.7285 20.0529 39.5861 20.2762 39.105 20.4824C38.3319 20.8174 37.5846 21.1953 36.8888 21.6764C36.0127 22.2863 35.0935 23.2054 34.8273 24.2705C34.6726 24.8976 34.8444 25.559 35.2482 26.0486C35.5832 26.4696 36.4078 27.1396 36.949 26.7187C36.3305 27.1997 36.2016 28.1875 36.6741 28.8146C37.1465 29.4417 38.1344 29.5877 38.7614 29.1238C38.1344 29.6049 38.0055 30.6099 38.478 31.237C38.9504 31.864 39.9554 32.0101 40.5911 31.5376C39.3456 32.4653 38.1086 33.3845 36.8631 34.3122C36.3649 34.6815 35.8409 35.0939 35.6777 35.6866C35.4457 36.494 36.1157 37.4303 36.949 37.4819C37.6018 37.5248 38.1859 37.1125 38.7185 36.7259C41.2268 34.8877 43.735 33.0409 46.2433 31.2026C47.5146 30.2663 48.7945 29.3214 49.8339 28.136C50.8733 26.9506 51.6635 25.4817 51.7752 23.9098C51.7924 23.4373 51.758 22.9563 51.6721 22.4838Z" fill="#BF5703"/>
</g>
</g>
<path d="M51.6719 22.4839C51.4056 21.1095 50.6411 19.821 49.6103 18.8503C48.8286 18.1116 47.9009 17.5361 46.9216 17.1151C46.4234 16.9004 45.9166 16.72 45.3926 16.574C44.8772 16.428 44.2931 16.385 43.8121 16.1359C42.8071 15.6119 42.4463 13.9283 42.3776 12.9061C42.3088 11.9268 42.3862 10.7242 41.5358 10.2346C40.9516 9.89101 40.17 10.1143 39.7061 10.604C39.2422 11.0936 39.0447 11.7722 38.9674 12.4422C38.8213 13.7135 39.0447 15.0364 39.6116 16.1874C39.9982 16.9777 41.3725 18.584 40.9602 19.5289C40.7283 20.0529 39.5858 20.2762 39.1048 20.4824C38.3317 20.8174 37.5844 21.1954 36.8886 21.6764C36.0124 22.2863 35.0933 23.2054 34.827 24.2706C34.6724 24.8976 34.8442 25.5591 35.2479 26.0487C35.5829 26.4696 36.4076 27.1396 36.9487 26.7187C36.3302 27.1997 36.2014 28.1876 36.6738 28.8147C37.1463 29.4417 38.1341 29.5877 38.7612 29.1239C38.1341 29.6049 38.0053 30.61 38.4777 31.237C38.9502 31.8641 39.9552 32.0101 40.5909 31.5377C39.3453 32.4654 38.1084 33.3845 36.8628 34.3122C36.3646 34.6816 35.8406 35.0939 35.6774 35.6866C35.4455 36.4941 36.1155 37.4304 36.9487 37.4819C37.6016 37.5249 38.1857 37.1125 38.7183 36.726C41.2265 34.8877 43.7348 33.0409 46.243 31.2027C47.5144 30.2664 48.7943 29.3215 49.8336 28.136C50.873 26.9506 51.6633 25.4818 51.775 23.9098C51.7921 23.4373 51.7578 22.9563 51.6719 22.4839Z" fill="url(#paint16_linear_602_11182)"/>
<mask id="mask3_602_11182" style="mask-type:alpha" maskUnits="userSpaceOnUse" x="34" y="10" width="18" height="28">
<path d="M51.6719 22.4839C51.4056 21.1095 50.6411 19.821 49.6103 18.8503C48.8286 18.1116 47.9009 17.5361 46.9216 17.1151C46.4234 16.9004 45.9166 16.72 45.3926 16.574C44.8772 16.428 44.2931 16.385 43.8121 16.1359C42.8071 15.6119 42.4463 13.9283 42.3776 12.9061C42.3088 11.9268 42.3862 10.7242 41.5358 10.2346C40.9516 9.89101 40.17 10.1143 39.7061 10.604C39.2422 11.0936 39.0447 11.7722 38.9674 12.4422C38.8213 13.7135 39.0447 15.0364 39.6116 16.1874C39.9982 16.9777 41.3725 18.584 40.9602 19.5289C40.7283 20.0529 39.5858 20.2762 39.1048 20.4824C38.3317 20.8174 37.5844 21.1954 36.8886 21.6764C36.0124 22.2863 35.0933 23.2054 34.827 24.2706C34.6724 24.8976 34.8442 25.5591 35.2479 26.0487C35.5829 26.4696 36.4076 27.1396 36.9487 26.7187C36.3302 27.1997 36.2014 28.1876 36.6738 28.8147C37.1463 29.4417 38.1341 29.5877 38.7612 29.1239C38.1341 29.6049 38.0053 30.61 38.4777 31.237C38.9502 31.8641 39.9552 32.0101 40.5909 31.5377C39.3453 32.4654 38.1084 33.3845 36.8628 34.3122C36.3646 34.6816 35.8406 35.0939 35.6774 35.6866C35.4455 36.4941 36.1155 37.4304 36.9487 37.4819C37.6016 37.5249 38.1857 37.1125 38.7183 36.726C41.2265 34.8877 43.7348 33.0409 46.243 31.2027C47.5144 30.2664 48.7943 29.3215 49.8336 28.136C50.873 26.9506 51.6633 25.4818 51.775 23.9098C51.7921 23.4373 51.7578 22.9563 51.6719 22.4839Z" fill="white"/>
</mask>
<g mask="url(#mask3_602_11182)">
<g filter="url(#filter4_f_602_11182)">
<path d="M41.5358 10.2346C40.9516 9.89101 40.17 10.1143 39.7061 10.604C39.2422 11.0936 39.0447 11.7722 38.9674 12.4422C38.8213 13.7135 39.0447 15.0364 39.6116 16.1874C39.9982 16.9777 41.3725 18.584 40.9602 19.5289C40.7283 20.0529 39.5858 20.2762 39.1048 20.4824C38.3317 20.8174 37.5844 21.1954 36.8886 21.6764C36.0124 22.2863 35.0933 23.2054 34.827 24.2706C34.6724 24.8976 34.8442 25.5591 35.2479 26.0487C35.5829 26.4696 36.4076 27.1396 36.9487 26.7187C36.3302 27.1997 36.2014 28.1876 36.6738 28.8147C37.1463 29.4417 38.1341 29.5877 38.7612 29.1239C38.1341 29.6049 38.0053 30.61 38.4777 31.237C38.9502 31.8641 39.9552 32.0101 40.5909 31.5377C39.3453 32.4654 38.1084 33.3845 36.8628 34.3122C36.3646 34.6816 35.8406 35.0939 35.6774 35.6866C35.4455 36.4941 36.1155 37.4304 36.9487 37.4819C37.6016 37.5249 38.1857 37.1125 38.7183 36.726" stroke="#FF8500" stroke-width="0.344873" stroke-miterlimit="10"/>
</g>
</g>
<mask id="mask4_602_11182" style="mask-type:alpha" maskUnits="userSpaceOnUse" x="34" y="10" width="18" height="28">
<path d="M51.6719 22.4839C51.4056 21.1095 50.6411 19.821 49.6103 18.8503C48.8286 18.1116 47.9009 17.5361 46.9216 17.1151C46.4234 16.9004 45.9166 16.72 45.3926 16.574C44.8772 16.428 44.2931 16.385 43.8121 16.1359C42.8071 15.6119 42.4463 13.9283 42.3776 12.9061C42.3088 11.9268 42.3862 10.7242 41.5358 10.2346C40.9516 9.89101 40.17 10.1143 39.7061 10.604C39.2422 11.0936 39.0447 11.7722 38.9674 12.4422C38.8213 13.7135 39.0447 15.0364 39.6116 16.1874C39.9982 16.9777 41.3725 18.584 40.9602 19.5289C40.7283 20.0529 39.5858 20.2762 39.1048 20.4824C38.3317 20.8174 37.5844 21.1954 36.8886 21.6764C36.0124 22.2863 35.0933 23.2054 34.827 24.2706C34.6724 24.8976 34.8442 25.5591 35.2479 26.0487C35.5829 26.4696 36.4076 27.1396 36.9487 26.7187C36.3302 27.1997 36.2014 28.1876 36.6738 28.8147C37.1463 29.4417 38.1341 29.5877 38.7612 29.1239C38.1341 29.6049 38.0053 30.61 38.4777 31.237C38.9502 31.8641 39.9552 32.0101 40.5909 31.5377C39.3453 32.4654 38.1084 33.3845 36.8628 34.3122C36.3646 34.6816 35.8406 35.0939 35.6774 35.6866C35.4455 36.4941 36.1155 37.4304 36.9487 37.4819C37.6016 37.5249 38.1857 37.1125 38.7183 36.726C41.2265 34.8877 43.7348 33.0409 46.243 31.2027C47.5144 30.2664 48.7943 29.3215 49.8336 28.136C50.873 26.9506 51.6633 25.4818 51.775 23.9098C51.7921 23.4373 51.7578 22.9563 51.6719 22.4839Z" fill="white"/>
</mask>
<g mask="url(#mask4_602_11182)">
<g filter="url(#filter5_f_602_11182)">
<path d="M41.5358 10.2346C41.4242 10.1744 41.3125 10.1401 41.1922 10.1143C41.072 10.0885 40.9517 10.0885 40.8315 10.0971C40.5909 10.1229 40.359 10.2002 40.1529 10.3205C39.7319 10.561 39.4571 10.9733 39.2939 11.42C39.1306 11.8667 39.0705 12.3477 39.0533 12.8287C39.0362 13.3098 39.0705 13.7908 39.1564 14.2633C39.2423 14.7357 39.3798 15.1996 39.5601 15.6376C39.6031 15.7493 39.6546 15.861 39.7062 15.9641C39.7319 16.0156 39.7577 16.0757 39.7835 16.1273C39.8093 16.1788 39.835 16.2304 39.8694 16.2819C39.9896 16.4881 40.1271 16.6856 40.2645 16.8918C40.5308 17.3041 40.8057 17.725 41.0204 18.1889C41.1235 18.4208 41.218 18.6785 41.2524 18.9534C41.2695 19.0908 41.2781 19.2368 41.2438 19.3915C41.2266 19.4688 41.2094 19.5375 41.1836 19.6148C41.1751 19.6492 41.1493 19.6921 41.1235 19.7265C41.1063 19.7694 41.0806 19.7952 41.0548 19.8295C41.0033 19.8983 40.9431 19.9412 40.8916 19.9927C40.8315 20.0357 40.7799 20.0872 40.7198 20.1216C40.5995 20.1989 40.4793 20.2504 40.359 20.3106C40.1185 20.4137 39.878 20.4996 39.646 20.5769C39.5344 20.6198 39.4141 20.6542 39.311 20.6971C39.2165 20.7315 39.0963 20.7916 38.9932 20.8346C38.7699 20.9376 38.5551 21.0407 38.3404 21.1524C37.49 21.5905 36.6825 22.1145 36.0383 22.7931C35.8751 22.9649 35.729 23.1367 35.6002 23.3256C35.4713 23.5146 35.3511 23.7122 35.2652 23.9098C35.2394 23.9613 35.2222 24.0128 35.205 24.0644C35.1879 24.1159 35.1621 24.1675 35.1535 24.219C35.1363 24.2705 35.1191 24.3221 35.1106 24.3736L35.0934 24.4509L35.0762 24.5282C35.0504 24.7344 35.059 24.9406 35.1106 25.1467C35.1621 25.3529 35.248 25.5419 35.3683 25.7222C35.4284 25.8081 35.4885 25.894 35.5658 25.9714C35.6345 26.0487 35.7204 26.126 35.8063 26.1947C35.9695 26.3321 36.1585 26.4524 36.3389 26.5211C36.4248 26.5469 36.5107 26.5641 36.5794 26.5641C36.6482 26.5555 36.6997 26.5383 36.7598 26.4953L37.1206 26.9592C36.8801 27.1396 36.7255 27.4402 36.6825 27.7581C36.6396 28.0759 36.7083 28.4023 36.8887 28.6428C37.0691 28.8833 37.3697 29.0466 37.6875 29.0981C38.0054 29.1496 38.3404 29.0809 38.5895 28.9091L38.9245 29.3558C38.6754 29.5448 38.5122 29.8454 38.4692 30.1718C38.4263 30.4983 38.495 30.8419 38.684 31.091C38.8729 31.3487 39.1822 31.5119 39.5086 31.5634C39.835 31.6149 40.1872 31.5548 40.4449 31.3658L40.7284 31.7438L38.5122 33.3501L37.3955 34.1318C37.0261 34.3981 36.6396 34.6472 36.3217 34.9478C36.1585 35.0939 36.0211 35.2571 35.918 35.4375C35.8665 35.532 35.8235 35.6264 35.7892 35.7209C35.7806 35.7725 35.7634 35.824 35.7548 35.867C35.7548 35.9185 35.7376 35.97 35.7462 36.0216C35.7376 36.4425 35.9524 36.8634 36.2874 37.1297C36.4592 37.2671 36.6567 37.3616 36.8715 37.396C37.0862 37.4303 37.3096 37.4132 37.5243 37.353C37.9538 37.2328 38.3404 36.9751 38.7183 36.7174C38.3576 37.0008 37.9882 37.2757 37.5501 37.4389C37.3268 37.5162 37.0948 37.5506 36.8543 37.5248C36.6138 37.4991 36.3819 37.4046 36.1929 37.2585C35.8063 36.9751 35.54 36.5198 35.5229 36.013C35.5143 35.9529 35.5315 35.8927 35.5315 35.824C35.54 35.7639 35.5572 35.7038 35.5658 35.635C35.6002 35.5148 35.6431 35.4031 35.6947 35.2914C35.8063 35.0767 35.961 34.8791 36.1242 34.7159C36.296 34.5441 36.4764 34.3981 36.6567 34.2521L37.1979 33.8312L38.2802 32.9979L40.4535 31.3315L40.737 31.7094C40.3676 31.9929 39.8866 32.0874 39.4485 32.0273C39.0018 31.9671 38.5723 31.7524 38.2802 31.3744C37.9968 30.9965 37.8937 30.5154 37.9538 30.0688C38.014 29.6221 38.2287 29.1754 38.6067 28.8833L38.9417 29.33C38.5637 29.6135 38.0741 29.708 37.6274 29.6393C37.1807 29.5705 36.7426 29.3472 36.4506 28.9692C36.1585 28.5913 36.064 28.1017 36.1242 27.655C36.1843 27.2083 36.399 26.7616 36.777 26.4696L37.1378 26.9334C36.9918 27.0451 36.8114 27.1138 36.6396 27.1224C36.4592 27.131 36.3046 27.0966 36.1585 27.0537C35.8751 26.9506 35.6431 26.796 35.437 26.6242C35.3339 26.5383 35.2394 26.4438 35.1449 26.3407C35.0504 26.2376 34.9645 26.126 34.8872 26.0143C34.7326 25.7824 34.6209 25.5247 34.5522 25.2498C34.4835 24.9749 34.4663 24.6915 34.5093 24.408L34.5264 24.3049L34.5522 24.2018C34.5694 24.1331 34.5866 24.073 34.6123 24.0043C34.6295 23.9355 34.6553 23.8754 34.6811 23.8153C34.7068 23.7551 34.7326 23.695 34.7584 23.6263C34.9817 23.1367 35.2995 22.7158 35.6517 22.3464C36.0039 21.977 36.399 21.6506 36.82 21.3671C37.2409 21.0837 37.6789 20.8432 38.1256 20.6198C38.349 20.5081 38.5723 20.4051 38.8042 20.302C38.9159 20.2504 39.0276 20.1989 39.1564 20.156C39.2767 20.113 39.3969 20.0786 39.5172 20.0357C39.7491 19.9584 39.9725 19.8897 40.1872 19.8038C40.2903 19.7608 40.3934 19.7093 40.4793 19.6577C40.5308 19.632 40.5652 19.5976 40.6081 19.5718C40.6425 19.5375 40.6768 19.5117 40.7026 19.4774C40.7198 19.4602 40.7284 19.443 40.737 19.4344C40.7456 19.4172 40.7541 19.4086 40.7627 19.3829C40.7799 19.3399 40.7971 19.297 40.8057 19.254C40.8229 19.1681 40.8229 19.065 40.8143 18.962C40.7971 18.7558 40.7198 18.5325 40.6339 18.3263C40.4535 17.8968 40.2044 17.4845 39.9467 17.0722C39.8178 16.866 39.689 16.6599 39.5601 16.4365C39.5258 16.3764 39.5 16.3248 39.4742 16.2647C39.4485 16.2046 39.4227 16.153 39.3969 16.0929C39.3454 15.9812 39.3024 15.861 39.2509 15.7407C39.0791 15.2683 38.9503 14.7787 38.8815 14.2804C38.8128 13.7822 38.7956 13.284 38.8386 12.7858C38.8815 12.2876 38.9674 11.7894 39.1564 11.3255C39.208 11.2052 39.2595 11.0936 39.3282 10.9905C39.3883 10.8788 39.4657 10.7757 39.543 10.6812C39.7062 10.4837 39.9037 10.3205 40.1271 10.2088C40.3504 10.0971 40.5995 10.0284 40.8486 10.0198C40.9775 10.0198 41.0977 10.0284 41.218 10.0628C41.3211 10.1229 41.4328 10.1744 41.5358 10.2346Z" fill="#FF4200"/>
</g>
</g>
<mask id="mask5_602_11182" style="mask-type:alpha" maskUnits="userSpaceOnUse" x="34" y="10" width="18" height="28">
<path d="M51.6719 22.4839C51.4056 21.1095 50.6411 19.821 49.6103 18.8503C48.8286 18.1116 47.9009 17.5361 46.9216 17.1151C46.4234 16.9004 45.9166 16.72 45.3926 16.574C44.8772 16.428 44.2931 16.385 43.8121 16.1359C42.8071 15.6119 42.4463 13.9283 42.3776 12.9061C42.3088 11.9268 42.3862 10.7242 41.5358 10.2346C40.9516 9.89101 40.17 10.1143 39.7061 10.604C39.2422 11.0936 39.0447 11.7722 38.9674 12.4422C38.8213 13.7135 39.0447 15.0364 39.6116 16.1874C39.9982 16.9777 41.3725 18.584 40.9602 19.5289C40.7283 20.0529 39.5858 20.2762 39.1048 20.4824C38.3317 20.8174 37.5844 21.1954 36.8886 21.6764C36.0124 22.2863 35.0933 23.2054 34.827 24.2706C34.6724 24.8976 34.8442 25.5591 35.2479 26.0487C35.5829 26.4696 36.4076 27.1396 36.9487 26.7187C36.3302 27.1997 36.2014 28.1876 36.6738 28.8147C37.1463 29.4417 38.1341 29.5877 38.7612 29.1239C38.1341 29.6049 38.0053 30.61 38.4777 31.237C38.9502 31.8641 39.9552 32.0101 40.5909 31.5377C39.3453 32.4654 38.1084 33.3845 36.8628 34.3122C36.3646 34.6816 35.8406 35.0939 35.6774 35.6866C35.4455 36.4941 36.1155 37.4304 36.9487 37.4819C37.6016 37.5249 38.1857 37.1125 38.7183 36.726C41.2265 34.8877 43.7348 33.0409 46.243 31.2027C47.5144 30.2664 48.7943 29.3215 49.8336 28.136C50.873 26.9506 51.6633 25.4818 51.775 23.9098C51.7921 23.4373 51.7578 22.9563 51.6719 22.4839Z" fill="white"/>
</mask>
<g mask="url(#mask5_602_11182)">
<g filter="url(#filter6_f_602_11182)">
<path d="M34.8269 24.2791C34.7496 24.5969 34.7667 24.9234 34.8526 25.2326C34.9385 25.5418 35.0932 25.8339 35.2993 26.0744C35.5141 26.3149 35.7632 26.5211 36.0466 26.6671C36.1841 26.7358 36.3387 26.796 36.4933 26.8046C36.6479 26.8217 36.8026 26.7788 36.9142 26.6843L36.9744 26.7616C36.6823 26.9935 36.5019 27.3543 36.459 27.7237C36.416 28.093 36.5019 28.4882 36.7253 28.7802C36.9486 29.0723 37.3008 29.2527 37.6701 29.3128C38.0395 29.3644 38.4261 29.2871 38.7181 29.0723L38.8126 29.1926C38.5206 29.4159 38.3402 29.7767 38.2886 30.146C38.2371 30.5154 38.323 30.902 38.5463 31.194C38.7697 31.4861 39.1219 31.6751 39.4912 31.7266C39.8606 31.7781 40.2471 31.7008 40.5392 31.4861L40.6423 31.6235L38.4432 33.247L37.3437 34.0631C36.983 34.3379 36.5964 34.587 36.27 34.8963C36.1068 35.0509 35.9607 35.2227 35.8577 35.4117C35.8061 35.5062 35.7632 35.6093 35.7288 35.7123C35.7202 35.7639 35.7031 35.8154 35.6945 35.8755C35.6945 35.9271 35.6773 35.9872 35.6859 36.0387C35.6859 36.4768 35.9178 36.9063 36.2614 37.1812C36.4332 37.3186 36.6479 37.4131 36.8627 37.4475C37.086 37.4819 37.3094 37.4561 37.5241 37.396C37.9622 37.2671 38.3402 37.0008 38.7095 36.7431C38.3488 37.018 37.9708 37.2929 37.5327 37.4389C37.318 37.5076 37.0774 37.542 36.8455 37.5162C36.6136 37.4904 36.3902 37.396 36.2013 37.2499C35.8319 36.9665 35.5828 36.5198 35.5656 36.0473C35.557 35.9872 35.5742 35.9271 35.5742 35.8669C35.5828 35.8068 35.6 35.7467 35.6086 35.6952C35.6429 35.5835 35.6859 35.4718 35.7374 35.3687C35.8491 35.1626 35.9951 34.9822 36.1669 34.819C36.3301 34.6558 36.5105 34.5097 36.6909 34.3723L37.2407 33.96L38.3402 33.1182L40.5306 31.4775L40.6337 31.6149C40.2987 31.864 39.8606 31.9499 39.4569 31.8898C39.0531 31.8297 38.658 31.6235 38.4089 31.2885C38.1598 30.9535 38.0653 30.524 38.1254 30.1203C38.177 29.7165 38.3831 29.3214 38.7095 29.0723L38.804 29.1926C38.469 29.4331 38.0395 29.519 37.6444 29.4588C37.2492 29.3987 36.8627 29.1926 36.6136 28.8661C36.3645 28.5397 36.2872 28.1102 36.3387 27.7151C36.3902 27.32 36.5878 26.9334 36.9142 26.6929L36.9744 26.7702C36.8369 26.8819 36.6565 26.9248 36.4847 26.9076C36.3129 26.8905 36.1583 26.8303 36.0123 26.753C35.7202 26.5898 35.4711 26.3751 35.265 26.126C35.0588 25.8683 34.9042 25.5762 34.8269 25.2584C34.741 24.9234 34.741 24.5884 34.8269 24.2791Z" fill="#FFF761"/>
</g>
</g>
<mask id="mask6_602_11182" style="mask-type:alpha" maskUnits="userSpaceOnUse" x="34" y="10" width="18" height="28">
<path d="M51.6719 22.4839C51.4056 21.1095 50.6411 19.821 49.6103 18.8503C48.8286 18.1116 47.9009 17.5361 46.9216 17.1151C46.4234 16.9004 45.9166 16.72 45.3926 16.574C44.8772 16.428 44.2931 16.385 43.8121 16.1359C42.8071 15.6119 42.4463 13.9283 42.3776 12.9061C42.3088 11.9268 42.3862 10.7242 41.5358 10.2346C40.9516 9.89101 40.17 10.1143 39.7061 10.604C39.2422 11.0936 39.0447 11.7722 38.9674 12.4422C38.8213 13.7135 39.0447 15.0364 39.6116 16.1874C39.9982 16.9777 41.3725 18.584 40.9602 19.5289C40.7283 20.0529 39.5858 20.2762 39.1048 20.4824C38.3317 20.8174 37.5844 21.1954 36.8886 21.6764C36.0124 22.2863 35.0933 23.2054 34.827 24.2706C34.6724 24.8976 34.8442 25.5591 35.2479 26.0487C35.5829 26.4696 36.4076 27.1396 36.9487 26.7187C36.3302 27.1997 36.2014 28.1876 36.6738 28.8147C37.1463 29.4417 38.1341 29.5877 38.7612 29.1239C38.1341 29.6049 38.0053 30.61 38.4777 31.237C38.9502 31.8641 39.9552 32.0101 40.5909 31.5377C39.3453 32.4654 38.1084 33.3845 36.8628 34.3122C36.3646 34.6816 35.8406 35.0939 35.6774 35.6866C35.4455 36.4941 36.1155 37.4304 36.9487 37.4819C37.6016 37.5249 38.1857 37.1125 38.7183 36.726C41.2265 34.8877 43.7348 33.0409 46.243 31.2027C47.5144 30.2664 48.7943 29.3215 49.8336 28.136C50.873 26.9506 51.6633 25.4818 51.775 23.9098C51.7921 23.4373 51.7578 22.9563 51.6719 22.4839Z" fill="white"/>
</mask>
<g mask="url(#mask6_602_11182)">
<g filter="url(#filter7_f_602_11182)">
<path d="M49.6102 18.8503C48.5107 17.9398 47.2222 17.3041 45.8822 16.9004C45.7104 16.8488 45.5472 16.8059 45.3754 16.7544C45.2122 16.7114 45.0404 16.677 44.8686 16.6427C44.525 16.574 44.1556 16.5138 43.7948 16.3506L43.7261 16.3163L43.6574 16.2819L43.5285 16.2046C43.4856 16.1788 43.4512 16.1445 43.4083 16.1101C43.3739 16.0757 43.331 16.05 43.2966 16.0156C43.2279 15.9469 43.1506 15.8782 43.0991 15.8009L43.0132 15.6806L42.9358 15.5603C42.7297 15.2425 42.5837 14.8903 42.4634 14.5381C42.3517 14.186 42.283 13.8252 42.2315 13.4644C42.2057 13.284 42.1885 13.1036 42.1713 12.9146C42.1627 12.7343 42.1542 12.5539 42.1456 12.3735C42.1284 12.0213 42.1198 11.6691 42.0511 11.3427C42.0167 11.1795 41.9652 11.0249 41.8965 10.8788C41.8621 10.8015 41.8191 10.7414 41.7848 10.6727C41.7332 10.6125 41.6903 10.5524 41.6302 10.5009C41.4068 10.2861 41.089 10.1916 40.7626 10.2174C40.4362 10.2432 40.1183 10.3806 39.8606 10.5954C39.6029 10.8101 39.4054 11.1108 39.2679 11.4286C39.1219 11.7464 39.036 12.09 38.9673 12.4422C38.9845 12.09 39.036 11.7292 39.1563 11.3856C39.2679 11.042 39.4569 10.707 39.7232 10.4407C39.9981 10.1745 40.3503 9.99406 40.7368 9.94252C40.9258 9.91675 41.132 9.92534 41.3295 9.97688C41.424 10.0027 41.5185 10.037 41.613 10.0886C41.6559 10.1143 41.6989 10.1401 41.7418 10.1659C41.7504 10.183 41.7762 10.1916 41.7934 10.2088L41.8535 10.2604C41.9308 10.3205 41.9995 10.3978 42.0597 10.4751C42.1198 10.561 42.1799 10.6383 42.2229 10.7242C42.3174 10.896 42.3775 11.085 42.4204 11.2654C42.5063 11.6347 42.5321 12.0041 42.5579 12.3563L42.5922 12.8889C42.6094 13.0607 42.6266 13.2325 42.6524 13.4043C42.7039 13.7479 42.7812 14.0829 42.8843 14.4093C42.9874 14.7357 43.1162 15.0535 43.2966 15.3284C43.477 15.6033 43.7003 15.8438 43.9838 15.9727C44.2759 16.1187 44.6109 16.1874 44.9631 16.2647C45.1349 16.3077 45.3153 16.342 45.4956 16.4022C45.6674 16.4537 45.8392 16.5138 46.011 16.574C46.6896 16.8145 47.3511 17.1237 47.9696 17.4931C48.5537 17.8796 49.1206 18.3263 49.6102 18.8503Z" fill="#FFFCBD"/>
</g>
</g>
<mask id="mask7_602_11182" style="mask-type:alpha" maskUnits="userSpaceOnUse" x="34" y="10" width="18" height="28">
<path d="M51.6719 22.4839C51.4056 21.1095 50.6411 19.821 49.6103 18.8503C48.8286 18.1116 47.9009 17.5361 46.9216 17.1151C46.4234 16.9004 45.9166 16.72 45.3926 16.574C44.8772 16.428 44.2931 16.385 43.8121 16.1359C42.8071 15.6119 42.4463 13.9283 42.3776 12.9061C42.3088 11.9268 42.3862 10.7242 41.5358 10.2346C40.9516 9.89101 40.17 10.1143 39.7061 10.604C39.2422 11.0936 39.0447 11.7722 38.9674 12.4422C38.8213 13.7135 39.0447 15.0364 39.6116 16.1874C39.9982 16.9777 41.3725 18.584 40.9602 19.5289C40.7283 20.0529 39.5858 20.2762 39.1048 20.4824C38.3317 20.8174 37.5844 21.1954 36.8886 21.6764C36.0124 22.2863 35.0933 23.2054 34.827 24.2706C34.6724 24.8976 34.8442 25.5591 35.2479 26.0487C35.5829 26.4696 36.4076 27.1396 36.9487 26.7187C36.3302 27.1997 36.2014 28.1876 36.6738 28.8147C37.1463 29.4417 38.1341 29.5877 38.7612 29.1239C38.1341 29.6049 38.0053 30.61 38.4777 31.237C38.9502 31.8641 39.9552 32.0101 40.5909 31.5377C39.3453 32.4654 38.1084 33.3845 36.8628 34.3122C36.3646 34.6816 35.8406 35.0939 35.6774 35.6866C35.4455 36.4941 36.1155 37.4304 36.9487 37.4819C37.6016 37.5249 38.1857 37.1125 38.7183 36.726C41.2265 34.8877 43.7348 33.0409 46.243 31.2027C47.5144 30.2664 48.7943 29.3215 49.8336 28.136C50.873 26.9506 51.6633 25.4818 51.775 23.9098C51.7921 23.4373 51.7578 22.9563 51.6719 22.4839Z" fill="white"/>
</mask>
<g mask="url(#mask7_602_11182)">
<mask id="mask8_602_11182" style="mask-type:alpha" maskUnits="userSpaceOnUse" x="34" y="10" width="18" height="28">
<path d="M51.6719 22.4839C51.4056 21.1095 50.6411 19.821 49.6103 18.8503C48.8286 18.1116 47.9009 17.5361 46.9216 17.1151C46.4234 16.9004 45.9166 16.72 45.3926 16.574C44.8772 16.428 44.2931 16.385 43.8121 16.1359C42.8071 15.6119 42.4463 13.9283 42.3776 12.9061C42.3088 11.9268 42.3862 10.7242 41.5358 10.2346C40.9516 9.89101 40.17 10.1143 39.7061 10.604C39.2422 11.0936 39.0447 11.7722 38.9674 12.4422C38.8213 13.7135 39.0447 15.0364 39.6116 16.1874C39.9982 16.9777 41.3725 18.584 40.9602 19.5289C40.7283 20.0529 39.5858 20.2762 39.1048 20.4824C38.3317 20.8174 37.5844 21.1954 36.8886 21.6764C36.0124 22.2863 35.0933 23.2054 34.827 24.2706C34.6724 24.8976 34.8442 25.5591 35.2479 26.0487C35.5829 26.4696 36.4076 27.1396 36.9487 26.7187C36.3302 27.1997 36.2014 28.1876 36.6738 28.8147C37.1463 29.4417 38.1341 29.5877 38.7612 29.1239C38.1341 29.6049 38.0053 30.61 38.4777 31.237C38.9502 31.8641 39.9552 32.0101 40.5909 31.5377C39.3453 32.4654 38.1084 33.3845 36.8628 34.3122C36.3646 34.6816 35.8406 35.0939 35.6774 35.6866C35.4455 36.4941 36.1155 37.4304 36.9487 37.4819C37.6016 37.5249 38.1857 37.1125 38.7183 36.726C41.2265 34.8877 43.7348 33.0409 46.243 31.2027C47.5144 30.2664 48.7943 29.3215 49.8336 28.136C50.873 26.9506 51.6633 25.4818 51.775 23.9098C51.7921 23.4373 51.7578 22.9563 51.6719 22.4839Z" fill="#ED5700"/>
</mask>
<g mask="url(#mask8_602_11182)">
<g filter="url(#filter8_f_602_11182)">
<path d="M40.9603 19.5289C40.9431 19.5804 40.9345 19.6319 40.9002 19.6835C40.883 19.7093 40.8744 19.735 40.8572 19.7522L40.8057 19.8209C40.7713 19.8639 40.7284 19.8982 40.694 19.9412C40.6511 19.9755 40.6081 20.0099 40.5652 20.0529C40.3934 20.1903 40.1958 20.2934 40.0068 20.3965C39.8178 20.4909 39.6203 20.5768 39.4399 20.6627C39.3969 20.6799 39.354 20.7057 39.311 20.7229C39.2681 20.7486 39.2337 20.7658 39.1908 20.7916L38.9245 20.9376C38.2115 21.3328 37.5243 21.7365 36.8973 22.2089C36.7426 22.3292 36.588 22.4495 36.442 22.5783C36.296 22.7072 36.1585 22.836 36.0211 22.9734C35.7548 23.2483 35.5143 23.549 35.3253 23.8668C35.2308 24.03 35.1535 24.2018 35.0848 24.3736C35.0246 24.5368 34.9817 24.7172 34.9817 24.9062C34.9559 25.2841 35.0504 25.6793 35.2394 26.0572C34.913 25.7909 34.6639 25.3958 34.5608 24.9491C34.5093 24.7258 34.5007 24.4853 34.535 24.2448C34.5436 24.1846 34.5522 24.1331 34.5694 24.073C34.578 24.0128 34.5951 23.9613 34.6123 23.9097C34.6295 23.8582 34.6381 23.7981 34.6639 23.7465L34.724 23.5833C34.8872 23.1624 35.1363 22.7759 35.4198 22.4323C35.7033 22.0887 36.0297 21.7966 36.3733 21.5303C37.0691 20.9978 37.8507 20.6198 38.641 20.3277C38.7355 20.2934 38.8386 20.259 38.9417 20.2247C38.9846 20.2075 39.0533 20.1903 39.1049 20.1731C39.1564 20.1559 39.2165 20.1473 39.2681 20.1302C39.4742 20.0786 39.6804 20.0443 39.878 20.0013C40.0755 19.9584 40.2731 19.9154 40.4621 19.8467C40.505 19.8295 40.5566 19.8123 40.5995 19.7952C40.6425 19.7694 40.694 19.7522 40.7284 19.7264C40.8143 19.6749 40.8916 19.6148 40.9603 19.5289Z" fill="#FFFB69"/>
</g>
</g>
<path d="M51.6719 22.4839C51.4056 21.1095 50.6411 19.821 49.6103 18.8503C48.8286 18.1116 47.9009 17.5361 46.9216 17.1151C46.4234 16.9004 45.9166 16.72 45.3926 16.574C44.8772 16.428 44.2931 16.385 43.8121 16.1359C42.8071 15.6119 42.4463 13.9283 42.3776 12.9061C42.3088 11.9268 42.3862 10.7242 41.5358 10.2346C40.9516 9.89101 40.17 10.1143 39.7061 10.604C39.2422 11.0936 39.0447 11.7722 38.9674 12.4422C38.8213 13.7135 39.0447 15.0364 39.6116 16.1874C39.9982 16.9777 41.3725 18.584 40.9602 19.5289C40.7283 20.0529 39.5858 20.2762 39.1048 20.4824C38.3317 20.8174 37.5844 21.1954 36.8886 21.6764C36.0124 22.2863 35.0933 23.2054 34.827 24.2706C34.6724 24.8976 34.8442 25.5591 35.2479 26.0487C35.5829 26.4696 36.4076 27.1396 36.9487 26.7187C36.3302 27.1997 36.2014 28.1876 36.6738 28.8147C37.1463 29.4417 38.1341 29.5877 38.7612 29.1239C38.1341 29.6049 38.0053 30.61 38.4777 31.237C38.9502 31.8641 39.9552 32.0101 40.5909 31.5377C39.3453 32.4654 38.1084 33.3845 36.8628 34.3122C36.3646 34.6816 35.8406 35.0939 35.6774 35.6866C35.4455 36.4941 36.1155 37.4304 36.9487 37.4819C37.6016 37.5249 38.1857 37.1125 38.7183 36.726C41.2265 34.8877 43.7348 33.0409 46.243 31.2027C47.5144 30.2664 48.7943 29.3215 49.8336 28.136C50.873 26.9506 51.6633 25.4818 51.775 23.9098C51.7921 23.4373 51.7578 22.9563 51.6719 22.4839Z" fill="url(#paint17_linear_602_11182)"/>
</g>
<mask id="mask9_602_11182" style="mask-type:alpha" maskUnits="userSpaceOnUse" x="34" y="10" width="18" height="28">
<path d="M51.6719 22.4839C51.4056 21.1095 50.6411 19.821 49.6103 18.8503C48.8286 18.1116 47.9009 17.5361 46.9216 17.1151C46.4234 16.9004 45.9166 16.72 45.3926 16.574C44.8772 16.428 44.2931 16.385 43.8121 16.1359C42.8071 15.6119 42.4463 13.9283 42.3776 12.9061C42.3088 11.9268 42.3862 10.7242 41.5358 10.2346C40.9516 9.89101 40.17 10.1143 39.7061 10.604C39.2422 11.0936 39.0447 11.7722 38.9674 12.4422C38.8213 13.7135 39.0447 15.0364 39.6116 16.1874C39.9982 16.9777 41.3725 18.584 40.9602 19.5289C40.7283 20.0529 39.5858 20.2762 39.1048 20.4824C38.3317 20.8174 37.5844 21.1954 36.8886 21.6764C36.0124 22.2863 35.0933 23.2054 34.827 24.2706C34.6724 24.8976 34.8442 25.5591 35.2479 26.0487C35.5829 26.4696 36.4076 27.1396 36.9487 26.7187C36.3302 27.1997 36.2014 28.1876 36.6738 28.8147C37.1463 29.4417 38.1341 29.5877 38.7612 29.1239C38.1341 29.6049 38.0053 30.61 38.4777 31.237C38.9502 31.8641 39.9552 32.0101 40.5909 31.5377C39.3453 32.4654 38.1084 33.3845 36.8628 34.3122C36.3646 34.6816 35.8406 35.0939 35.6774 35.6866C35.4455 36.4941 36.1155 37.4304 36.9487 37.4819C37.6016 37.5249 38.1857 37.1125 38.7183 36.726C41.2265 34.8877 43.7348 33.0409 46.243 31.2027C47.5144 30.2664 48.7943 29.3215 49.8336 28.136C50.873 26.9506 51.6633 25.4818 51.775 23.9098C51.7921 23.4373 51.7578 22.9563 51.6719 22.4839Z" fill="white"/>
</mask>
<g mask="url(#mask9_602_11182)">
<g filter="url(#filter9_f_602_11182)">
<path d="M35.6688 35.6951C35.6173 35.9443 35.643 36.2105 35.7375 36.4425C35.832 36.6744 35.978 36.8806 36.1584 37.0438C36.3388 37.207 36.5622 37.3101 36.7941 37.353C37.026 37.3874 37.2665 37.353 37.4899 37.2757C37.9451 37.1125 38.3317 36.7947 38.744 36.4768C39.1477 36.159 39.56 35.8498 39.9638 35.5319C40.7798 34.9049 41.6045 34.2864 42.4205 33.6679L44.8944 31.8297C45.7276 31.2198 46.5608 30.6271 47.3769 30.0086C47.7806 29.6994 48.1843 29.3815 48.5623 29.0551C48.7513 28.8919 48.9403 28.7201 49.1207 28.5397C49.301 28.3679 49.4814 28.1875 49.6532 27.9986C49.9882 27.6292 50.3061 27.2341 50.5809 26.8131C50.8558 26.3922 51.0963 25.9541 51.2853 25.4817C51.6719 24.554 51.8093 23.5146 51.6719 22.4924C51.9382 23.4888 51.8866 24.5798 51.5602 25.5762C51.397 26.0744 51.1736 26.5554 50.9159 27.0107C50.6583 27.466 50.3404 27.8955 50.0054 28.2992C49.3354 29.1067 48.5365 29.8024 47.7291 30.4467C47.3254 30.7731 46.9044 31.0738 46.4921 31.383L45.2552 32.3021L42.7555 34.1146C41.9137 34.7073 41.0805 35.3172 40.2387 35.9013C39.8177 36.1934 39.3968 36.494 38.9759 36.7861C38.7612 36.9321 38.5464 37.0781 38.3231 37.2156C38.0912 37.353 37.8506 37.4733 37.5844 37.5506C37.3181 37.6193 37.0346 37.6451 36.7511 37.5763C36.4763 37.5076 36.2357 37.353 36.0468 37.1554C35.8664 36.9579 35.7289 36.7173 35.6516 36.4596C35.5829 36.2105 35.5829 35.9357 35.6688 35.6951Z" fill="#FF4324"/>
</g>
</g>
<defs>
<filter id="filter0_f_602_11182" x="0.71981" y="17.3518" width="47.2657" height="30.6647" filterUnits="userSpaceOnUse" color-interpolation-filters="sRGB">
<feFlood flood-opacity="0" result="BackgroundImageFix"/>
<feBlend mode="normal" in="SourceGraphic" in2="BackgroundImageFix" result="shape"/>
<feGaussianBlur stdDeviation="1.43697" result="effect1_foregroundBlur_602_11182"/>
</filter>
<filter id="filter1_f_602_11182" x="-1.00455" y="15.6274" width="50.7144" height="34.1134" filterUnits="userSpaceOnUse" color-interpolation-filters="sRGB">
<feFlood flood-opacity="0" result="BackgroundImageFix"/>
<feBlend mode="normal" in="SourceGraphic" in2="BackgroundImageFix" result="shape"/>
<feGaussianBlur stdDeviation="2.29915" result="effect1_foregroundBlur_602_11182"/>
</filter>
<filter id="filter2_f_602_11182" x="8.05965" y="21.2543" width="32.9976" height="18.6371" filterUnits="userSpaceOnUse" color-interpolation-filters="sRGB">
<feFlood flood-opacity="0" result="BackgroundImageFix"/>
<feBlend mode="normal" in="SourceGraphic" in2="BackgroundImageFix" result="shape"/>
<feGaussianBlur stdDeviation="0.574788" result="effect1_foregroundBlur_602_11182"/>
</filter>
<filter id="filter3_f_602_11182" x="30.1727" y="5.4705" width="26.2052" height="36.6128" filterUnits="userSpaceOnUse" color-interpolation-filters="sRGB">
<feFlood flood-opacity="0" result="BackgroundImageFix"/>
<feBlend mode="normal" in="SourceGraphic" in2="BackgroundImageFix" result="shape"/>
<feGaussianBlur stdDeviation="2.29915" result="effect1_foregroundBlur_602_11182"/>
</filter>
<filter id="filter4_f_602_11182" x="33.2189" y="8.5164" width="9.78389" height="30.5205" filterUnits="userSpaceOnUse" color-interpolation-filters="sRGB">
<feFlood flood-opacity="0" result="BackgroundImageFix"/>
<feBlend mode="normal" in="SourceGraphic" in2="BackgroundImageFix" result="shape"/>
<feGaussianBlur stdDeviation="0.689746" result="effect1_foregroundBlur_602_11182"/>
</filter>
<filter id="filter5_f_602_11182" x="32.1867" y="7.72067" width="11.6484" height="32.1118" filterUnits="userSpaceOnUse" color-interpolation-filters="sRGB">
<feFlood flood-opacity="0" result="BackgroundImageFix"/>
<feBlend mode="normal" in="SourceGraphic" in2="BackgroundImageFix" result="shape"/>
<feGaussianBlur stdDeviation="1.14958" result="effect1_foregroundBlur_602_11182"/>
</filter>
<filter id="filter6_f_602_11182" x="33.6129" y="23.1295" width="8.17904" height="15.5448" filterUnits="userSpaceOnUse" color-interpolation-filters="sRGB">
<feFlood flood-opacity="0" result="BackgroundImageFix"/>
<feBlend mode="normal" in="SourceGraphic" in2="BackgroundImageFix" result="shape"/>
<feGaussianBlur stdDeviation="0.574788" result="effect1_foregroundBlur_602_11182"/>
</filter>
<filter id="filter7_f_602_11182" x="38.2775" y="9.23871" width="12.0223" height="10.3013" filterUnits="userSpaceOnUse" color-interpolation-filters="sRGB">
<feFlood flood-opacity="0" result="BackgroundImageFix"/>
<feBlend mode="normal" in="SourceGraphic" in2="BackgroundImageFix" result="shape"/>
<feGaussianBlur stdDeviation="0.344873" result="effect1_foregroundBlur_602_11182"/>
</filter>
<filter id="filter8_f_602_11182" x="33.1349" y="18.1494" width="9.20478" height="9.28735" filterUnits="userSpaceOnUse" color-interpolation-filters="sRGB">
<feFlood flood-opacity="0" result="BackgroundImageFix"/>
<feBlend mode="normal" in="SourceGraphic" in2="BackgroundImageFix" result="shape"/>
<feGaussianBlur stdDeviation="0.689746" result="effect1_foregroundBlur_602_11182"/>
</filter>
<filter id="filter9_f_602_11182" x="33.3029" y="20.1932" width="20.8388" height="19.7227" filterUnits="userSpaceOnUse" color-interpolation-filters="sRGB">
<feFlood flood-opacity="0" result="BackgroundImageFix"/>
<feBlend mode="normal" in="SourceGraphic" in2="BackgroundImageFix" result="shape"/>
<feGaussianBlur stdDeviation="1.14958" result="effect1_foregroundBlur_602_11182"/>
</filter>
<radialGradient id="paint0_radial_602_11182" cx="0" cy="0" r="1" gradientUnits="userSpaceOnUse" gradientTransform="translate(20.608 3.60021) rotate(80) scale(41.4035)">
<stop stop-color="#FFDE43"/>
<stop offset="1" stop-color="#FFBC00"/>
</radialGradient>
<radialGradient id="paint1_radial_602_11182" cx="0" cy="0" r="1" gradientUnits="userSpaceOnUse" gradientTransform="translate(21.5701 9.05655) rotate(80) scale(35.863)">
<stop stop-color="white" stop-opacity="0.5"/>
<stop offset="0.782278"/>
</radialGradient>
<radialGradient id="paint2_radial_602_11182" cx="0" cy="0" r="1" gradientUnits="userSpaceOnUse" gradientTransform="translate(21.5701 9.05655) rotate(80) scale(35.863)">
<stop stop-color="white" stop-opacity="0.5"/>
<stop offset="0.782278"/>
</radialGradient>
<radialGradient id="paint3_radial_602_11182" cx="0" cy="0" r="1" gradientUnits="userSpaceOnUse" gradientTransform="translate(19.8249 -0.840995) rotate(80) scale(45.9133 62.0911)">
<stop offset="0.0922635" stop-color="white"/>
<stop offset="0.670207" stop-color="white" stop-opacity="0"/>
</radialGradient>
<linearGradient id="paint4_linear_602_11182" x1="12.4479" y1="36.0706" x2="39.4033" y2="31.3176" gradientUnits="userSpaceOnUse">
<stop stop-color="#CCCCCC"/>
<stop offset="0.05" stop-color="#D5D5D5"/>
<stop offset="0.2" stop-color="#E9E9E9"/>
<stop offset="0.35" stop-color="#F6F6F6"/>
<stop offset="0.5" stop-color="#FAFAFA"/>
<stop offset="0.65" stop-color="#F6F6F6"/>
<stop offset="0.8" stop-color="#E9E9E9"/>
<stop offset="0.95" stop-color="#D5D5D5"/>
<stop offset="1" stop-color="#CCCCCC"/>
</linearGradient>
<linearGradient id="paint5_linear_602_11182" x1="10.2857" y1="31.1998" x2="39.7791" y2="25.9993" gradientUnits="userSpaceOnUse">
<stop stop-color="#CCCCCC"/>
<stop offset="0.05" stop-color="#D5D5D5"/>
<stop offset="0.2" stop-color="#E9E9E9"/>
<stop offset="0.35" stop-color="#F6F6F6"/>
<stop offset="0.5" stop-color="#FAFAFA"/>
<stop offset="0.65" stop-color="#F6F6F6"/>
<stop offset="0.8" stop-color="#E9E9E9"/>
<stop offset="0.95" stop-color="#D5D5D5"/>
<stop offset="1" stop-color="#CCCCCC"/>
</linearGradient>
<radialGradient id="paint6_radial_602_11182" cx="0" cy="0" r="1" gradientUnits="userSpaceOnUse" gradientTransform="translate(25.3792 30.5652) rotate(-10) scale(9.78051)">
<stop stop-color="#401C02"/>
<stop offset="1" stop-color="#401C02"/>
</radialGradient>
<linearGradient id="paint7_linear_602_11182" x1="26.7338" y1="38.2486" x2="24.4551" y2="25.3254" gradientUnits="userSpaceOnUse">
<stop offset="0.265625" stop-color="#FFDE43"/>
<stop offset="1" stop-color="#F79D14"/>
</linearGradient>
<linearGradient id="paint8_linear_602_11182" x1="16110.1" y1="5246.9" x2="15774.7" y2="3344.47" gradientUnits="userSpaceOnUse">
<stop stop-color="#401C02"/>
<stop offset="1" stop-color="#401C02"/>
</linearGradient>
<linearGradient id="paint9_linear_602_11182" x1="16110.1" y1="5246.9" x2="15774.7" y2="3344.47" gradientUnits="userSpaceOnUse">
<stop stop-color="#401C02"/>
<stop offset="1" stop-color="#401C02"/>
</linearGradient>
<linearGradient id="paint10_linear_602_11182" x1="16110.2" y1="5246.99" x2="15774.7" y2="3344.55" gradientUnits="userSpaceOnUse">
<stop stop-color="#401C02"/>
<stop offset="1" stop-color="#401C02"/>
</linearGradient>
<radialGradient id="paint11_radial_602_11182" cx="0" cy="0" r="1" gradientUnits="userSpaceOnUse" gradientTransform="translate(16.5795 21.1968) rotate(-10) scale(4.63196 3.83991)">
<stop stop-color="#743C1C"/>
<stop offset="1" stop-color="#401C02"/>
</radialGradient>
<linearGradient id="paint12_linear_602_11182" x1="17.288" y1="25.1859" x2="15.8764" y2="17.1804" gradientUnits="userSpaceOnUse">
<stop stop-color="#FFDE43"/>
<stop offset="0.22" stop-color="#FED93F"/>
<stop offset="0.51" stop-color="#FCC934"/>
<stop offset="0.82" stop-color="#F9AF21"/>
<stop offset="1" stop-color="#F79D14"/>
</linearGradient>
<radialGradient id="paint13_radial_602_11182" cx="0" cy="0" r="1" gradientUnits="userSpaceOnUse" gradientTransform="translate(30.4873 18.7445) rotate(-10) scale(4.62927 3.83991)">
<stop stop-color="#743C1C"/>
<stop offset="1" stop-color="#401C02"/>
</radialGradient>
<linearGradient id="paint14_linear_602_11182" x1="31.1958" y1="22.7336" x2="29.7842" y2="14.7281" gradientUnits="userSpaceOnUse">
<stop stop-color="#FFDE43"/>
<stop offset="0.22" stop-color="#FED93F"/>
<stop offset="0.51" stop-color="#FCC934"/>
<stop offset="0.82" stop-color="#F9AF21"/>
<stop offset="1" stop-color="#F79D14"/>
</linearGradient>
<radialGradient id="paint15_radial_602_11182" cx="0" cy="0" r="1" gradientUnits="userSpaceOnUse" gradientTransform="translate(20.608 3.60018) rotate(80) scale(41.4035)">
<stop stop-color="#FFDE43"/>
<stop offset="1" stop-color="#FFBC00"/>
</radialGradient>
<linearGradient id="paint16_linear_602_11182" x1="31.5788" y1="32.58" x2="47.7615" y2="16.3973" gradientUnits="userSpaceOnUse">
<stop offset="0.0825904" stop-color="#E88B00"/>
<stop offset="0.1269" stop-color="#EA9206"/>
<stop offset="0.3512" stop-color="#F3B320"/>
<stop offset="0.5663" stop-color="#FACB34"/>
<stop offset="0.7664" stop-color="#FED93F"/>
<stop offset="0.9366" stop-color="#FFDE43"/>
</linearGradient>
<linearGradient id="paint17_linear_602_11182" x1="53.8986" y1="23.7806" x2="30.4746" y2="23.7806" gradientUnits="userSpaceOnUse">
<stop stop-color="#ED5700"/>
<stop offset="0.0354845" stop-color="#EE5F03" stop-opacity="0.9573"/>
<stop offset="0.2673" stop-color="#F58F15" stop-opacity="0.6785"/>
<stop offset="0.4717" stop-color="#FBB223" stop-opacity="0.4326"/>
<stop offset="0.6389" stop-color="#FEC72B" stop-opacity="0.2314"/>
<stop offset="0.7481" stop-color="#FFCF2E" stop-opacity="0.1"/>
</linearGradient>
</defs>
</svg>
