<svg width="158" height="163" viewBox="0 0 158 163" fill="none" xmlns="http://www.w3.org/2000/svg">
<path d="M16.6183 71.7352C16.6183 71.7352 44.3118 70.6262 50.2964 25.104C55.6109 -15.3242 102.309 3.07724 115.808 19.1928C133.295 40.0693 123.973 75.9811 146.594 80.5178C169.215 85.0545 154.443 135.495 120.106 130.667C77.3915 124.661 87.7259 149.621 74.9033 160.185C65.7008 167.767 27.9671 160.469 26.7095 132.945C25.6512 109.784 15.8814 109.857 8.95646 107.231C-1.03084 103.443 -7.32394 76.0122 16.6183 71.7352Z" fill="#F0FAFE"/>
<path d="M136.87 70.2409C128.92 67.664 120.328 72.0223 117.741 80.005C115.164 87.955 119.522 96.5465 127.505 99.1338C135.488 101.721 144.057 97.3201 146.634 89.3697C149.212 81.4193 144.82 72.8177 136.87 70.2409ZM134.471 77.6419C135.361 77.9304 136.145 78.4766 136.724 79.2113C137.303 79.9461 137.651 80.8362 137.723 81.7688C137.795 82.7015 137.589 83.6346 137.13 84.4499C136.672 85.2651 135.981 85.9258 135.147 86.3481C134.312 86.7703 133.37 86.9352 132.442 86.8217C131.513 86.7082 130.64 86.3216 129.931 85.7107C129.223 85.0999 128.711 84.2924 128.463 83.3906C128.214 82.4889 128.238 81.5336 128.533 80.6458C129.329 78.1896 132.014 76.8458 134.471 77.6419ZM128.469 96.1605C125.828 95.3088 123.565 93.5653 122.067 91.2286C124.869 89.6367 127.798 89.1933 130.449 90.0523C133.099 90.9113 135.254 92.9668 136.546 95.9214C133.963 96.9356 131.107 97.0201 128.469 96.1605Z" fill="#065373"/>
<path d="M21.1674 44.9972C13.5741 48.488 10.2077 57.5144 13.7129 65.1388C17.2037 72.732 26.23 76.0985 33.8544 72.5932C41.4789 69.0878 44.7999 60.0452 41.3093 52.4513C37.8186 44.8574 28.7609 41.5061 21.1674 44.9972ZM24.4172 52.066C25.2671 51.6753 26.214 51.5458 27.1376 51.6939C28.0613 51.8421 28.9201 52.2612 29.6052 52.8982C30.2903 53.5351 30.7708 54.3612 30.9857 55.2716C31.2007 56.182 31.1404 57.1358 30.8125 58.0119C30.4847 58.888 29.904 59.647 29.1442 60.1926C28.3843 60.7382 27.4796 61.0459 26.5446 61.0766C25.6097 61.1073 24.6867 60.8596 23.8927 60.365C23.0987 59.8704 22.4695 59.1511 22.0849 58.2984C21.0064 55.9524 22.071 53.1448 24.4172 52.066ZM32.5488 69.7533C30.0291 70.9163 27.1834 71.1671 24.4991 70.4628C25.4812 67.3938 27.3355 65.083 29.8667 63.9193C32.398 62.7556 35.3756 62.8074 38.328 64.105C37.115 66.6011 35.072 68.5979 32.5488 69.7533Z" fill="#065373"/>
<path d="M50.5641 116.84C49.1832 117.545 48.0423 118.644 47.2858 119.997C46.5292 121.35 46.1909 122.897 46.3137 124.443C46.4364 125.988 47.0147 127.463 47.9754 128.68C48.9362 129.897 50.2361 130.801 51.711 131.279C53.1858 131.757 54.7693 131.787 56.2611 131.365C57.753 130.943 59.0862 130.088 60.0922 128.909C61.0983 127.729 61.7319 126.278 61.913 124.738C62.0941 123.198 61.8145 121.639 61.1097 120.258C60.1628 118.408 58.5207 117.009 56.5437 116.369C54.5667 115.728 52.4162 115.898 50.5641 116.84ZM52.3899 120.417C52.82 120.198 53.3056 120.111 53.7851 120.168C54.2646 120.224 54.7165 120.422 55.0833 120.736C55.4502 121.05 55.7155 121.466 55.8456 121.931C55.9758 122.396 55.9649 122.89 55.8143 123.348C55.6637 123.807 55.3803 124.211 54.9999 124.508C54.6195 124.806 54.1594 124.984 53.6778 125.019C53.1962 125.055 52.7149 124.947 52.295 124.708C51.875 124.47 51.5353 124.112 51.319 123.68C51.0322 123.105 50.9838 122.44 51.1843 121.829C51.3848 121.218 51.8179 120.711 52.3899 120.417V120.417ZM56.9582 129.367C55.6833 130.02 54.221 130.21 52.8217 129.904C53.2632 128.3 54.1706 127.069 55.4517 126.415C56.7328 125.761 58.2693 125.725 59.8194 126.332C59.2465 127.645 58.2351 128.718 56.9582 129.367V129.367Z" fill="#065373"/>
</svg>
