<svg width="25" height="25" viewBox="0 0 25 25" fill="none" xmlns="http://www.w3.org/2000/svg">
<path d="M21.5 8.14394H3.5C3.09 8.14394 2.75 7.80394 2.75 7.39394C2.75 6.98394 3.09 6.64394 3.5 6.64394H21.5C21.91 6.64394 22.25 6.98394 22.25 7.39394C22.25 7.80394 21.91 8.14394 21.5 8.14394Z" fill="#141C1F"/>
<path d="M21.5 13.1439H3.5C3.09 13.1439 2.75 12.8039 2.75 12.3939C2.75 11.9839 3.09 11.6439 3.5 11.6439H21.5C21.91 11.6439 22.25 11.9839 22.25 12.3939C22.25 12.8039 21.91 13.1439 21.5 13.1439Z" fill="#141C1F"/>
<path d="M21.5 18.1439H3.5C3.09 18.1439 2.75 17.8039 2.75 17.3939C2.75 16.9839 3.09 16.6439 3.5 16.6439H21.5C21.91 16.6439 22.25 16.9839 22.25 17.3939C22.25 17.8039 21.91 18.1439 21.5 18.1439Z" fill="#141C1F"/>
</svg>
