<svg width="142" height="54" viewBox="0 0 142 54" fill="none" xmlns="http://www.w3.org/2000/svg">
<rect x="0.5" y="0.5" width="141" height="52.2586" rx="8.5" fill="#141C1F"/>
<path fill-rule="evenodd" clip-rule="evenodd" d="M54.6139 32.953H49.8615L48.7202 36.39H46.7073L51.2087 23.6741H53.3001L57.8015 36.39H55.7542L54.6139 32.953ZM50.3537 31.367H54.1208L52.2637 25.7891H52.2118L50.3537 31.367ZM67.523 31.755C67.523 34.636 66.0111 36.487 63.7295 36.487C62.5501 36.5499 61.4393 35.9199 60.8694 34.865H60.8262V39.4569H58.9604V27.1191H60.7665V28.6611H60.8008C61.396 27.6128 62.508 26.983 63.6952 27.0221C66.0022 27.0221 67.523 28.8821 67.523 31.755ZM65.6051 31.755C65.6051 29.8781 64.6541 28.6441 63.2029 28.6441C61.7773 28.6441 60.8184 29.9041 60.8184 31.755C60.8184 33.623 61.7773 34.874 63.2029 34.874C64.6541 34.874 65.6051 33.649 65.6051 31.755ZM77.5278 31.755C77.5278 34.636 76.0159 36.487 73.7343 36.487C72.555 36.5499 71.4441 35.9199 70.8743 34.865H70.8311V39.4569H68.9652V27.1191H70.7713V28.6611H70.8056C71.4008 27.6128 72.5129 26.9831 73.7 27.0221C76.0071 27.0221 77.5278 28.8821 77.5278 31.755ZM75.61 31.755C75.61 29.8781 74.6589 28.6441 73.2078 28.6441C71.7822 28.6441 70.8233 29.9041 70.8233 31.755C70.8233 33.623 71.7822 34.874 73.2078 34.874C74.6589 34.874 75.61 33.649 75.61 31.755ZM84.1402 32.847C84.2785 34.108 85.4796 34.936 87.1209 34.936C88.6936 34.936 89.8251 34.108 89.8251 32.971C89.8251 31.984 89.1427 31.393 87.5268 30.988L85.911 30.591C83.6216 30.027 82.5587 28.935 82.5587 27.163C82.5587 24.9691 84.4334 23.4621 87.0954 23.4621C89.73 23.4621 91.536 24.9691 91.5968 27.163H89.7133C89.6005 25.8941 88.572 25.1281 87.0689 25.1281C85.5658 25.1281 84.5373 25.9031 84.5373 27.0311C84.5373 27.93 85.1942 28.459 86.8013 28.864L88.1749 29.208C90.733 29.825 91.7958 30.873 91.7958 32.7329C91.7958 35.1119 89.9378 36.6019 86.9826 36.6019C84.2177 36.6019 82.3508 35.1469 82.2302 32.8469L84.1402 32.847ZM95.8227 24.9251V27.1191H97.5513V28.6261H95.8227V33.737C95.8227 34.531 96.1688 34.901 96.9287 34.901C97.1339 34.8973 97.3388 34.8827 97.5425 34.857V36.3549C97.2009 36.4201 96.8536 36.4495 96.5061 36.4429C94.6657 36.4429 93.948 35.738 93.948 33.94V28.6261H92.6263V27.1191H93.948V24.9251H95.8227ZM98.5524 31.755C98.5524 28.8381 100.237 27.0051 102.864 27.0051C105.499 27.0051 107.176 28.838 107.176 31.755C107.176 34.68 105.508 36.505 102.864 36.505C100.22 36.505 98.5524 34.68 98.5524 31.755ZM105.275 31.755C105.275 29.7541 104.376 28.5731 102.864 28.5731C101.352 28.5731 100.454 29.7631 100.454 31.755C100.454 33.764 101.352 34.936 102.864 34.936C104.376 34.936 105.275 33.764 105.275 31.755ZM108.714 27.1191H110.494V28.6971H110.537C110.785 27.6813 111.698 26.9821 112.723 27.0221C112.938 27.0213 113.153 27.0451 113.363 27.0931V28.8731C113.091 28.7885 112.808 28.7496 112.524 28.7581C111.976 28.7354 111.445 28.9583 111.071 29.3684C110.697 29.7785 110.518 30.3347 110.58 30.891V36.39H108.714L108.714 27.1191ZM121.965 33.667C121.714 35.35 120.107 36.505 118.051 36.505C115.407 36.505 113.766 34.698 113.766 31.799C113.766 28.8911 115.416 27.0051 117.973 27.0051C120.488 27.0051 122.069 28.7671 122.069 31.578V32.23H115.649V32.345C115.589 33.0352 115.823 33.7184 116.291 34.2208C116.759 34.7233 117.416 34.9965 118.094 34.971C119 35.0575 119.854 34.5272 120.194 33.667L121.965 33.667ZM115.658 30.9001L120.202 30.9C120.236 30.2799 120.015 29.6734 119.592 29.2267C119.169 28.7801 118.582 28.5337 117.973 28.5471C117.359 28.5433 116.769 28.7898 116.335 29.2316C115.9 29.6735 115.656 30.2741 115.658 30.9001ZM50.1198 14.1028C50.912 14.0448 51.6878 14.3522 52.2339 14.9403C52.7799 15.5284 53.0386 16.3352 52.9387 17.1388C52.9387 19.0907 51.9043 20.2128 50.1198 20.2128H47.9559V14.1028H50.1198ZM48.8864 19.3487H50.0159C50.582 19.3832 51.1332 19.1557 51.5165 18.7294C51.8997 18.3031 52.0743 17.7234 51.9916 17.1512C52.0682 16.5814 51.8912 16.0064 51.5089 15.5836C51.1266 15.1608 50.579 14.9344 50.0159 14.9662H48.8864V19.3487ZM53.9898 17.9052C53.9123 17.0787 54.3009 16.2789 54.9926 15.8411C55.6843 15.4034 56.5595 15.4034 57.2512 15.8411C57.9429 16.2789 58.3315 17.0787 58.254 17.9052C58.3329 18.7326 57.9447 19.534 57.2524 19.9727C56.5601 20.4114 55.6837 20.4114 54.9914 19.9727C54.299 19.534 53.9108 18.7326 53.9898 17.9052ZM57.3362 17.9052C57.3362 16.9057 56.896 16.3212 56.1234 16.3212C55.3478 16.3212 54.9115 16.9057 54.9115 17.9052C54.9115 18.9127 55.3478 19.4927 56.1234 19.4927C56.896 19.4927 57.3362 18.9087 57.3362 17.9052ZM63.9221 20.2127H62.9966L62.0622 16.8167H61.9916L61.0611 20.2127H60.1443L58.8981 15.6017H59.8031L60.613 19.1202H60.6797L61.6092 15.6017H62.4651L63.3946 19.1202H63.4652L64.2712 15.6017H65.1634L63.9221 20.2127ZM66.2116 15.6017H67.0705V16.3342H67.1372C67.369 15.7949 67.9108 15.465 68.4863 15.5127C68.9319 15.4786 69.3686 15.6529 69.673 15.9865C69.9774 16.3202 70.1166 16.7769 70.0512 17.2277V20.2126H69.1589V17.4562C69.1589 16.7152 68.8432 16.3467 68.1833 16.3467C67.8811 16.3324 67.5878 16.4534 67.3803 16.6779C67.1728 16.9025 67.0718 17.2084 67.1038 17.5152V20.2127H66.2116L66.2116 15.6017ZM71.4729 13.8018H72.3651V20.2127H71.4729V13.8018ZM73.6054 17.9052C73.5279 17.0787 73.9166 16.2788 74.6083 15.841C75.3001 15.4033 76.1754 15.4033 76.8671 15.841C77.5589 16.2788 77.9475 17.0787 77.87 17.9052C77.9489 18.7326 77.5606 19.534 76.8683 19.9727C76.1759 20.4114 75.2995 20.4114 74.6071 19.9727C73.9148 19.534 73.5265 18.7326 73.6054 17.9052ZM76.9518 17.9052C76.9518 16.9057 76.5116 16.3212 75.7389 16.3212C74.9634 16.3212 74.5271 16.9057 74.5271 17.9052C74.5271 18.9127 74.9634 19.4927 75.7389 19.4927C76.5116 19.4927 76.9518 18.9087 76.9518 17.9052ZM78.8093 18.9087C78.8093 18.0787 79.4153 17.6002 80.4909 17.5322L81.7155 17.4602V17.0622C81.7155 16.5752 81.3998 16.3002 80.7899 16.3002C80.2918 16.3002 79.9467 16.4867 79.8477 16.8127H78.9839C79.0751 16.0207 79.8055 15.5128 80.8311 15.5128C81.9646 15.5128 82.6038 16.0882 82.6038 17.0622V20.2127H81.7449V19.5647H81.6743C81.3826 20.0379 80.8638 20.3145 80.3163 20.2887C79.9326 20.3294 79.5498 20.2026 79.2626 19.9397C78.9755 19.6768 78.8109 19.3023 78.8093 18.9087ZM81.7155 18.5147V18.1292L80.6115 18.2012C79.9889 18.2437 79.7065 18.4597 79.7065 18.8662C79.7065 19.2812 80.0595 19.5227 80.5448 19.5227C80.8322 19.5524 81.119 19.4618 81.3397 19.2718C81.5604 19.0818 81.696 18.8086 81.7155 18.5147ZM83.7765 17.9052C83.7765 16.4482 84.5109 15.5253 85.6531 15.5253C86.2299 15.4981 86.7701 15.8134 87.0395 16.3342H87.1062V13.8018H87.9984V20.2127H87.1435V19.4842H87.0729C86.7831 20.0007 86.2362 20.3106 85.6531 20.2887C84.503 20.2887 83.7765 19.3657 83.7765 17.9052ZM84.6982 17.9052C84.6982 18.8832 85.1502 19.4717 85.9061 19.4717C86.6581 19.4717 87.1229 18.8747 87.1229 17.9092C87.1229 16.9482 86.6533 16.3427 85.9061 16.3427C85.155 16.3427 84.6982 16.9352 84.6982 17.9052ZM91.69 17.9052C91.6124 17.0787 92.001 16.2789 92.6927 15.8411C93.3844 15.4034 94.2597 15.4034 94.9514 15.8411C95.6431 16.2789 96.0316 17.0787 95.9541 17.9052C96.0331 18.7326 95.6449 19.534 94.9526 19.9727C94.2603 20.4114 93.3838 20.4114 92.6915 19.9727C91.9992 19.534 91.611 18.7326 91.69 17.9052ZM95.0364 17.9052C95.0364 16.9057 94.5961 16.3212 93.8235 16.3212C93.048 16.3212 92.6117 16.9057 92.6117 17.9052C92.6117 18.9127 93.048 19.4927 93.8235 19.4927C94.5961 19.4927 95.0364 18.9087 95.0364 17.9052ZM97.1513 15.6017H98.0102V16.3342H98.0769C98.3087 15.7949 98.8505 15.465 99.426 15.5127C99.8716 15.4786 100.308 15.6529 100.613 15.9865C100.917 16.3202 101.056 16.7769 100.991 17.2277V20.2126H100.099V17.4562C100.099 16.7152 99.7829 16.3467 99.123 16.3467C98.8208 16.3324 98.5275 16.4534 98.32 16.6779C98.1125 16.9025 98.0115 17.2084 98.0435 17.5152V20.2127H97.1513V15.6017ZM106.033 14.4538V15.6227H107.012V16.3892H106.033V18.7602C106.033 19.2432 106.228 19.4547 106.672 19.4547C106.786 19.4543 106.899 19.4473 107.012 19.4337V20.1917C106.852 20.2209 106.689 20.2365 106.527 20.2382C105.534 20.2382 105.139 19.8822 105.139 18.9932V16.3892H104.422V15.6227H105.139V14.4538H106.033ZM108.231 13.8018H109.115V16.3427H109.186C109.429 15.7987 109.98 15.4684 110.564 15.5167C111.007 15.4922 111.438 15.6703 111.739 16.0027C112.04 16.3352 112.18 16.7872 112.121 17.2357V20.2127H111.228V17.4602C111.228 16.7237 110.892 16.3507 110.261 16.3507C109.951 16.3248 109.645 16.4398 109.426 16.6652C109.206 16.8906 109.095 17.2033 109.123 17.5197V20.2127H108.231L108.231 13.8018ZM117.324 18.9677C117.074 19.8375 116.248 20.3994 115.365 20.3017C114.762 20.3179 114.183 20.0631 113.78 19.6047C113.378 19.1464 113.194 18.531 113.276 17.9217C113.196 17.3107 113.38 16.6943 113.78 16.2321C114.18 15.77 114.756 15.5075 115.361 15.5127C116.619 15.5127 117.378 16.3893 117.378 17.8372V18.1547H114.185V18.2057C114.157 18.5479 114.272 18.8863 114.501 19.1378C114.73 19.3893 115.053 19.5305 115.389 19.5267C115.826 19.5801 116.251 19.3593 116.465 18.9677L117.324 18.9677ZM114.185 17.4817H116.469C116.492 17.1688 116.384 16.8606 116.172 16.6331C115.96 16.4057 115.664 16.28 115.356 16.2872C115.044 16.2832 114.744 16.4078 114.524 16.6327C114.303 16.8576 114.181 17.1638 114.185 17.4817ZM36.5363 26.763C36.5386 28.9112 37.8286 30.8498 39.8124 31.6867C39.4309 32.9228 38.8558 34.0909 38.1084 35.1479C37.1046 36.6453 36.0522 38.1083 34.3819 38.1353C32.7588 38.1727 32.2134 37.1827 30.3518 37.1827C28.4728 37.1827 27.8914 38.1083 26.3347 38.1727C24.744 38.2314 23.5282 36.5744 22.488 35.0911C20.4089 32.0617 18.7899 26.5539 20.9604 22.8063C21.9796 20.9797 23.8853 19.8206 25.9802 19.7531C27.5724 19.7205 29.051 20.8255 30.0299 20.8255C30.9902 20.8255 32.8172 19.5036 34.7018 19.7009C36.4931 19.7568 38.153 20.6517 39.181 22.1158C37.5589 23.1103 36.5608 24.8642 36.5363 26.763ZM33.4706 17.7086C32.587 18.8046 31.2482 19.4359 29.8381 19.4214C29.7484 18.0472 30.2102 16.6938 31.1217 15.6593C32.0447 14.6107 33.33 13.9475 34.7214 13.8018C34.8301 15.2167 34.3814 16.6182 33.4706 17.7086Z" fill="white"/>
<rect x="0.5" y="0.5" width="141" height="52.2586" rx="8.5" stroke="white"/>
</svg>
