<svg width="142" height="54" viewBox="0 0 142 54" fill="none" xmlns="http://www.w3.org/2000/svg">
<rect x="0.5" y="0.5" width="141" height="52.2586" rx="8.5" fill="#141C1F"/>
<path fill-rule="evenodd" clip-rule="evenodd" d="M49.8471 16.4C49.8808 17.1443 49.6147 17.8702 49.1109 18.4083C48.548 19.0066 47.7628 19.3315 46.9515 19.302C45.7073 19.292 44.5901 18.52 44.1165 17.3428C43.643 16.1657 43.9054 14.8128 44.7823 13.9097C45.3522 13.3146 46.1374 12.9874 46.9515 13.006C47.3665 13.0046 47.7774 13.09 48.1589 13.257C48.514 13.4036 48.8302 13.6341 49.0815 13.9298L48.5613 14.462C48.1641 13.9787 47.5678 13.7146 46.9515 13.7491C46.332 13.746 45.738 14.0012 45.3065 14.4559C44.875 14.9106 44.6432 15.5256 44.6646 16.159C44.6514 17.1162 45.2024 17.9874 46.0612 18.3674C46.92 18.7474 47.918 18.5615 48.5907 17.8962C48.8928 17.5613 49.067 17.1265 49.0815 16.6711H46.9515V15.9481H49.8078C49.834 16.0973 49.8472 16.2485 49.8471 16.4ZM54.3426 13.8896H51.6924V15.7975H54.107V16.5205H51.6924V18.4284H54.3426V19.1715H50.9072V13.1466H54.3426V13.8896ZM57.562 19.1715H56.8063V13.8896H55.1573V13.1466H59.2503V13.8896H57.562V19.1715ZM62.136 19.1715V13.1466H62.8918V19.1715H62.136ZM66.2487 19.1715H65.4929V13.8896H63.8439V13.1466H67.8879V13.8896H66.2487V19.1715ZM75.5538 18.3882C74.3592 19.6035 72.4295 19.6035 71.235 18.3882C70.077 17.1343 70.077 15.1737 71.235 13.9198C71.8062 13.3311 72.5835 13 73.3944 13C74.2052 13 74.9825 13.3311 75.5538 13.9198C76.7167 15.1717 76.7167 17.1363 75.5538 18.3882ZM71.7944 17.8861C72.6791 18.7874 74.1096 18.7874 74.9943 17.8861C75.8631 16.9063 75.8631 15.4118 74.9943 14.4319C74.1096 13.5306 72.6791 13.5306 71.7944 14.4319C70.9256 15.4118 70.9256 16.9063 71.7944 17.8861ZM77.4874 19.1715V13.1466H78.41L81.2762 17.8359V13.1466H82.032V19.1715H81.2467L78.253 14.2612V19.1715H77.4874ZM70.1847 27.9577C71.2993 27.9358 72.3748 28.3778 73.1649 29.1823C73.955 29.9868 74.3921 31.085 74.3759 32.2254C74.3759 34.5797 72.5122 36.4893 70.2109 36.4929C67.9095 36.4966 66.04 34.593 66.0328 32.2387C66.0256 29.8844 67.8834 27.9688 70.1847 27.9577ZM70.1847 34.8161C70.8358 34.8006 71.4531 34.5168 71.8967 34.029C72.3402 33.5412 72.5724 32.8908 72.5404 32.2254C72.5379 31.1616 71.9 30.2076 70.9319 29.8195C69.9637 29.4315 68.8621 29.6883 68.1539 30.4671C67.4456 31.246 67.2748 32.3886 67.723 33.3484C68.1712 34.3083 69.1474 34.8903 70.1847 34.8161ZM61.0465 27.9577H61.0367C62.1513 27.9358 63.2268 28.3778 64.0169 29.1823C64.8071 29.9868 65.2441 31.085 65.2279 32.2254C65.2279 34.581 63.3622 36.4911 61.0596 36.493C58.757 36.4948 56.8884 34.5877 56.8848 32.232C56.8812 29.8764 58.7439 27.9633 61.0465 27.9577ZM61.0465 34.8161H61.0367C61.6878 34.8006 62.3051 34.5168 62.7487 34.029C63.1922 33.5412 63.4244 32.8908 63.3924 32.2254C63.3896 31.1608 62.7504 30.2063 61.7811 29.8191C60.8117 29.4319 59.7095 29.6908 59.0023 30.4718C58.2951 31.2528 58.1269 32.3969 58.5783 33.3561C59.0297 34.3154 60.0087 34.8945 61.0465 34.8161ZM50.1612 29.2732L56.1192 29.223C56.1876 29.5971 56.2205 29.9771 56.2173 30.3577C56.2635 31.9199 55.7145 33.4393 54.6861 34.5952C53.511 35.854 51.861 36.5314 50.1612 36.4528C47.7848 36.5474 45.5483 35.3044 44.3326 33.2134C43.117 31.1224 43.117 28.5185 44.3326 26.4275C45.5483 24.3365 47.7848 23.0934 50.1612 23.188C51.8305 23.1732 53.4346 23.8506 54.6076 25.0658L53.361 26.3411C52.501 25.4916 51.3467 25.0258 50.1514 25.0457C47.5493 25.0457 45.44 27.2037 45.44 29.8656C45.44 32.5276 47.5493 34.6855 50.1514 34.6855C51.3749 34.7354 52.5621 34.254 53.4199 33.3601C53.9891 32.7353 54.335 31.932 54.4015 31.0806H50.1612V29.2732ZM94.635 30.679L94.8411 31.1308L89.2561 33.4906C89.6062 34.3062 90.4081 34.8199 91.2781 34.7859C92.1182 34.7881 92.8974 34.338 93.3295 33.6011L94.7528 34.6052C93.978 35.7915 92.6727 36.5007 91.2781 36.493C90.1695 36.5096 89.102 36.0643 88.3208 35.2595C87.5396 34.4546 87.1119 33.3593 87.136 32.2254C87.0682 31.1173 87.4517 30.03 88.1954 29.2215C88.9392 28.413 89.9769 27.9556 91.0622 27.9577C92.6895 28.019 94.1109 29.1017 94.635 30.679ZM88.942 32.1049L92.6719 30.5183C92.3785 29.9266 91.7683 29.571 91.1211 29.6146C90.5071 29.6429 89.9301 29.9229 89.5201 30.3914C89.1102 30.8599 88.9018 31.4774 88.942 32.1049ZM84.4073 36.242V23.6901H86.2428V36.242H84.4073ZM81.4038 28.9117V28.2088H83.092V35.8102C83.092 38.9632 81.3154 40.2585 79.1658 40.2585C77.5455 40.2684 76.0815 39.2713 75.4654 37.7381L77.0653 37.0553C77.3998 37.95 78.2297 38.5492 79.1658 38.5716C80.54 38.5716 81.3939 37.698 81.3939 36.0612V35.4487H81.3351C80.7834 36.0996 79.9784 36.4673 79.1364 36.4528C76.9084 36.3423 75.1575 34.4621 75.1575 32.1802C75.1575 29.8982 76.9084 28.0181 79.1364 27.9075C79.9757 27.9064 80.7755 28.2717 81.3351 28.9117H81.4038ZM79.3033 34.8161H79.2934C79.9314 34.791 80.5314 34.4999 80.9542 34.0105C81.3769 33.5212 81.5855 32.8761 81.5314 32.2254C81.5798 31.5776 81.3706 30.9373 80.9511 30.4495C80.5317 29.9618 79.9374 29.668 79.3033 29.6347C77.9908 29.753 76.9842 30.8775 76.9842 32.2254C76.9842 33.5732 77.9908 34.6977 79.3033 34.8161ZM103.243 23.6901C104.669 23.5853 106.033 24.3041 106.777 25.5528C107.521 26.8015 107.521 28.3709 106.777 29.6196C106.033 30.8683 104.669 31.5871 103.243 31.4823H100.681V36.242H98.8458V23.6901H103.243ZM103.233 29.715L103.273 29.7451C104.435 29.7451 105.378 28.7808 105.378 27.5912C105.378 26.4017 104.435 25.4373 103.273 25.4373H100.671V29.715H103.233ZM114.551 27.9075L114.6 27.9377C116.69 27.9377 118.32 29.2129 118.32 31.412V36.242H116.553V35.2378H116.494C115.983 36.0499 115.08 36.512 114.138 36.4428C113.374 36.5006 112.62 36.2397 112.047 35.7196C111.474 35.1995 111.131 34.4643 111.095 33.6814C111.095 31.8639 112.872 30.8597 114.629 30.8597C115.296 30.8568 115.954 31.0224 116.543 31.3417V31.2112C116.496 30.7288 116.262 30.2858 115.893 29.9818C115.524 29.6778 115.051 29.5383 114.58 29.5945C113.894 29.5371 113.24 29.8994 112.911 30.5183L111.282 29.8255C111.901 28.5774 113.185 27.824 114.551 27.9075ZM114.325 34.7859L114.374 34.8161C115.48 34.7885 116.397 33.9318 116.523 32.8078C116.014 32.517 115.438 32.3713 114.855 32.386C113.932 32.386 112.892 32.7174 112.892 33.7215C112.892 34.4747 113.726 34.7859 114.325 34.7859ZM124.759 28.2088H126.8L121.775 40.0477H119.861L121.726 35.8202L118.457 28.2088H120.42L122.599 33.6513H122.658L124.759 28.2088ZM108.259 36.242V23.6901H110.094V36.242H108.259ZM35.58 25.7942C35.8281 25.9376 35.9764 26.1945 35.9764 26.4811C35.9764 26.7677 35.8281 27.0245 35.58 27.1676L31.0763 29.7671L27.9147 26.711L31.374 23.3671L35.58 25.7942ZM30.6601 22.9547L27.3447 26.1598L15.8877 15.0845L26.0315 20.2827L30.6601 22.9547ZM16.0561 38.1741L27.3447 27.2621L30.3624 30.1795L26.0489 32.6696L16.0561 38.1741ZM15.2109 15.5328L26.7746 26.7108L15.2002 37.8995L15.2109 15.5328Z" fill="white"/>
<rect x="0.5" y="0.5" width="141" height="52.2586" rx="8.5" stroke="white"/>
</svg>
