<svg width="44" height="44" viewBox="0 0 44 44" fill="none" xmlns="http://www.w3.org/2000/svg">
<rect width="44" height="44" rx="22" fill="#065373"/>
<path d="M31.0003 13C30.0853 13 29.2453 12.475 28.8253 11.665L27.7453 9.49C27.0553 8.125 25.2553 7 23.7253 7H20.2903C18.7453 7 16.9453 8.125 16.2553 9.49L15.1753 11.665C14.7553 12.475 13.9153 13 13.0003 13C9.74525 13 7.16525 15.745 7.37525 18.985L8.15525 31.375C8.33525 34.465 10.0003 37 14.1403 37H29.8603C34.0003 37 35.6503 34.465 35.8453 31.375L36.6253 18.985C36.8353 15.745 34.2553 13 31.0003 13ZM19.7503 14.875H24.2503C24.8653 14.875 25.3753 15.385 25.3753 16C25.3753 16.615 24.8653 17.125 24.2503 17.125H19.7503C19.1353 17.125 18.6253 16.615 18.6253 16C18.6253 15.385 19.1353 14.875 19.7503 14.875ZM22.0003 31.18C19.2103 31.18 16.9303 28.915 16.9303 26.11C16.9303 23.305 19.1953 21.04 22.0003 21.04C24.8053 21.04 27.0703 23.305 27.0703 26.11C27.0703 28.915 24.7903 31.18 22.0003 31.18Z" fill="white"/>
</svg>
