<svg width="36" height="36" viewBox="0 0 36 36" fill="none" xmlns="http://www.w3.org/2000/svg">
<rect width="36" height="36" rx="8" fill="#2E63EA"/>
<path d="M14.667 26.5998C14.4337 26.5998 14.192 26.5415 13.9753 26.4249C13.5003 26.1749 13.2087 25.6748 13.2087 25.1415V23.9582C10.692 23.6999 9.04199 21.8498 9.04199 19.1998V14.1999C9.04199 11.3332 10.967 9.4082 13.8337 9.4082H22.167C25.0337 9.4082 26.9587 11.3332 26.9587 14.1999V19.1998C26.9587 22.0665 25.0337 23.9915 22.167 23.9915H19.0253L15.4753 26.3582C15.2336 26.5166 14.9503 26.5998 14.667 26.5998ZM13.8337 10.6499C11.6837 10.6499 10.292 12.0415 10.292 14.1915V19.1916C10.292 21.3416 11.6837 22.7332 13.8337 22.7332C14.1753 22.7332 14.4587 23.0166 14.4587 23.3582V25.1332C14.4587 25.2416 14.5253 25.2916 14.567 25.3166C14.6087 25.3416 14.692 25.3666 14.7837 25.3082L18.492 22.8416C18.592 22.7749 18.717 22.7332 18.842 22.7332H22.1753C24.3253 22.7332 25.717 21.3416 25.717 19.1916V14.1915C25.717 12.0415 24.3253 10.6499 22.1753 10.6499H13.8337Z" fill="white"/>
<path d="M17.9995 18.0918C17.6579 18.0918 17.3745 17.8085 17.3745 17.4668V17.2918C17.3745 16.3252 18.0828 15.8502 18.3495 15.6668C18.6578 15.4585 18.7578 15.3168 18.7578 15.1002C18.7578 14.6835 18.4162 14.3418 17.9995 14.3418C17.5829 14.3418 17.2412 14.6835 17.2412 15.1002C17.2412 15.4418 16.9579 15.7252 16.6162 15.7252C16.2745 15.7252 15.9912 15.4418 15.9912 15.1002C15.9912 13.9918 16.8912 13.0918 17.9995 13.0918C19.1079 13.0918 20.0078 13.9918 20.0078 15.1002C20.0078 16.0502 19.3079 16.5251 19.0495 16.7001C18.7245 16.9168 18.6245 17.0585 18.6245 17.2918V17.4668C18.6245 17.8168 18.3412 18.0918 17.9995 18.0918Z" fill="white"/>
<path d="M18 20.167C17.65 20.167 17.375 19.8837 17.375 19.542C17.375 19.2003 17.6583 18.917 18 18.917C18.3417 18.917 18.625 19.2003 18.625 19.542C18.625 19.8837 18.35 20.167 18 20.167Z" fill="white"/>
</svg>
