<svg width="36" height="36" viewBox="0 0 36 36" fill="none" xmlns="http://www.w3.org/2000/svg">
<rect width="36" height="36" rx="8" fill="#E71D36"/>
<path d="M17.9999 22.4579C18.7501 22.4579 19.3583 21.8497 19.3583 21.0995C19.3583 20.3494 18.7501 19.7412 17.9999 19.7412C17.2497 19.7412 16.6416 20.3494 16.6416 21.0995C16.6416 21.8497 17.2497 22.4579 17.9999 22.4579Z" fill="white"/>
<path d="M23.2337 15.942V14.9003C23.2337 12.6503 22.692 9.66699 18.0003 9.66699C13.3087 9.66699 12.767 12.6503 12.767 14.9003V15.942C10.4337 16.2337 9.66699 17.417 9.66699 20.3253V21.8753C9.66699 25.292 10.7087 26.3337 14.1253 26.3337H21.8753C25.292 26.3337 26.3337 25.292 26.3337 21.8753V20.3253C26.3337 17.417 25.567 16.2337 23.2337 15.942ZM18.0003 23.617C16.6087 23.617 15.4837 22.4837 15.4837 21.1003C15.4837 19.7087 16.617 18.5837 18.0003 18.5837C19.3837 18.5837 20.517 19.717 20.517 21.1003C20.517 22.492 19.392 23.617 18.0003 23.617ZM14.1253 15.867C14.0587 15.867 14.0003 15.867 13.9337 15.867V14.9003C13.9337 12.4587 14.6253 10.8337 18.0003 10.8337C21.3753 10.8337 22.067 12.4587 22.067 14.9003V15.8753C22.0003 15.8753 21.942 15.8753 21.8753 15.8753H14.1253V15.867Z" fill="white"/>
</svg>
