<svg width="36" height="36" viewBox="0 0 36 36" fill="none" xmlns="http://www.w3.org/2000/svg">
<rect width="36" height="36" rx="8" fill="#F6AE2D"/>
<path d="M17.4836 22.7039C17.8014 22.5121 18.1993 22.5121 18.5171 22.7039L21.1213 24.2757C21.8786 24.7328 22.8129 24.0538 22.6119 23.1924L21.9208 20.2298C21.8365 19.8683 21.9593 19.4898 22.2399 19.2468L24.5423 17.2522C25.2109 16.673 24.8535 15.5747 23.972 15.5L20.9429 15.243C20.5733 15.2116 20.2514 14.9783 20.1067 14.6368L18.921 11.8394C18.5765 11.0263 17.4242 11.0263 17.0796 11.8394L15.894 14.6368C15.7492 14.9783 15.4274 15.2116 15.0578 15.243L12.0286 15.5C11.1472 15.5747 10.7898 16.673 11.4584 17.2522L13.7608 19.2468C14.0414 19.4898 14.1642 19.8683 14.0799 20.2298L13.3887 23.1924C13.1878 24.0538 14.122 24.7328 14.8793 24.2757L17.4836 22.7039Z" fill="white"/>
</svg>
