<svg width="36" height="36" viewBox="0 0 36 36" fill="none" xmlns="http://www.w3.org/2000/svg">
<rect width="36" height="36" rx="8" fill="#F46036"/>
<path d="M21.3333 9.66699H14.6667C11.75 9.66699 10.5 11.3337 10.5 13.8337V22.167C10.5 24.667 11.75 26.3337 14.6667 26.3337H21.3333C24.25 26.3337 25.5 24.667 25.5 22.167V13.8337C25.5 11.3337 24.25 9.66699 21.3333 9.66699ZM14.6667 18.2087H18C18.3417 18.2087 18.625 18.492 18.625 18.8337C18.625 19.1753 18.3417 19.4587 18 19.4587H14.6667C14.325 19.4587 14.0417 19.1753 14.0417 18.8337C14.0417 18.492 14.325 18.2087 14.6667 18.2087ZM21.3333 22.792H14.6667C14.325 22.792 14.0417 22.5087 14.0417 22.167C14.0417 21.8253 14.325 21.542 14.6667 21.542H21.3333C21.675 21.542 21.9583 21.8253 21.9583 22.167C21.9583 22.5087 21.675 22.792 21.3333 22.792ZM23.4167 15.7087H21.75C20.4833 15.7087 19.4583 14.6837 19.4583 13.417V11.7503C19.4583 11.4087 19.7417 11.1253 20.0833 11.1253C20.425 11.1253 20.7083 11.4087 20.7083 11.7503V13.417C20.7083 13.992 21.175 14.4587 21.75 14.4587H23.4167C23.7583 14.4587 24.0417 14.742 24.0417 15.0837C24.0417 15.4253 23.7583 15.7087 23.4167 15.7087Z" fill="white"/>
</svg>
