<svg width="65" height="64" viewBox="0 0 65 64" fill="none" xmlns="http://www.w3.org/2000/svg">
<g clip-path="url(#clip0_4027_58771)">
<path d="M56.0286 0.640869H9.30859C4.89032 0.640869 1.30859 4.22258 1.30859 8.64086V55.359C1.30859 59.7772 4.89032 63.359 9.3086 63.359H56.0286C60.4469 63.359 64.0286 59.7772 64.0286 55.359V8.64087C64.0286 4.22259 60.4469 0.640869 56.0286 0.640869Z" fill="#006E53"/>
<path fill-rule="evenodd" clip-rule="evenodd" d="M27.122 44.6149C27.5325 44.6149 27.8324 44.7018 28.0219 44.8757C28.2113 45.0496 28.3061 45.32 28.3064 45.6869V47.6536H27.6907V45.7701C27.6907 45.3554 27.4581 45.148 26.9931 45.148C26.7922 45.1463 26.595 45.2018 26.4244 45.308C26.4539 45.4321 26.4678 45.5594 26.4657 45.6869V47.6536H25.85V45.7701C25.85 45.3554 25.6175 45.148 25.1524 45.148C24.9402 45.1482 24.7298 45.1864 24.531 45.2607V47.6536H23.9156V44.923C24.1194 44.8218 24.335 44.7465 24.5576 44.699C24.7949 44.6437 25.0377 44.615 25.2814 44.6133C25.6654 44.6133 25.9507 44.688 26.1374 44.8373C26.4448 44.6904 26.7813 44.6144 27.122 44.6149V44.6149ZM30.4158 47.7438C29.9465 47.7438 29.5937 47.6096 29.3575 47.341C29.1214 47.0724 29.0032 46.6814 29.003 46.1682C29.003 45.1295 29.4723 44.6102 30.411 44.6104C30.8839 44.6104 31.2396 44.7436 31.4779 45.0101C31.7162 45.2765 31.8354 45.6626 31.8356 46.1682C31.8356 46.6733 31.7125 47.0622 31.4663 47.3349C31.2202 47.6075 30.87 47.7438 30.4158 47.7438ZM30.4097 47.2165C30.9492 47.2165 31.2189 46.867 31.2187 46.1682C31.2187 45.8206 31.1547 45.561 31.0267 45.3893C30.8987 45.2176 30.6934 45.1316 30.411 45.1314C30.1258 45.1314 29.9216 45.2193 29.7985 45.395C29.6754 45.5708 29.6139 45.8285 29.6139 46.1682C29.6139 46.5076 29.6773 46.7672 29.8043 46.947C29.9312 47.1269 30.133 47.2163 30.4097 47.2152V47.2165ZM33.891 44.6162C34.3287 44.6162 34.6609 44.7484 34.8875 45.013C35.114 45.2775 35.2276 45.6522 35.2283 46.1371C35.2283 46.7217 35.0925 47.1353 34.8209 47.3781C34.5493 47.6209 34.2041 47.7428 33.7854 47.7438C32.9451 47.7438 32.5249 47.5188 32.5249 47.0686V43.4895H33.1348V44.7999C33.2575 44.7412 33.3863 44.6965 33.5188 44.6664C33.6405 44.6352 33.7654 44.6179 33.891 44.6149V44.6162ZM33.7383 47.2046C34.0583 47.2046 34.2823 47.1118 34.4103 46.9262C34.5383 46.7406 34.6023 46.4859 34.6023 46.1621C34.6023 45.8306 34.5349 45.5779 34.4001 45.404C34.2653 45.2301 34.0651 45.1433 33.7995 45.1435C33.6837 45.1443 33.5686 45.1591 33.4564 45.1877C33.3442 45.2148 33.2364 45.2579 33.1364 45.3157V46.9157C33.1354 47.1077 33.336 47.2036 33.7383 47.2034V47.2046ZM35.9239 43.6447H36.5806V44.2075H35.9239V43.6447ZM35.9415 44.699H36.5572L36.563 47.6549H35.9415V44.699ZM37.4295 47.6549V43.5547H38.0394V47.6536L37.4295 47.6549ZM40.1018 44.6079C40.5592 44.6079 40.8944 44.7572 41.1073 45.0558C41.3202 45.3545 41.4247 45.7721 41.4209 46.3086H39.3562C39.3761 46.6009 39.4614 46.8231 39.6122 46.9752C39.7631 47.1273 39.977 47.2033 40.2542 47.203C40.5861 47.2034 40.9128 47.1199 41.2039 46.9602V47.5406C40.8991 47.6761 40.5498 47.7438 40.1562 47.7438C39.7146 47.7438 39.3678 47.6086 39.1156 47.3381C38.8634 47.0676 38.7375 46.6836 38.7377 46.1861C38.7377 45.6766 38.8568 45.2868 39.0951 45.0165C39.3334 44.7462 39.669 44.61 40.1018 44.6079ZM40.0842 45.1198C39.8771 45.1198 39.715 45.1752 39.5978 45.2859C39.4807 45.3966 39.4045 45.5842 39.369 45.8485H40.7937C40.7662 45.5957 40.6958 45.4112 40.5825 45.2949C40.4692 45.1786 40.3031 45.1203 40.0842 45.1198ZM34.2043 20.7506C33.5252 20.5827 33.0026 20.4987 32.6363 20.4985C29.9038 20.4985 27.6884 22.7064 27.6884 25.4293C27.6884 28.1522 29.9047 30.3605 32.6363 30.3605C35.3678 30.3605 37.5844 28.1525 37.5844 25.4293C37.5846 25.0315 37.5367 24.6351 37.4417 24.2488L41.3754 23.1893C41.6941 24.4008 41.7543 25.6657 41.5523 26.9019C41.3502 28.1381 40.8904 29.3181 40.2026 30.365L33.6887 42.4415H27.6542L31.9422 34.5375C31.9655 34.4939 31.8967 34.3979 31.8391 34.3928C27.2571 33.9768 23.668 30.1368 23.668 25.462C23.668 20.5087 27.6968 16.4937 32.667 16.4937C33.5768 16.4927 34.4816 16.6294 35.3505 16.8991L34.2043 20.7506Z" fill="white"/>
<path d="M32.6065 28.1414C34.1043 28.1414 35.3185 26.9272 35.3185 25.4294C35.3185 23.9316 34.1043 22.7174 32.6065 22.7174C31.1087 22.7174 29.8945 23.9316 29.8945 25.4294C29.8945 26.9272 31.1087 28.1414 32.6065 28.1414Z" fill="#D6E806"/>
<path d="M40.6801 22.286C39.8349 20.1355 38.1728 18.407 36.0571 17.4783M37.2897 23.5804C36.8199 22.4042 35.9143 21.4547 34.7617 20.9298L37.2897 23.5804ZM39.0158 22.8405C38.3522 21.2093 37.0976 19.8886 35.5025 19.1423L39.0158 22.8405Z" stroke="#D6E806" stroke-width="0.5" stroke-linecap="round"/>
</g>
<defs>
<clipPath id="clip0_4027_58771">
<rect width="64" height="64" fill="white" transform="translate(0.667969)"/>
</clipPath>
</defs>
</svg>
