<svg width="65" height="64" viewBox="0 0 65 64" fill="none" xmlns="http://www.w3.org/2000/svg">
<g clip-path="url(#clip0_4027_58818)">
<path d="M55.6926 0.640869H8.97266C4.55438 0.640869 0.972656 4.22258 0.972656 8.64086V55.359C0.972656 59.7772 4.55438 63.359 8.97266 63.359H55.6927C60.1109 63.359 63.6927 59.7772 63.6927 55.359V8.64087C63.6927 4.22259 60.1109 0.640869 55.6926 0.640869Z" fill="#ED1D24"/>
<g clip-path="url(#clip1_4027_58818)">
<path d="M31.6323 27.0295C30.9912 27.0295 30.4688 27.575 30.4688 28.2458C30.4688 28.9293 30.9736 29.4636 31.6165 29.4636C32.2593 29.4636 32.7649 28.9307 32.7649 28.2541C32.7724 27.9325 32.6614 27.6274 32.4505 27.3949C32.2367 27.1592 31.9463 27.0295 31.6323 27.0295Z" fill="white"/>
<path d="M30.7109 37.6859H32.5162V30.0734L30.7109 30.3853V37.6859Z" fill="white"/>
<path d="M27.5233 36.2489C27.3454 36.3811 26.9821 36.4954 26.5861 36.4954C25.8603 36.4954 25.5333 35.905 25.5459 35.2183C25.5581 34.6502 25.8926 34.0041 26.7996 34.0041H27.5233V36.2489ZM26.7773 29.9368C25.9149 29.9368 25.1398 30.1941 24.3432 30.6148L24.1398 30.7252L24.6249 31.8707L24.8991 31.7342C25.4625 31.4668 26.0644 31.2872 26.6045 31.3112C27.2577 31.3393 27.5269 31.6573 27.5269 32.3202V32.709H26.4557C24.7363 32.709 23.6658 33.6746 23.6367 35.1719C23.6367 36.5971 24.7568 37.8228 26.3166 37.8228C27.5747 37.8228 28.639 37.3912 29.3584 36.629V32.5657C29.3584 30.5865 28.0242 29.9368 26.7773 29.9368Z" fill="white"/>
<path d="M45.4108 31.4194C46.2125 31.4194 46.3311 32.3415 46.3311 32.9142H44.3767C44.4079 32.1776 44.6983 31.4194 45.4108 31.4194ZM45.8014 36.4821C45.3066 36.4821 44.9721 36.3092 44.7529 36.0602C44.4291 35.6872 44.2836 34.9244 44.3235 34.1126H48.2165V33.9222C48.182 31.2243 47.3139 29.9961 45.4108 29.9961C43.289 29.9961 42.4621 32.0637 42.4456 34.0055C42.4327 35.233 42.87 36.472 43.6713 37.1752C44.1596 37.6054 44.8345 37.8422 45.6174 37.8422C46.0458 37.8422 46.4899 37.7768 46.8978 37.6417C47.6786 37.3865 48.2553 36.9435 48.2553 36.9435L47.7454 35.8342C47.6534 35.9071 46.8744 36.4821 45.8014 36.4821Z" fill="white"/>
<path d="M33.9631 31.4368L33.9609 37.691H35.8022V31.8037C36.0422 31.5557 36.5517 31.3376 37.0365 31.3175C37.4849 31.2981 37.7753 31.398 37.7753 31.398L38.2848 30.1874C38.0876 30.0835 37.6161 29.9571 37.0681 29.9571C36.2769 29.9571 35.0587 30.2018 33.9631 31.4368Z" fill="white"/>
<path d="M52.0422 36.4864C51.2916 36.4254 51.1346 36.0764 51.1346 35.495V27.9626L49.3242 28.2896V35.3703C49.3242 37.0481 50.1855 37.7682 51.6254 37.7682C51.933 37.7682 52.3171 37.6917 52.3171 37.6917V36.4904C52.3171 36.4904 52.1461 36.4951 52.0422 36.4864Z" fill="white"/>
<path d="M40.6201 27.9735L38.7695 28.2886V35.4042C38.7695 36.9971 39.6488 37.7524 41.1228 37.7524C41.4779 37.7524 41.8106 37.6813 41.8106 37.6813V36.4976C41.7905 36.4955 41.6546 36.4955 41.5501 36.4912C40.7725 36.4628 40.6201 36.0082 40.6201 35.485V31.4813H41.8106V30.076H40.6201V27.9735Z" fill="white"/>
<path d="M15.9282 37.4752C16.4913 37.2603 16.9383 36.9614 17.3691 36.6725L17.4863 36.5956C17.9426 36.2912 18.3878 35.9355 18.8463 35.5115C19.8604 34.5725 20.4691 33.6512 20.8177 32.5268C20.96 32.0694 21.159 31.1811 20.9143 30.3467C20.7343 29.7398 20.3865 29.2378 19.8809 28.8605C19.8227 28.8088 19.192 28.2748 18.0015 28.2748C16.9128 28.2748 15.7198 28.7189 14.4549 29.5971L14.415 29.6241L14.4089 29.6284C14.3723 29.6521 14.336 29.6762 14.2961 29.7046C14.267 29.7283 14.2357 29.7502 14.1983 29.7729C13.94 29.9586 13.692 30.1606 13.4635 30.3751C12.9292 30.9224 12.3197 31.8369 12.3571 32.6148C12.3733 32.9436 12.5034 33.2131 12.7434 33.4129C12.959 33.5915 13.2296 33.6821 13.5465 33.6821C14.194 33.6821 14.9041 33.3091 15.3899 32.9936C15.4204 32.9702 15.451 32.9476 15.4822 32.9278C15.5674 32.8689 15.6511 32.8096 15.7363 32.7485L15.8189 32.6889C16.5089 32.1995 17.2239 31.6921 18.0278 31.3967C18.2373 31.3205 18.4198 31.2849 18.5873 31.2849C18.6703 31.2849 18.7518 31.2921 18.8295 31.3123C19.0745 31.3715 19.2531 31.5189 19.3602 31.7496C19.546 32.1535 19.5018 32.788 19.2481 33.3698C18.9017 34.1611 18.3063 34.9426 17.4809 35.69C17.059 36.0713 16.6706 36.3656 16.3245 36.5639L16.2933 36.5819C16.1312 36.6764 15.9497 36.7828 15.7571 36.8586L15.7309 36.869C15.6741 36.8917 15.6253 36.9125 15.5803 36.9276C14.7726 37.1565 15.2645 36.403 15.2645 36.403C15.4424 36.1795 15.6235 35.9991 15.8164 35.8111C15.9253 35.7023 16.0381 35.5905 16.152 35.4694L16.1772 35.4417C16.3181 35.2923 16.5117 35.0882 16.5002 34.7953C16.4834 34.4047 16.1111 34.1611 15.7589 34.1506H15.7334C15.3964 34.1506 15.0766 34.3612 14.8671 34.5362C14.6583 34.7141 14.4359 34.9807 14.2867 35.2301C14.0722 35.5912 13.6195 36.5129 14.0607 37.2488C14.2371 37.5428 14.5311 37.6923 14.9357 37.6923C15.2178 37.6923 15.5512 37.6197 15.9282 37.4752Z" fill="white"/>
</g>
</g>
<defs>
<clipPath id="clip0_4027_58818">
<rect width="64" height="64" fill="white" transform="translate(0.332031)"/>
</clipPath>
<clipPath id="clip1_4027_58818">
<rect width="40" height="10.8582" fill="white" transform="translate(12.332 27.0004)"/>
</clipPath>
</defs>
</svg>
