<svg width="56" height="64" viewBox="0 0 56 64" fill="none" xmlns="http://www.w3.org/2000/svg">
<g opacity="0.8">
<path d="M18.5401 59.9201L37.0516 48.756C37.0924 48.741 37.1278 48.7132 37.1527 48.6764C37.1777 48.6395 37.1912 48.5955 37.1912 48.5503C37.1912 48.5052 37.1777 48.4612 37.1527 48.4243C37.1278 48.3875 37.0924 48.3596 37.0516 48.3447L35.3403 47.3163C35.2343 47.2606 35.1173 47.2316 34.9986 47.2316C34.88 47.2316 34.763 47.2606 34.657 47.3163L16.1395 58.4701C16.0987 58.4851 16.0634 58.5129 16.0384 58.5497C16.0134 58.5866 16 58.6306 16 58.6758C16 58.7209 16.0134 58.765 16.0384 58.8018C16.0634 58.8386 16.0987 58.8665 16.1395 58.8815L17.8568 59.9098C17.962 59.9671 18.0786 59.9979 18.1973 59.9997C18.3159 60.0015 18.4333 59.9742 18.5401 59.9201Z" fill="#E0E0E0"/>
<path d="M36.5446 5.65289L19.8527 15.7187C19.6046 15.8878 19.3981 16.1156 19.2499 16.3836C19.1018 16.6516 19.0162 16.9522 19 17.2612V58.6165C19 59.1842 19.382 59.4145 19.8527 59.1307L36.5446 49.0649C36.7931 48.8961 36.9998 48.6684 37.148 48.4004C37.2962 48.1323 37.3816 47.8314 37.3973 47.5223V6.16708C37.3973 5.59942 37.0173 5.36906 36.5446 5.65289Z" fill="#455A64"/>
<path d="M19.8509 15.7186L36.5428 5.65285C36.9642 5.39781 37.3128 5.55618 37.3837 5.99839C37.3443 5.72036 37.249 5.4542 37.1041 5.2174C36.9592 4.98059 36.7679 4.77852 36.5428 4.62447L35.8496 4.21312C35.5853 4.0731 35.2932 4.00012 34.9969 4.00012C34.7006 4.00012 34.4084 4.0731 34.1442 4.21312L17.4503 14.2707C17.1988 14.4353 16.9915 14.6639 16.8477 14.935L19.2483 16.3747C19.392 16.1058 19.5995 15.8799 19.8509 15.7186Z" fill="#37474F"/>
<path d="M16.5938 57.1688C16.6099 57.4778 16.6955 57.7784 16.8437 58.0464C16.9918 58.3144 17.1983 58.5422 17.4465 58.7113L18.1416 59.1227C18.3822 59.2484 18.6455 59.3196 18.9143 59.3317C19.1831 59.3437 19.4513 59.2963 19.7013 59.1926C19.3075 59.3531 18.9943 59.1165 18.9943 58.6085V17.2615C19.0042 16.9511 19.0903 16.6487 19.2444 16.3832L16.8439 14.9435C16.6919 15.207 16.6059 15.5062 16.5938 15.8135V57.1688Z" fill="#263238"/>
<path d="M20.3108 21.2291L36.0909 11.7166C36.3745 11.548 36.6029 11.6858 36.6029 12.0251V42.6338C36.5934 42.8193 36.5421 42.9999 36.4531 43.1607C36.3642 43.3216 36.24 43.4582 36.0909 43.5594L20.3167 53.0719C20.0331 53.2426 19.8047 53.1048 19.8047 52.7634V22.1547C19.8136 21.9698 19.8641 21.7896 19.952 21.6289C20.04 21.4681 20.1629 21.3311 20.3108 21.2291Z" fill="white"/>
<path d="M28.1978 12.2533C28.1107 12.313 28.0382 12.3932 27.9862 12.4875C27.9342 12.5818 27.9042 12.6876 27.8984 12.7962C27.8984 13.0019 28.0324 13.078 28.1978 12.9772C28.2852 12.9179 28.3579 12.8377 28.41 12.7433C28.462 12.6489 28.4919 12.543 28.4971 12.4343C28.4971 12.2347 28.3632 12.1545 28.1978 12.2533Z" fill="#37474F"/>
<path d="M28.1972 49.7785C27.8529 50.0138 27.5666 50.3304 27.3613 50.7027C27.156 51.075 27.0376 51.4926 27.0156 51.9217C27.0156 52.7094 27.5454 53.0303 28.1972 52.6354C28.5414 52.4 28.8276 52.0834 29.0329 51.7111C29.2382 51.3388 29.3567 50.9212 29.3788 50.4922C29.3827 49.7045 28.851 49.3836 28.1972 49.7785Z" fill="#37474F"/>
<path d="M25.3642 15.437C25.1912 15.557 25.0475 15.7178 24.9449 15.9064C24.8423 16.095 24.7835 16.3062 24.7734 16.5229C24.7734 16.922 25.0413 17.0844 25.3642 16.8849C25.5391 16.7661 25.6847 16.6058 25.7891 16.4171C25.8934 16.2284 25.9537 16.0166 25.9649 15.799C25.9649 15.4 25.697 15.2375 25.3642 15.437Z" fill="#37474F"/>
<path d="M26.8359 15.3007C26.8359 15.5681 27.0329 15.6688 27.2633 15.5269L31.2019 13.1473C31.3239 13.0677 31.4262 12.9591 31.5005 12.8305C31.5747 12.7018 31.6188 12.5567 31.6292 12.4068C31.6292 12.1415 31.4323 12.0407 31.2019 12.1826L27.2633 14.5623C27.1415 14.6417 27.0394 14.7499 26.9651 14.8782C26.8909 15.0065 26.8466 15.1512 26.8359 15.3007Z" fill="#37474F"/>
<path d="M17.9239 22.553C18.0636 22.6481 18.1799 22.7762 18.2634 22.927C18.3469 23.0778 18.3952 23.247 18.4044 23.421C18.4044 23.7418 18.1897 23.8714 17.9239 23.711C17.7846 23.6156 17.6687 23.4873 17.5856 23.3365C17.5025 23.1858 17.4544 23.0167 17.4453 22.843C17.4453 22.5242 17.66 22.3946 17.9239 22.553Z" fill="#37474F"/>
<path d="M17.9239 26.4156C18.0636 26.5107 18.1799 26.6388 18.2634 26.7896C18.3469 26.9404 18.3952 27.1096 18.4044 27.2836C18.4044 27.6024 18.1897 27.7319 17.9239 27.5736C17.7846 27.4781 17.6687 27.3499 17.5856 27.1991C17.5025 27.0484 17.4544 26.8793 17.4453 26.7056C17.4453 26.3848 17.66 26.2552 17.9239 26.4156Z" fill="#37474F"/>
<path d="M17.7774 22.6317C17.9171 22.7267 18.0335 22.8549 18.117 23.0057C18.2004 23.1565 18.2487 23.3257 18.2579 23.4996C18.2579 23.8184 18.0432 23.948 17.7774 23.7896C17.6376 23.6945 17.5213 23.5664 17.4378 23.4156C17.3543 23.2648 17.306 23.0956 17.2969 22.9217C17.2988 22.6008 17.5135 22.4774 17.7774 22.6317Z" fill="#455A64"/>
<path d="M17.7774 26.4915C17.9174 26.5868 18.0339 26.7152 18.1174 26.8664C18.2009 27.0176 18.249 27.1872 18.2579 27.3615C18.2579 27.6803 18.0432 27.8099 17.7774 27.6494C17.6373 27.5547 17.5207 27.4267 17.4372 27.2758C17.3537 27.1249 17.3056 26.9555 17.2969 26.7815C17.2988 26.4627 17.5135 26.3331 17.7774 26.4915Z" fill="#455A64"/>
<path d="M39.7983 12.9932C39.7983 12.6518 39.5698 12.514 39.2862 12.6847L37.3977 13.8221L23.512 22.1972C23.3629 22.2984 23.2387 22.435 23.1498 22.5959C23.0608 22.7567 23.0095 22.9372 23 23.1227V53.7232C23 54.0646 23.2284 54.2024 23.512 54.0317L37.4036 45.6545L39.2862 44.5192C39.4354 44.418 39.5595 44.2814 39.6485 44.1205C39.7375 43.9597 39.7888 43.7792 39.7983 43.5937V12.9932Z" fill="#668A99"/>
<path d="M39.9946 12.993C40.007 12.8898 39.99 12.7852 39.9457 12.692C39.9015 12.5989 39.8319 12.5215 39.7457 12.4695C39.6596 12.4175 39.5606 12.3932 39.4613 12.3996C39.3619 12.406 39.2666 12.4428 39.1872 12.5055L37.3853 13.5935L23.413 22.0263C23.2331 22.1448 23.0836 22.3074 22.9772 22.4998C22.8708 22.6922 22.8109 22.9087 22.8025 23.1307V53.723C22.7946 53.8257 22.8135 53.9287 22.8572 54.021C22.9009 54.1134 22.9678 54.1916 23.0507 54.2475C23.1212 54.2903 23.2015 54.3123 23.283 54.3112C23.3985 54.3075 23.5111 54.2728 23.61 54.2104L37.5921 45.7777L39.39 44.6938C39.5689 44.5741 39.7177 44.4113 39.8239 44.2191C39.9301 44.0269 39.9907 43.811 40.0005 43.5893L39.9946 12.993ZM37.3892 45.426L37.2277 45.5247L23.4209 53.8505C23.3977 53.8691 23.3708 53.8821 23.3422 53.8885C23.3136 53.8949 23.284 53.8946 23.2555 53.8875C23.2299 53.8711 23.2043 53.8135 23.2043 53.7189V23.1225C23.2145 22.9732 23.257 22.8282 23.3286 22.6985C23.4003 22.5688 23.4991 22.4578 23.6178 22.3739L37.4109 14.044L39.3802 12.8531C39.4034 12.8345 39.4303 12.8215 39.4589 12.8151C39.4875 12.8087 39.5171 12.809 39.5456 12.8161C39.5712 12.8325 39.5968 12.8901 39.5968 12.9847V43.5934C39.5866 43.7428 39.5441 43.8878 39.4725 44.0174C39.4008 44.1471 39.3019 44.2581 39.1833 44.3421L37.3853 45.426H37.3892Z" fill="#065373"/>
<path d="M25.2079 32.5225L29.3257 30.04C29.5226 29.9269 29.6664 30.0174 29.6664 30.2457V30.3876C29.6602 30.5112 29.6261 30.6315 29.5669 30.7387C29.5076 30.846 29.425 30.9371 29.3257 31.0046L25.2079 33.4871C25.0208 33.6002 24.8672 33.5077 24.8672 33.2814V33.1395C24.8736 33.016 24.9078 32.8957 24.9669 32.7885C25.0261 32.6813 25.1087 32.5902 25.2079 32.5225Z" fill="#FDFFFC"/>
<path d="M25.0385 35.5188L37.4964 28.0075C37.589 27.9499 37.6658 27.9952 37.6658 28.1103V29.6282C37.6623 29.6898 37.6452 29.7498 37.6158 29.8033C37.5864 29.8568 37.5455 29.9025 37.4964 29.9367L25.0385 37.448C24.944 37.5056 24.8672 37.4583 24.8672 37.3452V35.8273C24.8706 35.7654 24.8878 35.7053 24.9176 35.6517C24.9474 35.5981 24.9888 35.5526 25.0385 35.5188Z" fill="#FDFFFC"/>
<path d="M25.2079 39.2751L29.3257 36.7925C29.5226 36.6794 29.6664 36.772 29.6664 36.9982V37.1401C29.6603 37.2638 29.6263 37.3842 29.5671 37.4914C29.5078 37.5987 29.4251 37.6897 29.3257 37.7572L25.2079 40.2397C25.0208 40.3549 24.8672 40.2623 24.8672 40.034V39.8921C24.8739 39.7686 24.9082 39.6485 24.9674 39.5413C25.0265 39.4342 25.1089 39.343 25.2079 39.2751Z" fill="#FDFFFC"/>
<path d="M25.0385 42.2713L37.4964 34.7601C37.589 34.7025 37.6658 34.7498 37.6658 34.8629V36.3808C37.6623 36.4424 37.6452 36.5023 37.6158 36.5558C37.5864 36.6094 37.5455 36.6551 37.4964 36.6893L25.0385 44.2006C24.944 44.2582 24.8672 44.2129 24.8672 44.0977V42.5799C24.8706 42.518 24.8878 42.4578 24.9176 42.4043C24.9474 42.3507 24.9888 42.3051 25.0385 42.2713Z" fill="#FDFFFC"/>
<path d="M30.0048 43.1336L34.928 40.1698C35.125 40.0546 35.2707 40.1472 35.2707 40.3755V41.9633C35.2642 42.0871 35.2298 42.2075 35.1703 42.3148C35.1107 42.422 35.0277 42.513 34.928 42.5803L30.0048 45.5462C29.8078 45.6593 29.6641 45.5668 29.6641 45.3405V43.7506C29.6709 43.6272 29.7053 43.5071 29.7644 43.4C29.8236 43.2928 29.9059 43.2016 30.0048 43.1336Z" fill="#FDFFFC"/>
<path opacity="0.1" d="M25.2079 32.5225L29.3257 30.04C29.5226 29.9269 29.6664 30.0174 29.6664 30.2457V30.3876C29.6602 30.5112 29.6261 30.6315 29.5669 30.7387C29.5076 30.846 29.425 30.9371 29.3257 31.0046L25.2079 33.4871C25.0208 33.6002 24.8672 33.5077 24.8672 33.2814V33.1395C24.8736 33.016 24.9078 32.8957 24.9669 32.7885C25.0261 32.6813 25.1087 32.5902 25.2079 32.5225Z" fill="#FDFFFC"/>
<path opacity="0.2" d="M25.0385 35.5188L37.4964 28.0075C37.589 27.9499 37.6658 27.9952 37.6658 28.1103V29.6282C37.6623 29.6898 37.6452 29.7498 37.6158 29.8033C37.5864 29.8568 37.5455 29.9025 37.4964 29.9367L25.0385 37.448C24.944 37.5056 24.8672 37.4583 24.8672 37.3452V35.8273C24.8706 35.7654 24.8878 35.7053 24.9176 35.6517C24.9474 35.5981 24.9888 35.5526 25.0385 35.5188Z" fill="#FDFFFC"/>
<path opacity="0.1" d="M25.2079 39.2751L29.3257 36.7925C29.5226 36.6794 29.6664 36.772 29.6664 36.9982V37.1401C29.6603 37.2638 29.6263 37.3842 29.5671 37.4914C29.5078 37.5987 29.4251 37.6897 29.3257 37.7572L25.2079 40.2397C25.0208 40.3549 24.8672 40.2623 24.8672 40.034V39.8921C24.8739 39.7686 24.9082 39.6485 24.9674 39.5413C25.0265 39.4342 25.1089 39.343 25.2079 39.2751Z" fill="#FDFFFC"/>
<path opacity="0.2" d="M25.0385 42.2713L37.4964 34.7601C37.589 34.7025 37.6658 34.7498 37.6658 34.8629V36.3808C37.6623 36.4424 37.6452 36.5023 37.6158 36.5558C37.5864 36.6094 37.5455 36.6551 37.4964 36.6893L25.0385 44.2006C24.944 44.2582 24.8672 44.2129 24.8672 44.0977V42.5799C24.8706 42.518 24.8878 42.4578 24.9176 42.4043C24.9474 42.3507 24.9888 42.3051 25.0385 42.2713Z" fill="#FDFFFC"/>
<path opacity="0.1" d="M30.0048 43.1336L34.928 40.1698C35.125 40.0546 35.2707 40.1472 35.2707 40.3755V41.9633C35.2642 42.0871 35.2298 42.2075 35.1703 42.3148C35.1107 42.422 35.0277 42.513 34.928 42.5803L30.0048 45.5462C29.8078 45.6593 29.6641 45.5668 29.6641 45.3405V43.7506C29.6709 43.6272 29.7053 43.5071 29.7644 43.4C29.8236 43.2928 29.9059 43.2016 30.0048 43.1336Z" fill="#FDFFFC"/>
</g>
</svg>
