<svg width="24" height="24" viewBox="0 0 24 24" fill="none" xmlns="http://www.w3.org/2000/svg">
<path d="M19.1299 3H3.93506C3.42076 3 3 3.42856 3 3.95239V5.66666C3 6.19049 3.42076 6.61905 3.93506 6.61905H19.0831C19.5974 6.61905 20.0182 6.19049 20.0182 5.66666V3.95239C20.0649 3.42856 19.6441 3 19.1299 3ZM19.1299 12.5714H3.93506C3.42076 12.5714 3 13 3 13.5238V15.2381C3 15.7619 3.42076 16.1905 3.93506 16.1905H19.0831C19.5974 16.1905 20.0182 15.7619 20.0182 15.2381V13.5238C20.0649 13 19.6441 12.5714 19.1299 12.5714ZM12.4909 17.381H3.93506C3.42076 17.381 3 17.8095 3 18.3333V20.0476C3 20.5714 3.42076 21 3.93506 21H12.4909C13.0052 21 13.426 20.5714 13.426 20.0476V18.3333C13.426 17.8095 13.0052 17.381 12.4909 17.381ZM20.0649 7.80953H3.93506C3.42076 7.80953 3 8.23809 3 8.76188V10.4762C3 11 3.42076 11.4286 3.93506 11.4286H20.0649C20.5792 11.4286 21 11 21 10.4762V8.76188C21 8.23809 20.5792 7.80953 20.0649 7.80953Z" fill="#0BA4DB"/>
</svg>
