<svg width="64" height="64" viewBox="0 0 64 64" fill="none" xmlns="http://www.w3.org/2000/svg">
<path d="M55.3606 0.640869H8.64062C4.22235 0.640869 0.640625 4.22258 0.640625 8.64086V55.359C0.640625 59.7772 4.22235 63.359 8.64063 63.359H55.3606C59.7789 63.359 63.3606 59.7772 63.3606 55.359V8.64087C63.3606 4.22259 59.7789 0.640869 55.3606 0.640869Z" fill="#50B651"/>
<path d="M32.0799 44.567C39.1808 44.567 44.9372 38.8106 44.9372 31.7097C44.9372 24.6088 39.1808 18.8524 32.0799 18.8524C24.9791 18.8524 19.2227 24.6088 19.2227 31.7097C19.2227 38.8106 24.9791 44.567 32.0799 44.567Z" fill="#50B651"/>
<path opacity="0.663" fill-rule="evenodd" clip-rule="evenodd" d="M44.8991 31.6743C44.8991 38.7975 39.1247 44.5719 32.0031 44.5719C24.8815 44.5719 19.1055 38.7975 19.1055 31.6743C19.1055 28.5233 19.1938 28.0548 20.4341 26.2609C20.4341 26.2609 20.3701 28.2871 21.8559 29.4929C22.7797 30.242 23.7439 29.7012 25.5087 28.8884C27.4178 28.0084 28.9698 27.4407 30.1807 27.5905C32.0047 27.8164 37.6267 31.1927 40.5608 30.5204C42.9048 29.9844 42.6575 24.458 42.6575 24.458C45.2175 26.9578 44.8991 28.6474 44.8991 31.6743Z" fill="url(#paint0_linear_4027_58778)"/>
<path opacity="0.586" fill-rule="evenodd" clip-rule="evenodd" d="M37.5352 41.1479C42.1997 36.7603 42.975 31.7337 39.8612 26.0682C39.877 26.0797 40.0697 25.415 40.4392 24.074C42.0963 26.0808 42.9775 28.5578 43.0827 31.505C43.0818 35.3224 41.2326 38.5367 37.5352 41.1479Z" fill="url(#paint1_linear_4027_58778)"/>
<path opacity="0.744" fill-rule="evenodd" clip-rule="evenodd" d="M35.3229 24.1C33.0714 22.854 30.4883 20.3474 30.8317 19.821C31.175 19.2946 35.6317 19.3851 37.8835 20.6312C40.1354 21.8773 42.0518 25.6152 41.7088 26.1416C41.3658 26.668 37.5744 25.3461 35.3229 24.1Z" fill="url(#paint2_radial_4027_58778)"/>
<path fill-rule="evenodd" clip-rule="evenodd" d="M37.2844 34.8766C35.4166 34.8766 33.9023 33.3192 33.9023 31.3982C33.9023 29.4773 35.4166 27.9202 37.2844 27.9202C39.1523 27.9202 40.6668 29.4773 40.6668 31.3982C40.6668 33.3192 39.1526 34.8766 37.2844 34.8766ZM37.3084 33.7733C38.4742 33.7733 39.4204 32.7099 39.4204 31.3982C39.4204 30.0866 38.4742 29.0242 37.3084 29.0242C36.1427 29.0242 35.1964 30.0875 35.1964 31.3989C35.1964 32.7102 36.1427 33.7733 37.3084 33.7733Z" fill="white"/>
<path fill-rule="evenodd" clip-rule="evenodd" d="M30.3086 25.1187H32.7457V34.8371H31.4078V26.1846H30.3086V25.1187Z" fill="white"/>
<path fill-rule="evenodd" clip-rule="evenodd" d="M28.4895 28.0191H29.7545V36.135C29.7545 36.8745 28.9766 37.6448 28.2185 37.9763C27.8601 38.1329 27.1988 38.2259 26.2345 38.2553V37.448C27.1776 37.3428 27.8142 37.133 28.1443 36.8185C28.3347 36.5539 28.4537 36.2446 28.4899 35.9206V33.5363C28.1517 34.2537 27.7259 34.7294 27.2124 34.9632C26.6787 35.2512 25.5922 35.2038 25.1487 34.9632C24.7052 34.7225 24.0546 34.0889 23.7564 33.1452C23.6738 32.8848 23.4684 32.176 23.4898 31.4249C23.509 30.7097 23.7458 29.9529 23.9426 29.6419C24.2806 29.1107 24.8134 28.4454 25.6204 28.1673C26.0146 28.0314 26.7453 27.9826 27.8124 28.0207V28.8236C27.0195 28.7701 26.5247 28.7969 26.3282 28.9039C26.0335 29.0639 25.3682 29.2614 25.1487 30.7113C24.9292 32.1612 25.1551 33.3478 25.8511 33.7193C26.0895 33.8473 26.5113 33.9987 26.9011 33.8652C27.6499 33.6092 28.3545 32.6963 28.4083 32.0777C28.4624 31.4501 28.4895 30.0972 28.4895 28.0191Z" fill="white"/>
<path fill-rule="evenodd" clip-rule="evenodd" d="M44.4931 34.2556C43.2986 40.0076 38.2016 44.3295 32.0957 44.3295C25.1027 44.3295 19.4336 38.6604 19.4336 31.6674C19.4336 27.3231 21.6214 23.4898 24.9552 21.2098C22.2464 23.4562 20.5216 26.8498 20.5216 30.6447C20.5216 37.4137 26.009 42.9007 32.7776 42.9007C38.2899 42.9007 42.9517 39.262 44.4931 34.2556Z" fill="url(#paint3_radial_4027_58778)"/>
<path fill-rule="evenodd" clip-rule="evenodd" d="M32.0932 16.672C23.8116 16.672 17.0977 23.3856 17.0977 31.6672C17.0977 39.9488 23.8116 46.6627 32.0932 46.6627C40.3748 46.6627 47.0887 39.9488 47.0887 31.6672C47.0887 23.3856 40.3748 16.672 32.0932 16.672ZM32.0932 44.3296C25.1002 44.3296 19.4311 38.6605 19.4311 31.6675C19.4311 27.3232 21.6189 23.4899 24.9527 21.2099C27.0552 19.7699 29.5448 19.0012 32.0932 19.0051C39.0861 19.0051 44.7553 24.6739 44.7553 31.6672C44.7557 32.5367 44.667 33.4039 44.4906 34.2554C43.2961 40.0074 38.1991 44.3293 32.0932 44.3293V44.3296Z" fill="white"/>
<defs>
<linearGradient id="paint0_linear_4027_58778" x1="31.5048" y1="26.2193" x2="33.1579" y2="41.1482" gradientUnits="userSpaceOnUse">
<stop stop-color="#123214"/>
<stop offset="0.46" stop-color="#3E7C37"/>
<stop offset="0.91" stop-color="#5FBB46"/>
</linearGradient>
<linearGradient id="paint1_linear_4027_58778" x1="41.0527" y1="25.2488" x2="41.0527" y2="37.3209" gradientUnits="userSpaceOnUse">
<stop stop-color="white" stop-opacity="0"/>
<stop offset="0.64" stop-color="white" stop-opacity="0.43"/>
<stop offset="1" stop-color="white" stop-opacity="0.42"/>
</linearGradient>
<radialGradient id="paint2_radial_4027_58778" cx="0" cy="0" r="1" gradientUnits="userSpaceOnUse" gradientTransform="translate(36.5443 23.0659) rotate(26.7607) scale(6.35339 2.64608)">
<stop offset="0.13" stop-color="white"/>
<stop offset="0.29" stop-color="white" stop-opacity="0.69"/>
<stop offset="0.45" stop-color="white" stop-opacity="0.4"/>
<stop offset="0.59" stop-color="white" stop-opacity="0.18"/>
<stop offset="0.69" stop-color="white" stop-opacity="0.05"/>
<stop offset="0.74" stop-color="white" stop-opacity="0"/>
</radialGradient>
<radialGradient id="paint3_radial_4027_58778" cx="0" cy="0" r="1" gradientUnits="userSpaceOnUse" gradientTransform="translate(34.2669 28.7501) rotate(39.84) scale(14.2378 15.5192)">
<stop offset="0.86" stop-opacity="0"/>
<stop offset="0.98" stop-opacity="0.47"/>
<stop offset="1"/>
</radialGradient>
</defs>
</svg>
