<svg width="292" height="224" viewBox="0 0 292 224" fill="none" xmlns="http://www.w3.org/2000/svg">
<path opacity="0.0344828" d="M79.8715 159.129C68.525 154.562 70.2674 137.984 82.3156 135.875L137.831 126.158C144.835 124.933 149.603 118.37 148.604 111.33L140.69 55.5293C138.973 43.4191 154.201 36.6393 162.051 46.019L198.224 89.2383C202.788 94.6909 210.855 95.5387 216.452 91.1541L260.82 56.4C270.449 48.8575 283.935 58.6552 279.737 70.1437L260.394 123.08C257.954 129.759 261.253 137.169 267.849 139.824L320.131 160.871C331.478 165.439 329.735 182.016 317.687 184.125L262.172 193.842C255.168 195.068 250.4 201.63 251.398 208.67L259.312 264.471C261.03 276.581 245.802 283.361 237.952 273.981L201.779 230.762C197.215 225.309 189.148 224.462 183.551 228.846L139.182 263.6C129.553 271.143 116.068 261.345 120.266 249.857L139.608 196.92C142.049 190.242 138.75 182.832 132.154 180.176L79.8715 159.129Z" stroke="#F0FAFE" stroke-opacity="0.24" stroke-width="1.01747"/>
<path opacity="0.0689655" d="M82.0532 153.156C70.9613 148 73.5689 131.537 85.711 130.061L140.28 123.431C147.338 122.573 152.443 116.27 151.814 109.187L146.954 54.4322C145.873 42.2487 161.435 36.2751 168.783 46.0528L201.81 89.9953C206.082 95.6793 214.094 96.9482 219.913 92.8625L264.902 61.2765C274.913 54.2482 287.867 64.7382 283.073 75.9913L261.531 126.565C258.745 133.106 261.652 140.679 268.1 143.676L317.949 166.844C329.041 172 326.433 188.463 314.291 189.939L259.722 196.569C252.664 197.427 247.559 203.731 248.188 210.813L253.047 265.568C254.129 277.751 238.567 283.725 231.218 273.947L198.192 230.005C193.92 224.321 185.908 223.052 180.089 227.138L135.1 258.724C125.089 265.752 112.135 255.262 116.928 244.009L138.47 193.436C141.257 186.894 138.35 179.321 131.902 176.324L82.0532 153.156Z" stroke="#F0FAFE" stroke-opacity="0.24" stroke-width="1.01747"/>
<path opacity="0.103448" d="M84.5246 147.407C73.7177 141.679 77.1834 125.374 89.386 124.536L142.841 120.866C149.934 120.379 155.362 114.351 155.105 107.245L153.168 53.6994C152.725 41.476 168.578 36.3251 175.405 46.474L205.312 90.9319C209.28 96.8317 217.214 98.5181 223.239 94.7426L268.643 66.2921C279.007 59.7974 291.395 70.9511 286.019 81.9378L262.47 130.066C259.345 136.453 261.852 144.167 268.134 147.498L315.475 172.593C326.281 178.322 322.816 194.626 310.613 195.464L257.158 199.134C250.065 199.621 244.637 205.649 244.894 212.755L246.831 266.301C247.274 278.524 231.421 283.675 224.594 273.526L194.688 229.068C190.719 223.168 182.785 221.482 176.76 225.258L131.356 253.708C120.992 260.203 108.604 249.049 113.98 238.062L137.529 189.934C140.654 183.547 138.147 175.833 131.865 172.502L84.5246 147.407Z" stroke="#F0FAFE" stroke-opacity="0.24" stroke-width="1.01747"/>
<path opacity="0.137931" d="M87.2729 141.898C76.7806 135.612 81.0948 119.511 93.3246 119.313L145.509 118.467C152.618 118.352 158.354 112.617 158.469 105.507L159.314 53.3228C159.513 41.093 175.613 36.7787 181.9 47.271L208.724 92.0413C212.379 98.1407 220.213 100.24 226.428 96.785L272.044 71.425C282.734 65.4816 294.521 77.2682 288.577 87.9586L263.217 133.574C259.762 139.789 261.862 147.624 267.961 151.278L312.731 178.102C323.223 184.389 318.909 200.49 306.679 200.688L254.495 201.533C247.386 201.648 241.65 207.384 241.535 214.493L240.69 266.678C240.492 278.907 224.391 283.222 218.104 272.729L191.28 227.959C187.626 221.86 179.791 219.76 173.576 223.215L127.961 248.575C117.27 254.519 105.483 242.732 111.427 232.042L136.787 186.426C140.242 180.212 138.143 172.377 132.043 168.722L87.2729 141.898Z" stroke="#F0FAFE" stroke-opacity="0.24" stroke-width="1.01747"/>
<path opacity="0.172414" d="M90.2713 136.64C80.1224 129.813 85.2733 113.96 97.4967 114.402L148.265 116.239C155.371 116.496 161.399 111.068 161.886 103.975L165.366 53.2923C166.204 41.0896 182.508 37.624 188.237 48.4309L212.031 93.3161C215.361 99.5984 223.075 102.105 229.462 98.9799L275.095 76.6526C286.081 71.2768 297.235 83.6642 290.74 94.0288L263.765 137.077C259.99 143.103 261.676 151.037 267.576 155.005L309.728 183.36C319.877 190.187 314.726 206.04 302.503 205.598L251.734 203.761C244.629 203.504 238.601 208.932 238.114 216.025L234.633 266.708C233.796 278.911 217.491 282.376 211.762 271.569L187.969 226.684C184.638 220.402 176.924 217.895 170.537 221.02L124.905 243.348C113.918 248.723 102.765 236.336 109.259 225.971L136.234 182.923C140.01 176.898 138.323 168.964 132.423 164.995L90.2713 136.64Z" stroke="#F0FAFE" stroke-opacity="0.24" stroke-width="1.01747"/>
<path opacity="0.206897" d="M93.5063 131.645C83.7287 124.296 89.7022 108.734 101.886 109.816L151.105 114.184C158.187 114.813 164.491 109.708 165.348 102.65L171.309 53.598C172.784 41.4559 189.248 38.8483 194.403 49.9402L215.229 94.7492C218.226 101.197 225.799 104.104 232.34 101.318L277.8 81.9535C289.053 77.1602 299.543 90.1142 292.515 100.125L264.123 140.565C260.037 146.385 261.306 154.396 266.99 158.668L306.49 188.356C316.267 195.704 310.294 211.266 298.11 210.185L248.891 205.816C241.809 205.188 235.505 210.292 234.647 217.351L228.687 266.402C227.212 278.544 210.748 281.152 205.593 270.06L184.767 225.251C181.77 218.803 174.197 215.896 167.656 218.683L122.196 238.047C110.943 242.84 100.452 229.886 107.481 219.876L135.873 179.435C139.959 173.616 138.69 165.604 133.006 161.332L93.5063 131.645Z" stroke="#F0FAFE" stroke-opacity="0.24" stroke-width="1.01747"/>
<path opacity="0.241379" d="M96.9665 126.922C87.5868 119.072 94.3666 103.844 106.477 105.562L154.024 112.305C161.064 113.303 167.626 108.536 168.852 101.532L177.132 54.2279C179.241 42.1796 195.818 40.4372 200.386 51.7837L218.319 96.3324C220.975 102.928 228.385 106.228 235.063 103.787L280.169 87.3058C291.658 83.1079 301.456 96.5933 293.913 106.222L264.3 144.028C259.915 149.625 260.763 157.692 266.216 162.256L303.042 193.078C312.422 200.928 305.642 216.156 293.532 214.439L245.985 207.695C238.945 206.697 232.382 211.465 231.157 218.469L222.877 265.772C220.768 277.821 204.191 279.563 199.623 268.217L181.689 223.668C179.034 217.072 171.624 213.773 164.945 216.213L119.839 232.694C108.351 236.892 98.5529 223.407 106.095 213.778L135.709 175.973C140.093 170.375 139.246 162.308 133.793 157.745L96.9665 126.922Z" stroke="#F0FAFE" stroke-opacity="0.24" stroke-width="1.01747"/>
<path opacity="0.275862" d="M100.615 122.482C91.6586 114.151 99.226 99.2991 111.23 101.648L156.995 110.604C163.973 111.969 170.776 107.551 172.367 100.621L182.8 55.1698C185.536 43.2484 202.182 42.376 206.15 53.9461L221.277 98.0579C223.584 104.784 230.811 108.466 237.608 106.379L282.186 92.6886C293.879 89.0978 302.957 103.077 294.921 112.298L264.283 147.455C259.611 152.815 260.036 160.915 265.242 165.758L299.388 197.519C308.343 205.85 300.776 220.702 288.772 218.353L243.007 209.397C236.029 208.032 229.226 212.449 227.635 219.38L217.202 264.831C214.466 276.752 197.82 277.625 193.852 266.055L178.725 221.943C176.419 215.217 169.191 211.535 162.394 213.622L117.816 227.312C106.123 230.903 97.0446 216.923 105.081 207.702L135.719 172.546C140.391 167.186 139.966 159.085 134.76 154.243L100.615 122.482Z" stroke="#F0FAFE" stroke-opacity="0.24" stroke-width="1.01747"/>
<path opacity="0.310345" d="M104.442 118.329C95.9346 109.542 104.269 95.106 116.133 98.0799L160.02 109.081C166.917 110.809 173.941 106.754 175.893 99.9163L188.309 56.4093C191.666 44.6475 208.334 44.6475 211.691 56.4093L224.107 99.9163C226.059 106.754 233.083 110.809 239.98 109.081L283.867 98.0799C295.731 95.1059 304.065 109.542 295.558 118.329L264.088 150.836C259.142 155.944 259.142 164.056 264.088 169.164L295.558 201.671C304.065 210.458 295.731 224.894 283.867 221.92L239.98 210.919C233.083 209.191 226.059 213.246 224.107 220.084L211.691 263.591C208.334 275.353 191.666 275.353 188.309 263.591L175.893 220.084C173.941 213.246 166.917 209.191 160.02 210.919L116.133 221.92C104.269 224.894 95.9346 210.458 104.442 201.671L135.912 169.164C140.858 164.056 140.858 155.944 135.912 150.836L104.442 118.329Z" stroke="#F0FAFE" stroke-opacity="0.24" stroke-width="1.01747"/>
<path opacity="0.344828" d="M108.432 114.473C100.396 105.252 109.474 91.2722 121.167 94.863L163.089 107.737C169.886 109.825 177.113 106.142 179.42 99.4165L193.645 57.9333C197.613 46.3632 214.259 47.2356 216.995 59.157L226.807 101.9C228.398 108.83 235.2 113.248 242.178 111.882L285.217 103.46C297.22 101.112 304.788 115.964 295.832 124.294L263.721 154.163C258.515 159.005 258.09 167.106 262.762 172.466L291.575 205.527C299.611 214.748 290.532 228.728 278.84 225.137L236.918 212.263C230.12 210.175 222.893 213.858 220.587 220.584L206.361 262.067C202.394 273.637 185.748 272.765 183.011 260.843L173.2 218.1C171.609 211.17 164.806 206.752 157.828 208.118L114.79 216.54C102.786 218.889 95.2185 204.037 104.174 195.706L136.285 165.838C141.492 160.995 141.916 152.895 137.244 147.534L108.432 114.473Z" stroke="#F0FAFE" stroke-opacity="0.24" stroke-width="1.01747"/>
<path opacity="0.37931" d="M112.555 110.917C105.012 101.287 114.81 87.8022 126.298 92L166.184 106.574C172.863 109.014 180.273 105.715 182.928 99.1192L198.787 59.7262C203.354 48.3797 219.932 50.122 222.041 62.1703L229.362 104C230.588 111.003 237.15 115.771 244.19 114.773L286.235 108.81C298.345 107.092 305.125 122.32 295.745 130.171L263.18 157.426C257.728 161.989 256.88 170.056 261.265 175.654L287.451 209.084C294.993 218.713 285.196 232.198 273.707 228.001L233.821 213.427C227.143 210.986 219.733 214.285 217.077 220.881L201.219 260.274C196.651 271.621 180.074 269.879 177.965 257.83L170.643 216.001C169.418 208.997 162.855 204.229 155.815 205.228L113.771 211.191C101.661 212.908 94.8809 197.68 104.261 189.83L136.825 162.575C142.278 158.011 143.126 149.944 138.741 144.347L112.555 110.917Z" stroke="#F0FAFE" stroke-opacity="0.24" stroke-width="1.01747"/>
<path opacity="0.413793" d="M116.789 107.664C109.761 97.653 120.251 84.699 131.504 89.4923L169.294 105.589C175.836 108.376 183.408 105.469 186.405 99.021L203.718 61.7719C208.873 50.68 225.337 53.2876 226.812 65.4297L231.767 106.206C232.625 113.264 238.928 118.369 246.011 117.74L286.926 114.109C299.109 113.027 305.083 128.589 295.305 135.938L262.47 160.617C256.786 164.889 255.517 172.9 259.602 178.719L283.205 212.337C290.233 222.348 279.743 235.302 268.49 230.508L230.7 214.411C224.158 211.625 216.585 214.532 213.588 220.98L196.276 258.229C191.121 269.321 174.657 266.713 173.182 254.571L168.227 213.795C167.369 206.737 161.066 201.632 153.983 202.261L113.068 205.892C100.885 206.973 94.911 191.412 104.689 184.063L137.524 159.384C143.208 155.112 144.477 147.101 140.391 141.281L116.789 107.664Z" stroke="#F0FAFE" stroke-opacity="0.24" stroke-width="1.01747"/>
<path opacity="0.448276" d="M121.13 104.716C114.635 94.3517 125.789 81.9644 136.776 87.3401L172.424 104.782C178.81 107.907 186.525 105.401 189.855 99.1185L208.443 64.0541C214.171 53.2472 230.476 56.7128 231.314 68.9155L234.032 108.509C234.519 115.602 240.547 121.03 247.653 120.773L287.314 119.338C299.537 118.896 304.688 134.749 294.539 141.576L261.61 163.727C255.71 167.695 254.023 175.629 257.799 181.655L278.872 215.284C285.366 225.649 274.213 238.036 263.226 232.66L227.578 215.218C221.191 212.093 213.477 214.6 210.147 220.882L191.559 255.946C185.83 266.753 169.526 263.288 168.688 251.085L165.969 211.492C165.482 204.398 159.454 198.971 152.349 199.228L112.688 200.663C100.465 201.105 95.3137 185.252 105.463 178.425L138.392 156.274C144.292 152.305 145.978 144.371 142.203 138.346L121.13 104.716Z" stroke="#F0FAFE" stroke-opacity="0.24" stroke-width="1.01747"/>
<path opacity="0.482759" d="M125.542 102.076C119.599 91.3857 131.386 79.5991 142.076 85.5425L175.548 104.151C181.763 107.606 189.598 105.507 193.252 99.4075L212.935 66.5558C219.222 56.0636 235.322 60.3778 235.521 72.6076L236.141 110.9C236.256 118.009 241.992 123.745 249.101 123.86L287.393 124.48C299.623 124.678 303.937 140.779 293.445 147.065L260.593 166.749C254.494 170.403 252.394 178.238 255.849 184.452L274.458 217.924C280.401 228.615 268.615 240.401 257.924 234.458L224.453 215.849C218.238 212.394 210.403 214.494 206.749 220.593L187.065 253.445C180.779 263.937 164.678 259.623 164.48 247.393L163.86 209.101C163.745 201.992 158.009 196.256 150.9 196.141L112.608 195.521C100.378 195.322 96.0636 179.222 106.556 172.935L139.408 153.252C145.507 149.598 147.606 141.763 144.151 135.548L125.542 102.076Z" stroke="#F0FAFE" stroke-opacity="0.24" stroke-width="1.01747"/>
<path opacity="0.517241" d="M130.014 99.7425C124.638 88.7557 137.026 77.6021 147.39 84.0968L178.665 103.694C184.69 107.47 192.624 105.783 196.593 99.8834L217.193 69.2597C224.02 59.1109 239.873 64.2618 239.431 76.4852L238.096 113.369C237.839 120.474 243.267 126.502 250.36 126.989L287.181 129.518C299.384 130.356 302.85 146.66 292.043 152.389L259.433 169.675C253.151 173.005 250.645 180.719 253.77 187.106L269.991 220.258C275.366 231.245 262.979 242.399 252.614 235.904L221.339 216.307C215.314 212.531 207.38 214.218 203.412 220.117L182.812 250.741C175.985 260.89 160.132 255.739 160.574 243.516L161.908 206.632C162.165 199.526 156.738 193.498 149.644 193.011L112.823 190.483C100.62 189.645 97.1549 173.341 107.962 167.612L140.571 150.326C146.853 146.996 149.36 139.281 146.235 132.894L130.014 99.7425Z" stroke="#F0FAFE" stroke-opacity="0.24" stroke-width="1.01747"/>
<path opacity="0.551724" d="M134.517 97.7134C129.724 86.4604 142.678 75.9704 152.688 82.9986L181.757 103.407C187.577 107.493 195.588 106.224 199.86 100.54L221.2 72.1474C228.549 62.3697 244.11 68.3433 243.029 80.5268L239.889 115.906C239.26 122.988 244.365 129.292 251.423 130.15L286.682 134.434C298.824 135.909 301.432 152.373 290.34 157.528L258.131 172.498C251.683 175.495 248.776 183.068 251.562 189.61L265.482 222.287C270.275 233.54 257.321 244.03 247.31 237.002L218.241 216.593C212.422 212.507 204.41 213.776 200.138 219.46L178.799 247.853C171.45 257.63 155.888 251.657 156.969 239.473L160.11 204.094C160.738 197.012 155.634 190.708 148.575 189.85L113.316 185.566C101.174 184.091 98.5666 167.627 109.658 162.472L141.868 147.502C148.316 144.505 151.222 136.932 148.436 130.391L134.517 97.7134Z" stroke="#F0FAFE" stroke-opacity="0.24" stroke-width="1.01747"/>
<path opacity="0.586207" d="M139.038 95.987C134.84 84.4985 148.325 74.7009 157.954 82.2434L184.822 103.289C190.419 107.674 198.486 106.826 203.05 101.373L224.954 75.2014C232.805 65.8217 248.033 72.6015 246.315 84.7117L241.523 118.502C240.524 125.542 245.292 132.104 252.296 133.33L285.914 139.215C297.962 141.323 299.704 157.901 288.358 162.469L256.698 175.214C250.102 177.869 246.803 185.279 249.243 191.958L260.956 224.013C265.154 235.502 251.669 245.3 242.04 237.757L215.172 216.712C209.575 212.327 201.508 213.175 196.944 218.627L175.04 244.799C167.189 254.179 151.962 247.399 153.679 235.289L158.471 201.498C159.47 194.458 154.702 187.896 147.698 186.67L114.08 180.786C102.032 178.677 100.29 162.1 111.636 157.532L143.296 144.787C149.892 142.131 153.191 134.721 150.751 128.043L139.038 95.987Z" stroke="#F0FAFE" stroke-opacity="0.24" stroke-width="1.01747"/>
<path opacity="0.62069" d="M143.565 94.559C139.974 82.8666 153.953 73.7881 163.174 81.8242L187.856 103.334C193.217 108.006 201.317 107.581 206.159 102.375L228.458 78.4029C236.788 69.4469 251.64 77.0144 249.291 89.0181L243.004 121.148C241.638 128.126 246.056 134.929 252.986 136.52L284.896 143.844C296.817 146.581 297.689 163.227 286.119 167.194L255.15 177.814C248.424 180.121 244.742 187.348 246.829 194.145L256.441 225.442C260.032 237.134 246.052 246.213 236.831 238.177L212.149 216.667C206.789 211.995 198.689 212.42 193.846 217.626L171.548 241.598C163.217 250.554 148.365 242.986 150.714 230.983L157.002 198.853C158.367 191.875 153.949 185.072 147.019 183.481L115.11 176.157C103.188 173.42 102.316 156.774 113.886 152.806L144.855 142.187C151.581 139.88 155.263 132.653 153.176 125.856L143.565 94.559Z" stroke="#F0FAFE" stroke-opacity="0.24" stroke-width="1.01747"/>
<path opacity="0.655172" d="M148.063 93.4236C145.089 81.5593 159.525 73.2249 168.313 81.7326L190.836 103.538C195.945 108.484 204.056 108.484 209.165 103.538L231.689 81.7326C240.477 73.2249 254.912 81.5593 251.938 93.4237L244.316 123.833C242.587 130.73 246.643 137.754 253.48 139.706L283.626 148.309C295.388 151.666 295.388 168.334 283.626 171.691L253.48 180.294C246.643 182.246 242.587 189.27 244.316 196.167L251.938 226.577C254.912 238.441 240.477 246.775 231.689 238.268L209.165 216.462C204.056 211.516 195.945 211.516 190.836 216.462L168.313 238.268C159.525 246.775 145.089 238.441 148.063 226.576L155.686 196.167C157.414 189.27 153.359 182.246 146.521 180.294L116.375 171.691C104.613 168.334 104.613 151.666 116.375 148.309L146.521 139.706C153.359 137.754 157.414 130.73 155.686 123.833L148.063 93.4236Z" stroke="#F0FAFE" stroke-opacity="0.24" stroke-width="1.01747"/>
<path opacity="0.689655" d="M152.521 92.5681C150.172 80.5644 165.024 72.9969 173.354 81.9529L193.76 103.89C198.602 109.097 206.703 109.521 212.063 104.849L234.65 85.1652C243.871 77.1291 257.851 86.2076 254.26 97.9001L245.464 126.54C243.377 133.337 247.059 140.565 253.785 142.871L282.126 152.59C293.696 156.557 292.823 173.203 280.902 175.94L251.701 182.643C244.771 184.234 240.353 191.036 241.718 198.014L247.472 227.417C249.821 239.421 234.969 246.988 226.638 238.032L206.233 216.095C201.39 210.889 193.29 210.464 187.93 215.136L165.343 234.82C156.122 242.856 142.142 233.778 145.733 222.085L154.529 193.445C156.616 186.648 152.933 179.421 146.208 177.114L117.867 167.396C106.297 163.428 107.17 146.782 119.091 144.045L148.292 137.342C155.222 135.752 159.64 128.949 158.274 121.971L152.521 92.5681Z" stroke="#F0FAFE" stroke-opacity="0.24" stroke-width="1.01747"/>
<path opacity="0.724138" d="M156.934 91.9996C155.216 79.8894 170.444 73.1096 178.294 82.4893L196.632 104.399C201.195 109.852 209.262 110.7 214.86 106.315L237.352 88.6965C246.981 81.154 260.466 90.9517 256.269 102.44L246.463 129.276C244.023 135.954 247.322 143.364 253.918 146.02L280.422 156.689C291.768 161.257 290.026 177.835 277.978 179.943L249.835 184.869C242.831 186.095 238.063 192.657 239.061 199.697L243.073 227.985C244.791 240.096 229.563 246.875 221.713 237.496L203.375 215.586C198.811 210.133 190.744 209.286 185.147 213.67L162.655 231.289C153.026 238.831 139.54 229.033 143.738 217.545L153.544 190.709C155.984 184.031 152.685 176.621 146.089 173.965L119.585 163.296C108.238 158.728 109.981 142.15 122.029 140.042L150.172 135.116C157.176 133.89 161.944 127.328 160.945 120.288L156.934 91.9996Z" stroke="#F0FAFE" stroke-opacity="0.24" stroke-width="1.01747"/>
<path opacity="0.758621" d="M161.261 91.7027C160.179 79.5192 175.741 73.5456 183.09 83.3233L199.421 105.052C203.693 110.736 211.704 112.005 217.524 107.919L239.77 92.3006C249.78 85.2723 262.734 95.7623 257.941 107.015L247.289 132.023C244.503 138.565 247.409 146.137 253.857 149.134L278.507 160.59C289.599 165.746 286.991 182.209 274.849 183.685L247.866 186.963C240.807 187.821 235.703 194.125 236.331 201.207L238.734 228.282C239.816 240.466 224.254 246.44 216.905 236.662L200.574 214.933C196.302 209.249 188.291 207.98 182.471 212.066L160.225 227.685C150.215 234.713 137.26 224.223 142.054 212.97L152.706 187.962C155.492 181.421 152.586 173.848 146.138 170.851L121.488 159.395C110.396 154.239 113.004 137.776 125.146 136.301L152.129 133.022C159.188 132.164 164.292 125.86 163.664 118.778L161.261 91.7027Z" stroke="#F0FAFE" stroke-opacity="0.24" stroke-width="1.01747"/>
<path opacity="0.793103" d="M165.505 91.6676C165.063 79.4442 180.916 74.2932 187.743 84.4421L202.139 105.843C206.107 111.743 214.041 113.429 220.066 109.654L241.922 95.9584C252.287 89.4637 264.674 100.617 259.299 111.604L247.963 134.772C244.838 141.159 247.345 148.873 253.627 152.203L276.415 164.283C287.222 170.012 283.756 186.317 271.554 187.154L245.822 188.921C238.728 189.408 233.301 195.436 233.558 202.542L234.49 228.317C234.933 240.541 219.08 245.692 212.253 235.543L197.857 214.142C193.888 208.242 185.954 206.556 179.929 210.331L158.073 224.027C147.708 230.521 135.321 219.368 140.697 208.381L152.032 185.213C155.157 178.826 152.651 171.112 146.369 167.782L123.58 155.702C112.773 149.973 116.239 133.668 128.442 132.83L154.173 131.064C161.267 130.577 166.694 124.549 166.437 117.443L165.505 91.6676Z" stroke="#F0FAFE" stroke-opacity="0.24" stroke-width="1.01747"/>
<path opacity="0.827586" d="M169.647 91.8845C169.845 79.6547 185.946 75.3405 192.233 85.8328L204.775 106.766C208.429 112.865 216.264 114.965 222.479 111.51L243.807 99.6521C254.497 93.7087 266.284 105.495 260.341 116.186L248.483 137.514C245.028 143.729 247.128 151.563 253.227 155.218L274.16 167.76C284.652 174.047 280.338 190.147 268.108 190.345L243.709 190.741C236.599 190.856 230.864 196.591 230.748 203.701L230.353 228.1C230.155 240.33 214.054 244.644 207.768 234.152L195.226 213.219C191.571 207.12 183.736 205.02 177.522 208.475L156.194 220.333C145.503 226.276 133.717 214.49 139.66 203.799L151.517 182.471C154.972 176.256 152.873 168.421 146.774 164.767L125.841 152.225C115.348 145.938 119.662 129.838 131.892 129.64L156.292 129.244C163.401 129.129 169.137 123.394 169.252 116.284L169.647 91.8845Z" stroke="#F0FAFE" stroke-opacity="0.24" stroke-width="1.01747"/>
<path opacity="0.862069" d="M173.67 92.3427C174.508 80.14 190.813 76.6744 196.541 87.4813L207.32 107.814C210.65 114.097 218.364 116.603 224.751 113.478L245.423 103.364C256.41 97.9882 267.563 110.375 261.069 120.74L248.849 140.241C245.073 146.267 246.76 154.201 252.66 158.169L271.755 171.014C281.904 177.841 276.753 193.694 264.529 193.252L241.531 192.42C234.425 192.163 228.397 197.59 227.91 204.684L226.334 227.643C225.496 239.846 209.191 243.312 203.463 232.505L192.684 212.172C189.354 205.889 181.639 203.383 175.252 206.508L154.581 216.622C143.594 221.998 132.441 209.611 138.935 199.246L151.155 179.745C154.93 173.72 153.244 165.785 147.344 161.817L128.249 148.972C118.1 142.145 123.251 126.292 135.475 126.734L158.473 127.566C165.579 127.823 171.607 122.396 172.094 115.302L173.67 92.3427Z" stroke="#F0FAFE" stroke-opacity="0.24" stroke-width="1.01747"/>
<path opacity="0.896552" d="M177.553 93.0291C179.028 80.887 195.492 78.2794 200.647 89.3713L209.761 108.981C212.758 115.429 220.33 118.335 226.872 115.549L246.766 107.075C258.019 102.282 268.509 115.236 261.481 125.246L249.056 142.944C244.97 148.763 246.239 156.775 251.923 161.047L269.209 174.039C278.987 181.387 273.013 196.949 260.83 195.868L239.291 193.956C232.208 193.327 225.904 198.432 225.047 205.491L222.438 226.957C220.963 239.099 204.499 241.706 199.344 230.614L190.23 211.005C187.233 204.557 179.661 201.65 173.119 204.437L153.225 212.911C141.971 217.704 131.481 204.75 138.51 194.739L150.935 177.042C155.021 171.222 153.752 163.211 148.068 158.939L130.782 145.947C121.004 138.598 126.978 123.037 139.161 124.118L160.7 126.03C167.783 126.658 174.087 121.554 174.944 114.495L177.553 93.0291Z" stroke="#F0FAFE" stroke-opacity="0.24" stroke-width="1.01747"/>
<path opacity="0.931035" d="M181.299 93.9319C183.408 81.8836 199.985 80.1412 204.553 91.4878L212.109 110.258C214.765 116.854 222.175 120.154 228.853 117.713L247.859 110.769C259.347 106.571 269.145 120.056 261.602 129.685L249.125 145.615C244.74 151.212 245.588 159.279 251.041 163.843L266.557 176.83C275.937 184.68 269.157 199.908 257.047 198.19L237.013 195.349C229.973 194.351 223.411 199.118 222.185 206.122L218.696 226.054C216.587 238.102 200.01 239.844 195.442 228.498L187.886 209.727C185.231 203.131 177.82 199.832 171.142 202.272L152.136 209.217C140.648 213.415 130.85 199.929 138.393 190.3L150.87 174.371C155.255 168.773 154.407 160.707 148.955 156.143L133.438 143.156C124.058 135.306 130.838 120.078 142.948 121.795L162.982 124.637C170.022 125.635 176.584 120.867 177.81 113.863L181.299 93.9319Z" stroke="#F0FAFE" stroke-opacity="0.24" stroke-width="1.01747"/>
<path opacity="0.965517" d="M184.89 95.0374C187.626 83.116 204.272 82.2436 208.24 93.8136L214.353 111.64C216.66 118.366 223.887 122.048 230.684 119.961L248.699 114.428C260.391 110.837 269.469 124.817 261.433 134.038L249.052 148.245C244.38 153.606 244.805 161.706 250.011 166.549L263.81 179.384C272.766 187.714 265.198 202.566 253.195 200.217L234.7 196.598C227.722 195.233 220.919 199.65 219.329 206.581L215.113 224.948C212.376 236.869 195.73 237.742 191.762 226.172L185.649 208.346C183.343 201.62 176.116 197.937 169.319 200.025L151.304 205.557C139.612 209.148 130.533 195.168 138.569 185.947L150.95 171.74C155.622 166.38 155.198 158.28 149.991 153.437L136.193 140.602C127.237 132.271 134.804 117.419 146.808 119.768L165.302 123.387C172.28 124.753 179.083 120.335 180.674 113.405L184.89 95.0374Z" stroke="#F0FAFE" stroke-opacity="0.24" stroke-width="1.01747"/>
<path d="M188.309 96.3321C191.665 84.5702 208.334 84.5702 211.691 96.3321L216.481 113.118C218.432 119.955 225.457 124.011 232.354 122.282L249.286 118.038C261.15 115.064 269.485 129.499 260.977 138.287L248.835 150.828C243.89 155.937 243.89 164.048 248.835 169.157L260.977 181.698C269.485 190.486 261.15 204.922 249.286 201.948L232.354 197.704C225.457 195.975 218.432 200.03 216.481 206.868L211.691 223.653C208.334 235.415 191.665 235.415 188.309 223.653L183.518 206.868C181.567 200.03 174.542 195.975 167.645 197.704L150.713 201.948C138.849 204.922 130.515 190.486 139.022 181.698L151.164 169.157C156.11 164.048 156.11 155.937 151.164 150.828L139.022 138.287C130.515 129.499 138.849 115.064 150.713 118.038L167.645 122.282C174.542 124.011 181.567 119.955 183.518 113.118L188.309 96.3321Z" stroke="#F0FAFE" stroke-opacity="0.24" stroke-width="1.01747"/>
</svg>
