<svg width="64" height="64" viewBox="0 0 64 64" fill="none" xmlns="http://www.w3.org/2000/svg">
<path d="M55.3606 0.640869H8.64062C4.22235 0.640869 0.640625 4.22258 0.640625 8.64086V55.359C0.640625 59.7772 4.22235 63.359 8.64063 63.359H55.3606C59.7789 63.359 63.3606 59.7772 63.3606 55.359V8.64087C63.3606 4.22259 59.7789 0.640869 55.3606 0.640869Z" fill="#FFC325"/>
<path d="M12 31.8014C12 27.4928 20.9543 23.9996 32 23.9996C43.0457 23.9996 52 27.4936 52 31.8018C52 36.11 43.0461 39.6023 32 39.6023C20.9539 39.6023 12 36.1095 12 31.8014Z" fill="#006891"/>
<path d="M12 31.8014C12 27.4928 20.9543 23.9996 32 23.9996C43.0457 23.9996 52 27.4936 52 31.8018C52 36.11 43.0461 39.6023 32 39.6023C20.9539 39.6023 12 36.1095 12 31.8014Z" stroke="#006891" stroke-width="1.40509" stroke-miterlimit="3.8636"/>
<path fill-rule="evenodd" clip-rule="evenodd" d="M19.3281 35.5933L21.4039 27.8446H24.6803V32.402H24.7017L26.9244 27.8446H30.2526L28.1768 35.5933H26.0135L27.3441 30.623H27.3227L24.6803 35.5933H22.948V30.623H22.9126L21.582 35.5933H19.3281Z" fill="white"/>
<path fill-rule="evenodd" clip-rule="evenodd" d="M30.8398 35.7461L31.1345 34.6449H33.5222L33.2271 35.7461H30.8398Z" fill="#EE4034"/>
<path fill-rule="evenodd" clip-rule="evenodd" d="M31.2167 34.3359L32.4244 29.8307H30.2539L30.7864 27.8446H37.5147L36.9826 29.8307H34.8121L33.6048 34.3346L31.2167 34.3359Z" fill="#FFC325"/>
<path fill-rule="evenodd" clip-rule="evenodd" d="M35.9727 35.5933L38.0472 27.8446H40.3919L41.4498 31.9907H41.4704L42.5809 27.8446H44.7485L42.6736 35.5933H40.4429L39.2941 31.3613H39.2734L38.1402 35.5933H35.9727Z" fill="white"/>
</svg>
