<svg width="54" height="54" viewBox="0 0 54 54" fill="none" xmlns="http://www.w3.org/2000/svg">
<path d="M27.0026 0.333321C12.3093 0.333321 0.335938 12.3067 0.335938 27C0.335938 41.6933 12.3093 53.6666 27.0026 53.6666C41.6959 53.6666 53.6693 41.6933 53.6693 27C53.6693 12.3067 41.6959 0.333321 27.0026 0.333321ZM39.7493 20.8667L24.6293 35.9867C24.2559 36.36 23.7493 36.5733 23.2159 36.5733C22.6826 36.5733 22.1759 36.36 21.8026 35.9867L14.2559 28.44C13.4826 27.6667 13.4826 26.3867 14.2559 25.6133C15.0293 24.84 16.3093 24.84 17.0826 25.6133L23.2159 31.7467L36.9226 18.04C37.6959 17.2667 38.9759 17.2667 39.7493 18.04C40.5226 18.8133 40.5226 20.0667 39.7493 20.8667Z" fill="#029274"/>
</svg>
