<svg width="56" height="64" viewBox="0 0 56 64" fill="none" xmlns="http://www.w3.org/2000/svg">
<g filter="url(#filter0_dd_4894_16877)">
<path d="M29.0541 25.2216V23.2309C29.6329 22.8745 30.0218 22.2402 30.0218 21.5134C30.0218 19.9764 28.3085 18.8421 26.6878 19.9069C26.5675 19.9856 26.4656 20.0875 26.3869 20.2078C25.5904 21.43 26.0349 22.6708 26.9379 23.2309V25.2216H29.0541Z" fill="#FFD9CE"/>
<path d="M25.1128 7.73125C28.7895 5.39797 32.6607 7.99976 32.6607 11.4951H36.2957C36.2957 5.52759 29.9564 1.00917 23.6588 4.32392C21.2093 5.61555 19.709 8.19883 19.709 10.9673V14.5552H18.079C17.2085 14.5552 16.5 15.2635 16.5 16.1338V28.6567H39.5V16.1338C39.5 15.2635 38.7962 14.5552 37.921 14.5552H36.291H32.656H23.344V10.9812C23.344 9.66639 24.0061 8.43494 25.1128 7.73125ZM26.3909 20.2125C26.4696 20.0921 26.5715 19.9902 26.6919 19.9115C28.3126 18.8421 30.0259 19.981 30.0259 21.518C30.0259 22.2495 29.6369 22.8791 29.0581 23.2355V25.2262H26.9419V23.2355C26.0343 22.6707 25.5944 21.43 26.3909 20.2125Z" fill="#668A99"/>
<path d="M19.0223 31.5825H36.975C38.1512 31.5825 39.1421 30.7724 39.42 29.6798H16.582C16.8599 30.7724 17.8462 31.5825 19.0223 31.5825Z" fill="#668A99"/>
<path d="M16.5 29.055C16.5 29.2726 16.5278 29.4809 16.5834 29.68H39.4213C39.4722 29.4809 39.5 29.2726 39.5 29.055V28.6522H16.5V29.055Z" fill="#02C39A"/>
</g>
<path d="M51.5076 48.9859C51.7454 49.1677 51.7195 49.4267 51.4329 49.5918L35.7347 58.6001C35.5577 58.689 35.3621 58.7354 35.1638 58.7354C34.9654 58.7354 34.7699 58.689 34.5929 58.6001L4.5717 41.3818C4.28051 41.2152 4.25765 40.9531 4.50462 40.7759C4.35694 40.8866 4.2353 41.028 4.14816 41.1902C4.06101 41.3524 4.01046 41.5315 4 41.715V42.4648C4.01089 42.662 4.06831 42.8539 4.16763 43.0249C4.26694 43.1959 4.40536 43.3414 4.5717 43.4494L34.5822 60.6617C34.7592 60.7513 34.9552 60.7981 35.1539 60.7981C35.3526 60.7981 35.5485 60.7513 35.7256 60.6617L51.4283 51.6549C51.5947 51.5473 51.7332 51.4021 51.8325 51.2313C51.9319 51.0605 51.9892 50.8688 52 50.6718V49.9144C51.9892 49.7338 51.9397 49.5574 51.8548 49.3973C51.7698 49.2372 51.6515 49.0969 51.5076 48.9859Z" fill="#455A64"/>
<path d="M51.4369 48.9362L21.4172 31.7179C21.2402 31.629 21.0446 31.5826 20.8463 31.5826C20.6479 31.5826 20.4524 31.629 20.2753 31.7179L4.57262 40.7277C4.25704 40.908 4.25704 41.2018 4.57262 41.3821L34.5846 58.6004C34.7616 58.6894 34.9572 58.7357 35.1556 58.7357C35.3539 58.7357 35.5495 58.6894 35.7265 58.6004L51.4292 49.5906C51.7418 49.4104 51.7418 49.1165 51.4369 48.9362ZM47.3648 47.5442C47.6347 47.6956 47.6347 47.9501 47.3648 48.1046L33.086 56.298C32.934 56.3742 32.7661 56.4138 32.5959 56.4138C32.4256 56.4138 32.2578 56.3742 32.1057 56.298L8.73156 42.8863C8.46171 42.7348 8.46171 42.4788 8.73156 42.3243L23.0119 34.1324C23.2817 33.981 23.5638 33.887 23.8336 34.0415L47.3648 47.5442Z" fill="#37474F"/>
<path d="M4.50462 40.7651C4.35694 40.8759 4.2353 41.0173 4.14816 41.1795C4.06101 41.3416 4.01046 41.5207 4 41.7043V42.4541C4.01101 42.6512 4.06848 42.8431 4.16778 43.0141C4.26709 43.1851 4.40544 43.3305 4.5717 43.4387L34.5822 60.6616C34.7587 60.7541 34.9558 60.801 35.1554 60.7979V58.7348C34.9564 58.7385 34.7598 58.6921 34.5837 58.6L4.5717 41.3816C4.28051 41.2196 4.25765 40.953 4.50462 40.7651Z" fill="#263238"/>
<path d="M13.9368 37.1071C14.1487 36.9859 14.1487 36.789 13.9368 36.6678C13.8186 36.6086 13.6881 36.5777 13.5557 36.5777C13.4233 36.5777 13.2928 36.6086 13.1746 36.6678C12.9626 36.789 12.9626 36.9859 13.1746 37.1071C13.2928 37.1664 13.4233 37.1972 13.5557 37.1972C13.6881 37.1972 13.8186 37.1664 13.9368 37.1071Z" fill="#141C1F"/>
<path d="M42.9977 53.6018C43.4963 53.317 43.4963 52.8535 42.9977 52.5687C42.7185 52.427 42.4095 52.3531 42.096 52.3531C41.7824 52.3531 41.4734 52.427 41.1942 52.5687C40.6957 52.8535 40.6957 53.317 41.1942 53.6018C41.4734 53.7435 41.7824 53.8174 42.096 53.8174C42.4095 53.8174 42.7185 53.7435 42.9977 53.6018V53.6018Z" stroke="#E6E6E6" stroke-miterlimit="10"/>
<path d="M13.551 38.5642L16.5086 36.8692C16.6839 36.7677 16.6931 36.6087 16.5284 36.5132C16.4324 36.4678 16.3271 36.4451 16.2207 36.4469C16.1144 36.4488 16.0099 36.4751 15.9155 36.5239L12.9579 38.2189C12.7826 38.3204 12.7735 38.4794 12.9381 38.5748C13.0341 38.6203 13.1395 38.643 13.2458 38.6411C13.3522 38.6393 13.4566 38.613 13.551 38.5642Z" fill="#141C1F"/>
<path d="M23.8357 34.0474C23.5658 33.8959 23.2838 33.9822 23.014 34.1383L8.73363 42.3301C8.46379 42.4816 8.46379 42.7361 8.73363 42.8921L32.1017 56.2962C32.2537 56.3724 32.4216 56.4121 32.5918 56.4121C32.7621 56.4121 32.93 56.3724 33.082 56.2962L47.3608 48.1029C47.6322 47.9514 47.6322 47.6969 47.3608 47.5424L23.8357 34.0474Z" fill="#668A99"/>
<path opacity="0.85" d="M23.8357 34.0474C23.5658 33.8959 23.2838 33.9822 23.014 34.1383L8.73363 42.3301C8.46379 42.4816 8.46379 42.7361 8.73363 42.8921L32.1017 56.2962C32.2537 56.3724 32.4216 56.4121 32.5918 56.4121C32.7621 56.4121 32.93 56.3724 33.082 56.2962L47.3608 48.1029C47.6322 47.9514 47.6322 47.6969 47.3608 47.5424L23.8357 34.0474Z" fill="#F0FAFE"/>
<path d="M10.3794 43.0789L10.227 42.991C10.22 42.9885 10.2139 42.9838 10.2097 42.9777C10.2054 42.9716 10.2031 42.9644 10.2031 42.957C10.2031 42.9495 10.2054 42.9423 10.2097 42.9362C10.2139 42.9301 10.22 42.9255 10.227 42.9229L10.2438 42.9138C10.2621 42.9041 10.2825 42.899 10.3032 42.899C10.3239 42.899 10.3444 42.9041 10.3627 42.9138L10.5151 43.0001C10.5471 43.0198 10.5471 43.0501 10.5151 43.0683L10.4984 43.0789C10.4798 43.0879 10.4595 43.0925 10.4389 43.0925C10.4183 43.0925 10.398 43.0879 10.3794 43.0789Z" fill="#455A64"/>
<path d="M10.6471 42.9227L10.3834 42.7712C10.3514 42.753 10.3514 42.7227 10.3834 42.703L10.4002 42.6939C10.4187 42.685 10.439 42.6803 10.4596 42.6803C10.4802 42.6803 10.5006 42.685 10.5191 42.6939L10.7828 42.8454C10.8148 42.8636 10.8148 42.8939 10.7828 42.9136L10.7661 42.9227C10.7475 42.9316 10.7272 42.9363 10.7066 42.9363C10.686 42.9363 10.6657 42.9316 10.6471 42.9227Z" fill="#455A64"/>
<path d="M10.9221 42.7675L10.5486 42.5539C10.5151 42.5343 10.5151 42.504 10.5486 42.4858L10.5654 42.4752C10.5839 42.4662 10.6042 42.4615 10.6248 42.4615C10.6454 42.4615 10.6658 42.4662 10.6843 42.4752L11.0578 42.6903C11.0648 42.6929 11.0708 42.6975 11.0751 42.7036C11.0794 42.7097 11.0816 42.7169 11.0816 42.7244C11.0816 42.7318 11.0794 42.739 11.0751 42.7451C11.0708 42.7512 11.0648 42.7559 11.0578 42.7584L11.041 42.7675C11.0227 42.7772 11.0023 42.7823 10.9816 42.7823C10.9608 42.7823 10.9404 42.7772 10.9221 42.7675Z" fill="#455A64"/>
<path d="M11.1896 42.6126L10.5447 42.2414C10.5111 42.2233 10.5111 42.193 10.5447 42.1733L10.5615 42.1642C10.5799 42.1549 10.6002 42.15 10.6209 42.15C10.6416 42.15 10.662 42.1549 10.6804 42.1642L11.3237 42.5338C11.3573 42.5535 11.3573 42.5838 11.3237 42.602L11.3085 42.6126C11.29 42.6215 11.2696 42.6262 11.249 42.6262C11.2284 42.6262 11.2081 42.6215 11.1896 42.6126Z" fill="#455A64"/>
<path d="M11.9686 42.2158C11.9583 42.217 11.948 42.2143 11.9396 42.2082L11.8451 42.1537L11.5402 42.3279C11.5337 42.3322 11.526 42.3346 11.5181 42.3346C11.5102 42.3346 11.5025 42.3322 11.496 42.3279L11.4609 42.3082L11.4457 42.2976V42.2824L11.4304 41.9022C11.4294 41.8967 11.4294 41.8911 11.4304 41.8856C11.4355 41.8798 11.4417 41.8751 11.4487 41.8719L11.4899 41.8477C11.5007 41.8414 11.5126 41.8373 11.525 41.8356C11.5363 41.8357 11.5473 41.8389 11.557 41.8447L11.8878 42.034L11.9549 41.9961C11.9649 41.9895 11.9764 41.9853 11.9884 41.984C11.9993 41.984 12.0099 41.9871 12.0189 41.9931L12.0418 42.0067C12.0525 42.0067 12.057 42.0173 12.0555 42.0234C12.054 42.0295 12.0555 42.034 12.0357 42.0416L11.9686 42.081L12.0631 42.1355C12.0738 42.1355 12.0784 42.1461 12.0768 42.1522C12.0753 42.1582 12.0692 42.1643 12.0555 42.1718L12.0037 42.2006C11.9938 42.2091 11.9816 42.2144 11.9686 42.2158ZM11.7841 42.0961L11.5478 41.9613L11.5631 42.2234L11.7841 42.0961Z" fill="#455A64"/>
<path d="M12.2713 41.9767C12.1646 41.9818 12.0587 41.9561 11.9664 41.9025C11.8719 41.848 11.8292 41.7889 11.8368 41.7253C11.8444 41.6617 11.9039 41.5995 12.0121 41.5374C12.0548 41.5123 12.0997 41.491 12.1463 41.4738C12.1872 41.4581 12.2296 41.4464 12.2728 41.439C12.2792 41.4365 12.2863 41.4365 12.2926 41.439C12.2933 41.4415 12.2933 41.4441 12.2926 41.4466L12.3064 41.4859C12.3079 41.4876 12.3087 41.4898 12.3087 41.492C12.3087 41.4942 12.3079 41.4964 12.3064 41.4981H12.2896C12.2239 41.511 12.161 41.535 12.1036 41.5692C12.0304 41.6101 11.9908 41.6541 11.9847 41.698C11.9786 41.7419 12.0121 41.7859 12.0853 41.8268C12.1522 41.8674 12.2295 41.8879 12.3079 41.8858C12.3854 41.883 12.461 41.8606 12.5274 41.8207C12.5512 41.807 12.5741 41.7918 12.596 41.7753C12.6134 41.763 12.6288 41.7482 12.6418 41.7313L12.4893 41.6435L12.3628 41.7162C12.352 41.7225 12.3401 41.7266 12.3277 41.7283C12.3169 41.7279 12.3064 41.7248 12.2972 41.7192L12.2759 41.7071C12.2657 41.701 12.2611 41.695 12.2621 41.6889C12.2621 41.6889 12.2698 41.6783 12.282 41.6707L12.4847 41.5541C12.4967 41.5469 12.5104 41.5427 12.5244 41.542C12.5368 41.5421 12.549 41.5458 12.5594 41.5526L12.779 41.6783C12.7851 41.6808 12.7905 41.685 12.7942 41.6904C12.7942 41.6904 12.7942 41.698 12.7942 41.7041C12.7463 41.7753 12.6799 41.8323 12.6021 41.8692C12.5024 41.9316 12.3888 41.9685 12.2713 41.9767Z" fill="#455A64"/>
<path d="M16.4893 39.0206L16.8476 39.2266C16.8628 39.234 16.8795 39.2379 16.8964 39.2379C16.9133 39.2379 16.93 39.234 16.9452 39.2266L17.3065 39.0206C17.3324 39.0039 17.3324 38.9797 17.3065 38.9645L16.9467 38.7585C16.9318 38.7503 16.915 38.746 16.8979 38.746C16.8808 38.746 16.864 38.7503 16.8491 38.7585L16.4893 38.9645C16.4619 38.9797 16.4619 39.0039 16.4893 39.0206Z" fill="#455A64"/>
<path d="M16.7403 38.7403C16.6929 38.7174 16.6406 38.706 16.5879 38.707C16.5351 38.7056 16.4827 38.7171 16.4354 38.7403C16.3653 38.7812 16.3653 38.8433 16.4354 38.8827L16.5589 38.9539L16.6488 38.9357L16.5254 38.8661C16.5144 38.8619 16.505 38.8545 16.4983 38.8449C16.4917 38.8353 16.4881 38.824 16.4881 38.8123C16.4881 38.8006 16.4917 38.7893 16.4983 38.7796C16.505 38.77 16.5144 38.7627 16.5254 38.7585C16.545 38.7479 16.567 38.7422 16.5894 38.7419C16.6114 38.7412 16.6331 38.747 16.6519 38.7585L16.7754 38.8297L16.8669 38.8115L16.7403 38.7403Z" fill="#455A64"/>
<path d="M23.2808 34.9826C23.2204 34.9805 23.1605 34.9941 23.107 35.0219L22.1923 35.5445C22.113 35.5885 22.113 35.6597 22.1923 35.7051L22.5246 35.8945C22.5781 35.9223 22.638 35.9359 22.6984 35.9338C22.7265 35.9336 22.7546 35.9311 22.7823 35.9263C22.8135 35.9212 22.8435 35.9105 22.8707 35.8945L23.7854 35.3734C23.8632 35.3279 23.8632 35.2567 23.7854 35.2128L23.4531 35.0219C23.4001 34.9941 23.3407 34.9805 23.2808 34.9826ZM22.7015 35.8914C22.6753 35.891 22.6497 35.8843 22.6268 35.8717L22.2959 35.6809C22.2832 35.6764 22.2722 35.668 22.2644 35.6571C22.2566 35.6461 22.2524 35.633 22.2524 35.6195C22.2524 35.6061 22.2566 35.593 22.2644 35.582C22.2722 35.571 22.2832 35.5627 22.2959 35.5582L23.2107 35.0371C23.2252 35.0282 23.2412 35.022 23.2579 35.0189H23.2854C23.3112 35.0197 23.3363 35.027 23.3585 35.0401L23.6894 35.2295C23.7021 35.234 23.7131 35.2423 23.7209 35.2533C23.7287 35.2643 23.7329 35.2774 23.7329 35.2908C23.7329 35.3043 23.7287 35.3174 23.7209 35.3283C23.7131 35.3393 23.7021 35.3477 23.6894 35.3522L22.7746 35.8748C22.7524 35.8879 22.7273 35.8952 22.7015 35.896V35.8914Z" fill="#455A64"/>
<path d="M22.7278 35.8327L22.7156 35.8251L22.4107 35.6539C22.4014 35.6505 22.3933 35.6443 22.3876 35.6361C22.382 35.628 22.3789 35.6184 22.3789 35.6085C22.3789 35.5986 22.382 35.5889 22.3876 35.5808C22.3933 35.5727 22.4014 35.5665 22.4107 35.563L23.2309 35.0934C23.236 35.0899 23.2417 35.0874 23.2477 35.0859L23.2599 35.0934L23.5648 35.2646C23.5737 35.2683 23.5812 35.2745 23.5865 35.2825C23.5918 35.2904 23.5947 35.2998 23.5947 35.3093C23.5947 35.3188 23.5918 35.3282 23.5865 35.3361C23.5812 35.3441 23.5737 35.3503 23.5648 35.354L22.7446 35.8251L22.7278 35.8327Z" fill="#455A64"/>
<path d="M23.5026 34.9973C23.5341 34.9899 23.5668 34.9892 23.5985 34.9952C23.6303 35.0012 23.6605 35.0138 23.687 35.0321L23.748 35.0685C23.8166 35.1063 23.8456 35.1548 23.8136 35.176L23.7541 35.2124L23.4492 35.0321L23.5026 34.9973Z" fill="#455A64"/>
<path d="M18.2936 43.9109C18.5177 43.9017 18.7368 43.8416 18.9339 43.7352C19.3059 43.5216 19.4019 43.2308 18.8119 42.8657C18.7921 42.976 18.7468 43.0801 18.6796 43.17C18.6124 43.2599 18.5252 43.3331 18.4247 43.3838C17.9186 43.6746 17.3423 43.7488 16.8773 43.4838C16.4123 43.2187 16.5724 42.8248 17.0816 42.534C17.4092 42.3483 17.7802 42.2512 18.1574 42.2526C18.5346 42.2539 18.9049 42.3536 19.2312 42.5416C20.0925 43.0354 19.8989 43.558 19.2891 43.9049C18.97 44.0825 18.6145 44.186 18.2494 44.2078L18.2936 43.9109ZM18.5086 42.7082C18.0619 42.5158 17.6823 42.5431 17.3941 42.7082C17.1517 42.846 17.1029 43.0475 17.3712 43.2005C17.5056 43.2727 17.6573 43.3071 17.8099 43.2999C17.9626 43.2927 18.1103 43.2442 18.2372 43.1596C18.3227 43.12 18.3943 43.0558 18.4427 42.9753C18.4911 42.8949 18.514 42.8018 18.5086 42.7082Z" fill="#455A64"/>
<path d="M19.5773 41.7551C19.6682 41.7003 19.7709 41.6678 19.877 41.6604C19.9831 41.6531 20.0894 41.671 20.1871 41.7126C20.3395 41.8035 20.3106 41.955 20.1154 42.0656C20.0231 42.1217 19.9185 42.1549 19.8106 42.1626C19.7026 42.1702 19.5944 42.152 19.4949 42.1095C19.3379 42.0201 19.3775 41.8671 19.5773 41.7551ZM20.7679 42.4382C20.8589 42.3835 20.9617 42.3513 21.0678 42.3442C21.1739 42.3371 21.2802 42.3553 21.3777 42.3973C21.5302 42.4867 21.5012 42.6382 21.3061 42.7503C21.2136 42.806 21.1091 42.839 21.0012 42.8467C20.8933 42.8543 20.7851 42.8363 20.6856 42.7942C20.5301 42.7048 20.5682 42.5503 20.7634 42.4443L20.7679 42.4382Z" fill="#455A64"/>
<path d="M20.9664 41.6131C20.2178 41.1829 20.2178 40.736 20.8307 40.3831C21.4435 40.0301 22.2271 40.0332 22.9742 40.4618C23.7212 40.8905 23.7364 41.351 23.1266 41.704C22.5168 42.0569 21.7164 42.0433 20.9664 41.6131ZM22.4619 40.7542C21.8353 40.3952 21.4329 40.3982 21.1447 40.5633C20.8566 40.7284 20.8505 40.9602 21.4771 41.3207C22.1037 41.6812 22.5336 41.6873 22.8171 41.5252C23.1007 41.3631 23.09 41.1147 22.4619 40.7542Z" fill="#455A64"/>
<path d="M23.3505 40.2324C22.6005 39.8023 22.6005 39.3554 23.2133 39.004C23.8262 38.6525 24.6113 38.6541 25.3568 39.0812C26.1023 39.5084 26.1282 39.9719 25.5093 40.3233C24.8903 40.6747 24.0991 40.6626 23.3505 40.2324ZM24.8461 39.3751C24.218 39.0146 23.8155 39.0176 23.5274 39.1827C23.2392 39.3478 23.2331 39.5796 23.8613 39.9401C24.4894 40.3006 24.9178 40.3052 25.1998 40.1431C25.4818 39.981 25.4727 39.7341 24.8461 39.3751Z" fill="#455A64"/>
<path d="M19.5062 47.2361L31.5013 40.356C31.6431 40.2848 31.7997 40.2477 31.9586 40.2477C32.1175 40.2477 32.2742 40.2848 32.416 40.356L35.4818 42.1147C35.7349 42.2661 35.7349 42.4949 35.4818 42.6403L23.4913 49.5203C23.3495 49.5916 23.1929 49.6287 23.034 49.6287C22.8751 49.6287 22.7184 49.5916 22.5766 49.5203L19.5062 47.7617C19.2531 47.6163 19.2531 47.3815 19.5062 47.2361Z" fill="#668A99"/>
<path d="M20.7959 47.4677L22.9425 48.6977C23.0035 48.729 23.0712 48.7454 23.1399 48.7454C23.2086 48.7454 23.2763 48.729 23.3373 48.6977L26.5007 46.8799C26.6105 46.8163 26.6105 46.7148 26.5007 46.6527L24.3542 45.4212C24.2929 45.3906 24.2253 45.3746 24.1568 45.3746C24.0882 45.3746 24.0206 45.3906 23.9593 45.4212L20.7959 47.2389C20.7713 47.2465 20.7498 47.2616 20.7345 47.2822C20.7192 47.3028 20.7109 47.3277 20.7109 47.3533C20.7109 47.3789 20.7192 47.4038 20.7345 47.4244C20.7498 47.445 20.7713 47.4601 20.7959 47.4677Z" fill="#FAFAFA"/>
<path d="M24.0329 46.8761L26.5773 46.7761L24.042 46.7383L24.1442 45.3795L23.728 47.0564L20.7109 47.3533L23.1746 47.2381L23.1136 48.7453L23.3026 47.2321L24.0085 47.1987L24.0329 46.8761Z" fill="#668A99"/>
<path d="M25.3695 44.7807L28.4689 43.0099C28.5461 42.9711 28.6315 42.9508 28.7181 42.9508C28.8047 42.9508 28.8901 42.9711 28.9674 43.0099C29.1031 43.0872 29.0985 43.2144 28.9567 43.2962L25.8573 45.067C25.7801 45.1058 25.6947 45.1261 25.6081 45.1261C25.5215 45.1261 25.4361 45.1058 25.3588 45.067C25.2247 44.9897 25.2308 44.8685 25.3695 44.7807Z" fill="#FAFAFA"/>
<path d="M26.3206 45.3226L32.6017 41.716C32.679 41.6771 32.7644 41.6569 32.851 41.6569C32.9376 41.6569 33.023 41.6771 33.1002 41.716C33.2359 41.7932 33.2313 41.922 33.0896 42.0023L26.8085 45.6089C26.7309 45.6477 26.6453 45.6679 26.5584 45.6679C26.4716 45.6679 26.386 45.6477 26.3084 45.6089C26.1743 45.5362 26.1788 45.409 26.3206 45.3226Z" fill="#FAFAFA"/>
<path d="M27.2769 45.8734L33.5595 42.2668C33.6368 42.2279 33.7221 42.2076 33.8087 42.2076C33.8953 42.2076 33.9807 42.2279 34.058 42.2668C34.1922 42.344 34.1876 42.4728 34.0473 42.553L27.7647 46.1597C27.6875 46.1986 27.6021 46.2188 27.5155 46.2188C27.4289 46.2188 27.3435 46.1986 27.2662 46.1597C27.1305 46.0794 27.1366 45.9552 27.2769 45.8734Z" fill="#FAFAFA"/>
<defs>
<filter id="filter0_dd_4894_16877" x="12.5" y="1.2019" width="31" height="36.3806" filterUnits="userSpaceOnUse" color-interpolation-filters="sRGB">
<feFlood flood-opacity="0" result="BackgroundImageFix"/>
<feColorMatrix in="SourceAlpha" type="matrix" values="0 0 0 0 0 0 0 0 0 0 0 0 0 0 0 0 0 0 127 0" result="hardAlpha"/>
<feOffset dy="2"/>
<feGaussianBlur stdDeviation="2"/>
<feColorMatrix type="matrix" values="0 0 0 0 0.0784314 0 0 0 0 0.109804 0 0 0 0 0.121569 0 0 0 0.04 0"/>
<feBlend mode="normal" in2="BackgroundImageFix" result="effect1_dropShadow_4894_16877"/>
<feColorMatrix in="SourceAlpha" type="matrix" values="0 0 0 0 0 0 0 0 0 0 0 0 0 0 0 0 0 0 127 0" result="hardAlpha"/>
<feOffset/>
<feGaussianBlur stdDeviation="0.5"/>
<feColorMatrix type="matrix" values="0 0 0 0 0.0784314 0 0 0 0 0.109804 0 0 0 0 0.121569 0 0 0 0.02 0"/>
<feBlend mode="normal" in2="effect1_dropShadow_4894_16877" result="effect2_dropShadow_4894_16877"/>
<feBlend mode="normal" in="SourceGraphic" in2="effect2_dropShadow_4894_16877" result="shape"/>
</filter>
</defs>
</svg>
