<svg width="156" height="50" viewBox="0 0 156 50" fill="none" xmlns="http://www.w3.org/2000/svg">
<rect width="156" height="50" rx="8" fill="black"/>
<path d="M16.4847 13.3792C16.144 13.7448 15.9719 14.2135 16.0038 14.6892V35.3108C15.9718 35.7865 16.1439 36.2552 16.4847 36.6208L16.5616 36.688L29.4366 25.1363V24.8637L16.5616 13.3115L16.4847 13.3792Z" fill="url(#paint0_linear_4990_15498)"/>
<path d="M33.7289 28.9888L29.4375 25.1365V24.864L33.7299 21.0127L33.8267 21.0622L38.9114 23.6544C40.3638 24.3948 40.3638 25.6062 38.9114 26.347L33.8267 28.9392L33.7289 28.9888Z" fill="url(#paint1_linear_4990_15498)"/>
<path d="M33.8255 28.9385L29.4363 25L16.4844 36.6207C16.7803 36.8549 17.1582 36.9888 17.5527 36.9993C17.9471 37.0097 18.3332 36.8961 18.644 36.678L33.8255 28.9385Z" fill="url(#paint2_linear_4990_15498)"/>
<path d="M33.8255 21.0615L18.644 13.322C18.3332 13.1039 17.9471 12.9902 17.5527 13.0007C17.1582 13.0111 16.7803 13.145 16.4844 13.3792L29.4363 25L33.8255 21.0615Z" fill="url(#paint3_linear_4990_15498)"/>
<path opacity="0.2" d="M33.7287 28.8516L18.644 36.5416C18.3451 36.7457 17.9804 36.8571 17.6048 36.8589C17.2291 36.8607 16.8631 36.7528 16.5618 36.5515L16.4844 36.621L16.5613 36.6882L16.5618 36.6878C16.863 36.8891 17.2291 36.9971 17.6048 36.9953C17.9804 36.9935 18.3452 36.882 18.644 36.6778L33.8255 28.9383L33.7287 28.8516Z" fill="black"/>
<path opacity="0.12" d="M16.4847 36.4848C16.144 36.1192 15.9719 35.6505 16.0038 35.1748V35.311C15.9719 35.7868 16.1439 36.2554 16.4847 36.621L16.5621 36.5515L16.4847 36.4848Z" fill="black"/>
<path opacity="0.12" d="M38.908 26.2096L33.7266 28.8514L33.8233 28.9381L38.908 26.3459C39.2072 26.2294 39.466 26.0431 39.6576 25.8064C39.8492 25.5697 39.9666 25.2912 39.9975 25C39.9332 25.2637 39.8012 25.5104 39.6121 25.7204C39.423 25.9303 39.1819 26.0979 38.908 26.2096Z" fill="black"/>
<path opacity="0.25" d="M18.6445 13.4589L38.9107 23.7902C39.1847 23.9019 39.4258 24.0695 39.615 24.2796C39.8041 24.4896 39.936 24.7364 40.0001 25.0003C39.9694 24.7089 39.8521 24.4303 39.6605 24.1935C39.4689 23.9567 39.2099 23.7703 38.9107 23.6539L18.6445 13.3227C17.1921 12.5822 16.0039 13.1972 16.0039 14.6899V14.8261C16.0039 13.3336 17.1921 12.7185 18.6445 13.4589Z" fill="white"/>
<path d="M55.001 30.192C53.9556 30.192 53.0383 29.952 52.249 29.472C51.4596 28.9813 50.8463 28.304 50.409 27.44C49.9716 26.5653 49.753 25.5573 49.753 24.416C49.753 23.2747 49.9716 22.2667 50.409 21.392C50.857 20.5173 51.4863 19.8347 52.297 19.344C53.1183 18.8533 54.0836 18.608 55.193 18.608C56.4516 18.608 57.497 18.912 58.329 19.52C59.1716 20.128 59.7156 20.9653 59.961 22.032H58.409C58.2596 21.36 57.9023 20.8267 57.337 20.432C56.7823 20.0373 56.0676 19.84 55.193 19.84C54.3716 19.84 53.657 20.0267 53.049 20.4C52.441 20.7627 51.9663 21.2853 51.625 21.968C51.2943 22.6507 51.129 23.4667 51.129 24.416C51.129 25.3653 51.2943 26.1813 51.625 26.864C51.9556 27.5467 52.4143 28.0747 53.001 28.448C53.5876 28.8107 54.2703 28.992 55.049 28.992C56.2436 28.992 57.145 28.6453 57.753 27.952C58.361 27.248 58.7076 26.288 58.793 25.072H55.561V24.016H60.169V30H58.937L58.825 28.16C58.4196 28.8107 57.9236 29.312 57.337 29.664C56.7503 30.016 55.9716 30.192 55.001 30.192ZM65.8304 30.192C65.0837 30.192 64.4117 30.0213 63.8144 29.68C63.217 29.3387 62.7424 28.8587 62.3904 28.24C62.049 27.6107 61.8784 26.8747 61.8784 26.032C61.8784 25.1893 62.0544 24.4587 62.4064 23.84C62.7584 23.2107 63.233 22.7253 63.8304 22.384C64.4384 22.0427 65.1157 21.872 65.8624 21.872C66.609 21.872 67.281 22.0427 67.8784 22.384C68.4757 22.7253 68.945 23.2107 69.2864 23.84C69.6384 24.4587 69.8144 25.1893 69.8144 26.032C69.8144 26.8747 69.6384 27.6107 69.2864 28.24C68.9344 28.8587 68.4544 29.3387 67.8464 29.68C67.249 30.0213 66.577 30.192 65.8304 30.192ZM65.8304 29.04C66.289 29.04 66.7157 28.928 67.1104 28.704C67.505 28.48 67.825 28.144 68.0704 27.696C68.3157 27.248 68.4384 26.6933 68.4384 26.032C68.4384 25.3707 68.3157 24.816 68.0704 24.368C67.8357 23.92 67.521 23.584 67.1264 23.36C66.7317 23.136 66.3104 23.024 65.8624 23.024C65.4037 23.024 64.977 23.136 64.5824 23.36C64.1877 23.584 63.8677 23.92 63.6224 24.368C63.377 24.816 63.2544 25.3707 63.2544 26.032C63.2544 26.6933 63.377 27.248 63.6224 27.696C63.8677 28.144 64.1824 28.48 64.5664 28.704C64.961 28.928 65.3824 29.04 65.8304 29.04ZM75.2991 30.192C74.5524 30.192 73.8804 30.0213 73.2831 29.68C72.6858 29.3387 72.2111 28.8587 71.8591 28.24C71.5178 27.6107 71.3471 26.8747 71.3471 26.032C71.3471 25.1893 71.5231 24.4587 71.8751 23.84C72.2271 23.2107 72.7018 22.7253 73.2991 22.384C73.9071 22.0427 74.5844 21.872 75.3311 21.872C76.0778 21.872 76.7498 22.0427 77.3471 22.384C77.9444 22.7253 78.4138 23.2107 78.7551 23.84C79.1071 24.4587 79.2831 25.1893 79.2831 26.032C79.2831 26.8747 79.1071 27.6107 78.7551 28.24C78.4031 28.8587 77.9231 29.3387 77.3151 29.68C76.7178 30.0213 76.0458 30.192 75.2991 30.192ZM75.2991 29.04C75.7578 29.04 76.1844 28.928 76.5791 28.704C76.9738 28.48 77.2938 28.144 77.5391 27.696C77.7844 27.248 77.9071 26.6933 77.9071 26.032C77.9071 25.3707 77.7844 24.816 77.5391 24.368C77.3044 23.92 76.9898 23.584 76.5951 23.36C76.2004 23.136 75.7791 23.024 75.3311 23.024C74.8724 23.024 74.4458 23.136 74.0511 23.36C73.6564 23.584 73.3364 23.92 73.0911 24.368C72.8458 24.816 72.7231 25.3707 72.7231 26.032C72.7231 26.6933 72.8458 27.248 73.0911 27.696C73.3364 28.144 73.6511 28.48 74.0351 28.704C74.4298 28.928 74.8511 29.04 75.2991 29.04ZM83.9441 27.504C83.4961 27.504 83.0854 27.4453 82.7121 27.328L81.9121 28.08C82.0294 28.1653 82.1734 28.24 82.3441 28.304C82.5254 28.3573 82.7814 28.4107 83.1121 28.464C83.4428 28.5067 83.9068 28.5547 84.5041 28.608C85.5708 28.6827 86.3334 28.928 86.7921 29.344C87.2508 29.76 87.4801 30.304 87.4801 30.976C87.4801 31.4347 87.3521 31.872 87.0961 32.288C86.8508 32.704 86.4668 33.0453 85.9441 33.312C85.4321 33.5787 84.7708 33.712 83.9601 33.712C83.2454 33.712 82.6108 33.616 82.0561 33.424C81.5014 33.2427 81.0694 32.96 80.7601 32.576C80.4508 32.2027 80.2961 31.728 80.2961 31.152C80.2961 30.8533 80.3761 30.528 80.5361 30.176C80.6961 29.8347 80.9948 29.5093 81.4321 29.2C81.1974 29.104 80.9948 29.0027 80.8241 28.896C80.6641 28.7787 80.5148 28.6507 80.3761 28.512V28.144L81.7361 26.8C81.1068 26.2667 80.7921 25.5627 80.7921 24.688C80.7921 24.1653 80.9148 23.6907 81.1601 23.264C81.4054 22.8373 81.7628 22.5013 82.2321 22.256C82.7014 22 83.2721 21.872 83.9441 21.872C84.4028 21.872 84.8188 21.936 85.1921 22.064H88.1201V23.072L86.6321 23.136C86.9414 23.584 87.0961 24.1013 87.0961 24.688C87.0961 25.2107 86.9681 25.6853 86.7121 26.112C86.4668 26.5387 86.1094 26.88 85.6401 27.136C85.1814 27.3813 84.6161 27.504 83.9441 27.504ZM83.9441 26.4C84.5094 26.4 84.9574 26.256 85.2881 25.968C85.6294 25.6693 85.8001 25.2427 85.8001 24.688C85.8001 24.144 85.6294 23.728 85.2881 23.44C84.9574 23.1413 84.5094 22.992 83.9441 22.992C83.3681 22.992 82.9094 23.1413 82.5681 23.44C82.2374 23.728 82.0721 24.144 82.0721 24.688C82.0721 25.2427 82.2374 25.6693 82.5681 25.968C82.9094 26.256 83.3681 26.4 83.9441 26.4ZM81.6081 31.024C81.6081 31.5573 81.8321 31.952 82.2801 32.208C82.7281 32.4747 83.2881 32.608 83.9601 32.608C84.6214 32.608 85.1494 32.464 85.5441 32.176C85.9494 31.888 86.1521 31.504 86.1521 31.024C86.1521 30.6827 86.0134 30.384 85.7361 30.128C85.4588 29.8827 84.9468 29.7387 84.2001 29.696C83.6134 29.6533 83.1068 29.6 82.6801 29.536C82.2428 29.7707 81.9548 30.0213 81.8161 30.288C81.6774 30.5653 81.6081 30.8107 81.6081 31.024ZM89.6362 30V18.48H90.9802V30H89.6362ZM96.7511 30.192C95.9938 30.192 95.3218 30.0213 94.7351 29.68C94.1484 29.328 93.6844 28.8427 93.3431 28.224C93.0124 27.6053 92.8471 26.8747 92.8471 26.032C92.8471 25.2 93.0124 24.4747 93.3431 23.856C93.6738 23.2267 94.1324 22.7413 94.7191 22.4C95.3164 22.048 96.0044 21.872 96.7831 21.872C97.5511 21.872 98.2124 22.048 98.7671 22.4C99.3324 22.7413 99.7644 23.1947 100.063 23.76C100.362 24.3253 100.511 24.9333 100.511 25.584C100.511 25.7013 100.506 25.8187 100.495 25.936C100.495 26.0533 100.495 26.1867 100.495 26.336H94.1751C94.2071 26.944 94.3458 27.4507 94.5911 27.856C94.8471 28.2507 95.1618 28.5493 95.5351 28.752C95.9191 28.9547 96.3244 29.056 96.7511 29.056C97.3058 29.056 97.7698 28.928 98.1431 28.672C98.5164 28.416 98.7884 28.0693 98.9591 27.632H100.287C100.074 28.368 99.6631 28.9813 99.0551 29.472C98.4578 29.952 97.6898 30.192 96.7511 30.192ZM96.7511 23.008C96.1111 23.008 95.5404 23.2053 95.0391 23.6C94.5484 23.984 94.2658 24.5493 94.1911 25.296H99.1831C99.1511 24.5813 98.9058 24.0213 98.4471 23.616C97.9884 23.2107 97.4231 23.008 96.7511 23.008ZM106.607 30V18.8H110.287C111.162 18.8 111.882 18.944 112.447 19.232C113.012 19.52 113.428 19.9093 113.695 20.4C113.972 20.8907 114.111 21.4453 114.111 22.064C114.111 22.672 113.978 23.2213 113.711 23.712C113.444 24.2027 113.028 24.5973 112.463 24.896C111.898 25.184 111.172 25.328 110.287 25.328H107.951V30H106.607ZM107.951 24.192H110.255C111.151 24.192 111.786 24.0053 112.159 23.632C112.543 23.248 112.735 22.7253 112.735 22.064C112.735 21.392 112.543 20.8693 112.159 20.496C111.786 20.112 111.151 19.92 110.255 19.92H107.951V24.192ZM115.792 30V18.48H117.136V30H115.792ZM121.979 30.192C121.318 30.192 120.769 30.08 120.331 29.856C119.894 29.632 119.569 29.3333 119.355 28.96C119.142 28.5867 119.035 28.1813 119.035 27.744C119.035 26.9333 119.345 26.3093 119.963 25.872C120.582 25.4347 121.425 25.216 122.491 25.216H124.635V25.12C124.635 24.4267 124.454 23.904 124.091 23.552C123.729 23.1893 123.243 23.008 122.635 23.008C122.113 23.008 121.659 23.1413 121.275 23.408C120.902 23.664 120.667 24.0427 120.571 24.544H119.195C119.249 23.968 119.441 23.4827 119.771 23.088C120.113 22.6933 120.534 22.3947 121.035 22.192C121.537 21.9787 122.07 21.872 122.635 21.872C123.745 21.872 124.577 22.1707 125.131 22.768C125.697 23.3547 125.979 24.1387 125.979 25.12V30H124.779L124.699 28.576C124.475 29.024 124.145 29.408 123.707 29.728C123.281 30.0373 122.705 30.192 121.979 30.192ZM122.187 29.056C122.699 29.056 123.137 28.9227 123.499 28.656C123.873 28.3893 124.155 28.0427 124.347 27.616C124.539 27.1893 124.635 26.7413 124.635 26.272V26.256H122.603C121.814 26.256 121.254 26.3947 120.923 26.672C120.603 26.9387 120.443 27.2747 120.443 27.68C120.443 28.096 120.593 28.432 120.891 28.688C121.201 28.9333 121.633 29.056 122.187 29.056ZM128.625 33.52L130.593 29.232H130.129L126.977 22.064H128.433L131.057 28.24L133.841 22.064H135.233L130.033 33.52H128.625Z" fill="white"/>
<defs>
<linearGradient id="paint0_linear_4990_15498" x1="28.2949" y1="14.4717" x2="12.7381" y2="31.8104" gradientUnits="userSpaceOnUse">
<stop stop-color="#00A0FF"/>
<stop offset="0.00657" stop-color="#00A1FF"/>
<stop offset="0.2601" stop-color="#00BEFF"/>
<stop offset="0.5122" stop-color="#00D2FF"/>
<stop offset="0.7604" stop-color="#00DFFF"/>
<stop offset="1" stop-color="#00E3FF"/>
</linearGradient>
<linearGradient id="paint1_linear_4990_15498" x1="40.8025" y1="25.0007" x2="15.6564" y2="25.0007" gradientUnits="userSpaceOnUse">
<stop stop-color="#FFE000"/>
<stop offset="0.4087" stop-color="#FFBD00"/>
<stop offset="0.7754" stop-color="#FFA500"/>
<stop offset="1" stop-color="#FF9C00"/>
</linearGradient>
<linearGradient id="paint2_linear_4990_15498" x1="31.4405" y1="27.14" x2="10.3443" y2="50.6527" gradientUnits="userSpaceOnUse">
<stop stop-color="#FF3A44"/>
<stop offset="1" stop-color="#C31162"/>
</linearGradient>
<linearGradient id="paint3_linear_4990_15498" x1="13.2232" y1="6.51488" x2="22.6435" y2="17.0143" gradientUnits="userSpaceOnUse">
<stop stop-color="#32A071"/>
<stop offset="0.0685" stop-color="#2DA771"/>
<stop offset="0.4762" stop-color="#15CF74"/>
<stop offset="0.8009" stop-color="#06E775"/>
<stop offset="1" stop-color="#00F076"/>
</linearGradient>
</defs>
</svg>
