<svg width="156" height="50" viewBox="0 0 156 50" fill="none" xmlns="http://www.w3.org/2000/svg">
<rect width="156" height="50" rx="8" fill="black"/>
<path d="M31.8693 25.7631C31.8808 24.8432 32.1186 23.9412 32.5605 23.1412C33.0023 22.3411 33.6339 21.6688 34.3966 21.187C33.9121 20.4759 33.273 19.8908 32.53 19.478C31.7869 19.0652 30.9605 18.8361 30.1163 18.8089C28.3154 18.6147 26.5695 19.9164 25.6518 19.9164C24.7163 19.9164 23.3034 18.8282 21.7819 18.8604C20.7977 18.8931 19.8386 19.1872 18.9979 19.7141C18.1573 20.241 17.4637 20.9826 16.9849 21.8669C14.9108 25.5573 16.4579 30.9809 18.4447 33.964C19.4388 35.4247 20.6005 37.0563 22.1207 36.9985C23.6082 36.9351 24.1638 36.0237 25.9594 36.0237C27.7383 36.0237 28.2595 36.9985 29.8105 36.9617C31.4067 36.9351 32.4124 35.4945 33.3716 34.0199C34.0858 32.9791 34.6354 31.8288 35 30.6116C34.0726 30.2085 33.2813 29.5338 32.7245 28.6716C32.1678 27.8094 31.8704 26.7979 31.8693 25.7631Z" fill="white"/>
<path d="M28.9427 16.8472C29.813 15.7735 30.2418 14.3935 30.1379 13.0001C28.8083 13.1436 27.5801 13.7967 26.698 14.8292C26.2667 15.3336 25.9364 15.9205 25.726 16.5561C25.5155 17.1918 25.429 17.8639 25.4714 18.5339C26.1365 18.541 26.7944 18.3928 27.3957 18.1007C27.997 17.8085 28.5259 17.3799 28.9427 16.8472Z" fill="white"/>
<path d="M44.48 30L48.608 18.8H50.032L54.144 30H52.72L51.696 27.12H46.928L45.888 30H44.48ZM47.328 26.032H51.296L49.312 20.496L47.328 26.032ZM55.729 33.52V22.064H56.945L57.073 23.376C57.329 22.992 57.6917 22.6453 58.161 22.336C58.641 22.0267 59.249 21.872 59.985 21.872C60.7743 21.872 61.4623 22.0533 62.049 22.416C62.6357 22.7787 63.089 23.2747 63.409 23.904C63.7397 24.5333 63.905 25.248 63.905 26.048C63.905 26.848 63.7397 27.5627 63.409 28.192C63.089 28.8107 62.6303 29.3013 62.033 29.664C61.4463 30.016 60.7583 30.192 59.969 30.192C59.3183 30.192 58.737 30.0587 58.225 29.792C57.7237 29.5253 57.3397 29.152 57.073 28.672V33.52H55.729ZM59.825 29.024C60.3583 29.024 60.8277 28.9013 61.233 28.656C61.6383 28.4 61.9583 28.048 62.193 27.6C62.4277 27.152 62.545 26.6293 62.545 26.032C62.545 25.4347 62.4277 24.912 62.193 24.464C61.9583 24.016 61.6383 23.6693 61.233 23.424C60.8277 23.168 60.3583 23.04 59.825 23.04C59.2917 23.04 58.8223 23.168 58.417 23.424C58.0117 23.6693 57.6917 24.016 57.457 24.464C57.2223 24.912 57.105 25.4347 57.105 26.032C57.105 26.6293 57.2223 27.152 57.457 27.6C57.6917 28.048 58.0117 28.4 58.417 28.656C58.8223 28.9013 59.2917 29.024 59.825 29.024ZM65.7759 33.52V22.064H66.9919L67.1199 23.376C67.3759 22.992 67.7385 22.6453 68.2079 22.336C68.6879 22.0267 69.2959 21.872 70.0319 21.872C70.8212 21.872 71.5092 22.0533 72.0959 22.416C72.6825 22.7787 73.1359 23.2747 73.4559 23.904C73.7865 24.5333 73.9519 25.248 73.9519 26.048C73.9519 26.848 73.7865 27.5627 73.4559 28.192C73.1359 28.8107 72.6772 29.3013 72.0799 29.664C71.4932 30.016 70.8052 30.192 70.0159 30.192C69.3652 30.192 68.7839 30.0587 68.2719 29.792C67.7705 29.5253 67.3865 29.152 67.1199 28.672V33.52H65.7759ZM69.8719 29.024C70.4052 29.024 70.8745 28.9013 71.2799 28.656C71.6852 28.4 72.0052 28.048 72.2399 27.6C72.4745 27.152 72.5919 26.6293 72.5919 26.032C72.5919 25.4347 72.4745 24.912 72.2399 24.464C72.0052 24.016 71.6852 23.6693 71.2799 23.424C70.8745 23.168 70.4052 23.04 69.8719 23.04C69.3385 23.04 68.8692 23.168 68.4639 23.424C68.0585 23.6693 67.7385 24.016 67.5039 24.464C67.2692 24.912 67.1519 25.4347 67.1519 26.032C67.1519 26.6293 67.2692 27.152 67.5039 27.6C67.7385 28.048 68.0585 28.4 68.4639 28.656C68.8692 28.9013 69.3385 29.024 69.8719 29.024ZM83.7051 30.192C82.8838 30.192 82.1691 30.0427 81.5611 29.744C80.9531 29.4453 80.4838 29.0293 80.1531 28.496C79.8225 27.9627 79.6571 27.344 79.6571 26.64H81.0651C81.0651 27.0773 81.1665 27.4827 81.3691 27.856C81.5718 28.2187 81.8651 28.512 82.2491 28.736C82.6438 28.9493 83.1291 29.056 83.7051 29.056C84.4625 29.056 85.0491 28.8747 85.4651 28.512C85.8811 28.1493 86.0891 27.696 86.0891 27.152C86.0891 26.704 85.9931 26.3467 85.8011 26.08C85.6091 25.8027 85.3478 25.5787 85.0171 25.408C84.6971 25.2373 84.3238 25.088 83.8971 24.96C83.4811 24.832 83.0438 24.688 82.5851 24.528C81.7211 24.2293 81.0811 23.8613 80.6651 23.424C80.2491 22.976 80.0411 22.3947 80.0411 21.68C80.0305 21.0827 80.1691 20.5547 80.4571 20.096C80.7451 19.6267 81.1505 19.264 81.6731 19.008C82.2065 18.7413 82.8358 18.608 83.5611 18.608C84.2758 18.608 84.8945 18.7413 85.4171 19.008C85.9505 19.2747 86.3611 19.6427 86.6491 20.112C86.9478 20.5813 87.1025 21.1147 87.1131 21.712H85.7051C85.7051 21.4027 85.6251 21.0987 85.4651 20.8C85.3051 20.4907 85.0598 20.24 84.7291 20.048C84.4091 19.856 84.0038 19.76 83.5131 19.76C82.9051 19.7493 82.4038 19.904 82.0091 20.224C81.6251 20.544 81.4331 20.9867 81.4331 21.552C81.4331 22.032 81.5665 22.4 81.8331 22.656C82.1105 22.912 82.4945 23.1253 82.9851 23.296C83.4758 23.456 84.0411 23.6427 84.6811 23.856C85.2145 24.048 85.6945 24.272 86.1211 24.528C86.5478 24.784 86.8785 25.1147 87.1131 25.52C87.3585 25.9253 87.4811 26.4427 87.4811 27.072C87.4811 27.6053 87.3425 28.112 87.0651 28.592C86.7878 29.0613 86.3665 29.4453 85.8011 29.744C85.2465 30.0427 84.5478 30.192 83.7051 30.192ZM92.4431 30C91.7178 30 91.1471 29.824 90.7311 29.472C90.3151 29.12 90.1071 28.4853 90.1071 27.568V23.2H88.7311V22.064H90.1071L90.2831 20.16H91.4511V22.064H93.7871V23.2H91.4511V27.568C91.4511 28.0693 91.5525 28.4107 91.7551 28.592C91.9578 28.7627 92.3151 28.848 92.8271 28.848H93.6591V30H92.4431ZM98.8919 30.192C98.1452 30.192 97.4732 30.0213 96.8759 29.68C96.2785 29.3387 95.8039 28.8587 95.4519 28.24C95.1105 27.6107 94.9399 26.8747 94.9399 26.032C94.9399 25.1893 95.1159 24.4587 95.4679 23.84C95.8199 23.2107 96.2945 22.7253 96.8919 22.384C97.4999 22.0427 98.1772 21.872 98.9239 21.872C99.6705 21.872 100.343 22.0427 100.94 22.384C101.537 22.7253 102.007 23.2107 102.348 23.84C102.7 24.4587 102.876 25.1893 102.876 26.032C102.876 26.8747 102.7 27.6107 102.348 28.24C101.996 28.8587 101.516 29.3387 100.908 29.68C100.311 30.0213 99.6385 30.192 98.8919 30.192ZM98.8919 29.04C99.3505 29.04 99.7772 28.928 100.172 28.704C100.567 28.48 100.887 28.144 101.132 27.696C101.377 27.248 101.5 26.6933 101.5 26.032C101.5 25.3707 101.377 24.816 101.132 24.368C100.897 23.92 100.583 23.584 100.188 23.36C99.7932 23.136 99.3719 23.024 98.9239 23.024C98.4652 23.024 98.0385 23.136 97.6439 23.36C97.2492 23.584 96.9292 23.92 96.6839 24.368C96.4385 24.816 96.3159 25.3707 96.3159 26.032C96.3159 26.6933 96.4385 27.248 96.6839 27.696C96.9292 28.144 97.2439 28.48 97.6279 28.704C98.0225 28.928 98.4439 29.04 98.8919 29.04ZM104.745 30V22.064H105.961L106.073 23.584C106.318 23.0613 106.691 22.6453 107.193 22.336C107.694 22.0267 108.313 21.872 109.049 21.872V23.28H108.681C108.211 23.28 107.779 23.3653 107.385 23.536C106.99 23.696 106.675 23.9733 106.441 24.368C106.206 24.7627 106.089 25.3067 106.089 26V30H104.745ZM113.828 30.192C113.071 30.192 112.399 30.0213 111.812 29.68C111.226 29.328 110.762 28.8427 110.42 28.224C110.09 27.6053 109.924 26.8747 109.924 26.032C109.924 25.2 110.09 24.4747 110.42 23.856C110.751 23.2267 111.21 22.7413 111.796 22.4C112.394 22.048 113.082 21.872 113.86 21.872C114.628 21.872 115.29 22.048 115.844 22.4C116.41 22.7413 116.842 23.1947 117.14 23.76C117.439 24.3253 117.588 24.9333 117.588 25.584C117.588 25.7013 117.583 25.8187 117.572 25.936C117.572 26.0533 117.572 26.1867 117.572 26.336H111.252C111.284 26.944 111.423 27.4507 111.668 27.856C111.924 28.2507 112.239 28.5493 112.612 28.752C112.996 28.9547 113.402 29.056 113.828 29.056C114.383 29.056 114.847 28.928 115.22 28.672C115.594 28.416 115.866 28.0693 116.036 27.632H117.364C117.151 28.368 116.74 28.9813 116.132 29.472C115.535 29.952 114.767 30.192 113.828 30.192ZM113.828 23.008C113.188 23.008 112.618 23.2053 112.116 23.6C111.626 23.984 111.343 24.5493 111.268 25.296H116.26C116.228 24.5813 115.983 24.0213 115.524 23.616C115.066 23.2107 114.5 23.008 113.828 23.008Z" fill="white"/>
</svg>
